%TF.GenerationSoftware,KiCad,Pcbnew,9.0.7*%
%TF.CreationDate,2026-02-22T17:03:13-05:00*%
%TF.ProjectId,USBToEthernet,55534254-6f45-4746-9865-726e65742e6b,rev?*%
%TF.SameCoordinates,Original*%
%TF.FileFunction,Copper,L2,Bot*%
%TF.FilePolarity,Positive*%
%FSLAX46Y46*%
G04 Gerber Fmt 4.6, Leading zero omitted, Abs format (unit mm)*
G04 Created by KiCad (PCBNEW 9.0.7) date 2026-02-22 17:03:13*
%MOMM*%
%LPD*%
G01*
G04 APERTURE LIST*
G04 Aperture macros list*
%AMRoundRect*
0 Rectangle with rounded corners*
0 $1 Rounding radius*
0 $2 $3 $4 $5 $6 $7 $8 $9 X,Y pos of 4 corners*
0 Add a 4 corners polygon primitive as box body*
4,1,4,$2,$3,$4,$5,$6,$7,$8,$9,$2,$3,0*
0 Add four circle primitives for the rounded corners*
1,1,$1+$1,$2,$3*
1,1,$1+$1,$4,$5*
1,1,$1+$1,$6,$7*
1,1,$1+$1,$8,$9*
0 Add four rect primitives between the rounded corners*
20,1,$1+$1,$2,$3,$4,$5,0*
20,1,$1+$1,$4,$5,$6,$7,0*
20,1,$1+$1,$6,$7,$8,$9,0*
20,1,$1+$1,$8,$9,$2,$3,0*%
G04 Aperture macros list end*
%TA.AperFunction,ComponentPad*%
%ADD10R,1.530000X1.530000*%
%TD*%
%TA.AperFunction,ComponentPad*%
%ADD11C,1.530000*%
%TD*%
%TA.AperFunction,ComponentPad*%
%ADD12C,1.905000*%
%TD*%
%TA.AperFunction,ComponentPad*%
%ADD13C,2.355000*%
%TD*%
%TA.AperFunction,ComponentPad*%
%ADD14O,3.250000X1.625000*%
%TD*%
%TA.AperFunction,SMDPad,CuDef*%
%ADD15RoundRect,0.225000X0.225000X0.250000X-0.225000X0.250000X-0.225000X-0.250000X0.225000X-0.250000X0*%
%TD*%
%TA.AperFunction,SMDPad,CuDef*%
%ADD16RoundRect,0.218750X-0.218750X-0.256250X0.218750X-0.256250X0.218750X0.256250X-0.218750X0.256250X0*%
%TD*%
%TA.AperFunction,SMDPad,CuDef*%
%ADD17RoundRect,0.225000X0.250000X-0.225000X0.250000X0.225000X-0.250000X0.225000X-0.250000X-0.225000X0*%
%TD*%
%TA.AperFunction,SMDPad,CuDef*%
%ADD18RoundRect,0.225000X-0.225000X-0.250000X0.225000X-0.250000X0.225000X0.250000X-0.225000X0.250000X0*%
%TD*%
%TA.AperFunction,SMDPad,CuDef*%
%ADD19RoundRect,0.218750X0.256250X-0.218750X0.256250X0.218750X-0.256250X0.218750X-0.256250X-0.218750X0*%
%TD*%
%TA.AperFunction,SMDPad,CuDef*%
%ADD20RoundRect,0.218750X0.218750X0.256250X-0.218750X0.256250X-0.218750X-0.256250X0.218750X-0.256250X0*%
%TD*%
%TA.AperFunction,ViaPad*%
%ADD21C,0.700000*%
%TD*%
%TA.AperFunction,ViaPad*%
%ADD22C,0.600000*%
%TD*%
%TA.AperFunction,ViaPad*%
%ADD23C,0.500000*%
%TD*%
%TA.AperFunction,Conductor*%
%ADD24C,0.200000*%
%TD*%
%TA.AperFunction,Conductor*%
%ADD25C,0.250000*%
%TD*%
G04 APERTURE END LIST*
D10*
%TO.P,J2,1,TRCT3*%
%TO.N,/TR0*%
X104000000Y-82904000D03*
D11*
%TO.P,J2,2,TRD3-*%
%TO.N,/TR2-*%
X104000000Y-84936000D03*
%TO.P,J2,3,TRD3+*%
%TO.N,/TR2+*%
X104000000Y-86968000D03*
%TO.P,J2,4,TRD2+*%
%TO.N,/TR1+*%
X104000000Y-89000000D03*
%TO.P,J2,5,TRD2-*%
%TO.N,/TR1-*%
X104000000Y-91032000D03*
%TO.P,J2,6,TRCT2*%
%TO.N,/TR0*%
X104000000Y-93064000D03*
%TO.P,J2,7,TRCT4*%
X101460000Y-81888000D03*
%TO.P,J2,8,TRD4+*%
%TO.N,/TR3+*%
X101460000Y-83920000D03*
%TO.P,J2,9,TRD4-*%
%TO.N,/TR3-*%
X101460000Y-85952000D03*
%TO.P,J2,10,TRD1-*%
%TO.N,/TR0-*%
X101460000Y-90016000D03*
%TO.P,J2,11,TRD1+*%
%TO.N,/TR0+*%
X101460000Y-92048000D03*
%TO.P,J2,12,TRCT1*%
%TO.N,/TR0*%
X101460000Y-94080000D03*
D12*
%TO.P,J2,13*%
%TO.N,/LED0*%
X116954000Y-80465600D03*
%TO.P,J2,14*%
%TO.N,Net-(J2-Pad14)*%
X119494000Y-80465600D03*
%TO.P,J2,15*%
%TO.N,/LED2*%
X114414000Y-95502400D03*
%TO.P,J2,16*%
%TO.N,Net-(J2-Pad16)*%
X116954000Y-95502400D03*
%TO.P,J2,17*%
%TO.N,/LED1*%
X119494000Y-95502400D03*
D13*
%TO.P,J2,S1,SHIELD*%
%TO.N,GND*%
X110604000Y-79195600D03*
%TO.P,J2,S2,SHIELD*%
X110604000Y-96772400D03*
%TD*%
D14*
%TO.P,J1,S1,SHIELD*%
%TO.N,GND*%
X62550000Y-82050000D03*
%TO.P,J1,S2*%
%TO.N,N/C*%
X62550000Y-93750000D03*
%TD*%
D15*
%TO.P,C22,1*%
%TO.N,+3V3*%
X82650000Y-88550000D03*
%TO.P,C22,2*%
%TO.N,GND*%
X81100000Y-88550000D03*
%TD*%
D16*
%TO.P,FB2,1*%
%TO.N,+1V2*%
X80525000Y-85400000D03*
%TO.P,FB2,2*%
%TO.N,/VDD12USBPLL*%
X82100000Y-85400000D03*
%TD*%
D17*
%TO.P,C24,1*%
%TO.N,+3V3*%
X88750000Y-81050000D03*
%TO.P,C24,2*%
%TO.N,GND*%
X88750000Y-79500000D03*
%TD*%
D16*
%TO.P,FB3,1*%
%TO.N,+3V3*%
X81025000Y-83900000D03*
%TO.P,FB3,2*%
%TO.N,/VDD33A*%
X82600000Y-83900000D03*
%TD*%
D18*
%TO.P,C16,1*%
%TO.N,+1V2*%
X94900000Y-88400000D03*
%TO.P,C16,2*%
%TO.N,GND*%
X96450000Y-88400000D03*
%TD*%
%TO.P,C17,1*%
%TO.N,/VDD12PLL*%
X94400000Y-86800000D03*
%TO.P,C17,2*%
%TO.N,GND*%
X95950000Y-86800000D03*
%TD*%
D19*
%TO.P,FB5,1*%
%TO.N,+1V2*%
X93300000Y-94800000D03*
%TO.P,FB5,2*%
%TO.N,/VDD12A*%
X93300000Y-93225000D03*
%TD*%
D15*
%TO.P,C23,1*%
%TO.N,+3V3*%
X82200000Y-87000000D03*
%TO.P,C23,2*%
%TO.N,GND*%
X80650000Y-87000000D03*
%TD*%
D20*
%TO.P,FB1,1*%
%TO.N,+1V2*%
X99087500Y-86800000D03*
%TO.P,FB1,2*%
%TO.N,/VDD12PLL*%
X97512500Y-86800000D03*
%TD*%
D15*
%TO.P,C25,1*%
%TO.N,/VDD12A*%
X96150000Y-90200000D03*
%TO.P,C25,2*%
%TO.N,GND*%
X94600000Y-90200000D03*
%TD*%
D21*
%TO.N,GND*%
X87454905Y-88445586D03*
X86315002Y-89585489D03*
X89734713Y-85781232D03*
X90888350Y-85163212D03*
X85545910Y-87456753D03*
X89504004Y-86645341D03*
X89223835Y-88359317D03*
X86059572Y-86760705D03*
X87312093Y-85672989D03*
X90756525Y-86167405D03*
X90641161Y-88128589D03*
X90608200Y-89677760D03*
X89256796Y-89644798D03*
X87674665Y-89644798D03*
X88325000Y-87475000D03*
D22*
X84225000Y-91650000D03*
X74950000Y-93775000D03*
D23*
X80400000Y-93300000D03*
X98000000Y-76000000D03*
D22*
X82950000Y-96300000D03*
X109300000Y-98675000D03*
X85175000Y-99475000D03*
X75725000Y-95675000D03*
X88424000Y-95775583D03*
X82750000Y-99475000D03*
D23*
X74475000Y-87500000D03*
D22*
X78700000Y-77350000D03*
X94675000Y-94775000D03*
D23*
X82600000Y-91800000D03*
D22*
X108775000Y-78275000D03*
X90000000Y-96250000D03*
X100350000Y-77875000D03*
D23*
X74000000Y-89500000D03*
D22*
X81240882Y-87571431D03*
X105425000Y-77875000D03*
X98275000Y-83975000D03*
D23*
X76000000Y-98000000D03*
D22*
X81675000Y-77850000D03*
D23*
X95975000Y-76425000D03*
D22*
X81525000Y-97750000D03*
X91425000Y-98325000D03*
D23*
X76000000Y-100000000D03*
D22*
%TO.N,/VBUS*%
X73798173Y-91258014D03*
X70800000Y-91300000D03*
%TO.N,+3V3*%
X88174265Y-82075735D03*
D23*
X82600000Y-80750000D03*
D22*
X115050000Y-76575000D03*
X91100000Y-82000000D03*
D23*
X75100000Y-84950000D03*
X89288854Y-96711146D03*
X83081781Y-86050000D03*
D22*
X99500000Y-76000000D03*
D23*
X85950000Y-97250000D03*
X76700000Y-91850000D03*
X83400000Y-88750000D03*
X82950000Y-101700000D03*
X84350000Y-83050000D03*
%TO.N,+1V2*%
X83600000Y-94750000D03*
X81100000Y-79850000D03*
X93753345Y-87850541D03*
X80750000Y-95700000D03*
D22*
X79850000Y-85800000D03*
D23*
X70900000Y-89100000D03*
%TO.N,/TR0*%
X96000000Y-93800000D03*
X99900000Y-85400000D03*
X96800000Y-81200000D03*
X98934698Y-88127495D03*
X96900000Y-83600000D03*
X97900000Y-90600000D03*
%TO.N,/VDD12PLL*%
X94023512Y-87204775D03*
%TO.N,/VDD12USBPLL*%
X83392848Y-85422914D03*
%TO.N,/VDD33A*%
X83900000Y-83600000D03*
%TO.N,/VDD12A*%
X93086659Y-88368578D03*
X93688909Y-90011091D03*
X92300000Y-83800000D03*
X93100000Y-85750000D03*
%TO.N,/LED2*%
X86800000Y-94050000D03*
X87400000Y-92500000D03*
%TO.N,/LED0*%
X86100000Y-92750000D03*
%TO.N,/LED1*%
X86792823Y-92850001D03*
X91300000Y-101300000D03*
X86050000Y-93950000D03*
%TO.N,Net-(U1B-USBRBIAS)*%
X83200000Y-84750000D03*
X84600000Y-81425000D03*
%TO.N,/RESET*%
X83250000Y-93900000D03*
X91600000Y-92637052D03*
%TO.N,/MISO*%
X83500000Y-90250000D03*
X81500000Y-91850000D03*
%TD*%
D24*
%TO.N,GND*%
X84225000Y-91650000D02*
X88300000Y-87575000D01*
X88300000Y-87575000D02*
X88300000Y-87500000D01*
%TO.N,/LED0*%
X86100000Y-92750000D02*
X84400000Y-92750000D01*
X91701000Y-82248943D02*
X91701000Y-81799000D01*
X84400000Y-92750000D02*
X83625000Y-91975000D01*
X96900000Y-76600000D02*
X108874485Y-76600000D01*
X83625000Y-91975000D02*
X83625000Y-90904232D01*
X91401000Y-83466100D02*
X91401000Y-82548943D01*
X83625000Y-90904232D02*
X84051000Y-90478232D01*
X91401000Y-82548943D02*
X91701000Y-82248943D01*
X84051000Y-90478232D02*
X84051000Y-90149000D01*
X84051000Y-90149000D02*
X89299000Y-84901000D01*
X89299000Y-84901000D02*
X89966100Y-84901000D01*
X89966100Y-84901000D02*
X91401000Y-83466100D01*
X91701000Y-81799000D02*
X96900000Y-76600000D01*
%TO.N,GND*%
X85175000Y-99475000D02*
X82750000Y-99475000D01*
X80669451Y-87000000D02*
X81240882Y-87571431D01*
X82400000Y-92600000D02*
X82600000Y-92400000D01*
X95950000Y-87550000D02*
X95950000Y-86800000D01*
X76000000Y-100000000D02*
X76000000Y-98000000D01*
X89910146Y-96160146D02*
X90000000Y-96250000D01*
X81675000Y-77850000D02*
X79200000Y-77850000D01*
X82600000Y-92400000D02*
X82600000Y-91800000D01*
X82950000Y-96300000D02*
X81650000Y-97600000D01*
X74950000Y-93775000D02*
X74950000Y-94900000D01*
X80650000Y-87000000D02*
X80669451Y-87000000D01*
X79200000Y-77850000D02*
X78700000Y-77350000D01*
X89250000Y-96160146D02*
X89910146Y-96160146D01*
X81100000Y-92600000D02*
X82400000Y-92600000D01*
X80400000Y-93300000D02*
X81100000Y-92600000D01*
X74699000Y-87724000D02*
X74699000Y-88801000D01*
X94600000Y-94700000D02*
X94675000Y-94775000D01*
X100350000Y-77875000D02*
X105425000Y-77875000D01*
X96450000Y-88400000D02*
X97274000Y-87576000D01*
X91425000Y-98325000D02*
X90275000Y-99475000D01*
X74950000Y-94900000D02*
X75725000Y-95675000D01*
X94600000Y-90200000D02*
X94600000Y-94700000D01*
X88808563Y-96160146D02*
X89250000Y-96160146D01*
X96450000Y-88400000D02*
X96450000Y-88050000D01*
X96075000Y-76425000D02*
X96500000Y-76000000D01*
X90275000Y-99475000D02*
X85175000Y-99475000D01*
X88424000Y-95775583D02*
X88808563Y-96160146D01*
X74475000Y-87500000D02*
X74699000Y-87724000D01*
X97952600Y-87576000D02*
X98275000Y-87253600D01*
X96500000Y-76000000D02*
X98000000Y-76000000D01*
X74699000Y-88801000D02*
X74000000Y-89500000D01*
X98275000Y-87253600D02*
X98275000Y-83975000D01*
X81650000Y-97600000D02*
X81650000Y-97825000D01*
X95975000Y-76425000D02*
X96075000Y-76425000D01*
X96450000Y-88050000D02*
X95950000Y-87550000D01*
X97274000Y-87576000D02*
X97952600Y-87576000D01*
%TO.N,/VBUS*%
X73756187Y-91300000D02*
X73798173Y-91258014D01*
X70800000Y-91300000D02*
X73756187Y-91300000D01*
%TO.N,+3V3*%
X81263500Y-86063500D02*
X81263500Y-84138500D01*
X88250000Y-81750000D02*
X88000000Y-82000000D01*
X88100000Y-84600000D02*
X87100000Y-84600000D01*
X85950000Y-97000000D02*
X85950000Y-97250000D01*
X82200000Y-87000000D02*
X81263500Y-86063500D01*
X82950000Y-101700000D02*
X82650000Y-101700000D01*
X88500000Y-84200000D02*
X88800000Y-84500000D01*
X88500000Y-82750000D02*
X88500000Y-84200000D01*
X75100000Y-90250000D02*
X76700000Y-91850000D01*
X82600000Y-80750000D02*
X88450000Y-80750000D01*
X83100000Y-88550000D02*
X83300000Y-88750000D01*
X82650000Y-87450000D02*
X82200000Y-87000000D01*
X83231781Y-86200000D02*
X83081781Y-86050000D01*
X88000000Y-82250000D02*
X88500000Y-82750000D01*
X82650000Y-88550000D02*
X83100000Y-88550000D01*
X87100000Y-84600000D02*
X85500000Y-86200000D01*
X114475000Y-76000000D02*
X115050000Y-76575000D01*
X88750000Y-81050000D02*
X88750000Y-80725000D01*
X99500000Y-76000000D02*
X114475000Y-76000000D01*
X91000000Y-82400000D02*
X91000000Y-82100000D01*
X88750000Y-81050000D02*
X88250000Y-81550000D01*
X91000000Y-83300000D02*
X91000000Y-82400000D01*
X76700000Y-95750000D02*
X76700000Y-91850000D01*
X81650000Y-83050000D02*
X84350000Y-83050000D01*
X86238854Y-96711146D02*
X85950000Y-97000000D01*
X82200000Y-87000000D02*
X82200000Y-86931781D01*
X89288854Y-96711146D02*
X86238854Y-96711146D01*
X85500000Y-86200000D02*
X83231781Y-86200000D01*
X82650000Y-88550000D02*
X82650000Y-87450000D01*
X88450000Y-80750000D02*
X88750000Y-81050000D01*
X89800000Y-84500000D02*
X91000000Y-83300000D01*
X83300000Y-88750000D02*
X83400000Y-88750000D01*
X88000000Y-82250000D02*
X88174265Y-82075735D01*
X82200000Y-86931781D02*
X83081781Y-86050000D01*
X88750000Y-80725000D02*
X88775000Y-80700000D01*
X81263500Y-84138500D02*
X81025000Y-83900000D01*
X91000000Y-82100000D02*
X91100000Y-82000000D01*
X88500000Y-84200000D02*
X88100000Y-84600000D01*
X81025000Y-83900000D02*
X81025000Y-83675000D01*
X88800000Y-84500000D02*
X89800000Y-84500000D01*
X81025000Y-83675000D02*
X81650000Y-83050000D01*
X88250000Y-81550000D02*
X88250000Y-81750000D01*
X82650000Y-101700000D02*
X76700000Y-95750000D01*
X75100000Y-84950000D02*
X75100000Y-90250000D01*
X88000000Y-82000000D02*
X88000000Y-82250000D01*
%TO.N,+1V2*%
X69200000Y-89100000D02*
X70900000Y-89100000D01*
X93950000Y-95450000D02*
X95150000Y-95450000D01*
X97671768Y-90049000D02*
X97883900Y-90049000D01*
X79850000Y-85800000D02*
X80125000Y-85800000D01*
X80750000Y-95700000D02*
X82650000Y-95700000D01*
X95449000Y-93571768D02*
X95599000Y-93421768D01*
X63980272Y-85600000D02*
X63580272Y-86000000D01*
X63580272Y-86000000D02*
X63526000Y-86000000D01*
X98383698Y-88408698D02*
X98383698Y-87899263D01*
X83600000Y-94750000D02*
X84000000Y-95150000D01*
X82650000Y-95700000D02*
X83600000Y-94750000D01*
X92950000Y-95150000D02*
X93300000Y-94800000D01*
X98400000Y-88425000D02*
X98383698Y-88408698D01*
X98400000Y-88425000D02*
X98375000Y-88450000D01*
X97625110Y-88450000D02*
X96875110Y-89200000D01*
X93300000Y-94800000D02*
X93950000Y-95450000D01*
X98383698Y-87899263D02*
X98706466Y-87576495D01*
X97349000Y-90371768D02*
X97671768Y-90049000D01*
X98400000Y-89532900D02*
X98400000Y-88425000D01*
X66400000Y-85600000D02*
X63980272Y-85600000D01*
X95599000Y-93421768D02*
X95599000Y-92333900D01*
X96875110Y-89200000D02*
X95717100Y-89200000D01*
X98706466Y-87576495D02*
X98773505Y-87576495D01*
X95599000Y-92333900D02*
X97349000Y-90583900D01*
X67800000Y-84200000D02*
X66400000Y-85600000D01*
X63526000Y-86000000D02*
X63500000Y-86026000D01*
X63500000Y-86026000D02*
X63500000Y-89600000D01*
X99087500Y-87262500D02*
X99087500Y-86800000D01*
X98375000Y-88450000D02*
X97625110Y-88450000D01*
X64100000Y-90200000D02*
X68100000Y-90200000D01*
X81100000Y-79850000D02*
X80950000Y-79850000D01*
X97883900Y-90049000D02*
X98400000Y-89532900D01*
X94900000Y-88400000D02*
X94400000Y-87900000D01*
X95449000Y-95151000D02*
X95449000Y-93571768D01*
X95717100Y-89200000D02*
X94917100Y-88400000D01*
X80125000Y-85800000D02*
X80525000Y-85400000D01*
X63500000Y-89600000D02*
X64100000Y-90200000D01*
X95150000Y-95450000D02*
X95449000Y-95151000D01*
X84000000Y-95150000D02*
X92950000Y-95150000D01*
X94400000Y-87900000D02*
X93802804Y-87900000D01*
X98773505Y-87576495D02*
X99087500Y-87262500D01*
X94917100Y-88400000D02*
X94900000Y-88400000D01*
X80950000Y-79850000D02*
X76600000Y-84200000D01*
X97349000Y-90583900D02*
X97349000Y-90371768D01*
X76600000Y-84200000D02*
X67800000Y-84200000D01*
X93802804Y-87900000D02*
X93753345Y-87850541D01*
X68100000Y-90200000D02*
X69200000Y-89100000D01*
%TO.N,/TR0*%
X96800000Y-83500000D02*
X96900000Y-83600000D01*
X99000000Y-88192797D02*
X98934698Y-88127495D01*
X98934698Y-89565302D02*
X97900000Y-90600000D01*
X96000000Y-93400000D02*
X96000000Y-93800000D01*
X97900000Y-90600000D02*
X96000000Y-92500000D01*
X99900000Y-85400000D02*
X99900000Y-87300000D01*
X96000000Y-93400000D02*
X96000000Y-93500000D01*
X96800000Y-81200000D02*
X96800000Y-83500000D01*
X99000000Y-88200000D02*
X99000000Y-88192797D01*
X96000000Y-92500000D02*
X96000000Y-93400000D01*
X99900000Y-87300000D02*
X99000000Y-88200000D01*
X98934698Y-88127495D02*
X98934698Y-89565302D01*
%TO.N,/VDD12PLL*%
X94023512Y-87204775D02*
X94023512Y-87176488D01*
X96737500Y-86025000D02*
X95175000Y-86025000D01*
X94023512Y-87176488D02*
X94400000Y-86800000D01*
X95175000Y-86025000D02*
X94400000Y-86800000D01*
X97512500Y-86800000D02*
X96737500Y-86025000D01*
%TO.N,/VDD12USBPLL*%
X82122914Y-85422914D02*
X82100000Y-85400000D01*
X82200000Y-85500000D02*
X82100000Y-85400000D01*
X83392848Y-85422914D02*
X82122914Y-85422914D01*
%TO.N,/VDD33A*%
X83900000Y-83600000D02*
X83600000Y-83900000D01*
X83600000Y-83900000D02*
X82600000Y-83900000D01*
%TO.N,/VDD12A*%
X91700000Y-89750000D02*
X91600000Y-89650000D01*
X91650000Y-84500000D02*
X91900000Y-84250000D01*
X91600000Y-88400000D02*
X91600000Y-89650000D01*
X91900000Y-84250000D02*
X91900000Y-84200000D01*
X91631422Y-88368578D02*
X91600000Y-88400000D01*
X93636091Y-90011091D02*
X93375000Y-89750000D01*
X93688909Y-90011091D02*
X93636091Y-90011091D01*
X91600000Y-90900000D02*
X91600000Y-89650000D01*
X96150000Y-90200000D02*
X95126000Y-89176000D01*
X95126000Y-89176000D02*
X94376000Y-89176000D01*
X93375000Y-89750000D02*
X91700000Y-89750000D01*
X93100000Y-85750000D02*
X91850000Y-85750000D01*
X93300000Y-93225000D02*
X93300000Y-92600000D01*
X91631422Y-88368578D02*
X91631422Y-85968578D01*
X91900000Y-84200000D02*
X92300000Y-83800000D01*
X91850000Y-85750000D02*
X91650000Y-85950000D01*
X94376000Y-89176000D02*
X93568578Y-88368578D01*
X91631422Y-85968578D02*
X91650000Y-85950000D01*
X93568578Y-88368578D02*
X93086659Y-88368578D01*
X91650000Y-85950000D02*
X91650000Y-84500000D01*
X93300000Y-92600000D02*
X91600000Y-90900000D01*
X93086659Y-88368578D02*
X91631422Y-88368578D01*
%TO.N,/LED2*%
X87400000Y-92500000D02*
X87400000Y-93450000D01*
X87400000Y-93450000D02*
X86800000Y-94050000D01*
D25*
%TO.N,/LED0*%
X113088400Y-76600000D02*
X116954000Y-80465600D01*
X108874485Y-76600000D02*
X113088400Y-76600000D01*
D24*
%TO.N,/LED1*%
X111186000Y-101300000D02*
X113550000Y-98936000D01*
X86792823Y-93207177D02*
X86050000Y-93950000D01*
X119494000Y-95502400D02*
X116996400Y-98000000D01*
X91300000Y-101300000D02*
X111186000Y-101300000D01*
X86792823Y-92850001D02*
X86792823Y-93007177D01*
X114486000Y-98000000D02*
X113550000Y-98936000D01*
X86792823Y-92850001D02*
X86792823Y-93207177D01*
X116996400Y-98000000D02*
X114486000Y-98000000D01*
%TO.N,Net-(U1B-USBRBIAS)*%
X86050000Y-81500000D02*
X86550000Y-82000000D01*
X86550000Y-82000000D02*
X86550000Y-84250000D01*
X86350000Y-84450000D02*
X86050000Y-84750000D01*
X84600000Y-81425000D02*
X85975000Y-81425000D01*
X86050000Y-84750000D02*
X83200000Y-84750000D01*
X85975000Y-81425000D02*
X86050000Y-81500000D01*
X86550000Y-84250000D02*
X86350000Y-84450000D01*
%TO.N,/RESET*%
X91462948Y-92637052D02*
X89350000Y-94750000D01*
X89350000Y-94750000D02*
X84379232Y-94750000D01*
X84379232Y-94750000D02*
X83828232Y-94199000D01*
X91600000Y-92637052D02*
X91462948Y-92637052D01*
X83828232Y-94199000D02*
X83549000Y-94199000D01*
X83549000Y-94199000D02*
X83250000Y-93900000D01*
%TO.N,/MISO*%
X83500000Y-90250000D02*
X83100000Y-90250000D01*
X83100000Y-90250000D02*
X81500000Y-91850000D01*
%TD*%
%TA.AperFunction,Conductor*%
%TO.N,GND*%
G36*
X119012733Y-74500751D02*
G01*
X119051842Y-74503540D01*
X119214949Y-74515172D01*
X119228880Y-74517169D01*
X119423569Y-74559394D01*
X119437077Y-74563348D01*
X119623789Y-74632767D01*
X119636601Y-74638599D01*
X119811582Y-74733814D01*
X119823438Y-74741405D01*
X119825283Y-74742781D01*
X119983126Y-74860477D01*
X119993789Y-74869677D01*
X120134973Y-75010212D01*
X120144216Y-75020825D01*
X120264023Y-75179961D01*
X120271671Y-75191786D01*
X120367691Y-75366325D01*
X120373585Y-75379117D01*
X120443861Y-75565503D01*
X120447880Y-75579000D01*
X120490999Y-75773474D01*
X120493062Y-75787406D01*
X120508438Y-75989836D01*
X120508721Y-75996875D01*
X120508966Y-76049689D01*
X120508966Y-76049691D01*
X120523499Y-79194896D01*
X120523500Y-79195353D01*
X120523500Y-79484083D01*
X120504593Y-79542274D01*
X120455093Y-79578238D01*
X120393907Y-79578238D01*
X120354498Y-79554088D01*
X120310275Y-79509865D01*
X120150715Y-79393938D01*
X120150714Y-79393937D01*
X120150712Y-79393936D01*
X119974985Y-79304399D01*
X119787407Y-79243451D01*
X119592616Y-79212600D01*
X119592613Y-79212600D01*
X119395387Y-79212600D01*
X119395384Y-79212600D01*
X119200592Y-79243451D01*
X119013014Y-79304399D01*
X118837287Y-79393936D01*
X118677726Y-79509864D01*
X118538264Y-79649326D01*
X118422336Y-79808887D01*
X118332799Y-79984614D01*
X118318155Y-80029685D01*
X118282191Y-80079185D01*
X118224000Y-80098092D01*
X118165809Y-80079185D01*
X118129845Y-80029685D01*
X118115201Y-79984615D01*
X118025662Y-79808885D01*
X117909735Y-79649325D01*
X117770275Y-79509865D01*
X117610715Y-79393938D01*
X117610714Y-79393937D01*
X117610712Y-79393936D01*
X117434985Y-79304399D01*
X117247407Y-79243451D01*
X117052616Y-79212600D01*
X117052613Y-79212600D01*
X116855387Y-79212600D01*
X116855384Y-79212600D01*
X116660590Y-79243452D01*
X116471487Y-79304894D01*
X116410302Y-79304893D01*
X116370891Y-79280743D01*
X113659652Y-76569504D01*
X113631875Y-76514987D01*
X113641446Y-76454555D01*
X113684711Y-76411290D01*
X113729656Y-76400500D01*
X114268099Y-76400500D01*
X114275696Y-76402968D01*
X114283586Y-76401719D01*
X114304241Y-76412243D01*
X114326290Y-76419407D01*
X114338103Y-76429496D01*
X114420504Y-76511897D01*
X114448281Y-76566414D01*
X114449500Y-76581901D01*
X114449500Y-76654057D01*
X114490423Y-76806784D01*
X114569480Y-76943716D01*
X114681284Y-77055520D01*
X114818216Y-77134577D01*
X114970943Y-77175500D01*
X114970945Y-77175500D01*
X115129055Y-77175500D01*
X115129057Y-77175500D01*
X115281784Y-77134577D01*
X115418716Y-77055520D01*
X115530520Y-76943716D01*
X115609577Y-76806784D01*
X115650500Y-76654057D01*
X115650500Y-76495943D01*
X115609577Y-76343216D01*
X115530520Y-76206284D01*
X115418716Y-76094480D01*
X115281784Y-76015423D01*
X115129057Y-75974500D01*
X115129055Y-75974500D01*
X115056901Y-75974500D01*
X114998710Y-75955593D01*
X114986898Y-75945504D01*
X114720913Y-75679520D01*
X114720908Y-75679516D01*
X114629591Y-75626794D01*
X114629593Y-75626794D01*
X114590070Y-75616204D01*
X114527727Y-75599500D01*
X114527725Y-75599500D01*
X99989744Y-75599500D01*
X99931553Y-75580593D01*
X99919741Y-75570504D01*
X99868718Y-75519482D01*
X99868716Y-75519480D01*
X99731784Y-75440423D01*
X99579057Y-75399500D01*
X99420943Y-75399500D01*
X99268216Y-75440423D01*
X99131284Y-75519480D01*
X99019480Y-75631284D01*
X98940423Y-75768216D01*
X98899500Y-75920944D01*
X98899500Y-76079057D01*
X98900347Y-76085491D01*
X98897807Y-76085825D01*
X98895174Y-76135987D01*
X98856664Y-76183533D01*
X98802753Y-76199500D01*
X96847273Y-76199500D01*
X96796343Y-76213146D01*
X96745411Y-76226793D01*
X96688737Y-76259515D01*
X96688736Y-76259514D01*
X96654088Y-76279519D01*
X91487822Y-81445783D01*
X91433305Y-81473560D01*
X91372873Y-81463989D01*
X91368319Y-81461516D01*
X91331785Y-81440423D01*
X91260546Y-81421335D01*
X91179057Y-81399500D01*
X91020943Y-81399500D01*
X90868216Y-81440423D01*
X90731284Y-81519480D01*
X90619480Y-81631284D01*
X90540423Y-81768216D01*
X90499500Y-81920943D01*
X90499500Y-82079057D01*
X90540423Y-82231784D01*
X90584150Y-82307522D01*
X90586237Y-82311136D01*
X90599500Y-82360636D01*
X90599500Y-83093099D01*
X90580593Y-83151290D01*
X90570504Y-83163103D01*
X89663103Y-84070504D01*
X89608586Y-84098281D01*
X89593099Y-84099500D01*
X89006901Y-84099500D01*
X88999303Y-84097031D01*
X88991414Y-84098281D01*
X88970758Y-84087756D01*
X88948710Y-84080593D01*
X88936897Y-84070504D01*
X88929496Y-84063103D01*
X88901719Y-84008586D01*
X88900500Y-83993099D01*
X88900500Y-82697275D01*
X88900499Y-82697269D01*
X88895013Y-82676794D01*
X88873207Y-82595412D01*
X88846843Y-82549750D01*
X88820480Y-82504087D01*
X88745913Y-82429520D01*
X88745910Y-82429518D01*
X88744025Y-82427633D01*
X88741042Y-82424027D01*
X88731416Y-82399714D01*
X88719543Y-82376411D01*
X88720299Y-82371634D01*
X88718519Y-82367138D01*
X88725023Y-82341809D01*
X88729114Y-82315979D01*
X88731589Y-82311422D01*
X88733840Y-82307522D01*
X88733839Y-82307522D01*
X88733842Y-82307519D01*
X88774765Y-82154792D01*
X88774765Y-81996678D01*
X88755591Y-81925120D01*
X88758793Y-81864022D01*
X88797298Y-81816472D01*
X88851218Y-81800500D01*
X89041142Y-81800500D01*
X89041144Y-81800500D01*
X89125590Y-81790359D01*
X89259975Y-81737364D01*
X89375078Y-81650078D01*
X89462364Y-81534975D01*
X89515359Y-81400590D01*
X89525500Y-81316144D01*
X89525500Y-80783856D01*
X89515359Y-80699410D01*
X89462364Y-80565025D01*
X89375078Y-80449922D01*
X89259975Y-80362636D01*
X89259970Y-80362634D01*
X89257075Y-80361006D01*
X89255337Y-80359120D01*
X89254579Y-80358545D01*
X89254682Y-80358408D01*
X89215617Y-80316007D01*
X89208528Y-80255233D01*
X89238514Y-80201900D01*
X89257079Y-80188412D01*
X89259729Y-80186922D01*
X89374717Y-80099723D01*
X89374723Y-80099717D01*
X89461922Y-79984729D01*
X89514867Y-79850468D01*
X89524999Y-79766104D01*
X89525000Y-79766100D01*
X89525000Y-79650001D01*
X89524999Y-79650000D01*
X87975001Y-79650000D01*
X87975000Y-79650001D01*
X87975000Y-79766104D01*
X87985132Y-79850468D01*
X88038077Y-79984729D01*
X88125276Y-80099717D01*
X88125282Y-80099723D01*
X88220087Y-80171616D01*
X88255030Y-80221843D01*
X88253776Y-80283015D01*
X88216806Y-80331768D01*
X88160268Y-80349500D01*
X83019031Y-80349500D01*
X82960840Y-80330593D01*
X82949033Y-80320509D01*
X82938015Y-80309491D01*
X82938012Y-80309489D01*
X82938010Y-80309487D01*
X82812488Y-80237017D01*
X82812489Y-80237017D01*
X82755859Y-80221843D01*
X82672475Y-80199500D01*
X82527525Y-80199500D01*
X82465790Y-80216041D01*
X82387510Y-80237017D01*
X82261989Y-80309487D01*
X82159487Y-80411989D01*
X82087017Y-80537510D01*
X82079644Y-80565027D01*
X82049500Y-80677525D01*
X82049500Y-80822475D01*
X82060087Y-80861985D01*
X82087017Y-80962489D01*
X82159487Y-81088010D01*
X82159489Y-81088012D01*
X82159491Y-81088015D01*
X82261985Y-81190509D01*
X82261987Y-81190510D01*
X82261989Y-81190512D01*
X82387511Y-81262982D01*
X82387512Y-81262982D01*
X82387515Y-81262984D01*
X82527525Y-81300500D01*
X82527526Y-81300500D01*
X82672474Y-81300500D01*
X82672475Y-81300500D01*
X82812485Y-81262984D01*
X82812487Y-81262982D01*
X82812489Y-81262982D01*
X82938010Y-81190512D01*
X82938010Y-81190511D01*
X82938015Y-81190509D01*
X82949029Y-81179494D01*
X83003544Y-81151719D01*
X83019031Y-81150500D01*
X83974613Y-81150500D01*
X84032804Y-81169407D01*
X84068768Y-81218907D01*
X84070240Y-81275123D01*
X84049500Y-81352525D01*
X84049500Y-81497475D01*
X84066479Y-81560840D01*
X84087017Y-81637489D01*
X84159487Y-81763010D01*
X84159489Y-81763012D01*
X84159491Y-81763015D01*
X84261985Y-81865509D01*
X84261987Y-81865510D01*
X84261989Y-81865512D01*
X84387511Y-81937982D01*
X84387512Y-81937982D01*
X84387515Y-81937984D01*
X84527525Y-81975500D01*
X84527526Y-81975500D01*
X84672474Y-81975500D01*
X84672475Y-81975500D01*
X84812485Y-81937984D01*
X84812487Y-81937982D01*
X84812489Y-81937982D01*
X84938010Y-81865512D01*
X84938010Y-81865511D01*
X84938015Y-81865509D01*
X84949029Y-81854494D01*
X85003544Y-81826719D01*
X85019031Y-81825500D01*
X85768100Y-81825500D01*
X85826291Y-81844407D01*
X85838103Y-81854496D01*
X86120503Y-82136895D01*
X86148281Y-82191412D01*
X86149500Y-82206899D01*
X86149500Y-84043099D01*
X86130593Y-84101290D01*
X86120502Y-84113104D01*
X86090162Y-84143442D01*
X86090163Y-84143443D01*
X86090162Y-84143444D01*
X86090161Y-84143443D01*
X86090161Y-84143444D01*
X85913103Y-84320503D01*
X85858586Y-84348281D01*
X85843099Y-84349500D01*
X83955901Y-84349500D01*
X83933853Y-84342336D01*
X83910956Y-84338710D01*
X83905307Y-84333061D01*
X83897710Y-84330593D01*
X83884082Y-84311836D01*
X83867691Y-84295445D01*
X83866441Y-84287555D01*
X83861746Y-84281093D01*
X83861746Y-84257907D01*
X83858120Y-84235013D01*
X83861746Y-84227896D01*
X83861746Y-84219907D01*
X83885897Y-84180496D01*
X83886897Y-84179496D01*
X83941414Y-84151719D01*
X83956901Y-84150500D01*
X83972474Y-84150500D01*
X83972475Y-84150500D01*
X84112485Y-84112984D01*
X84112487Y-84112982D01*
X84112489Y-84112982D01*
X84238010Y-84040512D01*
X84238010Y-84040511D01*
X84238015Y-84040509D01*
X84340509Y-83938015D01*
X84404723Y-83826794D01*
X84412982Y-83812489D01*
X84412982Y-83812487D01*
X84412984Y-83812485D01*
X84450500Y-83672475D01*
X84450500Y-83668955D01*
X84451279Y-83666556D01*
X84451347Y-83666042D01*
X84451442Y-83666054D01*
X84469407Y-83610764D01*
X84518907Y-83574800D01*
X84523856Y-83573334D01*
X84562485Y-83562984D01*
X84688015Y-83490509D01*
X84790509Y-83388015D01*
X84804680Y-83363471D01*
X84862982Y-83262489D01*
X84862982Y-83262487D01*
X84862984Y-83262485D01*
X84900500Y-83122475D01*
X84900500Y-82977525D01*
X84862984Y-82837515D01*
X84862982Y-82837512D01*
X84862982Y-82837510D01*
X84790512Y-82711989D01*
X84790510Y-82711987D01*
X84790509Y-82711985D01*
X84688015Y-82609491D01*
X84688012Y-82609489D01*
X84688010Y-82609487D01*
X84562488Y-82537017D01*
X84562489Y-82537017D01*
X84532896Y-82529087D01*
X84422475Y-82499500D01*
X84277525Y-82499500D01*
X84215790Y-82516041D01*
X84137510Y-82537017D01*
X84011989Y-82609487D01*
X84011988Y-82609488D01*
X84011985Y-82609490D01*
X84011985Y-82609491D01*
X84000970Y-82620505D01*
X83946456Y-82648281D01*
X83930969Y-82649500D01*
X81597273Y-82649500D01*
X81495413Y-82676793D01*
X81495412Y-82676793D01*
X81495410Y-82676794D01*
X81459937Y-82697275D01*
X81434459Y-82711985D01*
X81428146Y-82715630D01*
X81404084Y-82729522D01*
X81038102Y-83095504D01*
X80983586Y-83123281D01*
X80968099Y-83124500D01*
X80765595Y-83124500D01*
X80682151Y-83134521D01*
X80549370Y-83186883D01*
X80549366Y-83186886D01*
X80435636Y-83273130D01*
X80435630Y-83273136D01*
X80349386Y-83386866D01*
X80349383Y-83386870D01*
X80297021Y-83519651D01*
X80287000Y-83603095D01*
X80287000Y-84196904D01*
X80297021Y-84280348D01*
X80349383Y-84413129D01*
X80349384Y-84413131D01*
X80349385Y-84413132D01*
X80363160Y-84431297D01*
X80389234Y-84465681D01*
X80409329Y-84523472D01*
X80391618Y-84582038D01*
X80342865Y-84619008D01*
X80310350Y-84624500D01*
X80265595Y-84624500D01*
X80182151Y-84634521D01*
X80049370Y-84686883D01*
X80049366Y-84686886D01*
X79935636Y-84773130D01*
X79935630Y-84773136D01*
X79849386Y-84886866D01*
X79849383Y-84886870D01*
X79797021Y-85019651D01*
X79787000Y-85103095D01*
X79787000Y-85119232D01*
X79768093Y-85177423D01*
X79718593Y-85213387D01*
X79713629Y-85214857D01*
X79618216Y-85240423D01*
X79481284Y-85319480D01*
X79369480Y-85431284D01*
X79290423Y-85568216D01*
X79249500Y-85720943D01*
X79249500Y-85879057D01*
X79290423Y-86031784D01*
X79369480Y-86168716D01*
X79481284Y-86280520D01*
X79618216Y-86359577D01*
X79770943Y-86400500D01*
X79770945Y-86400500D01*
X79853018Y-86400500D01*
X79911209Y-86419407D01*
X79947173Y-86468907D01*
X79947173Y-86530093D01*
X79945115Y-86535819D01*
X79910132Y-86624527D01*
X79900000Y-86708895D01*
X79900000Y-86849999D01*
X79900001Y-86850000D01*
X80551000Y-86850000D01*
X80565912Y-86854845D01*
X80581593Y-86854845D01*
X80594278Y-86864061D01*
X80609191Y-86868907D01*
X80618407Y-86881592D01*
X80631093Y-86890809D01*
X80635938Y-86905721D01*
X80645155Y-86918407D01*
X80650000Y-86949000D01*
X80650000Y-87051000D01*
X80631093Y-87109191D01*
X80581593Y-87145155D01*
X80551000Y-87150000D01*
X79900001Y-87150000D01*
X79900000Y-87150001D01*
X79900000Y-87291104D01*
X79910132Y-87375468D01*
X79963077Y-87509729D01*
X80050276Y-87624717D01*
X80050282Y-87624723D01*
X80165270Y-87711922D01*
X80299531Y-87764867D01*
X80383895Y-87774999D01*
X80383900Y-87775000D01*
X80414919Y-87775000D01*
X80473110Y-87793907D01*
X80509074Y-87843407D01*
X80509074Y-87904593D01*
X80493803Y-87933820D01*
X80413077Y-88040272D01*
X80360132Y-88174531D01*
X80350000Y-88258895D01*
X80350000Y-88399999D01*
X80350001Y-88400000D01*
X81001000Y-88400000D01*
X81059191Y-88418907D01*
X81095155Y-88468407D01*
X81100000Y-88499000D01*
X81100000Y-88549999D01*
X81100001Y-88550000D01*
X81151000Y-88550000D01*
X81209191Y-88568907D01*
X81245155Y-88618407D01*
X81250000Y-88649000D01*
X81250000Y-89324999D01*
X81250001Y-89325000D01*
X81366100Y-89325000D01*
X81366104Y-89324999D01*
X81450468Y-89314867D01*
X81584729Y-89261922D01*
X81699717Y-89174723D01*
X81699723Y-89174717D01*
X81786922Y-89059729D01*
X81788412Y-89057079D01*
X81790137Y-89055489D01*
X81791015Y-89054332D01*
X81791222Y-89054489D01*
X81833409Y-89015620D01*
X81894182Y-89008527D01*
X81947517Y-89038510D01*
X81961006Y-89057075D01*
X81962634Y-89059970D01*
X81962636Y-89059975D01*
X82049922Y-89175078D01*
X82165025Y-89262364D01*
X82165026Y-89262364D01*
X82165027Y-89262365D01*
X82212518Y-89281093D01*
X82299410Y-89315359D01*
X82383856Y-89325500D01*
X82383858Y-89325500D01*
X82916142Y-89325500D01*
X82916144Y-89325500D01*
X83000590Y-89315359D01*
X83124908Y-89266333D01*
X83185975Y-89262575D01*
X83186849Y-89262805D01*
X83187513Y-89262982D01*
X83187515Y-89262984D01*
X83327522Y-89300499D01*
X83327524Y-89300500D01*
X83327525Y-89300500D01*
X83472474Y-89300500D01*
X83472475Y-89300500D01*
X83612485Y-89262984D01*
X83612487Y-89262982D01*
X83612489Y-89262982D01*
X83738010Y-89190512D01*
X83738010Y-89190511D01*
X83738015Y-89190509D01*
X83840509Y-89088015D01*
X83849890Y-89071767D01*
X83912982Y-88962489D01*
X83912982Y-88962487D01*
X83912984Y-88962485D01*
X83950500Y-88822475D01*
X83950500Y-88677525D01*
X83912984Y-88537515D01*
X83912982Y-88537512D01*
X83912982Y-88537510D01*
X83840512Y-88411989D01*
X83840510Y-88411987D01*
X83840509Y-88411985D01*
X83738015Y-88309491D01*
X83738012Y-88309489D01*
X83738010Y-88309487D01*
X83612488Y-88237017D01*
X83612489Y-88237017D01*
X83537673Y-88216970D01*
X83472475Y-88199500D01*
X83472474Y-88199500D01*
X83467632Y-88199500D01*
X83409441Y-88180593D01*
X83375535Y-88136819D01*
X83337365Y-88040027D01*
X83337364Y-88040026D01*
X83337364Y-88040025D01*
X83250078Y-87924922D01*
X83134975Y-87837636D01*
X83134972Y-87837634D01*
X83134971Y-87837634D01*
X83113181Y-87829041D01*
X83065984Y-87790105D01*
X83050500Y-87736944D01*
X83050500Y-87397274D01*
X83050500Y-87397273D01*
X83032763Y-87331076D01*
X83032763Y-87331075D01*
X83032763Y-87331074D01*
X83023207Y-87295412D01*
X83023205Y-87295408D01*
X82967236Y-87198467D01*
X82968490Y-87197742D01*
X82950534Y-87147031D01*
X82950500Y-87144442D01*
X82950500Y-86788681D01*
X82952968Y-86781083D01*
X82951719Y-86773194D01*
X82962243Y-86752538D01*
X82969407Y-86730490D01*
X82979496Y-86718677D01*
X83068677Y-86629496D01*
X83123194Y-86601719D01*
X83138681Y-86600500D01*
X83160747Y-86600500D01*
X83160747Y-86600569D01*
X83172564Y-86600569D01*
X83172564Y-86600500D01*
X85552725Y-86600500D01*
X85552727Y-86600500D01*
X85654588Y-86573207D01*
X85654590Y-86573205D01*
X85654592Y-86573205D01*
X85745908Y-86520483D01*
X85745908Y-86520482D01*
X85745913Y-86520480D01*
X87236896Y-85029495D01*
X87291413Y-85001719D01*
X87306900Y-85000500D01*
X88152725Y-85000500D01*
X88152727Y-85000500D01*
X88254588Y-84973207D01*
X88254590Y-84973205D01*
X88254592Y-84973205D01*
X88345908Y-84920483D01*
X88345908Y-84920482D01*
X88345913Y-84920480D01*
X88431793Y-84834599D01*
X88434200Y-84833373D01*
X88435552Y-84831033D01*
X88461246Y-84819593D01*
X88486308Y-84806824D01*
X88488977Y-84807246D01*
X88491447Y-84806147D01*
X88518958Y-84811995D01*
X88546740Y-84816395D01*
X88551296Y-84818869D01*
X88606577Y-84850786D01*
X88647517Y-84896256D01*
X88653912Y-84957106D01*
X88627080Y-85006526D01*
X83882918Y-89750687D01*
X83828401Y-89778464D01*
X83767969Y-89768893D01*
X83763414Y-89766420D01*
X83712486Y-89737016D01*
X83642480Y-89718258D01*
X83572475Y-89699500D01*
X83427525Y-89699500D01*
X83365790Y-89716041D01*
X83287510Y-89737017D01*
X83161989Y-89809487D01*
X83161988Y-89809488D01*
X83161985Y-89809490D01*
X83161985Y-89809491D01*
X83150971Y-89820504D01*
X83096457Y-89848280D01*
X83080970Y-89849499D01*
X83047270Y-89849499D01*
X82945413Y-89876792D01*
X82945409Y-89876794D01*
X82854087Y-89929519D01*
X82779519Y-90004086D01*
X82779520Y-90004087D01*
X81513103Y-91270504D01*
X81458586Y-91298281D01*
X81443099Y-91299500D01*
X81427525Y-91299500D01*
X81365790Y-91316041D01*
X81287510Y-91337017D01*
X81161989Y-91409487D01*
X81059487Y-91511989D01*
X80987017Y-91637510D01*
X80965073Y-91719407D01*
X80949500Y-91777525D01*
X80949500Y-91922475D01*
X80964498Y-91978449D01*
X80987017Y-92062489D01*
X81059487Y-92188010D01*
X81059489Y-92188012D01*
X81059491Y-92188015D01*
X81161985Y-92290509D01*
X81161987Y-92290510D01*
X81161989Y-92290512D01*
X81287511Y-92362982D01*
X81287512Y-92362982D01*
X81287515Y-92362984D01*
X81427525Y-92400500D01*
X81427526Y-92400500D01*
X81572474Y-92400500D01*
X81572475Y-92400500D01*
X81712485Y-92362984D01*
X81712487Y-92362982D01*
X81712489Y-92362982D01*
X81838010Y-92290512D01*
X81838010Y-92290511D01*
X81838015Y-92290509D01*
X81940509Y-92188015D01*
X81945534Y-92179312D01*
X82012982Y-92062489D01*
X82012982Y-92062487D01*
X82012984Y-92062485D01*
X82050500Y-91922475D01*
X82050500Y-91906899D01*
X82069407Y-91848708D01*
X82079490Y-91836901D01*
X83055496Y-90860894D01*
X83110013Y-90833118D01*
X83170445Y-90842689D01*
X83213710Y-90885954D01*
X83224500Y-90930899D01*
X83224500Y-91922273D01*
X83224500Y-92027727D01*
X83248570Y-92117559D01*
X83251794Y-92129592D01*
X83304516Y-92220908D01*
X83304518Y-92220910D01*
X83304520Y-92220913D01*
X84079518Y-92995910D01*
X84079520Y-92995913D01*
X84154087Y-93070480D01*
X84189407Y-93090872D01*
X84228594Y-93113497D01*
X84228597Y-93113498D01*
X84228600Y-93113500D01*
X84245413Y-93123207D01*
X84347274Y-93150501D01*
X84347276Y-93150501D01*
X84458790Y-93150501D01*
X84458806Y-93150500D01*
X85680969Y-93150500D01*
X85734239Y-93166054D01*
X85743339Y-93171863D01*
X85761985Y-93190509D01*
X85872466Y-93254295D01*
X85874331Y-93255486D01*
X85892429Y-93277483D01*
X85911502Y-93298665D01*
X85911742Y-93300955D01*
X85913206Y-93302734D01*
X85914918Y-93331165D01*
X85917898Y-93359515D01*
X85916745Y-93361510D01*
X85916884Y-93363809D01*
X85901554Y-93387823D01*
X85887305Y-93412503D01*
X85885000Y-93413754D01*
X85883962Y-93415381D01*
X85876884Y-93418161D01*
X85846688Y-93434558D01*
X85837511Y-93437017D01*
X85711989Y-93509487D01*
X85609487Y-93611989D01*
X85537017Y-93737510D01*
X85505659Y-93854541D01*
X85499500Y-93877525D01*
X85499500Y-94022475D01*
X85526807Y-94124385D01*
X85537017Y-94162489D01*
X85559252Y-94201000D01*
X85571974Y-94260848D01*
X85547088Y-94316744D01*
X85494100Y-94347337D01*
X85473516Y-94349500D01*
X84586131Y-94349500D01*
X84527940Y-94330593D01*
X84516127Y-94320503D01*
X84308113Y-94112489D01*
X84074145Y-93878520D01*
X84074140Y-93878516D01*
X83982823Y-93825794D01*
X83982825Y-93825794D01*
X83940162Y-93814363D01*
X83880959Y-93798500D01*
X83880957Y-93798500D01*
X83868688Y-93798500D01*
X83810497Y-93779593D01*
X83774533Y-93730093D01*
X83773062Y-93725124D01*
X83762984Y-93687515D01*
X83762982Y-93687511D01*
X83690512Y-93561989D01*
X83690510Y-93561987D01*
X83690509Y-93561985D01*
X83588015Y-93459491D01*
X83588012Y-93459489D01*
X83588010Y-93459487D01*
X83462488Y-93387017D01*
X83462489Y-93387017D01*
X83367296Y-93361510D01*
X83322475Y-93349500D01*
X83177525Y-93349500D01*
X83140149Y-93359515D01*
X83037510Y-93387017D01*
X82911989Y-93459487D01*
X82809487Y-93561989D01*
X82737017Y-93687510D01*
X82726295Y-93727525D01*
X82699500Y-93827525D01*
X82699500Y-93972475D01*
X82712897Y-94022474D01*
X82737017Y-94112489D01*
X82809487Y-94238010D01*
X82809489Y-94238012D01*
X82809491Y-94238015D01*
X82911985Y-94340509D01*
X82911987Y-94340510D01*
X82911989Y-94340512D01*
X83043134Y-94416229D01*
X83041651Y-94418796D01*
X83078860Y-94450580D01*
X83093139Y-94510076D01*
X83090919Y-94524521D01*
X83088530Y-94534892D01*
X83087016Y-94537515D01*
X83049500Y-94677525D01*
X83049500Y-94704351D01*
X83046974Y-94715319D01*
X83036739Y-94732372D01*
X83030593Y-94751290D01*
X83020504Y-94763103D01*
X82513103Y-95270504D01*
X82458586Y-95298281D01*
X82443099Y-95299500D01*
X81169031Y-95299500D01*
X81110840Y-95280593D01*
X81099033Y-95270509D01*
X81088015Y-95259491D01*
X81088012Y-95259489D01*
X81088010Y-95259487D01*
X80962488Y-95187017D01*
X80962489Y-95187017D01*
X80932896Y-95179087D01*
X80822475Y-95149500D01*
X80677525Y-95149500D01*
X80615790Y-95166041D01*
X80537510Y-95187017D01*
X80411989Y-95259487D01*
X80309487Y-95361989D01*
X80237017Y-95487510D01*
X80199500Y-95627525D01*
X80199500Y-95772474D01*
X80237017Y-95912489D01*
X80309487Y-96038010D01*
X80309489Y-96038012D01*
X80309491Y-96038015D01*
X80411985Y-96140509D01*
X80411987Y-96140510D01*
X80411989Y-96140512D01*
X80537511Y-96212982D01*
X80537512Y-96212982D01*
X80537515Y-96212984D01*
X80677525Y-96250500D01*
X80677526Y-96250500D01*
X80822474Y-96250500D01*
X80822475Y-96250500D01*
X80962485Y-96212984D01*
X80962487Y-96212982D01*
X80962489Y-96212982D01*
X81088010Y-96140512D01*
X81088010Y-96140511D01*
X81088015Y-96140509D01*
X81099029Y-96129494D01*
X81153544Y-96101719D01*
X81169031Y-96100500D01*
X82702725Y-96100500D01*
X82702727Y-96100500D01*
X82804588Y-96073207D01*
X82804590Y-96073205D01*
X82804592Y-96073205D01*
X82895908Y-96020483D01*
X82895908Y-96020482D01*
X82895913Y-96020480D01*
X83529999Y-95386393D01*
X83584512Y-95358619D01*
X83644944Y-95368190D01*
X83670003Y-95386396D01*
X83679520Y-95395913D01*
X83679519Y-95395913D01*
X83754087Y-95470480D01*
X83845413Y-95523207D01*
X83947273Y-95550500D01*
X83947275Y-95550500D01*
X93002726Y-95550500D01*
X93002727Y-95550500D01*
X93036790Y-95541372D01*
X93062412Y-95538000D01*
X93430599Y-95538000D01*
X93488790Y-95556907D01*
X93500602Y-95566996D01*
X93704086Y-95770479D01*
X93704091Y-95770483D01*
X93795408Y-95823205D01*
X93795406Y-95823205D01*
X93795410Y-95823206D01*
X93795412Y-95823207D01*
X93897273Y-95850500D01*
X93897275Y-95850500D01*
X95202725Y-95850500D01*
X95202727Y-95850500D01*
X95304588Y-95823207D01*
X95304590Y-95823205D01*
X95304592Y-95823205D01*
X95395908Y-95770483D01*
X95395908Y-95770482D01*
X95395913Y-95770480D01*
X95769480Y-95396913D01*
X95775552Y-95386396D01*
X95822205Y-95305592D01*
X95822205Y-95305590D01*
X95822207Y-95305588D01*
X95849500Y-95203727D01*
X95849500Y-95098273D01*
X95849500Y-94449500D01*
X95868407Y-94391309D01*
X95917907Y-94355345D01*
X95948500Y-94350500D01*
X96072474Y-94350500D01*
X96072475Y-94350500D01*
X96212485Y-94312984D01*
X96212487Y-94312982D01*
X96212489Y-94312982D01*
X96338010Y-94240512D01*
X96338010Y-94240511D01*
X96338015Y-94240509D01*
X96440509Y-94138015D01*
X96448378Y-94124385D01*
X96512982Y-94012489D01*
X96512982Y-94012487D01*
X96512984Y-94012485D01*
X96550500Y-93872475D01*
X96550500Y-93727525D01*
X96512984Y-93587515D01*
X96512982Y-93587512D01*
X96512982Y-93587510D01*
X96440512Y-93461989D01*
X96440507Y-93461983D01*
X96429494Y-93450969D01*
X96401718Y-93396452D01*
X96400500Y-93380968D01*
X96400500Y-92706900D01*
X96419407Y-92648709D01*
X96429496Y-92636896D01*
X97886896Y-91179496D01*
X97941413Y-91151719D01*
X97956900Y-91150500D01*
X97972474Y-91150500D01*
X97972475Y-91150500D01*
X98112485Y-91112984D01*
X98112487Y-91112982D01*
X98112489Y-91112982D01*
X98238010Y-91040512D01*
X98238010Y-91040511D01*
X98238015Y-91040509D01*
X98340509Y-90938015D01*
X98344395Y-90931284D01*
X98412982Y-90812489D01*
X98412982Y-90812487D01*
X98412984Y-90812485D01*
X98450500Y-90672475D01*
X98450500Y-90656900D01*
X98469407Y-90598709D01*
X98479490Y-90586902D01*
X99155339Y-89911054D01*
X100394500Y-89911054D01*
X100394500Y-90120945D01*
X100435446Y-90326792D01*
X100435448Y-90326798D01*
X100515766Y-90520702D01*
X100617176Y-90672474D01*
X100632372Y-90695216D01*
X100780784Y-90843628D01*
X100780787Y-90843630D01*
X100939509Y-90949684D01*
X100977389Y-90997734D01*
X100979791Y-91058872D01*
X100945799Y-91109746D01*
X100939509Y-91114316D01*
X100780787Y-91220369D01*
X100632369Y-91368787D01*
X100515766Y-91543297D01*
X100435448Y-91737201D01*
X100435446Y-91737207D01*
X100394500Y-91943054D01*
X100394500Y-92152945D01*
X100435446Y-92358792D01*
X100435448Y-92358798D01*
X100515766Y-92552702D01*
X100628673Y-92721680D01*
X100632372Y-92727216D01*
X100780784Y-92875628D01*
X100780787Y-92875630D01*
X100939509Y-92981684D01*
X100977389Y-93029734D01*
X100979791Y-93090872D01*
X100945799Y-93141746D01*
X100939509Y-93146316D01*
X100780787Y-93252369D01*
X100632369Y-93400787D01*
X100515766Y-93575297D01*
X100435448Y-93769201D01*
X100435446Y-93769207D01*
X100394500Y-93975054D01*
X100394500Y-94184945D01*
X100435446Y-94390792D01*
X100435448Y-94390798D01*
X100515766Y-94584702D01*
X100625880Y-94749500D01*
X100632372Y-94759216D01*
X100780784Y-94907628D01*
X100955297Y-95024233D01*
X101149205Y-95104553D01*
X101355057Y-95145500D01*
X101355058Y-95145500D01*
X101564942Y-95145500D01*
X101564943Y-95145500D01*
X101770795Y-95104553D01*
X101964703Y-95024233D01*
X102139216Y-94907628D01*
X102287628Y-94759216D01*
X102404233Y-94584703D01*
X102484553Y-94390795D01*
X102525500Y-94184943D01*
X102525500Y-93975057D01*
X102484553Y-93769205D01*
X102404233Y-93575297D01*
X102287628Y-93400784D01*
X102139216Y-93252372D01*
X101980489Y-93146314D01*
X101942610Y-93098266D01*
X101940208Y-93037128D01*
X101974200Y-92986254D01*
X101980480Y-92981690D01*
X102139216Y-92875628D01*
X102287628Y-92727216D01*
X102404233Y-92552703D01*
X102484553Y-92358795D01*
X102525500Y-92152943D01*
X102525500Y-91943057D01*
X102484553Y-91737205D01*
X102404233Y-91543297D01*
X102287628Y-91368784D01*
X102139216Y-91220372D01*
X101980489Y-91114314D01*
X101942610Y-91066266D01*
X101940208Y-91005128D01*
X101974200Y-90954254D01*
X101980480Y-90949690D01*
X102139216Y-90843628D01*
X102287628Y-90695216D01*
X102404233Y-90520703D01*
X102484553Y-90326795D01*
X102525500Y-90120943D01*
X102525500Y-89911057D01*
X102484553Y-89705205D01*
X102404233Y-89511297D01*
X102287628Y-89336784D01*
X102139216Y-89188372D01*
X102119320Y-89175078D01*
X101964702Y-89071766D01*
X101770798Y-88991448D01*
X101770792Y-88991446D01*
X101564945Y-88950500D01*
X101564943Y-88950500D01*
X101355057Y-88950500D01*
X101355054Y-88950500D01*
X101149207Y-88991446D01*
X101149201Y-88991448D01*
X100955297Y-89071766D01*
X100780787Y-89188369D01*
X100632369Y-89336787D01*
X100515766Y-89511297D01*
X100435448Y-89705201D01*
X100435446Y-89705207D01*
X100394500Y-89911054D01*
X99155339Y-89911054D01*
X99255178Y-89811215D01*
X99299011Y-89735295D01*
X99307903Y-89719894D01*
X99307903Y-89719892D01*
X99307905Y-89719890D01*
X99335198Y-89618029D01*
X99335198Y-89512575D01*
X99335198Y-88546526D01*
X99354105Y-88488335D01*
X99364188Y-88476528D01*
X99375207Y-88465510D01*
X99447682Y-88339980D01*
X99448600Y-88336550D01*
X99474221Y-88292170D01*
X100220480Y-87545913D01*
X100241371Y-87509729D01*
X100273205Y-87454592D01*
X100273205Y-87454590D01*
X100273207Y-87454588D01*
X100300500Y-87352727D01*
X100300500Y-87247273D01*
X100300500Y-86434709D01*
X100319407Y-86376518D01*
X100368907Y-86340554D01*
X100430093Y-86340554D01*
X100479593Y-86376518D01*
X100490964Y-86396824D01*
X100515765Y-86456700D01*
X100631222Y-86629496D01*
X100632372Y-86631216D01*
X100780784Y-86779628D01*
X100955297Y-86896233D01*
X101149205Y-86976553D01*
X101355057Y-87017500D01*
X101355058Y-87017500D01*
X101564942Y-87017500D01*
X101564943Y-87017500D01*
X101770795Y-86976553D01*
X101964703Y-86896233D01*
X102139216Y-86779628D01*
X102287628Y-86631216D01*
X102404233Y-86456703D01*
X102484553Y-86262795D01*
X102525500Y-86056943D01*
X102525500Y-85847057D01*
X102484553Y-85641205D01*
X102404233Y-85447297D01*
X102287628Y-85272784D01*
X102139216Y-85124372D01*
X102131523Y-85119232D01*
X102079417Y-85084416D01*
X101980489Y-85018314D01*
X101942610Y-84970266D01*
X101940208Y-84909128D01*
X101974200Y-84858254D01*
X101980480Y-84853690D01*
X102139216Y-84747628D01*
X102287628Y-84599216D01*
X102404233Y-84424703D01*
X102484553Y-84230795D01*
X102525500Y-84024943D01*
X102525500Y-83815057D01*
X102484553Y-83609205D01*
X102404233Y-83415297D01*
X102287628Y-83240784D01*
X102139216Y-83092372D01*
X102123516Y-83081882D01*
X102003209Y-83001496D01*
X101980489Y-82986314D01*
X101942610Y-82938266D01*
X101940208Y-82877128D01*
X101974200Y-82826254D01*
X101980480Y-82821690D01*
X102139216Y-82715628D01*
X102287628Y-82567216D01*
X102404233Y-82392703D01*
X102484553Y-82198795D01*
X102505372Y-82094130D01*
X102934500Y-82094130D01*
X102934500Y-83713860D01*
X102934501Y-83713863D01*
X102937414Y-83738990D01*
X102962756Y-83796385D01*
X102982794Y-83841765D01*
X103062235Y-83921206D01*
X103165009Y-83966585D01*
X103190135Y-83969500D01*
X103220648Y-83969499D01*
X103278837Y-83988405D01*
X103314803Y-84037903D01*
X103314805Y-84099089D01*
X103290653Y-84138502D01*
X103172371Y-84256784D01*
X103055766Y-84431297D01*
X102975448Y-84625201D01*
X102975446Y-84625207D01*
X102934500Y-84831054D01*
X102934500Y-85040945D01*
X102975446Y-85246792D01*
X102975448Y-85246798D01*
X103055766Y-85440702D01*
X103140968Y-85568216D01*
X103172372Y-85615216D01*
X103320784Y-85763628D01*
X103320787Y-85763630D01*
X103479509Y-85869684D01*
X103517389Y-85917734D01*
X103519791Y-85978872D01*
X103485799Y-86029746D01*
X103479509Y-86034316D01*
X103320787Y-86140369D01*
X103172369Y-86288787D01*
X103055766Y-86463297D01*
X102975448Y-86657201D01*
X102975446Y-86657207D01*
X102934500Y-86863054D01*
X102934500Y-87072945D01*
X102975446Y-87278792D01*
X102975448Y-87278798D01*
X103055766Y-87472702D01*
X103168505Y-87641429D01*
X103172372Y-87647216D01*
X103320784Y-87795628D01*
X103320787Y-87795630D01*
X103479509Y-87901684D01*
X103517389Y-87949734D01*
X103519791Y-88010872D01*
X103485799Y-88061746D01*
X103479509Y-88066316D01*
X103320787Y-88172369D01*
X103172369Y-88320787D01*
X103055766Y-88495297D01*
X102975448Y-88689201D01*
X102975446Y-88689207D01*
X102934500Y-88895054D01*
X102934500Y-89104945D01*
X102975446Y-89310792D01*
X102975448Y-89310798D01*
X103055766Y-89504702D01*
X103172369Y-89679212D01*
X103172372Y-89679216D01*
X103320784Y-89827628D01*
X103320787Y-89827630D01*
X103479509Y-89933684D01*
X103517389Y-89981734D01*
X103519791Y-90042872D01*
X103485799Y-90093746D01*
X103479509Y-90098316D01*
X103320787Y-90204369D01*
X103172369Y-90352787D01*
X103055766Y-90527297D01*
X102975448Y-90721201D01*
X102975446Y-90721207D01*
X102934500Y-90927054D01*
X102934500Y-91136945D01*
X102975446Y-91342792D01*
X102975448Y-91342798D01*
X103055766Y-91536702D01*
X103154521Y-91684500D01*
X103172372Y-91711216D01*
X103320784Y-91859628D01*
X103320787Y-91859630D01*
X103479509Y-91965684D01*
X103517389Y-92013734D01*
X103519791Y-92074872D01*
X103485799Y-92125746D01*
X103479509Y-92130316D01*
X103320787Y-92236369D01*
X103172369Y-92384787D01*
X103055766Y-92559297D01*
X102975448Y-92753201D01*
X102975446Y-92753207D01*
X102934500Y-92959054D01*
X102934500Y-93168945D01*
X102975446Y-93374792D01*
X102975448Y-93374798D01*
X103055766Y-93568702D01*
X103172369Y-93743212D01*
X103172372Y-93743216D01*
X103320784Y-93891628D01*
X103495297Y-94008233D01*
X103689205Y-94088553D01*
X103895057Y-94129500D01*
X103895058Y-94129500D01*
X104104942Y-94129500D01*
X104104943Y-94129500D01*
X104310795Y-94088553D01*
X104504703Y-94008233D01*
X104679216Y-93891628D01*
X104827628Y-93743216D01*
X104944233Y-93568703D01*
X105024553Y-93374795D01*
X105065500Y-93168943D01*
X105065500Y-92959057D01*
X105024553Y-92753205D01*
X104997143Y-92687033D01*
X108727900Y-92687033D01*
X108727900Y-92932966D01*
X108760000Y-93176786D01*
X108760000Y-93176791D01*
X108781191Y-93255875D01*
X108823494Y-93413754D01*
X108823651Y-93414338D01*
X108823655Y-93414351D01*
X108917763Y-93641550D01*
X108917765Y-93641554D01*
X108917767Y-93641558D01*
X109030951Y-93837598D01*
X109040735Y-93854544D01*
X109157273Y-94006419D01*
X109190447Y-94049653D01*
X109364347Y-94223553D01*
X109559459Y-94373267D01*
X109772442Y-94496233D01*
X109999654Y-94590347D01*
X110237206Y-94653999D01*
X110481034Y-94686100D01*
X110481035Y-94686100D01*
X110726965Y-94686100D01*
X110726966Y-94686100D01*
X110970794Y-94653999D01*
X111208346Y-94590347D01*
X111435558Y-94496233D01*
X111648541Y-94373267D01*
X111843653Y-94223553D01*
X112017553Y-94049653D01*
X112167267Y-93854541D01*
X112290233Y-93641558D01*
X112384347Y-93414346D01*
X112447999Y-93176794D01*
X112480100Y-92932966D01*
X112480100Y-92687034D01*
X112447999Y-92443206D01*
X112384347Y-92205654D01*
X112293785Y-91987017D01*
X112290236Y-91978449D01*
X112290235Y-91978448D01*
X112290233Y-91978442D01*
X112167267Y-91765459D01*
X112017553Y-91570347D01*
X111843653Y-91396447D01*
X111782981Y-91349892D01*
X111648544Y-91246735D01*
X111531151Y-91178958D01*
X111435558Y-91123767D01*
X111435554Y-91123765D01*
X111435550Y-91123763D01*
X111208351Y-91029655D01*
X111208350Y-91029654D01*
X111208346Y-91029653D01*
X110970794Y-90966001D01*
X110970791Y-90966000D01*
X110970789Y-90966000D01*
X110726966Y-90933900D01*
X110481034Y-90933900D01*
X110481033Y-90933900D01*
X110237213Y-90966000D01*
X110237208Y-90966000D01*
X109999661Y-91029651D01*
X109999648Y-91029655D01*
X109772449Y-91123763D01*
X109559455Y-91246735D01*
X109364350Y-91396444D01*
X109190444Y-91570350D01*
X109040735Y-91765455D01*
X108917763Y-91978449D01*
X108823655Y-92205648D01*
X108823651Y-92205661D01*
X108760000Y-92443208D01*
X108760000Y-92443213D01*
X108727900Y-92687033D01*
X104997143Y-92687033D01*
X104944233Y-92559297D01*
X104827628Y-92384784D01*
X104679216Y-92236372D01*
X104666722Y-92228024D01*
X104619417Y-92196416D01*
X104520489Y-92130314D01*
X104482610Y-92082266D01*
X104480208Y-92021128D01*
X104514200Y-91970254D01*
X104520480Y-91965690D01*
X104679216Y-91859628D01*
X104827628Y-91711216D01*
X104944233Y-91536703D01*
X105024553Y-91342795D01*
X105065500Y-91136943D01*
X105065500Y-90927057D01*
X105024553Y-90721205D01*
X104944233Y-90527297D01*
X104827628Y-90352784D01*
X104679216Y-90204372D01*
X104520489Y-90098314D01*
X104482610Y-90050266D01*
X104480208Y-89989128D01*
X104514200Y-89938254D01*
X104520480Y-89933690D01*
X104679216Y-89827628D01*
X104827628Y-89679216D01*
X104944233Y-89504703D01*
X105024553Y-89310795D01*
X105065500Y-89104943D01*
X105065500Y-88895057D01*
X105024553Y-88689205D01*
X104944233Y-88495297D01*
X104827628Y-88320784D01*
X104679216Y-88172372D01*
X104677249Y-88171058D01*
X104584157Y-88108856D01*
X104520489Y-88066314D01*
X104482610Y-88018266D01*
X104480208Y-87957128D01*
X104514200Y-87906254D01*
X104520480Y-87901690D01*
X104679216Y-87795628D01*
X104827628Y-87647216D01*
X104944233Y-87472703D01*
X105024553Y-87278795D01*
X105065500Y-87072943D01*
X105065500Y-86863057D01*
X105024553Y-86657205D01*
X104944233Y-86463297D01*
X104827628Y-86288784D01*
X104679216Y-86140372D01*
X104520489Y-86034314D01*
X104482610Y-85986266D01*
X104480208Y-85925128D01*
X104514200Y-85874254D01*
X104520480Y-85869690D01*
X104679216Y-85763628D01*
X104827628Y-85615216D01*
X104944233Y-85440703D01*
X105024553Y-85246795D01*
X105065500Y-85040943D01*
X105065500Y-84831057D01*
X105024553Y-84625205D01*
X104944233Y-84431297D01*
X104827628Y-84256784D01*
X104709344Y-84138500D01*
X104681569Y-84083986D01*
X104691140Y-84023554D01*
X104734405Y-83980289D01*
X104779350Y-83969499D01*
X104809861Y-83969499D01*
X104809864Y-83969499D01*
X104834991Y-83966585D01*
X104937765Y-83921206D01*
X105017206Y-83841765D01*
X105062585Y-83738991D01*
X105065500Y-83713865D01*
X105065499Y-83035034D01*
X108727900Y-83035034D01*
X108727900Y-83280966D01*
X108741138Y-83381521D01*
X108760000Y-83524786D01*
X108760000Y-83524791D01*
X108823651Y-83762338D01*
X108823655Y-83762351D01*
X108917763Y-83989550D01*
X108917765Y-83989554D01*
X108917767Y-83989558D01*
X109040733Y-84202541D01*
X109040735Y-84202544D01*
X109100436Y-84280348D01*
X109190447Y-84397653D01*
X109364347Y-84571553D01*
X109559459Y-84721267D01*
X109772442Y-84844233D01*
X109999654Y-84938347D01*
X110237206Y-85001999D01*
X110481034Y-85034100D01*
X110481035Y-85034100D01*
X110726965Y-85034100D01*
X110726966Y-85034100D01*
X110970794Y-85001999D01*
X111208346Y-84938347D01*
X111435558Y-84844233D01*
X111648541Y-84721267D01*
X111843653Y-84571553D01*
X112017553Y-84397653D01*
X112167267Y-84202541D01*
X112290233Y-83989558D01*
X112384347Y-83762346D01*
X112447999Y-83524794D01*
X112480100Y-83280966D01*
X112480100Y-83035034D01*
X112447999Y-82791206D01*
X112384347Y-82553654D01*
X112300022Y-82350075D01*
X112290236Y-82326449D01*
X112290235Y-82326448D01*
X112290233Y-82326442D01*
X112167267Y-82113459D01*
X112017553Y-81918347D01*
X111843653Y-81744447D01*
X111759038Y-81679520D01*
X111648544Y-81594735D01*
X111642536Y-81591266D01*
X111435558Y-81471767D01*
X111435554Y-81471765D01*
X111435550Y-81471763D01*
X111208351Y-81377655D01*
X111208350Y-81377654D01*
X111208346Y-81377653D01*
X110970794Y-81314001D01*
X110970791Y-81314000D01*
X110970789Y-81314000D01*
X110726966Y-81281900D01*
X110481034Y-81281900D01*
X110481033Y-81281900D01*
X110237213Y-81314000D01*
X110237208Y-81314000D01*
X109999661Y-81377651D01*
X109999648Y-81377655D01*
X109772449Y-81471763D01*
X109772442Y-81471766D01*
X109772442Y-81471767D01*
X109747281Y-81486293D01*
X109559455Y-81594735D01*
X109364350Y-81744444D01*
X109190444Y-81918350D01*
X109040735Y-82113455D01*
X108917763Y-82326449D01*
X108823655Y-82553648D01*
X108823651Y-82553661D01*
X108760000Y-82791208D01*
X108760000Y-82791213D01*
X108734916Y-82981746D01*
X108727900Y-83035034D01*
X105065499Y-83035034D01*
X105065499Y-82904000D01*
X105065499Y-82094139D01*
X105065499Y-82094136D01*
X105062585Y-82069009D01*
X105017206Y-81966235D01*
X104937765Y-81886794D01*
X104834991Y-81841415D01*
X104834990Y-81841414D01*
X104834988Y-81841414D01*
X104809868Y-81838500D01*
X103190139Y-81838500D01*
X103190136Y-81838501D01*
X103165009Y-81841414D01*
X103062235Y-81886794D01*
X102982794Y-81966235D01*
X102937414Y-82069011D01*
X102934500Y-82094130D01*
X102505372Y-82094130D01*
X102525500Y-81992943D01*
X102525500Y-81783057D01*
X102484553Y-81577205D01*
X102404233Y-81383297D01*
X102287628Y-81208784D01*
X102139216Y-81060372D01*
X102139212Y-81060369D01*
X101964702Y-80943766D01*
X101770798Y-80863448D01*
X101770792Y-80863446D01*
X101564945Y-80822500D01*
X101564943Y-80822500D01*
X101355057Y-80822500D01*
X101355054Y-80822500D01*
X101149207Y-80863446D01*
X101149201Y-80863448D01*
X100955297Y-80943766D01*
X100780787Y-81060369D01*
X100632369Y-81208787D01*
X100515766Y-81383297D01*
X100435448Y-81577201D01*
X100435446Y-81577207D01*
X100394500Y-81783054D01*
X100394500Y-81992945D01*
X100435446Y-82198792D01*
X100435448Y-82198798D01*
X100515766Y-82392702D01*
X100623306Y-82553648D01*
X100632372Y-82567216D01*
X100780784Y-82715628D01*
X100780787Y-82715630D01*
X100939509Y-82821684D01*
X100977389Y-82869734D01*
X100979791Y-82930872D01*
X100945799Y-82981746D01*
X100939509Y-82986316D01*
X100780787Y-83092369D01*
X100632369Y-83240787D01*
X100515766Y-83415297D01*
X100435448Y-83609201D01*
X100435446Y-83609207D01*
X100394500Y-83815054D01*
X100394500Y-84024945D01*
X100435446Y-84230792D01*
X100435448Y-84230798D01*
X100515766Y-84424702D01*
X100614992Y-84573205D01*
X100632372Y-84599216D01*
X100780784Y-84747628D01*
X100780787Y-84747630D01*
X100939509Y-84853684D01*
X100977389Y-84901734D01*
X100979791Y-84962872D01*
X100945799Y-85013746D01*
X100939509Y-85018316D01*
X100780787Y-85124369D01*
X100632368Y-85272788D01*
X100613478Y-85301060D01*
X100565428Y-85338939D01*
X100504290Y-85341341D01*
X100453416Y-85307348D01*
X100435536Y-85271681D01*
X100433206Y-85262984D01*
X100412984Y-85187515D01*
X100412982Y-85187512D01*
X100412982Y-85187510D01*
X100340512Y-85061989D01*
X100340510Y-85061987D01*
X100340509Y-85061985D01*
X100238015Y-84959491D01*
X100238012Y-84959489D01*
X100238010Y-84959487D01*
X100112488Y-84887017D01*
X100112489Y-84887017D01*
X100082896Y-84879087D01*
X99972475Y-84849500D01*
X99827525Y-84849500D01*
X99794855Y-84858254D01*
X99687510Y-84887017D01*
X99561989Y-84959487D01*
X99459487Y-85061989D01*
X99387017Y-85187510D01*
X99360088Y-85288010D01*
X99349500Y-85327525D01*
X99349500Y-85472475D01*
X99355640Y-85495388D01*
X99387017Y-85612489D01*
X99459487Y-85738010D01*
X99459489Y-85738012D01*
X99459491Y-85738015D01*
X99470505Y-85749029D01*
X99474130Y-85756144D01*
X99480593Y-85760840D01*
X99487756Y-85782888D01*
X99498281Y-85803544D01*
X99499500Y-85819031D01*
X99499500Y-85931225D01*
X99480593Y-85989416D01*
X99431093Y-86025380D01*
X99388696Y-86029519D01*
X99346906Y-86024500D01*
X99346902Y-86024500D01*
X98828098Y-86024500D01*
X98828095Y-86024500D01*
X98744651Y-86034521D01*
X98611870Y-86086883D01*
X98611866Y-86086886D01*
X98498136Y-86173130D01*
X98498130Y-86173136D01*
X98411886Y-86286866D01*
X98411883Y-86286870D01*
X98392097Y-86337046D01*
X98353161Y-86384243D01*
X98293918Y-86399540D01*
X98236999Y-86377094D01*
X98207903Y-86337046D01*
X98188116Y-86286870D01*
X98188115Y-86286869D01*
X98188115Y-86286868D01*
X98101867Y-86173133D01*
X97988132Y-86086885D01*
X97988131Y-86086884D01*
X97988129Y-86086883D01*
X97855348Y-86034521D01*
X97771904Y-86024500D01*
X97771902Y-86024500D01*
X97344401Y-86024500D01*
X97286210Y-86005593D01*
X97274398Y-85995504D01*
X96983413Y-85704520D01*
X96983408Y-85704516D01*
X96892091Y-85651794D01*
X96892093Y-85651794D01*
X96852557Y-85641201D01*
X96790227Y-85624500D01*
X96790225Y-85624500D01*
X95233806Y-85624500D01*
X95233790Y-85624499D01*
X95227727Y-85624499D01*
X95122274Y-85624499D01*
X95020413Y-85651793D01*
X95020411Y-85651793D01*
X95020407Y-85651795D01*
X94929087Y-85704519D01*
X94854519Y-85779086D01*
X94854520Y-85779087D01*
X94854518Y-85779089D01*
X94854517Y-85779088D01*
X94638105Y-85995503D01*
X94583588Y-86023281D01*
X94568101Y-86024500D01*
X94133851Y-86024500D01*
X94049408Y-86034641D01*
X93915027Y-86087634D01*
X93799922Y-86174922D01*
X93712634Y-86290027D01*
X93659641Y-86424408D01*
X93649500Y-86508851D01*
X93649500Y-86759255D01*
X93630593Y-86817446D01*
X93620504Y-86829258D01*
X93583004Y-86866758D01*
X93582999Y-86866764D01*
X93510529Y-86992285D01*
X93473012Y-87132300D01*
X93473012Y-87277249D01*
X93476435Y-87290025D01*
X93473232Y-87351127D01*
X93434726Y-87398676D01*
X93430310Y-87401382D01*
X93415334Y-87410028D01*
X93312832Y-87512530D01*
X93240362Y-87638051D01*
X93231627Y-87670647D01*
X93211784Y-87744703D01*
X93178462Y-87796015D01*
X93121340Y-87817942D01*
X93116159Y-87818078D01*
X93014184Y-87818078D01*
X92973270Y-87829041D01*
X92874169Y-87855595D01*
X92748648Y-87928065D01*
X92748647Y-87928066D01*
X92748644Y-87928068D01*
X92748644Y-87928069D01*
X92737629Y-87939083D01*
X92683115Y-87966859D01*
X92667628Y-87968078D01*
X92130922Y-87968078D01*
X92072731Y-87949171D01*
X92036767Y-87899671D01*
X92031922Y-87869078D01*
X92031922Y-86249500D01*
X92050829Y-86191309D01*
X92100329Y-86155345D01*
X92130922Y-86150500D01*
X92680969Y-86150500D01*
X92739160Y-86169407D01*
X92750966Y-86179490D01*
X92761985Y-86190509D01*
X92761987Y-86190510D01*
X92761989Y-86190512D01*
X92887511Y-86262982D01*
X92887512Y-86262982D01*
X92887515Y-86262984D01*
X93027525Y-86300500D01*
X93027526Y-86300500D01*
X93172474Y-86300500D01*
X93172475Y-86300500D01*
X93312485Y-86262984D01*
X93312487Y-86262982D01*
X93312489Y-86262982D01*
X93438010Y-86190512D01*
X93438010Y-86190511D01*
X93438015Y-86190509D01*
X93540509Y-86088015D01*
X93541161Y-86086886D01*
X93612982Y-85962489D01*
X93612982Y-85962487D01*
X93612984Y-85962485D01*
X93650500Y-85822475D01*
X93650500Y-85677525D01*
X93612984Y-85537515D01*
X93612982Y-85537512D01*
X93612982Y-85537510D01*
X93540512Y-85411989D01*
X93540510Y-85411987D01*
X93540509Y-85411985D01*
X93438015Y-85309491D01*
X93438012Y-85309489D01*
X93438010Y-85309487D01*
X93312488Y-85237017D01*
X93312489Y-85237017D01*
X93274333Y-85226793D01*
X93172475Y-85199500D01*
X93027525Y-85199500D01*
X92986738Y-85210429D01*
X92887510Y-85237017D01*
X92761989Y-85309487D01*
X92761988Y-85309488D01*
X92761985Y-85309490D01*
X92761985Y-85309491D01*
X92750970Y-85320505D01*
X92696456Y-85348281D01*
X92680969Y-85349500D01*
X92149500Y-85349500D01*
X92091309Y-85330593D01*
X92055345Y-85281093D01*
X92050500Y-85250500D01*
X92050500Y-84706900D01*
X92069407Y-84648709D01*
X92079490Y-84636902D01*
X92220480Y-84495913D01*
X92249636Y-84445413D01*
X92273207Y-84404587D01*
X92275857Y-84399998D01*
X92321327Y-84359058D01*
X92361592Y-84350500D01*
X92372474Y-84350500D01*
X92372475Y-84350500D01*
X92512485Y-84312984D01*
X92512487Y-84312982D01*
X92512489Y-84312982D01*
X92638010Y-84240512D01*
X92638010Y-84240511D01*
X92638015Y-84240509D01*
X92740509Y-84138015D01*
X92745414Y-84129519D01*
X92812982Y-84012489D01*
X92812982Y-84012487D01*
X92812984Y-84012485D01*
X92850500Y-83872475D01*
X92850500Y-83727525D01*
X92812984Y-83587515D01*
X92812982Y-83587512D01*
X92812982Y-83587510D01*
X92740512Y-83461989D01*
X92740510Y-83461987D01*
X92740509Y-83461985D01*
X92638015Y-83359491D01*
X92638012Y-83359489D01*
X92638010Y-83359487D01*
X92512488Y-83287017D01*
X92512489Y-83287017D01*
X92460685Y-83273136D01*
X92372475Y-83249500D01*
X92227525Y-83249500D01*
X92180935Y-83261984D01*
X92087510Y-83287017D01*
X91961985Y-83359489D01*
X91960767Y-83360425D01*
X91959729Y-83360792D01*
X91956365Y-83362735D01*
X91956004Y-83362111D01*
X91903091Y-83380849D01*
X91844425Y-83363471D01*
X91807178Y-83314930D01*
X91801500Y-83281883D01*
X91801500Y-82755843D01*
X91820407Y-82697652D01*
X91830490Y-82685845D01*
X92021480Y-82494856D01*
X92021483Y-82494851D01*
X92074205Y-82403535D01*
X92074205Y-82403533D01*
X92074207Y-82403531D01*
X92101500Y-82301670D01*
X92101500Y-82196216D01*
X92101500Y-82005901D01*
X92120407Y-81947710D01*
X92130496Y-81935897D01*
X92938868Y-81127525D01*
X96249500Y-81127525D01*
X96249500Y-81272475D01*
X96257971Y-81304087D01*
X96287017Y-81412489D01*
X96359487Y-81538010D01*
X96359489Y-81538012D01*
X96359491Y-81538015D01*
X96370505Y-81549029D01*
X96398281Y-81603544D01*
X96399500Y-81619031D01*
X96399500Y-83339365D01*
X96388334Y-83381038D01*
X96389499Y-83381521D01*
X96387016Y-83387513D01*
X96359418Y-83490512D01*
X96349500Y-83527525D01*
X96349500Y-83672475D01*
X96375767Y-83770504D01*
X96387017Y-83812489D01*
X96459487Y-83938010D01*
X96459489Y-83938012D01*
X96459491Y-83938015D01*
X96561985Y-84040509D01*
X96561987Y-84040510D01*
X96561989Y-84040512D01*
X96687511Y-84112982D01*
X96687512Y-84112982D01*
X96687515Y-84112984D01*
X96827525Y-84150500D01*
X96827526Y-84150500D01*
X96972474Y-84150500D01*
X96972475Y-84150500D01*
X97112485Y-84112984D01*
X97112487Y-84112982D01*
X97112489Y-84112982D01*
X97238010Y-84040512D01*
X97238010Y-84040511D01*
X97238015Y-84040509D01*
X97340509Y-83938015D01*
X97404723Y-83826794D01*
X97412982Y-83812489D01*
X97412982Y-83812487D01*
X97412984Y-83812485D01*
X97450500Y-83672475D01*
X97450500Y-83527525D01*
X97412984Y-83387515D01*
X97412982Y-83387512D01*
X97412982Y-83387510D01*
X97340512Y-83261989D01*
X97340508Y-83261984D01*
X97233427Y-83154902D01*
X97234617Y-83153711D01*
X97204574Y-83109990D01*
X97200500Y-83081882D01*
X97200500Y-81619031D01*
X97219407Y-81560840D01*
X97229490Y-81549033D01*
X97240509Y-81538015D01*
X97263915Y-81497475D01*
X97312982Y-81412489D01*
X97312982Y-81412487D01*
X97312984Y-81412485D01*
X97350500Y-81272475D01*
X97350500Y-81127525D01*
X97312984Y-80987515D01*
X97312982Y-80987512D01*
X97312982Y-80987510D01*
X97240512Y-80861989D01*
X97240510Y-80861987D01*
X97240509Y-80861985D01*
X97138015Y-80759491D01*
X97138012Y-80759489D01*
X97138010Y-80759487D01*
X97012488Y-80687017D01*
X97012489Y-80687017D01*
X96982896Y-80679087D01*
X96872475Y-80649500D01*
X96727525Y-80649500D01*
X96665790Y-80666041D01*
X96587510Y-80687017D01*
X96461989Y-80759487D01*
X96359487Y-80861989D01*
X96287017Y-80987510D01*
X96250897Y-81122312D01*
X96249500Y-81127525D01*
X92938868Y-81127525D01*
X94987079Y-79079314D01*
X109126500Y-79079314D01*
X109126500Y-79311885D01*
X109162879Y-79541577D01*
X109234747Y-79762763D01*
X109340326Y-79969976D01*
X109456959Y-80130506D01*
X109953077Y-79634387D01*
X109994251Y-79696008D01*
X110103592Y-79805349D01*
X110165209Y-79846520D01*
X109669091Y-80342639D01*
X109829623Y-80459273D01*
X110036836Y-80564852D01*
X110258022Y-80636720D01*
X110487715Y-80673100D01*
X110720285Y-80673100D01*
X110949977Y-80636720D01*
X111171163Y-80564852D01*
X111378378Y-80459272D01*
X111378384Y-80459268D01*
X111538907Y-80342640D01*
X111538907Y-80342639D01*
X111042789Y-79846521D01*
X111104408Y-79805349D01*
X111213749Y-79696008D01*
X111254921Y-79634389D01*
X111751039Y-80130507D01*
X111751040Y-80130507D01*
X111867668Y-79969984D01*
X111867672Y-79969978D01*
X111973252Y-79762763D01*
X112045120Y-79541577D01*
X112081500Y-79311885D01*
X112081500Y-79079314D01*
X112045120Y-78849622D01*
X111973252Y-78628436D01*
X111867673Y-78421223D01*
X111751039Y-78260691D01*
X111254920Y-78756809D01*
X111213749Y-78695192D01*
X111104408Y-78585851D01*
X111042787Y-78544677D01*
X111538906Y-78048559D01*
X111378376Y-77931926D01*
X111171163Y-77826347D01*
X110949977Y-77754479D01*
X110720285Y-77718100D01*
X110487715Y-77718100D01*
X110258022Y-77754479D01*
X110036836Y-77826347D01*
X109829621Y-77931927D01*
X109829617Y-77931929D01*
X109669091Y-78048558D01*
X110165211Y-78544678D01*
X110103592Y-78585851D01*
X109994251Y-78695192D01*
X109953078Y-78756811D01*
X109456958Y-78260691D01*
X109340329Y-78421217D01*
X109340327Y-78421221D01*
X109234747Y-78628436D01*
X109162879Y-78849622D01*
X109126500Y-79079314D01*
X94987079Y-79079314D01*
X97036897Y-77029496D01*
X97091414Y-77001719D01*
X97106901Y-77000500D01*
X108712131Y-77000500D01*
X108737752Y-77003872D01*
X108818467Y-77025500D01*
X112871144Y-77025500D01*
X112929335Y-77044407D01*
X112941148Y-77054496D01*
X115769143Y-79882491D01*
X115796920Y-79937008D01*
X115793294Y-79983087D01*
X115731852Y-80172190D01*
X115701000Y-80366983D01*
X115701000Y-80564216D01*
X115731851Y-80759007D01*
X115792799Y-80946585D01*
X115864858Y-81088010D01*
X115882338Y-81122315D01*
X115998265Y-81281875D01*
X116137725Y-81421335D01*
X116297285Y-81537262D01*
X116473015Y-81626801D01*
X116660588Y-81687747D01*
X116660589Y-81687747D01*
X116660592Y-81687748D01*
X116855384Y-81718600D01*
X116855387Y-81718600D01*
X117052616Y-81718600D01*
X117247407Y-81687748D01*
X117247408Y-81687747D01*
X117247412Y-81687747D01*
X117434985Y-81626801D01*
X117610715Y-81537262D01*
X117770275Y-81421335D01*
X117909735Y-81281875D01*
X118025662Y-81122315D01*
X118115201Y-80946585D01*
X118129845Y-80901514D01*
X118165809Y-80852015D01*
X118223999Y-80833107D01*
X118282190Y-80852014D01*
X118318154Y-80901514D01*
X118318155Y-80901515D01*
X118332798Y-80946583D01*
X118404858Y-81088010D01*
X118422338Y-81122315D01*
X118538265Y-81281875D01*
X118677725Y-81421335D01*
X118837285Y-81537262D01*
X119013015Y-81626801D01*
X119200588Y-81687747D01*
X119200589Y-81687747D01*
X119200592Y-81687748D01*
X119395384Y-81718600D01*
X119395387Y-81718600D01*
X119592616Y-81718600D01*
X119787407Y-81687748D01*
X119787408Y-81687747D01*
X119787412Y-81687747D01*
X119974985Y-81626801D01*
X120150715Y-81537262D01*
X120310275Y-81421335D01*
X120354498Y-81377111D01*
X120409013Y-81349336D01*
X120469445Y-81358907D01*
X120512710Y-81402172D01*
X120523500Y-81447117D01*
X120523500Y-84084500D01*
X120504593Y-84142691D01*
X120455093Y-84178655D01*
X120424500Y-84183500D01*
X116009892Y-84183500D01*
X115878108Y-84183500D01*
X115807034Y-84202544D01*
X115750809Y-84217609D01*
X115636690Y-84283496D01*
X115543496Y-84376690D01*
X115477609Y-84490809D01*
X115469659Y-84520480D01*
X115443500Y-84618108D01*
X115443500Y-91218108D01*
X115443500Y-91349892D01*
X115473579Y-91462151D01*
X115477609Y-91477190D01*
X115543496Y-91591309D01*
X115543498Y-91591311D01*
X115543500Y-91591314D01*
X115636686Y-91684500D01*
X115636688Y-91684501D01*
X115636690Y-91684503D01*
X115750810Y-91750390D01*
X115750808Y-91750390D01*
X115750812Y-91750391D01*
X115750814Y-91750392D01*
X115878108Y-91784500D01*
X120424500Y-91784500D01*
X120482691Y-91803407D01*
X120518655Y-91852907D01*
X120523500Y-91883500D01*
X120523500Y-94520883D01*
X120504593Y-94579074D01*
X120455093Y-94615038D01*
X120393907Y-94615038D01*
X120354498Y-94590888D01*
X120310275Y-94546665D01*
X120150715Y-94430738D01*
X120150714Y-94430737D01*
X120150712Y-94430736D01*
X119974985Y-94341199D01*
X119787407Y-94280251D01*
X119592616Y-94249400D01*
X119592613Y-94249400D01*
X119395387Y-94249400D01*
X119395384Y-94249400D01*
X119200592Y-94280251D01*
X119013014Y-94341199D01*
X118837287Y-94430736D01*
X118677726Y-94546664D01*
X118538264Y-94686126D01*
X118422336Y-94845687D01*
X118332799Y-95021414D01*
X118318155Y-95066485D01*
X118282191Y-95115985D01*
X118224000Y-95134892D01*
X118165809Y-95115985D01*
X118129845Y-95066485D01*
X118118183Y-95030593D01*
X118115201Y-95021415D01*
X118025662Y-94845685D01*
X117909735Y-94686125D01*
X117770275Y-94546665D01*
X117610715Y-94430738D01*
X117610714Y-94430737D01*
X117610712Y-94430736D01*
X117434985Y-94341199D01*
X117247407Y-94280251D01*
X117052616Y-94249400D01*
X117052613Y-94249400D01*
X116855387Y-94249400D01*
X116855384Y-94249400D01*
X116660592Y-94280251D01*
X116473014Y-94341199D01*
X116297287Y-94430736D01*
X116137726Y-94546664D01*
X115998264Y-94686126D01*
X115882336Y-94845687D01*
X115792799Y-95021414D01*
X115778155Y-95066485D01*
X115742191Y-95115985D01*
X115684000Y-95134892D01*
X115625809Y-95115985D01*
X115589845Y-95066485D01*
X115578183Y-95030593D01*
X115575201Y-95021415D01*
X115485662Y-94845685D01*
X115369735Y-94686125D01*
X115230275Y-94546665D01*
X115070715Y-94430738D01*
X115070714Y-94430737D01*
X115070712Y-94430736D01*
X114894985Y-94341199D01*
X114707407Y-94280251D01*
X114512616Y-94249400D01*
X114512613Y-94249400D01*
X114315387Y-94249400D01*
X114315384Y-94249400D01*
X114120592Y-94280251D01*
X113933014Y-94341199D01*
X113757287Y-94430736D01*
X113597726Y-94546664D01*
X113458264Y-94686126D01*
X113342336Y-94845687D01*
X113252799Y-95021414D01*
X113191851Y-95208992D01*
X113161000Y-95403783D01*
X113161000Y-95601016D01*
X113191851Y-95795807D01*
X113252799Y-95983385D01*
X113332858Y-96140511D01*
X113342338Y-96159115D01*
X113458265Y-96318675D01*
X113597725Y-96458135D01*
X113757285Y-96574062D01*
X113933015Y-96663601D01*
X114120588Y-96724547D01*
X114120589Y-96724547D01*
X114120592Y-96724548D01*
X114315384Y-96755400D01*
X114315387Y-96755400D01*
X114512616Y-96755400D01*
X114707407Y-96724548D01*
X114707408Y-96724547D01*
X114707412Y-96724547D01*
X114894985Y-96663601D01*
X115070715Y-96574062D01*
X115230275Y-96458135D01*
X115369735Y-96318675D01*
X115485662Y-96159115D01*
X115575201Y-95983385D01*
X115589845Y-95938314D01*
X115625809Y-95888815D01*
X115683999Y-95869907D01*
X115742190Y-95888814D01*
X115778154Y-95938314D01*
X115778155Y-95938315D01*
X115792798Y-95983383D01*
X115872858Y-96140511D01*
X115882338Y-96159115D01*
X115998265Y-96318675D01*
X116137725Y-96458135D01*
X116297285Y-96574062D01*
X116473015Y-96663601D01*
X116660588Y-96724547D01*
X116660589Y-96724547D01*
X116660592Y-96724548D01*
X116855384Y-96755400D01*
X116855387Y-96755400D01*
X117052616Y-96755400D01*
X117247407Y-96724548D01*
X117247408Y-96724547D01*
X117247412Y-96724547D01*
X117434985Y-96663601D01*
X117553762Y-96603080D01*
X117614193Y-96593509D01*
X117668710Y-96621286D01*
X117696488Y-96675802D01*
X117686917Y-96736234D01*
X117668711Y-96761293D01*
X116859503Y-97570503D01*
X116804986Y-97598281D01*
X116789499Y-97599500D01*
X114538727Y-97599500D01*
X114433273Y-97599500D01*
X114370929Y-97616204D01*
X114331407Y-97626794D01*
X114240091Y-97679516D01*
X111049103Y-100870504D01*
X110994586Y-100898281D01*
X110979099Y-100899500D01*
X91719031Y-100899500D01*
X91660840Y-100880593D01*
X91649033Y-100870509D01*
X91638015Y-100859491D01*
X91638012Y-100859489D01*
X91638010Y-100859487D01*
X91512488Y-100787017D01*
X91512489Y-100787017D01*
X91482896Y-100779087D01*
X91372475Y-100749500D01*
X91227525Y-100749500D01*
X91165790Y-100766041D01*
X91087510Y-100787017D01*
X90961989Y-100859487D01*
X90859487Y-100961989D01*
X90787017Y-101087510D01*
X90749500Y-101227525D01*
X90749500Y-101372474D01*
X90787017Y-101512489D01*
X90859487Y-101638010D01*
X90859489Y-101638012D01*
X90859491Y-101638015D01*
X90961985Y-101740509D01*
X90961987Y-101740510D01*
X90961989Y-101740512D01*
X91087511Y-101812982D01*
X91087512Y-101812982D01*
X91087515Y-101812984D01*
X91227525Y-101850500D01*
X91227526Y-101850500D01*
X91372474Y-101850500D01*
X91372475Y-101850500D01*
X91512485Y-101812984D01*
X91512487Y-101812982D01*
X91512489Y-101812982D01*
X91638010Y-101740512D01*
X91638010Y-101740511D01*
X91638015Y-101740509D01*
X91649029Y-101729494D01*
X91703544Y-101701719D01*
X91719031Y-101700500D01*
X111238725Y-101700500D01*
X111238727Y-101700500D01*
X111340588Y-101673207D01*
X111340590Y-101673205D01*
X111340592Y-101673205D01*
X111431908Y-101620483D01*
X111431908Y-101620482D01*
X111431913Y-101620480D01*
X113870480Y-99181913D01*
X114622897Y-98429496D01*
X114677414Y-98401719D01*
X114692901Y-98400500D01*
X117049125Y-98400500D01*
X117049127Y-98400500D01*
X117150988Y-98373207D01*
X117150990Y-98373205D01*
X117150992Y-98373205D01*
X117242308Y-98320483D01*
X117242308Y-98320482D01*
X117242313Y-98320480D01*
X118886752Y-96676039D01*
X118941267Y-96648264D01*
X119001698Y-96657834D01*
X119013015Y-96663601D01*
X119200588Y-96724547D01*
X119200589Y-96724547D01*
X119200592Y-96724548D01*
X119395384Y-96755400D01*
X119395387Y-96755400D01*
X119592616Y-96755400D01*
X119787407Y-96724548D01*
X119787408Y-96724547D01*
X119787412Y-96724547D01*
X119974985Y-96663601D01*
X120150715Y-96574062D01*
X120310275Y-96458135D01*
X120354498Y-96413911D01*
X120409013Y-96386136D01*
X120469445Y-96395707D01*
X120512710Y-96438972D01*
X120523500Y-96483917D01*
X120523500Y-96773286D01*
X120509170Y-101087515D01*
X120506342Y-101939090D01*
X120506135Y-102001444D01*
X120505861Y-102008491D01*
X120490744Y-102210829D01*
X120488696Y-102224775D01*
X120445759Y-102419457D01*
X120441751Y-102432970D01*
X120371602Y-102619579D01*
X120365715Y-102632387D01*
X120269776Y-102807140D01*
X120262130Y-102818982D01*
X120142345Y-102978339D01*
X120133095Y-102988975D01*
X119991888Y-103129709D01*
X119981224Y-103138920D01*
X119918929Y-103185420D01*
X119821465Y-103258171D01*
X119809598Y-103265776D01*
X119634525Y-103361128D01*
X119621698Y-103366972D01*
X119434853Y-103436496D01*
X119421325Y-103440459D01*
X119226499Y-103482742D01*
X119212546Y-103484743D01*
X119009215Y-103499248D01*
X119002172Y-103499499D01*
X118982964Y-103499499D01*
X118940757Y-103499498D01*
X118940750Y-103499499D01*
X118933847Y-103499500D01*
X118933846Y-103499499D01*
X118933846Y-103499500D01*
X61753540Y-103499500D01*
X61746477Y-103499248D01*
X61543662Y-103484742D01*
X61529681Y-103482732D01*
X61334457Y-103440264D01*
X61320904Y-103436284D01*
X61133715Y-103366466D01*
X61120875Y-103360602D01*
X60976896Y-103281984D01*
X60945525Y-103264854D01*
X60933643Y-103257218D01*
X60773709Y-103137493D01*
X60763033Y-103128243D01*
X60621756Y-102986966D01*
X60612506Y-102976290D01*
X60492781Y-102816356D01*
X60485145Y-102804474D01*
X60389394Y-102629118D01*
X60383537Y-102616292D01*
X60313713Y-102429088D01*
X60309737Y-102415549D01*
X60267265Y-102220308D01*
X60265258Y-102206345D01*
X60250752Y-102003522D01*
X60250500Y-101996460D01*
X60250500Y-93662401D01*
X60624500Y-93662401D01*
X60624500Y-93837598D01*
X60651903Y-94010623D01*
X60676437Y-94086130D01*
X60706042Y-94177244D01*
X60738279Y-94240512D01*
X60785006Y-94332220D01*
X60785577Y-94333339D01*
X60888551Y-94475071D01*
X61012429Y-94598949D01*
X61154161Y-94701923D01*
X61310256Y-94781458D01*
X61476872Y-94835595D01*
X61476873Y-94835595D01*
X61476876Y-94835596D01*
X61649902Y-94863000D01*
X61649905Y-94863000D01*
X63450098Y-94863000D01*
X63623123Y-94835596D01*
X63623124Y-94835595D01*
X63623128Y-94835595D01*
X63789744Y-94781458D01*
X63945839Y-94701923D01*
X64087571Y-94598949D01*
X64211449Y-94475071D01*
X64314423Y-94333339D01*
X64393958Y-94177244D01*
X64448095Y-94010628D01*
X64448096Y-94010623D01*
X64475500Y-93837598D01*
X64475500Y-93662401D01*
X64448096Y-93489376D01*
X64446480Y-93484401D01*
X64393958Y-93322756D01*
X64314423Y-93166661D01*
X64211449Y-93024929D01*
X64087571Y-92901051D01*
X63945839Y-92798077D01*
X63945838Y-92798076D01*
X63945836Y-92798075D01*
X63857773Y-92753205D01*
X63789744Y-92718542D01*
X63692770Y-92687033D01*
X63623123Y-92664403D01*
X63450098Y-92637000D01*
X63450095Y-92637000D01*
X61649905Y-92637000D01*
X61649902Y-92637000D01*
X61476876Y-92664403D01*
X61310258Y-92718541D01*
X61154163Y-92798075D01*
X61012430Y-92901050D01*
X60888550Y-93024930D01*
X60785575Y-93166663D01*
X60706041Y-93322758D01*
X60651903Y-93489376D01*
X60624500Y-93662401D01*
X60250500Y-93662401D01*
X60250500Y-91220943D01*
X70199500Y-91220943D01*
X70199500Y-91379057D01*
X70240423Y-91531784D01*
X70319480Y-91668716D01*
X70431284Y-91780520D01*
X70568216Y-91859577D01*
X70720943Y-91900500D01*
X70720945Y-91900500D01*
X70879055Y-91900500D01*
X70879057Y-91900500D01*
X71031784Y-91859577D01*
X71168716Y-91780520D01*
X71198846Y-91750390D01*
X71219741Y-91729496D01*
X71274258Y-91701719D01*
X71289744Y-91700500D01*
X73350416Y-91700500D01*
X73408607Y-91719407D01*
X73420413Y-91729490D01*
X73429457Y-91738534D01*
X73566389Y-91817591D01*
X73719116Y-91858514D01*
X73719118Y-91858514D01*
X73877228Y-91858514D01*
X73877230Y-91858514D01*
X74029957Y-91817591D01*
X74166889Y-91738534D01*
X74278693Y-91626730D01*
X74357750Y-91489798D01*
X74398673Y-91337071D01*
X74398673Y-91178957D01*
X74357750Y-91026230D01*
X74278693Y-90889298D01*
X74166889Y-90777494D01*
X74029957Y-90698437D01*
X73877230Y-90657514D01*
X73719116Y-90657514D01*
X73566389Y-90698437D01*
X73429457Y-90777494D01*
X73336445Y-90870505D01*
X73281931Y-90898281D01*
X73266444Y-90899500D01*
X71289744Y-90899500D01*
X71231553Y-90880593D01*
X71219741Y-90870504D01*
X71168718Y-90819482D01*
X71168716Y-90819480D01*
X71031784Y-90740423D01*
X70879057Y-90699500D01*
X70720943Y-90699500D01*
X70568216Y-90740423D01*
X70431284Y-90819480D01*
X70319480Y-90931284D01*
X70240423Y-91068216D01*
X70199500Y-91220943D01*
X60250500Y-91220943D01*
X60250500Y-85563768D01*
X61674500Y-85563768D01*
X61674500Y-85736231D01*
X61683781Y-85782888D01*
X61706163Y-85895412D01*
X61708145Y-85905373D01*
X61708145Y-85905375D01*
X61774139Y-86064700D01*
X61774145Y-86064712D01*
X61834706Y-86155345D01*
X61869955Y-86208099D01*
X61991901Y-86330045D01*
X62036099Y-86359577D01*
X62135287Y-86425854D01*
X62135299Y-86425860D01*
X62156663Y-86434709D01*
X62294626Y-86491855D01*
X62463771Y-86525500D01*
X62463772Y-86525500D01*
X62636228Y-86525500D01*
X62636229Y-86525500D01*
X62805374Y-86491855D01*
X62943337Y-86434709D01*
X62962615Y-86426724D01*
X63023611Y-86421923D01*
X63075780Y-86453893D01*
X63099195Y-86510421D01*
X63099500Y-86518188D01*
X63099500Y-89281811D01*
X63080593Y-89340002D01*
X63031093Y-89375966D01*
X62969907Y-89375966D01*
X62962615Y-89373275D01*
X62805374Y-89308145D01*
X62636231Y-89274500D01*
X62636229Y-89274500D01*
X62463771Y-89274500D01*
X62463768Y-89274500D01*
X62294626Y-89308145D01*
X62294624Y-89308145D01*
X62135299Y-89374139D01*
X62135287Y-89374145D01*
X61991901Y-89469955D01*
X61991897Y-89469958D01*
X61869958Y-89591897D01*
X61869955Y-89591901D01*
X61774145Y-89735287D01*
X61774139Y-89735299D01*
X61708145Y-89894624D01*
X61708145Y-89894626D01*
X61674500Y-90063768D01*
X61674500Y-90236231D01*
X61684020Y-90284088D01*
X61707989Y-90404592D01*
X61708145Y-90405373D01*
X61708145Y-90405375D01*
X61774139Y-90564700D01*
X61774145Y-90564712D01*
X61835745Y-90656900D01*
X61869955Y-90708099D01*
X61991901Y-90830045D01*
X62052452Y-90870504D01*
X62135287Y-90925854D01*
X62135299Y-90925860D01*
X62192816Y-90949684D01*
X62294626Y-90991855D01*
X62463771Y-91025500D01*
X62463772Y-91025500D01*
X62636228Y-91025500D01*
X62636229Y-91025500D01*
X62805374Y-90991855D01*
X62964705Y-90925858D01*
X62964707Y-90925856D01*
X62964712Y-90925854D01*
X63006115Y-90898188D01*
X63108099Y-90830045D01*
X63230045Y-90708099D01*
X63299912Y-90603536D01*
X63325854Y-90564712D01*
X63325860Y-90564700D01*
X63344084Y-90520703D01*
X63391855Y-90405374D01*
X63413313Y-90297495D01*
X63443208Y-90244114D01*
X63498773Y-90218497D01*
X63558783Y-90230434D01*
X63580413Y-90246807D01*
X63854086Y-90520479D01*
X63854091Y-90520483D01*
X63945408Y-90573205D01*
X63945406Y-90573205D01*
X63945410Y-90573206D01*
X63945412Y-90573207D01*
X64047273Y-90600500D01*
X64047275Y-90600500D01*
X68152725Y-90600500D01*
X68152727Y-90600500D01*
X68254588Y-90573207D01*
X68254590Y-90573205D01*
X68254592Y-90573205D01*
X68345908Y-90520483D01*
X68345908Y-90520482D01*
X68345913Y-90520480D01*
X69336897Y-89529496D01*
X69391414Y-89501719D01*
X69406901Y-89500500D01*
X70480969Y-89500500D01*
X70539160Y-89519407D01*
X70550966Y-89529490D01*
X70561985Y-89540509D01*
X70561987Y-89540510D01*
X70561989Y-89540512D01*
X70687511Y-89612982D01*
X70687512Y-89612982D01*
X70687515Y-89612984D01*
X70827525Y-89650500D01*
X70827526Y-89650500D01*
X70972474Y-89650500D01*
X70972475Y-89650500D01*
X71112485Y-89612984D01*
X71112487Y-89612982D01*
X71112489Y-89612982D01*
X71238010Y-89540512D01*
X71238010Y-89540511D01*
X71238015Y-89540509D01*
X71340509Y-89438015D01*
X71341614Y-89436101D01*
X71412982Y-89312489D01*
X71412982Y-89312487D01*
X71412984Y-89312485D01*
X71450500Y-89172475D01*
X71450500Y-89027525D01*
X71412984Y-88887515D01*
X71412982Y-88887512D01*
X71412982Y-88887510D01*
X71340512Y-88761989D01*
X71340510Y-88761987D01*
X71340509Y-88761985D01*
X71238015Y-88659491D01*
X71238012Y-88659489D01*
X71238010Y-88659487D01*
X71112488Y-88587017D01*
X71112489Y-88587017D01*
X71037811Y-88567007D01*
X70972475Y-88549500D01*
X70827525Y-88549500D01*
X70765790Y-88566041D01*
X70687510Y-88587017D01*
X70561989Y-88659487D01*
X70561988Y-88659488D01*
X70561985Y-88659490D01*
X70561985Y-88659491D01*
X70550970Y-88670505D01*
X70496456Y-88698281D01*
X70480969Y-88699500D01*
X69252727Y-88699500D01*
X69147273Y-88699500D01*
X69084929Y-88716204D01*
X69045407Y-88726794D01*
X68954091Y-88779516D01*
X67963103Y-89770504D01*
X67908586Y-89798281D01*
X67893099Y-89799500D01*
X64306901Y-89799500D01*
X64248710Y-89780593D01*
X64236897Y-89770504D01*
X63929496Y-89463103D01*
X63901719Y-89408586D01*
X63900500Y-89393099D01*
X63900500Y-86287173D01*
X63919407Y-86228982D01*
X63929496Y-86217169D01*
X64117169Y-86029496D01*
X64171686Y-86001719D01*
X64187173Y-86000500D01*
X66452725Y-86000500D01*
X66452727Y-86000500D01*
X66554588Y-85973207D01*
X66554590Y-85973205D01*
X66554592Y-85973205D01*
X66645908Y-85920483D01*
X66645908Y-85920482D01*
X66645913Y-85920480D01*
X67936897Y-84629496D01*
X67991414Y-84601719D01*
X68006901Y-84600500D01*
X74495605Y-84600500D01*
X74553796Y-84619407D01*
X74589760Y-84668907D01*
X74589760Y-84730093D01*
X74587072Y-84737377D01*
X74587019Y-84737503D01*
X74567059Y-84811995D01*
X74549500Y-84877525D01*
X74549500Y-85022475D01*
X74552615Y-85034099D01*
X74587017Y-85162489D01*
X74659487Y-85288010D01*
X74659489Y-85288012D01*
X74659491Y-85288015D01*
X74670505Y-85299029D01*
X74698281Y-85353544D01*
X74699500Y-85369031D01*
X74699500Y-90197273D01*
X74699500Y-90302727D01*
X74723570Y-90392559D01*
X74726794Y-90404592D01*
X74779516Y-90495908D01*
X74779518Y-90495910D01*
X74779520Y-90495913D01*
X75501716Y-91218108D01*
X76120504Y-91836896D01*
X76148281Y-91891413D01*
X76149500Y-91906899D01*
X76149500Y-91922475D01*
X76164498Y-91978449D01*
X76187017Y-92062489D01*
X76259487Y-92188010D01*
X76259489Y-92188012D01*
X76259491Y-92188015D01*
X76270505Y-92199029D01*
X76298281Y-92253544D01*
X76299500Y-92269031D01*
X76299500Y-95697273D01*
X76299500Y-95802727D01*
X76322566Y-95888814D01*
X76326794Y-95904592D01*
X76379516Y-95995908D01*
X76379518Y-95995910D01*
X76379520Y-95995913D01*
X82329518Y-101945910D01*
X82329520Y-101945913D01*
X82404087Y-102020480D01*
X82434459Y-102038015D01*
X82495413Y-102073207D01*
X82544594Y-102086384D01*
X82551692Y-102089541D01*
X82561818Y-102098650D01*
X82581473Y-102109997D01*
X82611985Y-102140509D01*
X82611987Y-102140510D01*
X82611988Y-102140511D01*
X82611989Y-102140512D01*
X82737511Y-102212982D01*
X82737512Y-102212982D01*
X82737515Y-102212984D01*
X82877525Y-102250500D01*
X82877526Y-102250500D01*
X83022474Y-102250500D01*
X83022475Y-102250500D01*
X83162485Y-102212984D01*
X83162487Y-102212982D01*
X83162489Y-102212982D01*
X83288010Y-102140512D01*
X83288010Y-102140511D01*
X83288015Y-102140509D01*
X83390509Y-102038015D01*
X83400633Y-102020480D01*
X83462982Y-101912489D01*
X83462982Y-101912487D01*
X83462984Y-101912485D01*
X83500500Y-101772475D01*
X83500500Y-101627525D01*
X83462984Y-101487515D01*
X83462982Y-101487512D01*
X83462982Y-101487510D01*
X83390512Y-101361989D01*
X83390510Y-101361987D01*
X83390509Y-101361985D01*
X83288015Y-101259491D01*
X83288012Y-101259489D01*
X83288010Y-101259487D01*
X83162488Y-101187017D01*
X83162489Y-101187017D01*
X83122220Y-101176227D01*
X83022475Y-101149500D01*
X82877525Y-101149500D01*
X82765826Y-101179430D01*
X82704725Y-101176227D01*
X82670199Y-101153807D01*
X78757433Y-97241040D01*
X78693918Y-97177525D01*
X85399500Y-97177525D01*
X85399500Y-97322474D01*
X85437017Y-97462489D01*
X85509487Y-97588010D01*
X85509489Y-97588012D01*
X85509491Y-97588015D01*
X85611985Y-97690509D01*
X85611987Y-97690510D01*
X85611989Y-97690512D01*
X85737511Y-97762982D01*
X85737512Y-97762982D01*
X85737515Y-97762984D01*
X85877525Y-97800500D01*
X85877526Y-97800500D01*
X86022474Y-97800500D01*
X86022475Y-97800500D01*
X86162485Y-97762984D01*
X86288015Y-97690509D01*
X86390509Y-97588015D01*
X86414317Y-97546778D01*
X86462982Y-97462489D01*
X86462982Y-97462487D01*
X86462984Y-97462485D01*
X86500500Y-97322475D01*
X86500500Y-97210646D01*
X86519407Y-97152455D01*
X86568907Y-97116491D01*
X86599500Y-97111646D01*
X88869823Y-97111646D01*
X88928014Y-97130553D01*
X88939820Y-97140636D01*
X88950839Y-97151655D01*
X88950841Y-97151656D01*
X88950843Y-97151658D01*
X89076365Y-97224128D01*
X89076366Y-97224128D01*
X89076369Y-97224130D01*
X89216379Y-97261646D01*
X89216380Y-97261646D01*
X89361328Y-97261646D01*
X89361329Y-97261646D01*
X89501339Y-97224130D01*
X89501341Y-97224128D01*
X89501343Y-97224128D01*
X89626864Y-97151658D01*
X89626864Y-97151657D01*
X89626869Y-97151655D01*
X89729363Y-97049161D01*
X89801838Y-96923631D01*
X89839354Y-96783621D01*
X89839354Y-96656114D01*
X109126500Y-96656114D01*
X109126500Y-96888685D01*
X109162879Y-97118377D01*
X109234747Y-97339563D01*
X109340326Y-97546776D01*
X109456959Y-97707306D01*
X109953077Y-97211187D01*
X109994251Y-97272808D01*
X110103592Y-97382149D01*
X110165209Y-97423320D01*
X109669091Y-97919439D01*
X109829623Y-98036073D01*
X110036836Y-98141652D01*
X110258022Y-98213520D01*
X110487715Y-98249900D01*
X110720285Y-98249900D01*
X110949977Y-98213520D01*
X111171163Y-98141652D01*
X111378378Y-98036072D01*
X111378384Y-98036068D01*
X111538907Y-97919440D01*
X111538907Y-97919439D01*
X111042789Y-97423321D01*
X111104408Y-97382149D01*
X111213749Y-97272808D01*
X111254921Y-97211189D01*
X111751039Y-97707307D01*
X111751040Y-97707307D01*
X111867668Y-97546784D01*
X111867672Y-97546778D01*
X111973252Y-97339563D01*
X112045120Y-97118377D01*
X112081500Y-96888685D01*
X112081500Y-96656114D01*
X112045120Y-96426422D01*
X111973252Y-96205236D01*
X111867673Y-95998023D01*
X111751039Y-95837491D01*
X111254920Y-96333609D01*
X111213749Y-96271992D01*
X111104408Y-96162651D01*
X111042787Y-96121477D01*
X111538906Y-95625359D01*
X111378376Y-95508726D01*
X111171163Y-95403147D01*
X110949977Y-95331279D01*
X110720285Y-95294900D01*
X110487715Y-95294900D01*
X110258022Y-95331279D01*
X110036836Y-95403147D01*
X109829621Y-95508727D01*
X109829617Y-95508729D01*
X109669091Y-95625358D01*
X110165211Y-96121478D01*
X110103592Y-96162651D01*
X109994251Y-96271992D01*
X109953078Y-96333611D01*
X109456958Y-95837491D01*
X109340329Y-95998017D01*
X109340327Y-95998021D01*
X109234747Y-96205236D01*
X109162879Y-96426422D01*
X109126500Y-96656114D01*
X89839354Y-96656114D01*
X89839354Y-96638671D01*
X89801838Y-96498661D01*
X89801836Y-96498658D01*
X89801836Y-96498656D01*
X89729366Y-96373135D01*
X89729364Y-96373133D01*
X89729363Y-96373131D01*
X89626869Y-96270637D01*
X89626866Y-96270635D01*
X89626864Y-96270633D01*
X89501342Y-96198163D01*
X89501343Y-96198163D01*
X89471750Y-96190233D01*
X89361329Y-96160646D01*
X89216379Y-96160646D01*
X89154644Y-96177187D01*
X89076364Y-96198163D01*
X88950843Y-96270633D01*
X88950842Y-96270634D01*
X88950839Y-96270636D01*
X88950839Y-96270637D01*
X88939824Y-96281651D01*
X88885310Y-96309427D01*
X88869823Y-96310646D01*
X86291581Y-96310646D01*
X86186127Y-96310646D01*
X86123783Y-96327350D01*
X86084261Y-96337940D01*
X85992945Y-96390662D01*
X85992940Y-96390666D01*
X85629520Y-96754085D01*
X85584304Y-96832400D01*
X85568573Y-96852901D01*
X85509490Y-96911985D01*
X85437017Y-97037510D01*
X85399500Y-97177525D01*
X78693918Y-97177525D01*
X77129496Y-95613103D01*
X77101719Y-95558586D01*
X77100500Y-95543099D01*
X77100500Y-92269031D01*
X77119407Y-92210840D01*
X77129490Y-92199033D01*
X77140509Y-92188015D01*
X77145534Y-92179312D01*
X77212982Y-92062489D01*
X77212982Y-92062487D01*
X77212984Y-92062485D01*
X77250500Y-91922475D01*
X77250500Y-91777525D01*
X77212984Y-91637515D01*
X77212982Y-91637512D01*
X77212982Y-91637510D01*
X77140512Y-91511989D01*
X77140510Y-91511987D01*
X77140509Y-91511985D01*
X77038015Y-91409491D01*
X77038012Y-91409489D01*
X77038010Y-91409487D01*
X76912488Y-91337017D01*
X76912489Y-91337017D01*
X76882896Y-91329087D01*
X76772475Y-91299500D01*
X76772474Y-91299500D01*
X76756900Y-91299500D01*
X76698709Y-91280593D01*
X76686896Y-91270504D01*
X75529496Y-90113103D01*
X75501719Y-90058586D01*
X75500500Y-90043099D01*
X75500500Y-88700001D01*
X80350000Y-88700001D01*
X80350000Y-88841104D01*
X80360132Y-88925468D01*
X80413077Y-89059729D01*
X80500276Y-89174717D01*
X80500282Y-89174723D01*
X80615270Y-89261922D01*
X80749531Y-89314867D01*
X80833895Y-89324999D01*
X80833900Y-89325000D01*
X80949999Y-89325000D01*
X80950000Y-89324999D01*
X80950000Y-88700001D01*
X80949999Y-88700000D01*
X80350001Y-88700000D01*
X80350000Y-88700001D01*
X75500500Y-88700001D01*
X75500500Y-85369031D01*
X75519407Y-85310840D01*
X75529490Y-85299033D01*
X75540509Y-85288015D01*
X75540512Y-85288010D01*
X75612982Y-85162489D01*
X75612982Y-85162487D01*
X75612984Y-85162485D01*
X75650500Y-85022475D01*
X75650500Y-84877525D01*
X75612984Y-84737515D01*
X75612982Y-84737512D01*
X75612980Y-84737503D01*
X75612928Y-84737377D01*
X75612920Y-84737278D01*
X75611304Y-84731247D01*
X75612422Y-84730947D01*
X75608132Y-84676380D01*
X75640106Y-84624214D01*
X75696636Y-84600804D01*
X75704395Y-84600500D01*
X76652725Y-84600500D01*
X76652727Y-84600500D01*
X76754588Y-84573207D01*
X76754590Y-84573205D01*
X76754592Y-84573205D01*
X76845908Y-84520483D01*
X76845908Y-84520482D01*
X76845913Y-84520480D01*
X80938542Y-80427849D01*
X80993057Y-80400074D01*
X81021469Y-80399702D01*
X81027521Y-80400498D01*
X81027525Y-80400500D01*
X81027529Y-80400500D01*
X81172474Y-80400500D01*
X81172475Y-80400500D01*
X81312485Y-80362984D01*
X81312487Y-80362982D01*
X81312489Y-80362982D01*
X81438010Y-80290512D01*
X81438010Y-80290511D01*
X81438015Y-80290509D01*
X81540509Y-80188015D01*
X81549977Y-80171616D01*
X81612982Y-80062489D01*
X81612982Y-80062487D01*
X81612984Y-80062485D01*
X81650500Y-79922475D01*
X81650500Y-79777525D01*
X81612984Y-79637515D01*
X81612982Y-79637512D01*
X81612982Y-79637510D01*
X81540512Y-79511989D01*
X81540510Y-79511987D01*
X81540509Y-79511985D01*
X81438015Y-79409491D01*
X81438012Y-79409489D01*
X81438010Y-79409487D01*
X81312488Y-79337017D01*
X81312489Y-79337017D01*
X81306642Y-79335450D01*
X81172475Y-79299500D01*
X81027525Y-79299500D01*
X81007395Y-79304894D01*
X80887510Y-79337017D01*
X80761989Y-79409487D01*
X80659490Y-79511986D01*
X80635183Y-79554087D01*
X80587016Y-79637515D01*
X80587015Y-79637516D01*
X80583773Y-79643133D01*
X80582911Y-79642635D01*
X80566675Y-79666930D01*
X76463103Y-83770504D01*
X76408586Y-83798281D01*
X76393099Y-83799500D01*
X67852727Y-83799500D01*
X67747273Y-83799500D01*
X67689212Y-83815057D01*
X67645407Y-83826794D01*
X67554091Y-83879516D01*
X66263103Y-85170504D01*
X66208586Y-85198281D01*
X66193099Y-85199500D01*
X63927545Y-85199500D01*
X63886757Y-85210429D01*
X63825683Y-85226793D01*
X63763000Y-85262982D01*
X63763001Y-85262983D01*
X63734360Y-85279518D01*
X63734358Y-85279520D01*
X63560549Y-85453328D01*
X63506032Y-85481105D01*
X63445600Y-85471533D01*
X63402336Y-85428269D01*
X63393448Y-85402634D01*
X63391856Y-85394632D01*
X63391855Y-85394626D01*
X63361153Y-85320504D01*
X63325860Y-85235299D01*
X63325854Y-85235287D01*
X63269200Y-85150500D01*
X63230045Y-85091901D01*
X63108099Y-84969955D01*
X63060796Y-84938348D01*
X62964712Y-84874145D01*
X62964700Y-84874139D01*
X62805374Y-84808145D01*
X62636231Y-84774500D01*
X62636229Y-84774500D01*
X62463771Y-84774500D01*
X62463768Y-84774500D01*
X62294626Y-84808145D01*
X62294624Y-84808145D01*
X62135299Y-84874139D01*
X62135287Y-84874145D01*
X61991901Y-84969955D01*
X61991897Y-84969958D01*
X61869958Y-85091897D01*
X61869955Y-85091901D01*
X61774145Y-85235287D01*
X61774139Y-85235299D01*
X61708145Y-85394624D01*
X61708145Y-85394626D01*
X61674500Y-85563768D01*
X60250500Y-85563768D01*
X60250500Y-81899999D01*
X60634889Y-81899999D01*
X60634890Y-81900000D01*
X61278590Y-81900000D01*
X61275556Y-81905255D01*
X61250000Y-82000630D01*
X61250000Y-82099370D01*
X61275556Y-82194745D01*
X61278590Y-82200000D01*
X60634889Y-82200000D01*
X60652393Y-82310508D01*
X60706505Y-82477050D01*
X60786003Y-82633074D01*
X60888932Y-82774743D01*
X61012756Y-82898567D01*
X61154425Y-83001496D01*
X61310449Y-83080994D01*
X61476991Y-83135106D01*
X61649941Y-83162500D01*
X62399999Y-83162500D01*
X62400000Y-83162499D01*
X62400000Y-82425000D01*
X62700000Y-82425000D01*
X62700000Y-83162499D01*
X62700001Y-83162500D01*
X63450059Y-83162500D01*
X63623008Y-83135106D01*
X63789550Y-83080994D01*
X63945574Y-83001496D01*
X64087243Y-82898567D01*
X64211067Y-82774743D01*
X64313996Y-82633074D01*
X64393494Y-82477050D01*
X64447606Y-82310508D01*
X64465110Y-82200000D01*
X63821410Y-82200000D01*
X63824444Y-82194745D01*
X63850000Y-82099370D01*
X63850000Y-82000630D01*
X63824444Y-81905255D01*
X63821410Y-81900000D01*
X64465110Y-81900000D01*
X64465110Y-81899999D01*
X64447606Y-81789491D01*
X64393494Y-81622949D01*
X64313996Y-81466925D01*
X64211067Y-81325256D01*
X64087243Y-81201432D01*
X63945574Y-81098503D01*
X63789550Y-81019005D01*
X63623008Y-80964893D01*
X63450059Y-80937500D01*
X62700001Y-80937500D01*
X62700000Y-80937501D01*
X62700000Y-81675000D01*
X62400000Y-81675000D01*
X62400000Y-80937501D01*
X62399999Y-80937500D01*
X61649941Y-80937500D01*
X61476991Y-80964893D01*
X61310449Y-81019005D01*
X61154425Y-81098503D01*
X61012756Y-81201432D01*
X60888932Y-81325256D01*
X60786003Y-81466925D01*
X60706505Y-81622949D01*
X60652393Y-81789491D01*
X60634889Y-81899999D01*
X60250500Y-81899999D01*
X60250500Y-79233895D01*
X87975000Y-79233895D01*
X87975000Y-79349999D01*
X87975001Y-79350000D01*
X88599999Y-79350000D01*
X88600000Y-79349999D01*
X88600000Y-78750001D01*
X88900000Y-78750001D01*
X88900000Y-79349999D01*
X88900001Y-79350000D01*
X89524999Y-79350000D01*
X89525000Y-79349999D01*
X89525000Y-79233899D01*
X89524999Y-79233895D01*
X89514867Y-79149531D01*
X89461922Y-79015270D01*
X89374723Y-78900282D01*
X89374717Y-78900276D01*
X89259729Y-78813077D01*
X89125468Y-78760132D01*
X89041104Y-78750000D01*
X88900001Y-78750000D01*
X88900000Y-78750001D01*
X88600000Y-78750001D01*
X88599999Y-78750000D01*
X88458895Y-78750000D01*
X88374531Y-78760132D01*
X88240270Y-78813077D01*
X88125282Y-78900276D01*
X88125276Y-78900282D01*
X88038077Y-79015270D01*
X87985132Y-79149531D01*
X87975000Y-79233895D01*
X60250500Y-79233895D01*
X60250500Y-76003539D01*
X60250752Y-75996477D01*
X60256154Y-75920943D01*
X60265258Y-75793652D01*
X60267265Y-75779693D01*
X60309737Y-75584447D01*
X60313711Y-75570914D01*
X60383539Y-75383701D01*
X60389391Y-75370886D01*
X60485150Y-75195516D01*
X60492777Y-75183648D01*
X60612515Y-75023698D01*
X60621749Y-75013040D01*
X60763040Y-74871749D01*
X60773698Y-74862515D01*
X60933648Y-74742777D01*
X60945516Y-74735150D01*
X61120886Y-74639391D01*
X61133701Y-74633539D01*
X61320914Y-74563711D01*
X61334447Y-74559737D01*
X61529693Y-74517265D01*
X61543652Y-74515258D01*
X61723568Y-74502390D01*
X61746478Y-74500752D01*
X61753540Y-74500500D01*
X61815892Y-74500500D01*
X118943323Y-74500500D01*
X119005691Y-74500500D01*
X119012733Y-74500751D01*
G37*
%TD.AperFunction*%
%TA.AperFunction,Conductor*%
G36*
X93138570Y-90169407D02*
G01*
X93174534Y-90218907D01*
X93175895Y-90223505D01*
X93175926Y-90223579D01*
X93248396Y-90349101D01*
X93248398Y-90349103D01*
X93248400Y-90349106D01*
X93350894Y-90451600D01*
X93350896Y-90451601D01*
X93350898Y-90451603D01*
X93476420Y-90524073D01*
X93476421Y-90524073D01*
X93476424Y-90524075D01*
X93616434Y-90561591D01*
X93616435Y-90561591D01*
X93761385Y-90561591D01*
X93767818Y-90560744D01*
X93768016Y-90562249D01*
X93821509Y-90565041D01*
X93869067Y-90603536D01*
X93878147Y-90621154D01*
X93913074Y-90709724D01*
X93913077Y-90709728D01*
X94000276Y-90824717D01*
X94000282Y-90824723D01*
X94115270Y-90911922D01*
X94249531Y-90964867D01*
X94333895Y-90974999D01*
X94333900Y-90975000D01*
X94449999Y-90975000D01*
X94450000Y-90974999D01*
X94450000Y-90299000D01*
X94454845Y-90284088D01*
X94454845Y-90268407D01*
X94464061Y-90255721D01*
X94468907Y-90240809D01*
X94481592Y-90231592D01*
X94490809Y-90218907D01*
X94505721Y-90214061D01*
X94518407Y-90204845D01*
X94549000Y-90200000D01*
X94651000Y-90200000D01*
X94709191Y-90218907D01*
X94745155Y-90268407D01*
X94750000Y-90299000D01*
X94750000Y-90974999D01*
X94750001Y-90975000D01*
X94866100Y-90975000D01*
X94866104Y-90974999D01*
X94950468Y-90964867D01*
X95084729Y-90911922D01*
X95199717Y-90824723D01*
X95199723Y-90824717D01*
X95286922Y-90709729D01*
X95288412Y-90707079D01*
X95290137Y-90705489D01*
X95291015Y-90704332D01*
X95291222Y-90704489D01*
X95333409Y-90665620D01*
X95394182Y-90658527D01*
X95447517Y-90688510D01*
X95461006Y-90707075D01*
X95462634Y-90709970D01*
X95462636Y-90709975D01*
X95549922Y-90825078D01*
X95665025Y-90912364D01*
X95665026Y-90912364D01*
X95665027Y-90912365D01*
X95702286Y-90927058D01*
X95799410Y-90965359D01*
X95883856Y-90975500D01*
X96152000Y-90975500D01*
X96210191Y-90994407D01*
X96246155Y-91043907D01*
X96246155Y-91105093D01*
X96222004Y-91144503D01*
X95739778Y-91626729D01*
X95278517Y-92087990D01*
X95278516Y-92087991D01*
X95225794Y-92179308D01*
X95225793Y-92179309D01*
X95223460Y-92188018D01*
X95198500Y-92281173D01*
X95198500Y-93214867D01*
X95179593Y-93273058D01*
X95169504Y-93284870D01*
X95128520Y-93325853D01*
X95128516Y-93325859D01*
X95075794Y-93417175D01*
X95070478Y-93437016D01*
X95057781Y-93484402D01*
X95057781Y-93484403D01*
X95057780Y-93484402D01*
X95048500Y-93519039D01*
X95048500Y-94944099D01*
X95046031Y-94951696D01*
X95047281Y-94959586D01*
X95036756Y-94980241D01*
X95029593Y-95002290D01*
X95019504Y-95014103D01*
X95013103Y-95020504D01*
X94958586Y-95048281D01*
X94943099Y-95049500D01*
X94174500Y-95049500D01*
X94116309Y-95030593D01*
X94080345Y-94981093D01*
X94075500Y-94950500D01*
X94075500Y-94540599D01*
X94075500Y-94540598D01*
X94065479Y-94457154D01*
X94039312Y-94390798D01*
X94013116Y-94324370D01*
X94013115Y-94324369D01*
X94013115Y-94324368D01*
X93926867Y-94210633D01*
X93863380Y-94162489D01*
X93813134Y-94124386D01*
X93813132Y-94124385D01*
X93762950Y-94104596D01*
X93715756Y-94065661D01*
X93700459Y-94006419D01*
X93722905Y-93949499D01*
X93762949Y-93920404D01*
X93813132Y-93900615D01*
X93926867Y-93814367D01*
X94013115Y-93700632D01*
X94065479Y-93567846D01*
X94075500Y-93484402D01*
X94075500Y-92965598D01*
X94065479Y-92882154D01*
X94065478Y-92882151D01*
X94013116Y-92749370D01*
X94013115Y-92749369D01*
X94013115Y-92749368D01*
X93926867Y-92635633D01*
X93813132Y-92549385D01*
X93813131Y-92549384D01*
X93813129Y-92549383D01*
X93734224Y-92518267D01*
X93687027Y-92479330D01*
X93674916Y-92451790D01*
X93673207Y-92445412D01*
X93673204Y-92445406D01*
X93620483Y-92354091D01*
X93620482Y-92354090D01*
X93620481Y-92354089D01*
X93620480Y-92354087D01*
X92029496Y-90763103D01*
X92001719Y-90708586D01*
X92000500Y-90693099D01*
X92000500Y-90249500D01*
X92019407Y-90191309D01*
X92068907Y-90155345D01*
X92099500Y-90150500D01*
X93080379Y-90150500D01*
X93138570Y-90169407D01*
G37*
%TD.AperFunction*%
%TA.AperFunction,Conductor*%
G36*
X91199558Y-84330676D02*
G01*
X91242823Y-84373941D01*
X91252394Y-84434373D01*
X91250242Y-84444501D01*
X91249500Y-84447269D01*
X91249500Y-85833480D01*
X91246127Y-85859102D01*
X91236398Y-85895413D01*
X91236397Y-85895412D01*
X91230922Y-85915847D01*
X91230922Y-88216970D01*
X91227549Y-88242593D01*
X91226794Y-88245409D01*
X91226793Y-88245412D01*
X91207919Y-88315851D01*
X91207919Y-88315852D01*
X91207918Y-88315851D01*
X91199500Y-88347271D01*
X91199500Y-88347273D01*
X91199500Y-89597273D01*
X91199500Y-90847273D01*
X91199500Y-90952727D01*
X91213541Y-91005128D01*
X91226794Y-91054592D01*
X91279516Y-91145908D01*
X91279517Y-91145909D01*
X91279518Y-91145910D01*
X91279520Y-91145913D01*
X91970502Y-91836895D01*
X92653541Y-92519934D01*
X92681318Y-92574451D01*
X92671747Y-92634883D01*
X92662421Y-92649757D01*
X92586886Y-92749366D01*
X92586883Y-92749370D01*
X92534521Y-92882151D01*
X92524500Y-92965595D01*
X92524500Y-93484401D01*
X92534521Y-93567848D01*
X92586883Y-93700629D01*
X92586884Y-93700631D01*
X92586885Y-93700632D01*
X92673133Y-93814367D01*
X92786868Y-93900615D01*
X92786869Y-93900615D01*
X92786870Y-93900616D01*
X92837046Y-93920403D01*
X92884243Y-93959339D01*
X92899540Y-94018582D01*
X92877094Y-94075501D01*
X92837046Y-94104597D01*
X92786870Y-94124383D01*
X92786866Y-94124386D01*
X92673136Y-94210630D01*
X92673130Y-94210636D01*
X92586886Y-94324366D01*
X92586883Y-94324370D01*
X92534521Y-94457151D01*
X92524500Y-94540595D01*
X92524500Y-94650500D01*
X92505593Y-94708691D01*
X92456093Y-94744655D01*
X92425500Y-94749500D01*
X90155901Y-94749500D01*
X90097710Y-94730593D01*
X90061746Y-94681093D01*
X90061746Y-94619907D01*
X90085897Y-94580497D01*
X91449981Y-93216410D01*
X91504498Y-93188632D01*
X91521036Y-93188420D01*
X91521036Y-93187552D01*
X91672474Y-93187552D01*
X91672475Y-93187552D01*
X91812485Y-93150036D01*
X91812487Y-93150034D01*
X91812489Y-93150034D01*
X91938010Y-93077564D01*
X91938010Y-93077563D01*
X91938015Y-93077561D01*
X92040509Y-92975067D01*
X92049752Y-92959058D01*
X92112982Y-92849541D01*
X92112982Y-92849539D01*
X92112984Y-92849537D01*
X92150500Y-92709527D01*
X92150500Y-92564577D01*
X92112984Y-92424567D01*
X92112982Y-92424563D01*
X92112982Y-92424562D01*
X92040512Y-92299041D01*
X92040510Y-92299039D01*
X92040509Y-92299037D01*
X91938015Y-92196543D01*
X91938012Y-92196541D01*
X91938010Y-92196539D01*
X91812488Y-92124069D01*
X91812489Y-92124069D01*
X91782896Y-92116139D01*
X91672475Y-92086552D01*
X91527525Y-92086552D01*
X91465790Y-92103093D01*
X91387510Y-92124069D01*
X91261989Y-92196539D01*
X91159487Y-92299041D01*
X91087017Y-92424563D01*
X91087015Y-92424566D01*
X91085818Y-92429036D01*
X91060197Y-92473409D01*
X89213103Y-94320504D01*
X89158586Y-94348281D01*
X89143099Y-94349500D01*
X87418688Y-94349500D01*
X87394195Y-94341542D01*
X87369023Y-94336141D01*
X87365506Y-94332220D01*
X87360497Y-94330593D01*
X87345359Y-94309757D01*
X87328170Y-94290593D01*
X87327778Y-94285560D01*
X87324533Y-94281093D01*
X87321891Y-94229730D01*
X87322414Y-94227290D01*
X87350500Y-94122475D01*
X87350500Y-94096397D01*
X87352703Y-94086130D01*
X87363039Y-94068305D01*
X87369407Y-94048709D01*
X87379490Y-94036902D01*
X87720480Y-93695913D01*
X87739826Y-93662405D01*
X87773205Y-93604592D01*
X87773205Y-93604590D01*
X87773207Y-93604588D01*
X87800500Y-93502727D01*
X87800500Y-93397273D01*
X87800500Y-92919031D01*
X87819407Y-92860840D01*
X87829490Y-92849033D01*
X87840509Y-92838015D01*
X87863567Y-92798077D01*
X87912982Y-92712489D01*
X87912982Y-92712487D01*
X87912984Y-92712485D01*
X87950500Y-92572475D01*
X87950500Y-92427525D01*
X87912984Y-92287515D01*
X87912982Y-92287512D01*
X87912982Y-92287510D01*
X87840512Y-92161989D01*
X87840510Y-92161987D01*
X87840509Y-92161985D01*
X87738015Y-92059491D01*
X87738012Y-92059489D01*
X87738010Y-92059487D01*
X87612488Y-91987017D01*
X87612489Y-91987017D01*
X87549929Y-91970254D01*
X87472475Y-91949500D01*
X87327525Y-91949500D01*
X87267126Y-91965684D01*
X87187510Y-91987017D01*
X87061989Y-92059487D01*
X86959487Y-92161989D01*
X86908674Y-92250001D01*
X86863205Y-92290942D01*
X86822938Y-92299501D01*
X86720348Y-92299501D01*
X86683065Y-92309491D01*
X86580336Y-92337017D01*
X86580333Y-92337019D01*
X86573342Y-92341055D01*
X86513493Y-92353773D01*
X86457599Y-92328884D01*
X86453862Y-92325338D01*
X86438015Y-92309491D01*
X86438012Y-92309489D01*
X86438010Y-92309487D01*
X86312488Y-92237017D01*
X86312489Y-92237017D01*
X86252370Y-92220908D01*
X86172475Y-92199500D01*
X86027525Y-92199500D01*
X85985204Y-92210840D01*
X85887510Y-92237017D01*
X85761989Y-92309487D01*
X85761988Y-92309488D01*
X85761985Y-92309490D01*
X85761985Y-92309491D01*
X85750970Y-92320505D01*
X85696456Y-92348281D01*
X85680969Y-92349500D01*
X84606900Y-92349500D01*
X84548709Y-92330593D01*
X84536896Y-92320503D01*
X84054496Y-91838102D01*
X84026719Y-91783586D01*
X84025500Y-91768099D01*
X84025500Y-91111132D01*
X84044407Y-91052941D01*
X84054490Y-91041134D01*
X84371480Y-90724145D01*
X84373176Y-90721207D01*
X84424205Y-90632824D01*
X84424205Y-90632822D01*
X84424207Y-90632820D01*
X84451500Y-90530959D01*
X84451500Y-90425505D01*
X84451500Y-90355900D01*
X84470407Y-90297709D01*
X84480496Y-90285896D01*
X89435896Y-85330496D01*
X89490413Y-85302719D01*
X89505900Y-85301500D01*
X90018825Y-85301500D01*
X90018827Y-85301500D01*
X90120688Y-85274207D01*
X90120690Y-85274205D01*
X90120692Y-85274205D01*
X90212008Y-85221483D01*
X90212008Y-85221482D01*
X90212013Y-85221480D01*
X91084613Y-84348879D01*
X91139126Y-84321105D01*
X91199558Y-84330676D01*
G37*
%TD.AperFunction*%
%TA.AperFunction,Conductor*%
G36*
X96765379Y-87238040D02*
G01*
X96789394Y-87244241D01*
X96793391Y-87249086D01*
X96799233Y-87251390D01*
X96828328Y-87291434D01*
X96836885Y-87313132D01*
X96836886Y-87313134D01*
X96866909Y-87352725D01*
X96923133Y-87426867D01*
X97036868Y-87513115D01*
X97036869Y-87513115D01*
X97036870Y-87513116D01*
X97169651Y-87565478D01*
X97169654Y-87565479D01*
X97253098Y-87575500D01*
X97253100Y-87575500D01*
X97771900Y-87575500D01*
X97771902Y-87575500D01*
X97855346Y-87565479D01*
X97926298Y-87537498D01*
X97987366Y-87533740D01*
X98038982Y-87566594D01*
X98061429Y-87623514D01*
X98048353Y-87679096D01*
X98010491Y-87744673D01*
X98001544Y-87778066D01*
X97990860Y-87817942D01*
X97990823Y-87818079D01*
X97983198Y-87846536D01*
X97983198Y-87950500D01*
X97964291Y-88008691D01*
X97914791Y-88044655D01*
X97884198Y-88049500D01*
X97677837Y-88049500D01*
X97572383Y-88049500D01*
X97510039Y-88066204D01*
X97470517Y-88076794D01*
X97379201Y-88129516D01*
X97379195Y-88129521D01*
X97365435Y-88143281D01*
X97310917Y-88171058D01*
X97250486Y-88161484D01*
X97207222Y-88118219D01*
X97197139Y-88085080D01*
X97189867Y-88024531D01*
X97136922Y-87890270D01*
X97049723Y-87775282D01*
X97049717Y-87775276D01*
X96934729Y-87688077D01*
X96800468Y-87635132D01*
X96716104Y-87625000D01*
X96580008Y-87625000D01*
X96521817Y-87606093D01*
X96485853Y-87556593D01*
X96485853Y-87495407D01*
X96520188Y-87447117D01*
X96549716Y-87424724D01*
X96549723Y-87424717D01*
X96636922Y-87309728D01*
X96644135Y-87291439D01*
X96659915Y-87272309D01*
X96673232Y-87251390D01*
X96679074Y-87249085D01*
X96683071Y-87244242D01*
X96707080Y-87238041D01*
X96730152Y-87228944D01*
X96736232Y-87230514D01*
X96742313Y-87228944D01*
X96765379Y-87238040D01*
G37*
%TD.AperFunction*%
%TA.AperFunction,Conductor*%
G36*
X81449868Y-87461723D02*
G01*
X81456391Y-87461799D01*
X81476101Y-87476470D01*
X81497517Y-87488510D01*
X81503692Y-87497008D01*
X81505471Y-87498333D01*
X81506086Y-87500303D01*
X81511006Y-87507075D01*
X81512634Y-87509970D01*
X81512636Y-87509975D01*
X81599922Y-87625078D01*
X81715025Y-87712364D01*
X81849410Y-87765359D01*
X81933856Y-87775500D01*
X81963912Y-87775500D01*
X81979343Y-87780513D01*
X81995566Y-87780697D01*
X82007707Y-87789729D01*
X82022103Y-87794407D01*
X82031640Y-87807534D01*
X82044656Y-87817217D01*
X82049169Y-87831660D01*
X82058067Y-87843907D01*
X82058067Y-87860132D01*
X82062906Y-87875618D01*
X82058067Y-87889743D01*
X82058067Y-87905093D01*
X82043343Y-87933591D01*
X82043082Y-87933941D01*
X81962636Y-88040025D01*
X81960913Y-88044393D01*
X81954141Y-88053497D01*
X81934086Y-88067724D01*
X81916002Y-88084384D01*
X81909541Y-88085137D01*
X81904238Y-88088900D01*
X81879652Y-88088622D01*
X81855229Y-88091470D01*
X81849560Y-88088282D01*
X81843056Y-88088209D01*
X81823329Y-88073533D01*
X81801896Y-88061482D01*
X81795740Y-88053009D01*
X81793966Y-88051689D01*
X81793350Y-88049718D01*
X81788414Y-88042924D01*
X81786922Y-88040271D01*
X81699723Y-87925282D01*
X81699718Y-87925277D01*
X81676006Y-87907295D01*
X81523509Y-87813934D01*
X81450470Y-87785132D01*
X81366104Y-87775000D01*
X81335081Y-87775000D01*
X81319636Y-87769981D01*
X81303400Y-87769794D01*
X81291271Y-87760765D01*
X81276890Y-87756093D01*
X81267345Y-87742955D01*
X81254320Y-87733260D01*
X81249814Y-87718827D01*
X81240926Y-87706593D01*
X81240926Y-87690352D01*
X81236088Y-87674854D01*
X81240926Y-87660737D01*
X81240926Y-87645407D01*
X81255667Y-87616886D01*
X81345296Y-87496479D01*
X81365340Y-87482268D01*
X81383409Y-87465620D01*
X81389888Y-87464863D01*
X81395210Y-87461091D01*
X81419777Y-87461375D01*
X81444182Y-87458527D01*
X81449868Y-87461723D01*
G37*
%TD.AperFunction*%
%TA.AperFunction,Conductor*%
G36*
X95248094Y-87288507D02*
G01*
X95261583Y-87307072D01*
X95263074Y-87309725D01*
X95350276Y-87424717D01*
X95350282Y-87424723D01*
X95454068Y-87503427D01*
X95489662Y-87521541D01*
X95599527Y-87564867D01*
X95683895Y-87574999D01*
X95683900Y-87575000D01*
X95819992Y-87575000D01*
X95878183Y-87593907D01*
X95914147Y-87643407D01*
X95914147Y-87704593D01*
X95879812Y-87752883D01*
X95850283Y-87775275D01*
X95850276Y-87775282D01*
X95763076Y-87890272D01*
X95761581Y-87892932D01*
X95759852Y-87894524D01*
X95758985Y-87895668D01*
X95758779Y-87895512D01*
X95716578Y-87934385D01*
X95655804Y-87941470D01*
X95602473Y-87911479D01*
X95588991Y-87892921D01*
X95587367Y-87890033D01*
X95587364Y-87890025D01*
X95500078Y-87774922D01*
X95384975Y-87687636D01*
X95360587Y-87678018D01*
X95360584Y-87678017D01*
X95250591Y-87634641D01*
X95166148Y-87624500D01*
X95166144Y-87624500D01*
X95031495Y-87624500D01*
X94973304Y-87605593D01*
X94937340Y-87556093D01*
X94937340Y-87494907D01*
X94971673Y-87446617D01*
X95000078Y-87425078D01*
X95087364Y-87309975D01*
X95087367Y-87309966D01*
X95088989Y-87307082D01*
X95090874Y-87305344D01*
X95091455Y-87304579D01*
X95091592Y-87304683D01*
X95133985Y-87265621D01*
X95194757Y-87258526D01*
X95248094Y-87288507D01*
G37*
%TD.AperFunction*%
%TD*%
M02*
