%TF.GenerationSoftware,KiCad,Pcbnew,9.0.7*%
%TF.CreationDate,2026-02-22T17:03:13-05:00*%
%TF.ProjectId,USBToEthernet,55534254-6f45-4746-9865-726e65742e6b,rev?*%
%TF.SameCoordinates,Original*%
%TF.FileFunction,Copper,L1,Top*%
%TF.FilePolarity,Positive*%
%FSLAX46Y46*%
G04 Gerber Fmt 4.6, Leading zero omitted, Abs format (unit mm)*
G04 Created by KiCad (PCBNEW 9.0.7) date 2026-02-22 17:03:13*
%MOMM*%
%LPD*%
G01*
G04 APERTURE LIST*
G04 Aperture macros list*
%AMRoundRect*
0 Rectangle with rounded corners*
0 $1 Rounding radius*
0 $2 $3 $4 $5 $6 $7 $8 $9 X,Y pos of 4 corners*
0 Add a 4 corners polygon primitive as box body*
4,1,4,$2,$3,$4,$5,$6,$7,$8,$9,$2,$3,0*
0 Add four circle primitives for the rounded corners*
1,1,$1+$1,$2,$3*
1,1,$1+$1,$4,$5*
1,1,$1+$1,$6,$7*
1,1,$1+$1,$8,$9*
0 Add four rect primitives between the rounded corners*
20,1,$1+$1,$2,$3,$4,$5,0*
20,1,$1+$1,$4,$5,$6,$7,0*
20,1,$1+$1,$6,$7,$8,$9,0*
20,1,$1+$1,$8,$9,$2,$3,0*%
G04 Aperture macros list end*
%TA.AperFunction,SMDPad,CuDef*%
%ADD10RoundRect,0.200000X-0.200000X-0.275000X0.200000X-0.275000X0.200000X0.275000X-0.200000X0.275000X0*%
%TD*%
%TA.AperFunction,SMDPad,CuDef*%
%ADD11RoundRect,0.200000X-0.275000X0.200000X-0.275000X-0.200000X0.275000X-0.200000X0.275000X0.200000X0*%
%TD*%
%TA.AperFunction,SMDPad,CuDef*%
%ADD12RoundRect,0.150000X0.512500X0.150000X-0.512500X0.150000X-0.512500X-0.150000X0.512500X-0.150000X0*%
%TD*%
%TA.AperFunction,SMDPad,CuDef*%
%ADD13RoundRect,0.250000X0.400000X-0.525000X0.400000X0.525000X-0.400000X0.525000X-0.400000X-0.525000X0*%
%TD*%
%TA.AperFunction,SMDPad,CuDef*%
%ADD14RoundRect,0.062500X-0.062500X0.375000X-0.062500X-0.375000X0.062500X-0.375000X0.062500X0.375000X0*%
%TD*%
%TA.AperFunction,SMDPad,CuDef*%
%ADD15RoundRect,0.062500X-0.375000X0.062500X-0.375000X-0.062500X0.375000X-0.062500X0.375000X0.062500X0*%
%TD*%
%TA.AperFunction,HeatsinkPad*%
%ADD16R,5.900000X5.900000*%
%TD*%
%TA.AperFunction,SMDPad,CuDef*%
%ADD17RoundRect,0.200000X0.275000X-0.200000X0.275000X0.200000X-0.275000X0.200000X-0.275000X-0.200000X0*%
%TD*%
%TA.AperFunction,SMDPad,CuDef*%
%ADD18RoundRect,0.225000X-0.250000X0.225000X-0.250000X-0.225000X0.250000X-0.225000X0.250000X0.225000X0*%
%TD*%
%TA.AperFunction,SMDPad,CuDef*%
%ADD19RoundRect,0.225000X0.225000X0.250000X-0.225000X0.250000X-0.225000X-0.250000X0.225000X-0.250000X0*%
%TD*%
%TA.AperFunction,SMDPad,CuDef*%
%ADD20RoundRect,0.375000X-0.375000X0.625000X-0.375000X-0.625000X0.375000X-0.625000X0.375000X0.625000X0*%
%TD*%
%TA.AperFunction,SMDPad,CuDef*%
%ADD21RoundRect,0.500000X-1.400000X0.500000X-1.400000X-0.500000X1.400000X-0.500000X1.400000X0.500000X0*%
%TD*%
%TA.AperFunction,SMDPad,CuDef*%
%ADD22RoundRect,0.225000X0.250000X-0.225000X0.250000X0.225000X-0.250000X0.225000X-0.250000X-0.225000X0*%
%TD*%
%TA.AperFunction,SMDPad,CuDef*%
%ADD23RoundRect,0.150000X-0.512500X-0.150000X0.512500X-0.150000X0.512500X0.150000X-0.512500X0.150000X0*%
%TD*%
%TA.AperFunction,SMDPad,CuDef*%
%ADD24RoundRect,0.250000X-0.450000X-0.350000X0.450000X-0.350000X0.450000X0.350000X-0.450000X0.350000X0*%
%TD*%
%TA.AperFunction,SMDPad,CuDef*%
%ADD25RoundRect,0.200000X0.200000X0.275000X-0.200000X0.275000X-0.200000X-0.275000X0.200000X-0.275000X0*%
%TD*%
%TA.AperFunction,ComponentPad*%
%ADD26R,1.530000X1.530000*%
%TD*%
%TA.AperFunction,ComponentPad*%
%ADD27C,1.530000*%
%TD*%
%TA.AperFunction,ComponentPad*%
%ADD28C,1.905000*%
%TD*%
%TA.AperFunction,ComponentPad*%
%ADD29C,2.355000*%
%TD*%
%TA.AperFunction,SMDPad,CuDef*%
%ADD30RoundRect,0.375000X-0.625000X-0.375000X0.625000X-0.375000X0.625000X0.375000X-0.625000X0.375000X0*%
%TD*%
%TA.AperFunction,SMDPad,CuDef*%
%ADD31RoundRect,0.500000X-0.500000X-1.400000X0.500000X-1.400000X0.500000X1.400000X-0.500000X1.400000X0*%
%TD*%
%TA.AperFunction,SMDPad,CuDef*%
%ADD32RoundRect,0.218750X-0.256250X0.218750X-0.256250X-0.218750X0.256250X-0.218750X0.256250X0.218750X0*%
%TD*%
%TA.AperFunction,SMDPad,CuDef*%
%ADD33R,2.000000X1.200000*%
%TD*%
%TA.AperFunction,ComponentPad*%
%ADD34O,3.250000X1.625000*%
%TD*%
%TA.AperFunction,ViaPad*%
%ADD35C,0.700000*%
%TD*%
%TA.AperFunction,ViaPad*%
%ADD36C,0.600000*%
%TD*%
%TA.AperFunction,ViaPad*%
%ADD37C,0.500000*%
%TD*%
%TA.AperFunction,Conductor*%
%ADD38C,0.250000*%
%TD*%
%TA.AperFunction,Conductor*%
%ADD39C,0.500000*%
%TD*%
%TA.AperFunction,Conductor*%
%ADD40C,0.200000*%
%TD*%
G04 APERTURE END LIST*
D10*
%TO.P,R3,1*%
%TO.N,+3V3*%
X116675000Y-76500000D03*
%TO.P,R3,2*%
%TO.N,Net-(J2-Pad14)*%
X118325000Y-76500000D03*
%TD*%
D11*
%TO.P,R12,1*%
%TO.N,/TR0*%
X95500000Y-81050000D03*
%TO.P,R12,2*%
%TO.N,/TR3-*%
X95500000Y-82700000D03*
%TD*%
D12*
%TO.P,U3,1,DO*%
%TO.N,/MISO*%
X80400000Y-91850000D03*
%TO.P,U3,2,GND*%
%TO.N,GND*%
X80400000Y-90900000D03*
%TO.P,U3,3,DI*%
%TO.N,/MOSI*%
X80400000Y-89950000D03*
%TO.P,U3,4,CLK*%
%TO.N,/EECLK*%
X78125000Y-89950000D03*
%TO.P,U3,5,CS*%
%TO.N,/EECS*%
X78125000Y-90900000D03*
%TO.P,U3,6,VCC*%
%TO.N,+3V3*%
X78125000Y-91850000D03*
%TD*%
D13*
%TO.P,SW1,1,1*%
%TO.N,GND*%
X77350000Y-101860000D03*
X77350000Y-93900000D03*
%TO.P,SW1,2,2*%
%TO.N,/RESET*%
X81850000Y-101860000D03*
X81850000Y-93900000D03*
%TD*%
D14*
%TO.P,U1,1,TDI*%
%TO.N,+3V3*%
X91550000Y-83562500D03*
%TO.P,U1,2,TCK*%
%TO.N,GND*%
X91050000Y-83562500D03*
%TO.P,U1,3,TMS*%
%TO.N,+3V3*%
X90550000Y-83562500D03*
%TO.P,U1,4,TDO*%
%TO.N,unconnected-(U1A-TDO-Pad4)*%
X90050000Y-83562500D03*
%TO.P,U1,5,XI*%
%TO.N,/XI*%
X89550000Y-83562500D03*
%TO.P,U1,6,XO*%
%TO.N,/XO*%
X89050000Y-83562500D03*
%TO.P,U1,7,VDDVARIO*%
%TO.N,+3V3*%
X88550000Y-83562500D03*
%TO.P,U1,8,VDD12CORE*%
%TO.N,+1V2*%
X88050000Y-83562500D03*
%TO.P,U1,9,SW_MODE*%
%TO.N,unconnected-(U1A-SW_MODE-Pad9)*%
X87550000Y-83562500D03*
%TO.P,U1,10,GPIO7*%
%TO.N,unconnected-(U1A-GPIO7-Pad10)*%
X87050000Y-83562500D03*
%TO.P,U1,11,VDD12CORE*%
%TO.N,+1V2*%
X86550000Y-83562500D03*
%TO.P,U1,12,USBDM*%
%TO.N,/DOut-*%
X86050000Y-83562500D03*
%TO.P,U1,13,USBDP*%
%TO.N,/DOut+*%
X85550000Y-83562500D03*
%TO.P,U1,14,VBUS_DET*%
%TO.N,+3V3*%
X85050000Y-83562500D03*
D15*
%TO.P,U1,15,VDD33A*%
%TO.N,/VDD33A*%
X84362500Y-84250000D03*
%TO.P,U1,16,USBRBIAS*%
%TO.N,Net-(U1B-USBRBIAS)*%
X84362500Y-84750000D03*
%TO.P,U1,17,VDD12USBPLL*%
%TO.N,/VDD12USBPLL*%
X84362500Y-85250000D03*
%TO.P,U1,18,GPIO8*%
%TO.N,unconnected-(U1A-GPIO8-Pad18)*%
X84362500Y-85750000D03*
%TO.P,U1,19,VDDVARIO*%
%TO.N,+3V3*%
X84362500Y-86250000D03*
%TO.P,U1,20,VDD12CORE*%
%TO.N,+1V2*%
X84362500Y-86750000D03*
%TO.P,U1,21,GPIO9*%
%TO.N,unconnected-(U1A-GPIO9-Pad21)*%
X84362500Y-87250000D03*
%TO.P,U1,22,GPIO10*%
%TO.N,unconnected-(U1A-GPIO10-Pad22)*%
X84362500Y-87750000D03*
%TO.P,U1,23,VDD12CORE*%
%TO.N,+1V2*%
X84362500Y-88250000D03*
%TO.P,U1,24,VDDVARIO*%
%TO.N,+3V3*%
X84362500Y-88750000D03*
%TO.P,U1,25,GPIO11*%
%TO.N,unconnected-(U1A-GPIO11-Pad25)*%
X84362500Y-89250000D03*
%TO.P,U1,26,EECLK*%
%TO.N,/EECLK*%
X84362500Y-89750000D03*
%TO.P,U1,27,EEDI*%
%TO.N,/MISO*%
X84362500Y-90250000D03*
%TO.P,U1,28,EEDO*%
%TO.N,/MOSI*%
X84362500Y-90750000D03*
D14*
%TO.P,U1,29,EECS*%
%TO.N,/EECS*%
X85050000Y-91437500D03*
%TO.P,U1,30,VDD12CORE*%
%TO.N,+1V2*%
X85550000Y-91437500D03*
%TO.P,U1,31,GPIO0*%
%TO.N,/LED0*%
X86050000Y-91437500D03*
%TO.P,U1,32,GPIO1*%
%TO.N,/LED1*%
X86550000Y-91437500D03*
%TO.P,U1,33,GPIO2*%
%TO.N,/LED2*%
X87050000Y-91437500D03*
%TO.P,U1,34,GPIO3*%
%TO.N,unconnected-(U1A-GPIO3-Pad34)*%
X87550000Y-91437500D03*
%TO.P,U1,35,GPIO4*%
%TO.N,unconnected-(U1A-GPIO4-Pad35)*%
X88050000Y-91437500D03*
%TO.P,U1,36,VDD12CORE*%
%TO.N,+1V2*%
X88550000Y-91437500D03*
%TO.P,U1,37,VDDVARIO*%
%TO.N,+3V3*%
X89050000Y-91437500D03*
%TO.P,U1,38,GPIO5*%
%TO.N,unconnected-(U1A-GPIO5-Pad38)*%
X89550000Y-91437500D03*
%TO.P,U1,39,TEST*%
%TO.N,GND*%
X90050000Y-91437500D03*
%TO.P,U1,40,GPIO6*%
%TO.N,unconnected-(U1A-GPIO6-Pad40)*%
X90550000Y-91437500D03*
%TO.P,U1,41,ETHRBIAS*%
%TO.N,Net-(U1B-ETHRBIAS)*%
X91050000Y-91437500D03*
%TO.P,U1,42,~{RESET}*%
%TO.N,/RESET*%
X91550000Y-91437500D03*
D15*
%TO.P,U1,43,TR0P*%
%TO.N,/TR0+*%
X92237500Y-90750000D03*
%TO.P,U1,44,TR0N*%
%TO.N,/TR0-*%
X92237500Y-90250000D03*
%TO.P,U1,45,VDD12A*%
%TO.N,/VDD12A*%
X92237500Y-89750000D03*
%TO.P,U1,46,TR1N*%
%TO.N,/TR1-*%
X92237500Y-89250000D03*
%TO.P,U1,47,TR1P*%
%TO.N,/TR1+*%
X92237500Y-88750000D03*
%TO.P,U1,48,VDD12A*%
%TO.N,/VDD12A*%
X92237500Y-88250000D03*
%TO.P,U1,49,VDD12BIAS*%
%TO.N,+1V2*%
X92237500Y-87750000D03*
%TO.P,U1,50,VDD12PLL*%
%TO.N,/VDD12PLL*%
X92237500Y-87250000D03*
%TO.P,U1,51,TR2P*%
%TO.N,/TR2+*%
X92237500Y-86750000D03*
%TO.P,U1,52,TR2N*%
%TO.N,/TR2-*%
X92237500Y-86250000D03*
%TO.P,U1,53,VDD12A*%
%TO.N,/VDD12A*%
X92237500Y-85750000D03*
%TO.P,U1,54,TR3N*%
%TO.N,/TR3-*%
X92237500Y-85250000D03*
%TO.P,U1,55,TR3P*%
%TO.N,/TR3+*%
X92237500Y-84750000D03*
%TO.P,U1,56,VDD12A*%
%TO.N,/VDD12A*%
X92237500Y-84250000D03*
D16*
%TO.P,U1,57,GND*%
%TO.N,GND*%
X88300000Y-87500000D03*
%TD*%
D17*
%TO.P,R5,1*%
%TO.N,/TR0*%
X93400000Y-93850000D03*
%TO.P,R5,2*%
%TO.N,/TR0+*%
X93400000Y-92200000D03*
%TD*%
D18*
%TO.P,C13,1*%
%TO.N,+1V2*%
X88100000Y-93525000D03*
%TO.P,C13,2*%
%TO.N,GND*%
X88100000Y-95075000D03*
%TD*%
D17*
%TO.P,R13,1*%
%TO.N,+3V3*%
X83900000Y-102100000D03*
%TO.P,R13,2*%
%TO.N,/RESET*%
X83900000Y-100450000D03*
%TD*%
D19*
%TO.P,C19,1*%
%TO.N,/VBUS*%
X74800000Y-90300000D03*
%TO.P,C19,2*%
%TO.N,GND*%
X73250000Y-90300000D03*
%TD*%
D20*
%TO.P,U6,1,GND*%
%TO.N,GND*%
X74300000Y-92750000D03*
%TO.P,U6,2,VO*%
%TO.N,+1V2*%
X72000000Y-92750000D03*
D21*
X72000000Y-99050000D03*
D20*
%TO.P,U6,3,VI*%
%TO.N,/VBUS*%
X69700000Y-92750000D03*
%TD*%
D18*
%TO.P,C3,1*%
%TO.N,/VBUS*%
X67400000Y-92700000D03*
%TO.P,C3,2*%
%TO.N,GND*%
X67400000Y-94250000D03*
%TD*%
D19*
%TO.P,C14,1*%
%TO.N,+1V2*%
X82125000Y-86600000D03*
%TO.P,C14,2*%
%TO.N,GND*%
X80575000Y-86600000D03*
%TD*%
D22*
%TO.P,C11,1*%
%TO.N,+1V2*%
X87160000Y-81040000D03*
%TO.P,C11,2*%
%TO.N,GND*%
X87160000Y-79490000D03*
%TD*%
D11*
%TO.P,R1,1*%
%TO.N,GND*%
X83700000Y-79000000D03*
%TO.P,R1,2*%
%TO.N,Net-(U1B-USBRBIAS)*%
X83700000Y-80650000D03*
%TD*%
D23*
%TO.P,U4,1,I/O1*%
%TO.N,/D-*%
X73862500Y-86550000D03*
%TO.P,U4,2,GND*%
%TO.N,GND*%
X73862500Y-87500000D03*
%TO.P,U4,3,I/O2*%
%TO.N,/D+*%
X73862500Y-88450000D03*
%TO.P,U4,4,I/O2*%
%TO.N,/DOut+*%
X76137500Y-88450000D03*
%TO.P,U4,5,VBUS*%
%TO.N,/VBUS*%
X76137500Y-87500000D03*
%TO.P,U4,6,I/O1*%
%TO.N,/DOut-*%
X76137500Y-86550000D03*
%TD*%
D22*
%TO.P,C9,1*%
%TO.N,/RESET*%
X83950000Y-98650000D03*
%TO.P,C9,2*%
%TO.N,GND*%
X83950000Y-97100000D03*
%TD*%
D24*
%TO.P,Y1,1,1*%
%TO.N,/XO*%
X90700000Y-79500000D03*
%TO.P,Y1,2,G*%
%TO.N,GND*%
X93100000Y-79500000D03*
%TO.P,Y1,3,3*%
%TO.N,/XI*%
X93100000Y-77600000D03*
%TO.P,Y1,4,G*%
%TO.N,GND*%
X90700000Y-77600000D03*
%TD*%
D10*
%TO.P,R4,1*%
%TO.N,+3V3*%
X115264000Y-99510000D03*
%TO.P,R4,2*%
%TO.N,Net-(J2-Pad16)*%
X116914000Y-99510000D03*
%TD*%
D19*
%TO.P,C15,1*%
%TO.N,+1V2*%
X82140000Y-88100000D03*
%TO.P,C15,2*%
%TO.N,GND*%
X80590000Y-88100000D03*
%TD*%
D18*
%TO.P,C5,1*%
%TO.N,/TR0*%
X98714000Y-94335000D03*
%TO.P,C5,2*%
%TO.N,GND*%
X98714000Y-95885000D03*
%TD*%
D19*
%TO.P,C18,1*%
%TO.N,/VDD12USBPLL*%
X82100000Y-84900000D03*
%TO.P,C18,2*%
%TO.N,GND*%
X80550000Y-84900000D03*
%TD*%
D11*
%TO.P,R11,1*%
%TO.N,/TR0*%
X93700000Y-81800000D03*
%TO.P,R11,2*%
%TO.N,/TR3+*%
X93700000Y-83450000D03*
%TD*%
D17*
%TO.P,R6,1*%
%TO.N,/TR0*%
X94925000Y-93450000D03*
%TO.P,R6,2*%
%TO.N,/TR0-*%
X94925000Y-91800000D03*
%TD*%
D22*
%TO.P,C1,1*%
%TO.N,/VBUS*%
X68750000Y-82950000D03*
%TO.P,C1,2*%
%TO.N,GND*%
X68750000Y-81400000D03*
%TD*%
%TO.P,C27,1*%
%TO.N,GND*%
X94925000Y-79325000D03*
%TO.P,C27,2*%
%TO.N,/XI*%
X94925000Y-77775000D03*
%TD*%
D25*
%TO.P,R10,1*%
%TO.N,/TR0*%
X96900000Y-84700000D03*
%TO.P,R10,2*%
%TO.N,/TR2-*%
X95250000Y-84700000D03*
%TD*%
D22*
%TO.P,C8,1*%
%TO.N,/TR0*%
X98800000Y-80500000D03*
%TO.P,C8,2*%
%TO.N,GND*%
X98800000Y-78950000D03*
%TD*%
D25*
%TO.P,R9,1*%
%TO.N,/TR0*%
X96800000Y-86700000D03*
%TO.P,R9,2*%
%TO.N,/TR2+*%
X95150000Y-86700000D03*
%TD*%
D22*
%TO.P,C26,1*%
%TO.N,/XO*%
X88800000Y-79350000D03*
%TO.P,C26,2*%
%TO.N,GND*%
X88800000Y-77800000D03*
%TD*%
D26*
%TO.P,J2,1,TRCT3*%
%TO.N,/TR0*%
X104000000Y-82904000D03*
D27*
%TO.P,J2,2,TRD3-*%
%TO.N,/TR2-*%
X104000000Y-84936000D03*
%TO.P,J2,3,TRD3+*%
%TO.N,/TR2+*%
X104000000Y-86968000D03*
%TO.P,J2,4,TRD2+*%
%TO.N,/TR1+*%
X104000000Y-89000000D03*
%TO.P,J2,5,TRD2-*%
%TO.N,/TR1-*%
X104000000Y-91032000D03*
%TO.P,J2,6,TRCT2*%
%TO.N,/TR0*%
X104000000Y-93064000D03*
%TO.P,J2,7,TRCT4*%
X101460000Y-81888000D03*
%TO.P,J2,8,TRD4+*%
%TO.N,/TR3+*%
X101460000Y-83920000D03*
%TO.P,J2,9,TRD4-*%
%TO.N,/TR3-*%
X101460000Y-85952000D03*
%TO.P,J2,10,TRD1-*%
%TO.N,/TR0-*%
X101460000Y-90016000D03*
%TO.P,J2,11,TRD1+*%
%TO.N,/TR0+*%
X101460000Y-92048000D03*
%TO.P,J2,12,TRCT1*%
%TO.N,/TR0*%
X101460000Y-94080000D03*
D28*
%TO.P,J2,13*%
%TO.N,/LED0*%
X116954000Y-80465600D03*
%TO.P,J2,14*%
%TO.N,Net-(J2-Pad14)*%
X119494000Y-80465600D03*
%TO.P,J2,15*%
%TO.N,/LED2*%
X114414000Y-95502400D03*
%TO.P,J2,16*%
%TO.N,Net-(J2-Pad16)*%
X116954000Y-95502400D03*
%TO.P,J2,17*%
%TO.N,/LED1*%
X119494000Y-95502400D03*
D29*
%TO.P,J2,S1,SHIELD*%
%TO.N,GND*%
X110604000Y-79195600D03*
%TO.P,J2,S2,SHIELD*%
X110604000Y-96772400D03*
%TD*%
D30*
%TO.P,U2,1,GND*%
%TO.N,GND*%
X71000000Y-78100000D03*
%TO.P,U2,2,VO*%
%TO.N,+3V3*%
X71000000Y-80400000D03*
D31*
X77300000Y-80400000D03*
D30*
%TO.P,U2,3,VI*%
%TO.N,/VBUS*%
X71000000Y-82700000D03*
%TD*%
D18*
%TO.P,C21,1*%
%TO.N,+3V3*%
X89800000Y-93575000D03*
%TO.P,C21,2*%
%TO.N,GND*%
X89800000Y-95125000D03*
%TD*%
D25*
%TO.P,R7,1*%
%TO.N,/TR0*%
X96250000Y-88200000D03*
%TO.P,R7,2*%
%TO.N,/TR1+*%
X94600000Y-88200000D03*
%TD*%
D18*
%TO.P,C12,1*%
%TO.N,+1V2*%
X85000000Y-93400000D03*
%TO.P,C12,2*%
%TO.N,GND*%
X85000000Y-94950000D03*
%TD*%
D19*
%TO.P,C7,1*%
%TO.N,/TR0*%
X104289000Y-76410000D03*
%TO.P,C7,2*%
%TO.N,GND*%
X102739000Y-76410000D03*
%TD*%
%TO.P,C6,1*%
%TO.N,/TR0*%
X104064000Y-99510000D03*
%TO.P,C6,2*%
%TO.N,GND*%
X102514000Y-99510000D03*
%TD*%
D32*
%TO.P,FB4,1*%
%TO.N,+3V3*%
X97200000Y-78025000D03*
%TO.P,FB4,2*%
%TO.N,/TR0*%
X97200000Y-79600000D03*
%TD*%
D17*
%TO.P,R2,1*%
%TO.N,GND*%
X91700000Y-95575000D03*
%TO.P,R2,2*%
%TO.N,Net-(U1B-ETHRBIAS)*%
X91700000Y-93925000D03*
%TD*%
D19*
%TO.P,C20,1*%
%TO.N,/VDD33A*%
X82900000Y-83400000D03*
%TO.P,C20,2*%
%TO.N,GND*%
X81350000Y-83400000D03*
%TD*%
D25*
%TO.P,R8,1*%
%TO.N,/TR0*%
X96400000Y-90300000D03*
%TO.P,R8,2*%
%TO.N,/TR1-*%
X94750000Y-90300000D03*
%TD*%
D22*
%TO.P,C10,1*%
%TO.N,+1V2*%
X85500000Y-80650000D03*
%TO.P,C10,2*%
%TO.N,GND*%
X85500000Y-79100000D03*
%TD*%
D33*
%TO.P,J1,1,VBUS*%
%TO.N,/VBUS*%
X65150000Y-91400000D03*
%TO.P,J1,2,D-*%
%TO.N,/D+*%
X65150000Y-88900000D03*
%TO.P,J1,3,D+*%
%TO.N,/D-*%
X65150000Y-86900000D03*
%TO.P,J1,4,GND*%
%TO.N,GND*%
X65150000Y-84400000D03*
D34*
%TO.P,J1,S1,SHIELD*%
X62550000Y-82050000D03*
%TO.P,J1,S2*%
%TO.N,N/C*%
X62550000Y-93750000D03*
%TD*%
D19*
%TO.P,C4,1*%
%TO.N,+1V2*%
X71500000Y-90300000D03*
%TO.P,C4,2*%
%TO.N,GND*%
X69950000Y-90300000D03*
%TD*%
D22*
%TO.P,C2,1*%
%TO.N,+3V3*%
X68750000Y-79600000D03*
%TO.P,C2,2*%
%TO.N,GND*%
X68750000Y-78050000D03*
%TD*%
D35*
%TO.N,GND*%
X87454905Y-88445586D03*
X86315002Y-89585489D03*
X89734713Y-85781232D03*
X90888350Y-85163212D03*
X85545910Y-87456753D03*
X89504004Y-86645341D03*
X89223835Y-88359317D03*
X86059572Y-86760705D03*
X87312093Y-85672989D03*
X90756525Y-86167405D03*
X90641161Y-88128589D03*
X90608200Y-89677760D03*
X89256796Y-89644798D03*
X87674665Y-89644798D03*
X88325000Y-87475000D03*
D36*
X84225000Y-91650000D03*
X74950000Y-93775000D03*
D37*
X80400000Y-93300000D03*
X98000000Y-76000000D03*
D36*
X82950000Y-96300000D03*
X109300000Y-98675000D03*
X85175000Y-99475000D03*
X75725000Y-95675000D03*
X88424000Y-95775583D03*
X82750000Y-99475000D03*
D37*
X74475000Y-87500000D03*
D36*
X78700000Y-77350000D03*
X94675000Y-94775000D03*
D37*
X82600000Y-91800000D03*
D36*
X108775000Y-78275000D03*
X90000000Y-96250000D03*
X100350000Y-77875000D03*
D37*
X74000000Y-89500000D03*
D36*
X81240882Y-87571431D03*
X105425000Y-77875000D03*
X98275000Y-83975000D03*
D37*
X76000000Y-98000000D03*
D36*
X81675000Y-77850000D03*
D37*
X95975000Y-76425000D03*
D36*
X81525000Y-97750000D03*
X91425000Y-98325000D03*
D37*
X76000000Y-100000000D03*
D36*
%TO.N,/VBUS*%
X73798173Y-91258014D03*
X70800000Y-91300000D03*
%TO.N,+3V3*%
X88174265Y-82075735D03*
D37*
X82600000Y-80750000D03*
D36*
X115050000Y-76575000D03*
X91100000Y-82000000D03*
D37*
X75100000Y-84950000D03*
X89288854Y-96711146D03*
X83081781Y-86050000D03*
D36*
X99500000Y-76000000D03*
D37*
X85950000Y-97250000D03*
X76700000Y-91850000D03*
X83400000Y-88750000D03*
X82950000Y-101700000D03*
X84350000Y-83050000D03*
%TO.N,+1V2*%
X83600000Y-94750000D03*
X81100000Y-79850000D03*
X93753345Y-87850541D03*
X80750000Y-95700000D03*
D36*
X79850000Y-85800000D03*
D37*
X70900000Y-89100000D03*
%TO.N,/TR0*%
X96000000Y-93800000D03*
X99900000Y-85400000D03*
X96800000Y-81200000D03*
X98934698Y-88127495D03*
X96900000Y-83600000D03*
X97900000Y-90600000D03*
%TO.N,/VDD12PLL*%
X94023512Y-87204775D03*
%TO.N,/VDD12USBPLL*%
X83392848Y-85422914D03*
%TO.N,/VDD33A*%
X83900000Y-83600000D03*
%TO.N,/VDD12A*%
X93086659Y-88368578D03*
X93688909Y-90011091D03*
X92300000Y-83800000D03*
X93100000Y-85750000D03*
%TO.N,/LED2*%
X86800000Y-94050000D03*
X87400000Y-92500000D03*
%TO.N,/LED0*%
X86100000Y-92750000D03*
%TO.N,/LED1*%
X86792823Y-92850001D03*
X91300000Y-101300000D03*
X86050000Y-93950000D03*
%TO.N,Net-(U1B-USBRBIAS)*%
X83200000Y-84750000D03*
X84600000Y-81425000D03*
%TO.N,/RESET*%
X83250000Y-93900000D03*
X91600000Y-92637052D03*
%TO.N,/MISO*%
X83500000Y-90250000D03*
X81500000Y-91850000D03*
%TD*%
D38*
%TO.N,/VBUS*%
X69700000Y-92750000D02*
X69700000Y-91500000D01*
D39*
X67400000Y-92700000D02*
X69650000Y-92700000D01*
D40*
%TO.N,+1V2*%
X72000000Y-91400000D02*
X72000000Y-92750000D01*
D39*
X72000000Y-92750000D02*
X72000000Y-99050000D01*
D40*
%TO.N,GND*%
X91050000Y-84750000D02*
X88325000Y-87475000D01*
X88325000Y-87475000D02*
X88300000Y-87500000D01*
X95650000Y-79325000D02*
X94925000Y-79325000D01*
X98800000Y-78950000D02*
X98711500Y-78861500D01*
X90576000Y-93125890D02*
X90576000Y-94349000D01*
X90050000Y-92599890D02*
X90576000Y-93125890D01*
X110604000Y-79195600D02*
X109695600Y-79195600D01*
X98800000Y-78950000D02*
X98700000Y-78850000D01*
X80590000Y-86615000D02*
X80575000Y-86600000D01*
X81240882Y-87571431D02*
X81118569Y-87571431D01*
X109300000Y-98076400D02*
X110604000Y-96772400D01*
X73862500Y-87500000D02*
X74475000Y-87500000D01*
X74300000Y-92750000D02*
X74300000Y-93125000D01*
X90576000Y-94349000D02*
X89800000Y-95125000D01*
X81240882Y-87571431D02*
X81240882Y-87265882D01*
X90050000Y-91437500D02*
X90050000Y-92599890D01*
X88100000Y-95075000D02*
X88100000Y-95451583D01*
X81118569Y-87571431D02*
X80590000Y-88100000D01*
D39*
X65150000Y-84400000D02*
X64900000Y-84400000D01*
D40*
X98711500Y-78861500D02*
X96113500Y-78861500D01*
X80550000Y-84900000D02*
X80550000Y-84200000D01*
X96113500Y-78861500D02*
X95650000Y-79325000D01*
X80590000Y-88100000D02*
X80590000Y-86615000D01*
X80575000Y-86600000D02*
X80575000Y-84925000D01*
X81240882Y-87265882D02*
X80575000Y-86600000D01*
X80550000Y-84200000D02*
X81350000Y-83400000D01*
D39*
X64900000Y-84400000D02*
X62550000Y-82050000D01*
D40*
X109300000Y-98675000D02*
X109300000Y-98076400D01*
X88100000Y-95451583D02*
X88424000Y-95775583D01*
X91050000Y-83562500D02*
X91050000Y-84750000D01*
X74300000Y-93125000D02*
X74950000Y-93775000D01*
X109695600Y-79195600D02*
X108775000Y-78275000D01*
X80575000Y-84925000D02*
X80550000Y-84900000D01*
%TO.N,/VBUS*%
X75000000Y-85750000D02*
X71950000Y-82700000D01*
X75000000Y-89250000D02*
X75000000Y-88250000D01*
X75750000Y-87500000D02*
X76137500Y-87500000D01*
D39*
X69900000Y-82700000D02*
X71000000Y-82700000D01*
D40*
X74558014Y-91258014D02*
X74800000Y-91016028D01*
X75000000Y-88250000D02*
X75750000Y-87500000D01*
D39*
X66100000Y-91400000D02*
X67400000Y-92700000D01*
X65150000Y-91400000D02*
X66100000Y-91400000D01*
D40*
X73798173Y-91258014D02*
X74558014Y-91258014D01*
X74800000Y-91016028D02*
X74800000Y-90300000D01*
D38*
X69700000Y-91500000D02*
X69900000Y-91300000D01*
D40*
X74800000Y-89450000D02*
X75000000Y-89250000D01*
X71950000Y-82700000D02*
X71000000Y-82700000D01*
X75000000Y-86716968D02*
X75000000Y-85750000D01*
X74800000Y-90300000D02*
X74800000Y-89450000D01*
D38*
X72000000Y-82700000D02*
X71000000Y-82700000D01*
D40*
X69900000Y-91300000D02*
X70800000Y-91300000D01*
D39*
X69650000Y-82950000D02*
X69900000Y-82700000D01*
X69650000Y-92700000D02*
X69700000Y-92750000D01*
D40*
X76137500Y-87500000D02*
X75783032Y-87500000D01*
D39*
X68750000Y-82950000D02*
X69650000Y-82950000D01*
D40*
X75783032Y-87500000D02*
X75000000Y-86716968D01*
%TO.N,+3V3*%
X82000000Y-75700000D02*
X96200000Y-75700000D01*
X99500000Y-76700000D02*
X99500000Y-76000000D01*
X89800000Y-93400000D02*
X89050000Y-92650000D01*
X85950000Y-100050000D02*
X85950000Y-97250000D01*
X83350000Y-86050000D02*
X83550000Y-86250000D01*
X98950000Y-77250000D02*
X99500000Y-76700000D01*
D39*
X69550000Y-80400000D02*
X68750000Y-79600000D01*
D40*
X77300000Y-80400000D02*
X82000000Y-75700000D01*
X76700000Y-91850000D02*
X78125000Y-91850000D01*
X83900000Y-102100000D02*
X85950000Y-100050000D01*
X115050000Y-76575000D02*
X116600000Y-76575000D01*
X91550000Y-82350000D02*
X91550000Y-83562500D01*
X97200000Y-76700000D02*
X97200000Y-78025000D01*
X90800000Y-82000000D02*
X90550000Y-82250000D01*
X77300000Y-82750000D02*
X75100000Y-84950000D01*
X91100000Y-82000000D02*
X91200000Y-82000000D01*
X112674000Y-102100000D02*
X115264000Y-99510000D01*
X89288854Y-96140854D02*
X89024000Y-95876000D01*
X82250000Y-80400000D02*
X82600000Y-80750000D01*
X83850000Y-102050000D02*
X83900000Y-102100000D01*
X77300000Y-80400000D02*
X77300000Y-82750000D01*
D39*
X71000000Y-80400000D02*
X77300000Y-80400000D01*
D40*
X116600000Y-76575000D02*
X116675000Y-76500000D01*
X82950000Y-101700000D02*
X83300000Y-102050000D01*
X83900000Y-102100000D02*
X112674000Y-102100000D01*
X91100000Y-82000000D02*
X90800000Y-82000000D01*
X91200000Y-82000000D02*
X91550000Y-82350000D01*
X98175000Y-78025000D02*
X98950000Y-77250000D01*
X83300000Y-102050000D02*
X83850000Y-102050000D01*
X83400000Y-88750000D02*
X84362500Y-88750000D01*
X90550000Y-82250000D02*
X90550000Y-83562500D01*
X89024000Y-94351000D02*
X89800000Y-93575000D01*
X84950000Y-83050000D02*
X85050000Y-83150000D01*
D39*
X71000000Y-80400000D02*
X69550000Y-80400000D01*
D40*
X83550000Y-86250000D02*
X84362500Y-86250000D01*
X88174265Y-82075735D02*
X88550000Y-82451470D01*
X89288854Y-96711146D02*
X89288854Y-96140854D01*
X89024000Y-95876000D02*
X89024000Y-94351000D01*
X89800000Y-93575000D02*
X89800000Y-93400000D01*
X85050000Y-83150000D02*
X85050000Y-83562500D01*
X89050000Y-92650000D02*
X89050000Y-91437500D01*
X77300000Y-80400000D02*
X82250000Y-80400000D01*
X96200000Y-75700000D02*
X97200000Y-76700000D01*
X83081781Y-86050000D02*
X83350000Y-86050000D01*
X97200000Y-78025000D02*
X98175000Y-78025000D01*
X84350000Y-83050000D02*
X84950000Y-83050000D01*
X88550000Y-82451470D02*
X88550000Y-83562500D01*
%TO.N,+1V2*%
X70900000Y-89100000D02*
X71300000Y-89100000D01*
X87160000Y-81910000D02*
X88050000Y-82800000D01*
X78952000Y-88948000D02*
X81292000Y-88948000D01*
X87975000Y-93400000D02*
X88100000Y-93525000D01*
X71500000Y-89300000D02*
X71500000Y-90300000D01*
X78900000Y-89000000D02*
X78952000Y-88948000D01*
X82140000Y-86615000D02*
X82125000Y-86600000D01*
X84312500Y-88200000D02*
X84362500Y-88250000D01*
X88550000Y-92600000D02*
X88550000Y-91437500D01*
X85000000Y-93400000D02*
X85550000Y-92850000D01*
X84150000Y-93400000D02*
X85000000Y-93400000D01*
X93652804Y-87750000D02*
X93753345Y-87850541D01*
X72000000Y-99050000D02*
X77400000Y-99050000D01*
X72000000Y-92750000D02*
X73650000Y-94400000D01*
X71300000Y-89100000D02*
X71500000Y-89300000D01*
X82140000Y-88200000D02*
X84312500Y-88200000D01*
X87160000Y-81040000D02*
X87160000Y-81910000D01*
X83150000Y-86600000D02*
X83300000Y-86750000D01*
X92237500Y-87750000D02*
X92287500Y-87800000D01*
X87160000Y-81040000D02*
X86540000Y-81040000D01*
X86550000Y-82300000D02*
X86550000Y-83562500D01*
X82140000Y-88100000D02*
X82140000Y-86615000D01*
X84000000Y-93550000D02*
X84150000Y-93400000D01*
X78900000Y-89000000D02*
X79600000Y-88300000D01*
X76000000Y-90000000D02*
X77000000Y-89000000D01*
X75400000Y-94400000D02*
X76000000Y-93800000D01*
X85500000Y-81250000D02*
X86550000Y-82300000D01*
X83600000Y-94750000D02*
X84000000Y-94350000D01*
X79600000Y-88300000D02*
X79600000Y-86050000D01*
X76000000Y-93800000D02*
X76000000Y-90000000D01*
X77400000Y-99050000D02*
X80750000Y-95700000D01*
X81100000Y-79850000D02*
X84700000Y-79850000D01*
X85500000Y-80650000D02*
X85500000Y-81250000D01*
X85000000Y-93400000D02*
X87975000Y-93400000D01*
X84700000Y-79850000D02*
X85500000Y-80650000D01*
X84000000Y-94350000D02*
X84000000Y-93550000D01*
X92237500Y-87750000D02*
X93652804Y-87750000D01*
X71500000Y-90900000D02*
X72000000Y-91400000D01*
X88100000Y-93525000D02*
X88100000Y-93050000D01*
X73650000Y-94400000D02*
X75400000Y-94400000D01*
X88100000Y-93050000D02*
X88550000Y-92600000D01*
X77000000Y-89000000D02*
X78900000Y-89000000D01*
X79600000Y-86050000D02*
X79850000Y-85800000D01*
X88050000Y-82800000D02*
X88050000Y-83562500D01*
X86540000Y-81040000D02*
X86150000Y-80650000D01*
X81292000Y-88948000D02*
X82140000Y-88100000D01*
X71500000Y-90300000D02*
X71500000Y-90900000D01*
X82125000Y-86600000D02*
X83150000Y-86600000D01*
X86150000Y-80650000D02*
X85500000Y-80650000D01*
X85550000Y-92850000D02*
X85550000Y-91437500D01*
X83300000Y-86750000D02*
X84362500Y-86750000D01*
D39*
%TO.N,/TR0*%
X104289000Y-76410000D02*
X104289000Y-78885000D01*
X104000000Y-79174000D02*
X104000000Y-82904000D01*
D40*
X96735000Y-94335000D02*
X98714000Y-94335000D01*
X98800000Y-80500000D02*
X100199000Y-80500000D01*
D39*
X104064000Y-93128000D02*
X104000000Y-93064000D01*
D40*
X101625000Y-77675000D02*
X103024000Y-77675000D01*
X97507203Y-86700000D02*
X96800000Y-86700000D01*
X96200000Y-93800000D02*
X96735000Y-94335000D01*
X93700000Y-81800000D02*
X94450000Y-81050000D01*
X96900000Y-83600000D02*
X96900000Y-84700000D01*
X94450000Y-81050000D02*
X95500000Y-81050000D01*
X96800000Y-87650000D02*
X96250000Y-88200000D01*
X103889000Y-99510000D02*
X104064000Y-99510000D01*
D39*
X100072000Y-80500000D02*
X101460000Y-81888000D01*
D40*
X95500000Y-81050000D02*
X95750000Y-81050000D01*
D39*
X98714000Y-94335000D02*
X99339000Y-94335000D01*
D40*
X99200000Y-84700000D02*
X99900000Y-85400000D01*
X97900000Y-90600000D02*
X96700000Y-90600000D01*
X95750000Y-81050000D02*
X97200000Y-79600000D01*
D39*
X99339000Y-94335000D02*
X99594000Y-94080000D01*
D38*
X94500000Y-93850000D02*
X94900000Y-93450000D01*
D39*
X99594000Y-94080000D02*
X101460000Y-94080000D01*
D40*
X96900000Y-84700000D02*
X99200000Y-84700000D01*
D39*
X98800000Y-80500000D02*
X100072000Y-80500000D01*
D40*
X96800000Y-86700000D02*
X96800000Y-87650000D01*
X96700000Y-90600000D02*
X96400000Y-90300000D01*
X96000000Y-93800000D02*
X96200000Y-93800000D01*
X96650000Y-81050000D02*
X96800000Y-81200000D01*
X98934698Y-88127495D02*
X97507203Y-86700000D01*
X97900000Y-79600000D02*
X98800000Y-80500000D01*
D38*
X93400000Y-93850000D02*
X94500000Y-93850000D01*
D39*
X104289000Y-78885000D02*
X104000000Y-79174000D01*
D40*
X98800000Y-80500000D02*
X101625000Y-77675000D01*
X98714000Y-94335000D02*
X103889000Y-99510000D01*
X95500000Y-81050000D02*
X96650000Y-81050000D01*
D39*
X104064000Y-99510000D02*
X104064000Y-93128000D01*
D40*
X95250000Y-93800000D02*
X94900000Y-93450000D01*
X96000000Y-93800000D02*
X95250000Y-93800000D01*
X97200000Y-79600000D02*
X97900000Y-79600000D01*
X103024000Y-77675000D02*
X104289000Y-76410000D01*
%TO.N,/VDD12PLL*%
X93978287Y-87250000D02*
X94023512Y-87204775D01*
X92237500Y-87250000D02*
X93978287Y-87250000D01*
%TO.N,/VDD12USBPLL*%
X82570768Y-84900000D02*
X82100000Y-84900000D01*
X83093682Y-85422914D02*
X82570768Y-84900000D01*
X84362500Y-85250000D02*
X83565762Y-85250000D01*
X83565762Y-85250000D02*
X83392848Y-85422914D01*
X83392848Y-85422914D02*
X83093682Y-85422914D01*
%TO.N,/VDD33A*%
X84362500Y-84062500D02*
X83900000Y-83600000D01*
X84362500Y-84250000D02*
X84362500Y-84062500D01*
X83900000Y-83600000D02*
X83100000Y-83600000D01*
X83100000Y-83600000D02*
X82900000Y-83400000D01*
%TO.N,/VDD12A*%
X92300000Y-84187500D02*
X92237500Y-84250000D01*
X92300000Y-83800000D02*
X92300000Y-84187500D01*
X92968081Y-88250000D02*
X92237500Y-88250000D01*
X92968081Y-88250000D02*
X93086659Y-88368578D01*
X93688909Y-90011091D02*
X93636091Y-90011091D01*
X93636091Y-90011091D02*
X93375000Y-89750000D01*
X93100000Y-85750000D02*
X92237500Y-85750000D01*
X93375000Y-89750000D02*
X92237500Y-89750000D01*
%TO.N,/XO*%
X88800000Y-79350000D02*
X90550000Y-79350000D01*
X89050000Y-82200000D02*
X89050000Y-83562500D01*
D38*
X89050000Y-81050000D02*
X90600000Y-79500000D01*
X90600000Y-79500000D02*
X90700000Y-79500000D01*
X89050000Y-82200000D02*
X89050000Y-81050000D01*
%TO.N,/XI*%
X93100000Y-77600000D02*
X93600000Y-77600000D01*
X91800000Y-78900000D02*
X93100000Y-77600000D01*
X89600000Y-82400000D02*
X91800000Y-80200000D01*
D40*
X94100000Y-77600000D02*
X93100000Y-77600000D01*
D38*
X91800000Y-80200000D02*
X91800000Y-78900000D01*
D40*
X94925000Y-77775000D02*
X94275000Y-77775000D01*
X94275000Y-77775000D02*
X94100000Y-77600000D01*
X89550000Y-82400000D02*
X89550000Y-83562500D01*
D38*
X89550000Y-82400000D02*
X89600000Y-82400000D01*
D40*
%TO.N,/D+*%
X66325000Y-88125000D02*
X67093198Y-88125000D01*
X72868749Y-88450000D02*
X73862500Y-88450000D01*
X67493198Y-87725000D02*
X72143749Y-87725000D01*
X65550000Y-88900000D02*
X66325000Y-88125000D01*
X65150000Y-88900000D02*
X65550000Y-88900000D01*
X72143749Y-87725000D02*
X72868749Y-88450000D01*
X67093198Y-88125000D02*
X67493198Y-87725000D01*
%TO.N,/D-*%
X67306802Y-87275000D02*
X72143749Y-87275000D01*
X65550000Y-86900000D02*
X66325000Y-87675000D01*
X66906802Y-87675000D02*
X67306802Y-87275000D01*
X72143749Y-87275000D02*
X72868749Y-86550000D01*
X72868749Y-86550000D02*
X73862500Y-86550000D01*
X65150000Y-86900000D02*
X65550000Y-86900000D01*
X66325000Y-87675000D02*
X66906802Y-87675000D01*
%TO.N,/LED2*%
X87050000Y-92150000D02*
X87400000Y-92500000D01*
X110400000Y-99516400D02*
X114414000Y-95502400D01*
X86800000Y-95000110D02*
X92699890Y-100900000D01*
X114414000Y-96522000D02*
X114414000Y-95502400D01*
X110383600Y-99516400D02*
X109000000Y-100900000D01*
X87050000Y-91437500D02*
X87050000Y-92150000D01*
X86800000Y-94050000D02*
X86800000Y-95000110D01*
X92699890Y-100900000D02*
X109000000Y-100900000D01*
X110400000Y-99516400D02*
X110383600Y-99516400D01*
%TO.N,/TR0-*%
X93204232Y-90304232D02*
X94550000Y-91650000D01*
X94900000Y-91881801D02*
X94993199Y-91975000D01*
X92721768Y-90301000D02*
X93178232Y-90301000D01*
X92670768Y-90250000D02*
X92721768Y-90301000D01*
X93204232Y-90275000D02*
X93204232Y-90304232D01*
X94900000Y-91650000D02*
X94900000Y-91881801D01*
X99501000Y-91975000D02*
X101460000Y-90016000D01*
X94993199Y-91975000D02*
X99501000Y-91975000D01*
X93178232Y-90301000D02*
X93204232Y-90275000D01*
X94550000Y-91650000D02*
X94900000Y-91650000D01*
X92237500Y-90250000D02*
X92670768Y-90250000D01*
X94900000Y-91800000D02*
X94900000Y-91881801D01*
%TO.N,/TR0+*%
X94124000Y-92213064D02*
X94411936Y-92501000D01*
X93600000Y-92000000D02*
X93400000Y-92200000D01*
X94411936Y-92501000D02*
X95388064Y-92501000D01*
X99687397Y-92425000D02*
X100064397Y-92048000D01*
X93400000Y-92200000D02*
X94124000Y-92200000D01*
X95464064Y-92425000D02*
X99687397Y-92425000D01*
X94124000Y-92200000D02*
X94124000Y-92213064D01*
X95388064Y-92501000D02*
X95464064Y-92425000D01*
X93600000Y-91300000D02*
X93600000Y-92000000D01*
X92237500Y-90750000D02*
X93050000Y-90750000D01*
X93050000Y-90750000D02*
X93600000Y-91300000D01*
X100064397Y-92048000D02*
X101460000Y-92048000D01*
D39*
%TO.N,Net-(J2-Pad16)*%
X116914000Y-99510000D02*
X116914000Y-95542400D01*
X116914000Y-95542400D02*
X116954000Y-95502400D01*
D40*
%TO.N,Net-(J2-Pad14)*%
X118325000Y-76825000D02*
X119500000Y-78000000D01*
D39*
X119439000Y-80410600D02*
X119494000Y-80465600D01*
D40*
X119494000Y-78006000D02*
X119494000Y-80465600D01*
X118325000Y-76500000D02*
X118325000Y-76825000D01*
X119500000Y-78000000D02*
X119494000Y-78006000D01*
%TO.N,/LED0*%
X86050000Y-91437500D02*
X86050000Y-92700000D01*
X86050000Y-92700000D02*
X86100000Y-92750000D01*
%TO.N,/TR2+*%
X94500000Y-85900000D02*
X95150000Y-86550000D01*
X98960841Y-87498012D02*
X98875988Y-87413159D01*
X100951906Y-87825000D02*
X101324823Y-87825000D01*
X98181802Y-85900000D02*
X95950000Y-85900000D01*
X95150000Y-86550000D02*
X95150000Y-86700000D01*
X99370329Y-87427939D02*
X99300253Y-87498012D01*
X93650000Y-86750000D02*
X94500000Y-85900000D01*
X102901312Y-86968000D02*
X104000000Y-86968000D01*
X98670901Y-86389099D02*
X98181802Y-85900000D01*
X98861212Y-86579410D02*
X98670901Y-86389099D01*
X92237500Y-86750000D02*
X93650000Y-86750000D01*
X98946063Y-86664261D02*
X98861212Y-86579410D01*
X101324823Y-87825000D02*
X102004798Y-87825000D01*
X94950000Y-86500000D02*
X95150000Y-86700000D01*
X100951906Y-87825000D02*
X100106802Y-87825000D01*
X102881555Y-86948243D02*
X102901312Y-86968000D01*
X100106802Y-87825000D02*
X99709741Y-87427939D01*
X95950000Y-85900000D02*
X95150000Y-86700000D01*
X102004798Y-87825000D02*
X102881555Y-86948243D01*
X98875988Y-87073747D02*
X98946063Y-87003673D01*
X99300253Y-87498012D02*
G75*
G02*
X98960841Y-87498012I-169706J169701D01*
G01*
X98946063Y-87003673D02*
G75*
G03*
X98946030Y-86664294I-169663J169673D01*
G01*
X99709741Y-87427939D02*
G75*
G03*
X99370329Y-87427939I-169706J-169701D01*
G01*
X98875988Y-87413159D02*
G75*
G02*
X98876035Y-87073794I169712J169659D01*
G01*
%TO.N,/LED1*%
X91300000Y-101300000D02*
X86050000Y-96050000D01*
X86050000Y-96050000D02*
X86050000Y-93950000D01*
X86792823Y-92663591D02*
X86792823Y-92850001D01*
X86550000Y-91437500D02*
X86550000Y-92420768D01*
X86550000Y-92420768D02*
X86792823Y-92663591D01*
%TO.N,/TR1-*%
X94750000Y-90300000D02*
X94750000Y-90100000D01*
X93950001Y-89300001D02*
X94750000Y-90100000D01*
X93860090Y-89300001D02*
X93950001Y-89300001D01*
X94750000Y-90100000D02*
X95400000Y-89450000D01*
X101901552Y-88950000D02*
X102401553Y-89450001D01*
X93700000Y-89460091D02*
X93860090Y-89300001D01*
X92237500Y-89250000D02*
X92308078Y-89320578D01*
X93560487Y-89320578D02*
X93700000Y-89460091D01*
X102418001Y-89450001D02*
X104000000Y-91032000D01*
X102401553Y-89450001D02*
X102418001Y-89450001D01*
X95400000Y-89450000D02*
X100518447Y-89450001D01*
X92308078Y-89320578D02*
X93560487Y-89320578D01*
X101018448Y-88950000D02*
X101901552Y-88950000D01*
X100518447Y-89450001D02*
X101018448Y-88950000D01*
%TO.N,/TR3-*%
X97733000Y-82225000D02*
X101460000Y-85952000D01*
X93001000Y-85199000D02*
X94049000Y-84151000D01*
X92550000Y-85250000D02*
X92601000Y-85199000D01*
X92237500Y-85250000D02*
X92550000Y-85250000D01*
X94476000Y-83724000D02*
X95500000Y-82700000D01*
X92601000Y-85199000D02*
X93001000Y-85199000D01*
X95564196Y-82225000D02*
X97733000Y-82225000D01*
X95500000Y-82700000D02*
X95500000Y-82289196D01*
X95500000Y-82289196D02*
X95564196Y-82225000D01*
X94188064Y-84151000D02*
X94476000Y-83863064D01*
X94049000Y-84151000D02*
X94188064Y-84151000D01*
X94476000Y-83863064D02*
X94476000Y-83724000D01*
%TO.N,/TR3+*%
X92550000Y-84750000D02*
X92550980Y-84749020D01*
X99644673Y-83151781D02*
X99640131Y-83156322D01*
X95042839Y-81968097D02*
X94724000Y-82286936D01*
X100068938Y-83236634D02*
X99984085Y-83151781D01*
X92237500Y-84750000D02*
X92288500Y-84801000D01*
X93651000Y-83376000D02*
X93600000Y-83325000D01*
X101460000Y-83920000D02*
X100419168Y-83920000D01*
X100064397Y-83580588D02*
X100068938Y-83576046D01*
X98934728Y-82790331D02*
X97919397Y-81775000D01*
X92237500Y-84750000D02*
X92550000Y-84750000D01*
X97919397Y-81775000D02*
X95374899Y-81775000D01*
X94724000Y-82286936D02*
X94724000Y-82426000D01*
X92550980Y-84749020D02*
X92814583Y-84749020D01*
X94724000Y-82426000D02*
X93700000Y-83450000D01*
X93700000Y-83863603D02*
X93700000Y-83450000D01*
X99300719Y-83156322D02*
X99215868Y-83071471D01*
X99215868Y-83071471D02*
X98934728Y-82790331D01*
X100419168Y-83920000D02*
X100064397Y-83920000D01*
X92814583Y-84749020D02*
X93700000Y-83863603D01*
X95374899Y-81775000D02*
X95181802Y-81968097D01*
X95181802Y-81968097D02*
X95042839Y-81968097D01*
X100068938Y-83576046D02*
G75*
G03*
X100068978Y-83236594I-169738J169746D01*
G01*
X99640131Y-83156322D02*
G75*
G02*
X99300719Y-83156322I-169706J169704D01*
G01*
X100064397Y-83920000D02*
G75*
G02*
X100064403Y-83580594I169703J169700D01*
G01*
X99984085Y-83151781D02*
G75*
G03*
X99644673Y-83151781I-169706J-169704D01*
G01*
%TO.N,/TR2-*%
X95974999Y-85424999D02*
X96190828Y-85424999D01*
X102563357Y-86630045D02*
X102563357Y-86372643D01*
X100293198Y-87375000D02*
X101818402Y-87375000D01*
X102563357Y-86372643D02*
X104000000Y-84936000D01*
X93399000Y-86301000D02*
X94400000Y-85300000D01*
X94400000Y-85300000D02*
X94650000Y-85300000D01*
X94650000Y-85300000D02*
X95250000Y-84700000D01*
X97800000Y-85400000D02*
X98318198Y-85400000D01*
X98318198Y-85400000D02*
X100293198Y-87375000D01*
X95250000Y-84700000D02*
X95974999Y-85424999D01*
X96265829Y-85500000D02*
X97700000Y-85500000D01*
X92237500Y-86250000D02*
X92288500Y-86301000D01*
X96190828Y-85424999D02*
X96265829Y-85500000D01*
X92288500Y-86301000D02*
X93399000Y-86301000D01*
X101818402Y-87375000D02*
X102563357Y-86630045D01*
X97700000Y-85500000D02*
X97800000Y-85400000D01*
%TO.N,/TR1+*%
X99535535Y-88514352D02*
X99415535Y-88514352D01*
X102087940Y-88500020D02*
X100832060Y-88500020D01*
X97213332Y-89000000D02*
X95400000Y-89000000D01*
X100832060Y-88500020D02*
X100332080Y-89000000D01*
X99775535Y-88760000D02*
X99775535Y-88754352D01*
X92858427Y-88919578D02*
X92688849Y-88750000D01*
X98935535Y-89000000D02*
X98815535Y-89000000D01*
X93700000Y-88700000D02*
X93480422Y-88919578D01*
X100332080Y-89000000D02*
X100015535Y-89000000D01*
X93480422Y-88919578D02*
X92858427Y-88919578D01*
X93700000Y-88700000D02*
X93849999Y-88849999D01*
X92688849Y-88750000D02*
X92237500Y-88750000D01*
X93849999Y-88849999D02*
X93950001Y-88849999D01*
X104000000Y-89000000D02*
X102587920Y-89000000D01*
X95400000Y-89000000D02*
X94600000Y-88200000D01*
X93950001Y-88849999D02*
X94600000Y-88200000D01*
X99175535Y-88754352D02*
X99175535Y-88760000D01*
X102587920Y-89000000D02*
X102087940Y-88500020D01*
X98815535Y-89000000D02*
X97213332Y-89000000D01*
X100015535Y-89000000D02*
G75*
G02*
X99775500Y-88760000I-35J240000D01*
G01*
X99415535Y-88514352D02*
G75*
G03*
X99175452Y-88754352I-35J-240048D01*
G01*
X99175535Y-88760000D02*
G75*
G02*
X98935535Y-89000035I-240035J0D01*
G01*
X99775535Y-88754352D02*
G75*
G03*
X99535535Y-88514365I-240035J-48D01*
G01*
%TO.N,Net-(U1B-USBRBIAS)*%
X83200000Y-84750000D02*
X84362500Y-84750000D01*
X83825000Y-80650000D02*
X84600000Y-81425000D01*
X83700000Y-80650000D02*
X83825000Y-80650000D01*
%TO.N,Net-(U1B-ETHRBIAS)*%
X91050000Y-93050000D02*
X91050000Y-91437500D01*
X91700000Y-93700000D02*
X91050000Y-93050000D01*
X91700000Y-93925000D02*
X91700000Y-93650000D01*
X91700000Y-93925000D02*
X91700000Y-93700000D01*
%TO.N,/RESET*%
X91600000Y-92200000D02*
X91550000Y-92150000D01*
D38*
X83950000Y-98650000D02*
X83950000Y-100400000D01*
D40*
X91550000Y-92150000D02*
X91550000Y-91437500D01*
X91600000Y-92637052D02*
X91600000Y-92200000D01*
X81850000Y-93900000D02*
X83250000Y-93900000D01*
D38*
X81850000Y-93900000D02*
X81850000Y-96550000D01*
X81850000Y-96550000D02*
X83950000Y-98650000D01*
X83260000Y-100450000D02*
X81850000Y-101860000D01*
X83900000Y-100450000D02*
X83260000Y-100450000D01*
X83950000Y-100400000D02*
X83900000Y-100450000D01*
D40*
%TO.N,/EECLK*%
X78575000Y-89500000D02*
X79545532Y-89500000D01*
X83909202Y-89750000D02*
X84362500Y-89750000D01*
X78125000Y-89950000D02*
X78575000Y-89500000D01*
X83659202Y-89500000D02*
X83909202Y-89750000D01*
X79545532Y-89500000D02*
X79696532Y-89349000D01*
X81103468Y-89349000D02*
X81254468Y-89500000D01*
X79696532Y-89349000D02*
X81103468Y-89349000D01*
X81254468Y-89500000D02*
X83659202Y-89500000D01*
%TO.N,/DOut-*%
X77131251Y-86550000D02*
X76137500Y-86550000D01*
X84828232Y-81976000D02*
X84371768Y-81976000D01*
X78525000Y-84739047D02*
X78525000Y-84912487D01*
X86025000Y-82556802D02*
X85193198Y-81725000D01*
X84371768Y-81976000D02*
X84120768Y-81725000D01*
X86050000Y-82906249D02*
X86025000Y-82881249D01*
X86050000Y-83562500D02*
X86050000Y-82906249D01*
X84120768Y-81725000D02*
X79756802Y-81725000D01*
X85079232Y-81725000D02*
X84828232Y-81976000D01*
X85193198Y-81725000D02*
X85079232Y-81725000D01*
X78525000Y-84912487D02*
X78525000Y-85156251D01*
X78525000Y-85156251D02*
X78165598Y-85515653D01*
X78525000Y-82956802D02*
X78525000Y-83712487D01*
X86025000Y-82881249D02*
X86025000Y-82556802D01*
X78098440Y-84139047D02*
X78098440Y-84312487D01*
X79756802Y-81725000D02*
X78525000Y-82956802D01*
X78165598Y-85515653D02*
X77131251Y-86550000D01*
X78311720Y-84525767D02*
G75*
G02*
X78524933Y-84739047I-20J-213233D01*
G01*
X78311720Y-83925767D02*
G75*
G03*
X78098467Y-84139047I-20J-213233D01*
G01*
X78098440Y-84312487D02*
G75*
G03*
X78311720Y-84525760I213260J-13D01*
G01*
X78525000Y-83712487D02*
G75*
G02*
X78311720Y-83925800I-213300J-13D01*
G01*
%TO.N,/EECS*%
X79300000Y-92150000D02*
X79700000Y-92550000D01*
X78125000Y-90900000D02*
X78800000Y-90900000D01*
X84800000Y-92550000D02*
X85050000Y-92300000D01*
X79300000Y-91400000D02*
X79300000Y-92150000D01*
X85050000Y-92300000D02*
X85050000Y-91437500D01*
X79700000Y-92550000D02*
X84800000Y-92550000D01*
X78800000Y-90900000D02*
X79300000Y-91400000D01*
%TO.N,/MOSI*%
X84311500Y-90801000D02*
X83101000Y-90801000D01*
X83101000Y-90801000D02*
X82250000Y-89950000D01*
X84362500Y-90750000D02*
X84311500Y-90801000D01*
X82250000Y-89950000D02*
X80400000Y-89950000D01*
%TO.N,/DOut+*%
X83934400Y-82175000D02*
X84185380Y-82425980D01*
X85575000Y-82743198D02*
X85575000Y-82881249D01*
X78975000Y-86606251D02*
X78975000Y-83143198D01*
X85136201Y-82304399D02*
X85575000Y-82743198D01*
X85575000Y-82881249D02*
X85550000Y-82906249D01*
X85550000Y-82906249D02*
X85550000Y-83562500D01*
X76137500Y-88450000D02*
X77131251Y-88450000D01*
X84185380Y-82425980D02*
X85014620Y-82425980D01*
X78975000Y-83143198D02*
X79943198Y-82175000D01*
X77131251Y-88450000D02*
X78975000Y-86606251D01*
X85014620Y-82425980D02*
X85136201Y-82304399D01*
X79943198Y-82175000D02*
X83934400Y-82175000D01*
%TO.N,/MISO*%
X80400000Y-91850000D02*
X81500000Y-91850000D01*
X84362500Y-90250000D02*
X83500000Y-90250000D01*
%TD*%
%TA.AperFunction,Conductor*%
%TO.N,GND*%
G36*
X119012733Y-74500751D02*
G01*
X119051842Y-74503540D01*
X119214949Y-74515172D01*
X119228880Y-74517169D01*
X119423569Y-74559394D01*
X119437077Y-74563348D01*
X119623789Y-74632767D01*
X119636601Y-74638599D01*
X119811582Y-74733814D01*
X119823438Y-74741405D01*
X119825283Y-74742781D01*
X119983126Y-74860477D01*
X119993789Y-74869677D01*
X120134973Y-75010212D01*
X120144216Y-75020825D01*
X120264023Y-75179961D01*
X120271671Y-75191786D01*
X120367691Y-75366325D01*
X120373585Y-75379117D01*
X120443861Y-75565503D01*
X120447880Y-75579000D01*
X120490999Y-75773474D01*
X120493062Y-75787406D01*
X120508438Y-75989836D01*
X120508721Y-75996873D01*
X120508831Y-76020478D01*
X120508831Y-76020482D01*
X120523499Y-79194896D01*
X120523500Y-79195353D01*
X120523500Y-79484083D01*
X120504593Y-79542274D01*
X120455093Y-79578238D01*
X120393907Y-79578238D01*
X120354498Y-79554088D01*
X120310275Y-79509865D01*
X120150715Y-79393938D01*
X120150714Y-79393937D01*
X120150712Y-79393936D01*
X120046029Y-79340598D01*
X119974985Y-79304399D01*
X119962904Y-79300473D01*
X119913406Y-79264509D01*
X119894500Y-79206320D01*
X119894500Y-78088153D01*
X119897873Y-78062530D01*
X119900500Y-78052726D01*
X119900500Y-77947274D01*
X119900500Y-77947273D01*
X119879906Y-77870413D01*
X119879906Y-77870412D01*
X119879906Y-77870411D01*
X119873206Y-77845410D01*
X119873205Y-77845408D01*
X119820483Y-77754091D01*
X119820482Y-77754090D01*
X119820481Y-77754089D01*
X119820480Y-77754087D01*
X119044709Y-76978316D01*
X119016932Y-76923799D01*
X119018370Y-76885530D01*
X119019089Y-76882488D01*
X119019091Y-76882483D01*
X119025500Y-76822873D01*
X119025499Y-76177128D01*
X119019091Y-76117517D01*
X119004747Y-76079059D01*
X118968797Y-75982670D01*
X118882549Y-75867458D01*
X118882548Y-75867457D01*
X118882546Y-75867454D01*
X118842721Y-75837641D01*
X118767329Y-75781202D01*
X118632488Y-75730910D01*
X118632483Y-75730909D01*
X118632481Y-75730908D01*
X118632477Y-75730908D01*
X118601249Y-75727550D01*
X118572873Y-75724500D01*
X118572870Y-75724500D01*
X118077133Y-75724500D01*
X118077129Y-75724500D01*
X118077128Y-75724501D01*
X118069949Y-75725272D01*
X118017519Y-75730908D01*
X118017514Y-75730909D01*
X117882670Y-75781202D01*
X117767458Y-75867450D01*
X117767450Y-75867458D01*
X117681202Y-75982670D01*
X117630910Y-76117511D01*
X117630908Y-76117522D01*
X117629621Y-76129496D01*
X117624783Y-76174500D01*
X117624500Y-76177129D01*
X117624500Y-76822866D01*
X117624501Y-76822870D01*
X117630908Y-76882480D01*
X117630909Y-76882485D01*
X117681202Y-77017329D01*
X117756891Y-77118436D01*
X117767454Y-77132546D01*
X117767457Y-77132548D01*
X117767458Y-77132549D01*
X117882670Y-77218797D01*
X118017511Y-77269089D01*
X118017512Y-77269089D01*
X118017517Y-77269091D01*
X118077127Y-77275500D01*
X118168097Y-77275499D01*
X118226288Y-77294406D01*
X118238102Y-77304495D01*
X119064504Y-78130897D01*
X119092281Y-78185414D01*
X119093500Y-78200901D01*
X119093500Y-79206320D01*
X119074593Y-79264511D01*
X119025095Y-79300474D01*
X119013015Y-79304399D01*
X118837287Y-79393936D01*
X118677726Y-79509864D01*
X118538264Y-79649326D01*
X118422336Y-79808887D01*
X118332799Y-79984614D01*
X118318155Y-80029685D01*
X118282191Y-80079185D01*
X118224000Y-80098092D01*
X118165809Y-80079185D01*
X118129845Y-80029685D01*
X118115201Y-79984615D01*
X118025662Y-79808885D01*
X117909735Y-79649325D01*
X117770275Y-79509865D01*
X117610715Y-79393938D01*
X117610714Y-79393937D01*
X117610712Y-79393936D01*
X117434985Y-79304399D01*
X117247407Y-79243451D01*
X117052616Y-79212600D01*
X117052613Y-79212600D01*
X116855387Y-79212600D01*
X116855384Y-79212600D01*
X116660592Y-79243451D01*
X116473014Y-79304399D01*
X116297287Y-79393936D01*
X116137726Y-79509864D01*
X115998264Y-79649326D01*
X115882336Y-79808887D01*
X115792799Y-79984614D01*
X115731851Y-80172192D01*
X115701000Y-80366983D01*
X115701000Y-80564216D01*
X115731851Y-80759007D01*
X115792799Y-80946585D01*
X115873978Y-81105909D01*
X115882338Y-81122315D01*
X115998265Y-81281875D01*
X116137725Y-81421335D01*
X116297285Y-81537262D01*
X116473015Y-81626801D01*
X116660588Y-81687747D01*
X116660589Y-81687747D01*
X116660592Y-81687748D01*
X116855384Y-81718600D01*
X116855387Y-81718600D01*
X117052616Y-81718600D01*
X117247407Y-81687748D01*
X117247408Y-81687747D01*
X117247412Y-81687747D01*
X117434985Y-81626801D01*
X117610715Y-81537262D01*
X117770275Y-81421335D01*
X117909735Y-81281875D01*
X118025662Y-81122315D01*
X118115201Y-80946585D01*
X118129845Y-80901514D01*
X118165809Y-80852015D01*
X118223999Y-80833107D01*
X118282190Y-80852014D01*
X118318154Y-80901514D01*
X118318155Y-80901515D01*
X118332798Y-80946583D01*
X118413978Y-81105909D01*
X118422338Y-81122315D01*
X118538265Y-81281875D01*
X118677725Y-81421335D01*
X118837285Y-81537262D01*
X119013015Y-81626801D01*
X119200588Y-81687747D01*
X119200589Y-81687747D01*
X119200592Y-81687748D01*
X119395384Y-81718600D01*
X119395387Y-81718600D01*
X119592616Y-81718600D01*
X119787407Y-81687748D01*
X119787408Y-81687747D01*
X119787412Y-81687747D01*
X119974985Y-81626801D01*
X120150715Y-81537262D01*
X120310275Y-81421335D01*
X120354498Y-81377111D01*
X120409013Y-81349336D01*
X120469445Y-81358907D01*
X120512710Y-81402172D01*
X120523500Y-81447117D01*
X120523500Y-84084500D01*
X120504593Y-84142691D01*
X120455093Y-84178655D01*
X120424500Y-84183500D01*
X116009892Y-84183500D01*
X115878108Y-84183500D01*
X115807034Y-84202544D01*
X115750809Y-84217609D01*
X115636690Y-84283496D01*
X115543496Y-84376690D01*
X115477609Y-84490809D01*
X115458539Y-84561978D01*
X115443500Y-84618108D01*
X115443500Y-91218108D01*
X115443500Y-91349892D01*
X115471462Y-91454249D01*
X115477609Y-91477190D01*
X115543496Y-91591309D01*
X115543498Y-91591311D01*
X115543500Y-91591314D01*
X115636686Y-91684500D01*
X115636688Y-91684501D01*
X115636690Y-91684503D01*
X115750810Y-91750390D01*
X115750808Y-91750390D01*
X115750812Y-91750391D01*
X115750814Y-91750392D01*
X115878108Y-91784500D01*
X120424500Y-91784500D01*
X120482691Y-91803407D01*
X120518655Y-91852907D01*
X120523500Y-91883500D01*
X120523500Y-94520883D01*
X120504593Y-94579074D01*
X120455093Y-94615038D01*
X120393907Y-94615038D01*
X120354498Y-94590888D01*
X120310275Y-94546665D01*
X120150715Y-94430738D01*
X120150714Y-94430737D01*
X120150712Y-94430736D01*
X119974985Y-94341199D01*
X119787407Y-94280251D01*
X119592616Y-94249400D01*
X119592613Y-94249400D01*
X119395387Y-94249400D01*
X119395384Y-94249400D01*
X119200592Y-94280251D01*
X119013014Y-94341199D01*
X118837287Y-94430736D01*
X118677726Y-94546664D01*
X118538264Y-94686126D01*
X118422336Y-94845687D01*
X118332799Y-95021414D01*
X118318155Y-95066485D01*
X118282191Y-95115985D01*
X118224000Y-95134892D01*
X118165809Y-95115985D01*
X118129845Y-95066485D01*
X118124164Y-95049000D01*
X118115201Y-95021415D01*
X118025662Y-94845685D01*
X117909735Y-94686125D01*
X117770275Y-94546665D01*
X117610715Y-94430738D01*
X117610714Y-94430737D01*
X117610712Y-94430736D01*
X117434985Y-94341199D01*
X117247407Y-94280251D01*
X117052616Y-94249400D01*
X117052613Y-94249400D01*
X116855387Y-94249400D01*
X116855384Y-94249400D01*
X116660592Y-94280251D01*
X116473014Y-94341199D01*
X116297287Y-94430736D01*
X116137726Y-94546664D01*
X115998264Y-94686126D01*
X115882336Y-94845687D01*
X115792799Y-95021414D01*
X115778155Y-95066485D01*
X115742191Y-95115985D01*
X115684000Y-95134892D01*
X115625809Y-95115985D01*
X115589845Y-95066485D01*
X115584164Y-95049000D01*
X115575201Y-95021415D01*
X115485662Y-94845685D01*
X115369735Y-94686125D01*
X115230275Y-94546665D01*
X115070715Y-94430738D01*
X115070714Y-94430737D01*
X115070712Y-94430736D01*
X114894985Y-94341199D01*
X114707407Y-94280251D01*
X114512616Y-94249400D01*
X114512613Y-94249400D01*
X114315387Y-94249400D01*
X114315384Y-94249400D01*
X114120592Y-94280251D01*
X113933014Y-94341199D01*
X113757287Y-94430736D01*
X113597726Y-94546664D01*
X113458264Y-94686126D01*
X113342336Y-94845687D01*
X113252799Y-95021414D01*
X113191851Y-95208992D01*
X113161000Y-95403783D01*
X113161000Y-95601016D01*
X113191851Y-95795807D01*
X113252799Y-95983386D01*
X113258565Y-95994703D01*
X113268133Y-96055135D01*
X113240357Y-96109648D01*
X112225470Y-97124534D01*
X112170953Y-97152311D01*
X112110521Y-97142740D01*
X112067256Y-97099475D01*
X112057685Y-97039043D01*
X112081500Y-96888684D01*
X112081500Y-96656114D01*
X112045120Y-96426422D01*
X111973252Y-96205236D01*
X111867673Y-95998023D01*
X111751039Y-95837491D01*
X111254921Y-96333609D01*
X111213749Y-96271992D01*
X111104408Y-96162651D01*
X111042787Y-96121477D01*
X111538906Y-95625359D01*
X111378376Y-95508726D01*
X111171163Y-95403147D01*
X110949977Y-95331279D01*
X110720285Y-95294900D01*
X110487715Y-95294900D01*
X110258022Y-95331279D01*
X110036836Y-95403147D01*
X109829621Y-95508727D01*
X109829617Y-95508729D01*
X109669091Y-95625358D01*
X110165211Y-96121478D01*
X110103592Y-96162651D01*
X109994251Y-96271992D01*
X109953078Y-96333611D01*
X109456958Y-95837491D01*
X109340329Y-95998017D01*
X109340327Y-95998021D01*
X109234747Y-96205236D01*
X109162879Y-96426422D01*
X109126500Y-96656114D01*
X109126500Y-96888685D01*
X109162879Y-97118377D01*
X109234747Y-97339563D01*
X109340326Y-97546776D01*
X109456959Y-97707306D01*
X109953077Y-97211187D01*
X109994251Y-97272808D01*
X110103592Y-97382149D01*
X110165209Y-97423321D01*
X109669091Y-97919439D01*
X109829623Y-98036073D01*
X110036836Y-98141652D01*
X110258022Y-98213520D01*
X110487715Y-98249900D01*
X110720285Y-98249900D01*
X110870643Y-98226085D01*
X110931075Y-98235656D01*
X110974339Y-98278921D01*
X110983911Y-98339353D01*
X110956134Y-98393869D01*
X110956134Y-98393870D01*
X110185703Y-99164302D01*
X110165202Y-99180033D01*
X110137688Y-99195919D01*
X108863103Y-100470504D01*
X108808586Y-100498281D01*
X108793099Y-100499500D01*
X92906791Y-100499500D01*
X92848600Y-100480593D01*
X92836787Y-100470504D01*
X92026284Y-99660001D01*
X101764000Y-99660001D01*
X101764000Y-99801104D01*
X101774132Y-99885468D01*
X101827077Y-100019729D01*
X101914276Y-100134717D01*
X101914282Y-100134723D01*
X102029270Y-100221922D01*
X102163531Y-100274867D01*
X102247895Y-100284999D01*
X102247900Y-100285000D01*
X102363999Y-100285000D01*
X102364000Y-100284999D01*
X102364000Y-99660001D01*
X102363999Y-99660000D01*
X101764001Y-99660000D01*
X101764000Y-99660001D01*
X92026284Y-99660001D01*
X89642407Y-97276124D01*
X89614630Y-97221607D01*
X89624201Y-97161175D01*
X89642404Y-97136119D01*
X89729363Y-97049161D01*
X89786614Y-96950000D01*
X89801836Y-96923635D01*
X89801836Y-96923633D01*
X89801838Y-96923631D01*
X89839354Y-96783621D01*
X89839354Y-96638671D01*
X89801838Y-96498661D01*
X89801836Y-96498658D01*
X89801836Y-96498656D01*
X89729366Y-96373135D01*
X89729361Y-96373129D01*
X89718348Y-96362115D01*
X89690572Y-96307598D01*
X89689354Y-96292114D01*
X89689354Y-96088128D01*
X89689354Y-96088127D01*
X89675927Y-96038015D01*
X89673937Y-96030587D01*
X89673937Y-96030586D01*
X89662061Y-95986266D01*
X89654903Y-95973868D01*
X89642181Y-95914020D01*
X89650000Y-95896457D01*
X89650000Y-95275001D01*
X89950000Y-95275001D01*
X89950000Y-95874999D01*
X89950001Y-95875000D01*
X90091100Y-95875000D01*
X90091104Y-95874999D01*
X90175468Y-95864867D01*
X90282083Y-95822824D01*
X90924999Y-95822824D01*
X90931401Y-95882370D01*
X90931403Y-95882381D01*
X90981646Y-96017088D01*
X90981647Y-96017090D01*
X91067807Y-96132184D01*
X91067815Y-96132192D01*
X91182909Y-96218352D01*
X91182911Y-96218353D01*
X91317618Y-96268596D01*
X91317629Y-96268598D01*
X91377176Y-96275000D01*
X91549999Y-96275000D01*
X91550000Y-96274999D01*
X91550000Y-95725001D01*
X91850000Y-95725001D01*
X91850000Y-96274999D01*
X91850001Y-96275000D01*
X92022824Y-96275000D01*
X92082370Y-96268598D01*
X92082381Y-96268596D01*
X92217088Y-96218353D01*
X92217090Y-96218352D01*
X92332184Y-96132192D01*
X92332192Y-96132184D01*
X92404944Y-96035001D01*
X97939000Y-96035001D01*
X97939000Y-96151104D01*
X97949132Y-96235468D01*
X98002077Y-96369729D01*
X98089276Y-96484717D01*
X98089282Y-96484723D01*
X98204270Y-96571922D01*
X98338531Y-96624867D01*
X98422895Y-96634999D01*
X98422900Y-96635000D01*
X98563999Y-96635000D01*
X98564000Y-96634999D01*
X98564000Y-96035001D01*
X98864000Y-96035001D01*
X98864000Y-96634999D01*
X98864001Y-96635000D01*
X99005100Y-96635000D01*
X99005104Y-96634999D01*
X99089468Y-96624867D01*
X99223729Y-96571922D01*
X99338717Y-96484723D01*
X99338723Y-96484717D01*
X99425922Y-96369729D01*
X99478867Y-96235468D01*
X99488999Y-96151104D01*
X99489000Y-96151100D01*
X99489000Y-96035001D01*
X99488999Y-96035000D01*
X98864001Y-96035000D01*
X98864000Y-96035001D01*
X98564000Y-96035001D01*
X98563999Y-96035000D01*
X97939001Y-96035000D01*
X97939000Y-96035001D01*
X92404944Y-96035001D01*
X92418352Y-96017090D01*
X92418353Y-96017088D01*
X92439871Y-95959397D01*
X92439871Y-95959396D01*
X92468596Y-95882378D01*
X92468598Y-95882370D01*
X92475000Y-95822824D01*
X92475000Y-95725001D01*
X92474999Y-95725000D01*
X91850001Y-95725000D01*
X91850000Y-95725001D01*
X91550000Y-95725001D01*
X91549999Y-95725000D01*
X90925001Y-95725000D01*
X90925000Y-95725001D01*
X90925000Y-95822824D01*
X90924999Y-95822824D01*
X90282083Y-95822824D01*
X90309729Y-95811922D01*
X90424717Y-95724723D01*
X90424723Y-95724717D01*
X90500968Y-95624174D01*
X90500968Y-95624173D01*
X90511921Y-95609729D01*
X90564867Y-95475468D01*
X90574999Y-95391104D01*
X90575000Y-95391100D01*
X90575000Y-95327175D01*
X90925000Y-95327175D01*
X90925000Y-95424999D01*
X90925001Y-95425000D01*
X91549999Y-95425000D01*
X91550000Y-95424999D01*
X91550000Y-94875001D01*
X91850000Y-94875001D01*
X91850000Y-95424999D01*
X91850001Y-95425000D01*
X92474999Y-95425000D01*
X92475000Y-95424999D01*
X92475000Y-95327175D01*
X92468598Y-95267629D01*
X92468596Y-95267618D01*
X92418353Y-95132911D01*
X92418352Y-95132909D01*
X92332192Y-95017815D01*
X92332184Y-95017807D01*
X92217090Y-94931647D01*
X92217088Y-94931646D01*
X92082381Y-94881403D01*
X92082370Y-94881401D01*
X92022824Y-94875000D01*
X91850001Y-94875000D01*
X91850000Y-94875001D01*
X91550000Y-94875001D01*
X91549999Y-94875000D01*
X91377176Y-94875000D01*
X91317629Y-94881401D01*
X91317618Y-94881403D01*
X91182911Y-94931646D01*
X91182909Y-94931647D01*
X91067815Y-95017807D01*
X91067807Y-95017815D01*
X90981647Y-95132909D01*
X90981646Y-95132911D01*
X90931403Y-95267618D01*
X90931401Y-95267629D01*
X90925000Y-95327175D01*
X90575000Y-95327175D01*
X90575000Y-95275001D01*
X90574999Y-95275000D01*
X89950001Y-95275000D01*
X89950000Y-95275001D01*
X89650000Y-95275001D01*
X89649999Y-95275000D01*
X89523500Y-95275000D01*
X89465309Y-95256093D01*
X89429345Y-95206593D01*
X89424500Y-95176000D01*
X89424500Y-95074000D01*
X89443407Y-95015809D01*
X89492907Y-94979845D01*
X89523500Y-94975000D01*
X90574999Y-94975000D01*
X90575000Y-94974999D01*
X90575000Y-94858899D01*
X90574999Y-94858895D01*
X90564867Y-94774531D01*
X90511922Y-94640270D01*
X90424723Y-94525282D01*
X90424717Y-94525276D01*
X90309725Y-94438074D01*
X90307072Y-94436583D01*
X90305482Y-94434857D01*
X90304332Y-94433985D01*
X90304488Y-94433778D01*
X90265616Y-94391582D01*
X90258529Y-94330809D01*
X90288516Y-94277476D01*
X90307082Y-94263989D01*
X90309966Y-94262367D01*
X90309975Y-94262364D01*
X90425078Y-94175078D01*
X90512364Y-94059975D01*
X90565359Y-93925590D01*
X90575500Y-93841144D01*
X90575500Y-93380900D01*
X90594407Y-93322709D01*
X90643907Y-93286745D01*
X90705093Y-93286745D01*
X90744504Y-93310897D01*
X90918577Y-93484971D01*
X90946354Y-93539487D01*
X90941332Y-93589568D01*
X90930909Y-93617514D01*
X90930909Y-93617516D01*
X90930909Y-93617517D01*
X90924658Y-93675663D01*
X90924500Y-93677129D01*
X90924500Y-94172866D01*
X90924501Y-94172870D01*
X90930908Y-94232480D01*
X90930909Y-94232485D01*
X90981202Y-94367329D01*
X91062016Y-94475282D01*
X91067454Y-94482546D01*
X91067457Y-94482548D01*
X91067458Y-94482549D01*
X91182670Y-94568797D01*
X91317511Y-94619089D01*
X91317512Y-94619089D01*
X91317517Y-94619091D01*
X91377127Y-94625500D01*
X92022872Y-94625499D01*
X92082483Y-94619091D01*
X92186997Y-94580110D01*
X92217329Y-94568797D01*
X92217329Y-94568796D01*
X92217331Y-94568796D01*
X92332546Y-94482546D01*
X92418796Y-94367331D01*
X92469091Y-94232483D01*
X92469091Y-94232481D01*
X92471228Y-94226752D01*
X92509278Y-94178837D01*
X92568225Y-94162439D01*
X92625553Y-94183820D01*
X92656744Y-94226752D01*
X92681202Y-94292329D01*
X92761805Y-94400000D01*
X92767454Y-94407546D01*
X92767457Y-94407548D01*
X92767458Y-94407549D01*
X92882670Y-94493797D01*
X93017511Y-94544089D01*
X93017512Y-94544089D01*
X93017517Y-94544091D01*
X93077127Y-94550500D01*
X93722872Y-94550499D01*
X93782483Y-94544091D01*
X93888399Y-94504587D01*
X93917329Y-94493797D01*
X93917329Y-94493796D01*
X93917331Y-94493796D01*
X94032546Y-94407546D01*
X94101698Y-94315171D01*
X94151706Y-94279918D01*
X94180951Y-94275500D01*
X94556016Y-94275500D01*
X94556018Y-94275500D01*
X94664237Y-94246503D01*
X94664239Y-94246501D01*
X94664241Y-94246501D01*
X94761258Y-94190488D01*
X94761258Y-94190487D01*
X94761263Y-94190485D01*
X94772253Y-94179494D01*
X94779369Y-94175868D01*
X94784065Y-94169406D01*
X94806113Y-94162242D01*
X94826769Y-94151718D01*
X94842256Y-94150499D01*
X95029554Y-94150499D01*
X95079053Y-94163762D01*
X95095412Y-94173207D01*
X95197273Y-94200501D01*
X95197275Y-94200501D01*
X95308790Y-94200501D01*
X95308806Y-94200500D01*
X95580969Y-94200500D01*
X95639160Y-94219407D01*
X95650966Y-94229490D01*
X95661985Y-94240509D01*
X95661987Y-94240510D01*
X95661989Y-94240512D01*
X95787511Y-94312982D01*
X95787512Y-94312982D01*
X95787515Y-94312984D01*
X95927525Y-94350500D01*
X95927526Y-94350500D01*
X96072475Y-94350500D01*
X96105304Y-94341703D01*
X96166404Y-94344904D01*
X96200931Y-94367325D01*
X96489086Y-94655479D01*
X96489091Y-94655483D01*
X96580408Y-94708205D01*
X96580406Y-94708205D01*
X96580410Y-94708206D01*
X96580412Y-94708207D01*
X96682273Y-94735500D01*
X96787727Y-94735500D01*
X97900944Y-94735500D01*
X97959135Y-94754407D01*
X97993041Y-94798181D01*
X98000826Y-94817922D01*
X98001636Y-94819975D01*
X98088922Y-94935078D01*
X98204025Y-95022364D01*
X98204033Y-95022367D01*
X98206921Y-95023991D01*
X98208658Y-95025876D01*
X98209421Y-95026455D01*
X98209317Y-95026591D01*
X98248380Y-95068989D01*
X98255472Y-95129762D01*
X98225488Y-95183097D01*
X98206932Y-95196581D01*
X98204272Y-95198076D01*
X98089282Y-95285276D01*
X98089276Y-95285282D01*
X98002077Y-95400270D01*
X97949132Y-95534531D01*
X97939000Y-95618895D01*
X97939000Y-95734999D01*
X97939001Y-95735000D01*
X99506599Y-95735000D01*
X99564790Y-95753907D01*
X99576603Y-95763996D01*
X102378603Y-98565996D01*
X102406380Y-98620513D01*
X102396809Y-98680945D01*
X102353544Y-98724210D01*
X102308599Y-98735000D01*
X102247895Y-98735000D01*
X102163531Y-98745132D01*
X102029270Y-98798077D01*
X101914282Y-98885276D01*
X101914276Y-98885282D01*
X101827077Y-99000270D01*
X101774132Y-99134531D01*
X101764000Y-99218895D01*
X101764000Y-99359999D01*
X101764001Y-99360000D01*
X102415000Y-99360000D01*
X102473191Y-99378907D01*
X102509155Y-99428407D01*
X102514000Y-99459000D01*
X102514000Y-99509999D01*
X102514001Y-99510000D01*
X102565000Y-99510000D01*
X102623191Y-99528907D01*
X102659155Y-99578407D01*
X102664000Y-99609000D01*
X102664000Y-100284999D01*
X102664001Y-100285000D01*
X102780100Y-100285000D01*
X102780104Y-100284999D01*
X102864468Y-100274867D01*
X102998729Y-100221922D01*
X103113717Y-100134723D01*
X103113723Y-100134717D01*
X103200922Y-100019729D01*
X103202412Y-100017079D01*
X103204137Y-100015489D01*
X103205015Y-100014332D01*
X103205222Y-100014489D01*
X103247409Y-99975620D01*
X103308182Y-99968527D01*
X103361517Y-99998510D01*
X103375006Y-100017075D01*
X103376634Y-100019970D01*
X103376636Y-100019975D01*
X103463922Y-100135078D01*
X103579025Y-100222364D01*
X103579026Y-100222364D01*
X103579027Y-100222365D01*
X103646217Y-100248861D01*
X103713410Y-100275359D01*
X103797856Y-100285500D01*
X103797858Y-100285500D01*
X104330142Y-100285500D01*
X104330144Y-100285500D01*
X104414590Y-100275359D01*
X104548975Y-100222364D01*
X104664078Y-100135078D01*
X104751364Y-100019975D01*
X104804359Y-99885590D01*
X104814500Y-99801144D01*
X104814500Y-99218856D01*
X104804359Y-99134410D01*
X104751364Y-99000025D01*
X104664078Y-98884922D01*
X104664073Y-98884918D01*
X104653677Y-98877034D01*
X104618737Y-98826806D01*
X104614500Y-98798153D01*
X104614500Y-93987786D01*
X104633407Y-93929595D01*
X104658497Y-93905471D01*
X104679216Y-93891628D01*
X104827628Y-93743216D01*
X104944233Y-93568703D01*
X105024553Y-93374795D01*
X105065500Y-93168943D01*
X105065500Y-92959057D01*
X105024553Y-92753205D01*
X104997144Y-92687034D01*
X108727900Y-92687034D01*
X108727900Y-92932966D01*
X108755487Y-93142511D01*
X108760000Y-93176786D01*
X108760000Y-93176791D01*
X108790991Y-93292450D01*
X108820472Y-93402476D01*
X108823651Y-93414338D01*
X108823655Y-93414351D01*
X108917763Y-93641550D01*
X108917765Y-93641554D01*
X108917767Y-93641558D01*
X109039686Y-93852727D01*
X109040735Y-93854544D01*
X109135101Y-93977525D01*
X109190447Y-94049653D01*
X109364347Y-94223553D01*
X109559459Y-94373267D01*
X109772442Y-94496233D01*
X109999654Y-94590347D01*
X110237206Y-94653999D01*
X110481034Y-94686100D01*
X110481035Y-94686100D01*
X110726965Y-94686100D01*
X110726966Y-94686100D01*
X110970794Y-94653999D01*
X111208346Y-94590347D01*
X111435558Y-94496233D01*
X111648541Y-94373267D01*
X111843653Y-94223553D01*
X112017553Y-94049653D01*
X112167267Y-93854541D01*
X112290233Y-93641558D01*
X112384347Y-93414346D01*
X112447999Y-93176794D01*
X112480100Y-92932966D01*
X112480100Y-92687034D01*
X112447999Y-92443206D01*
X112384347Y-92205654D01*
X112300170Y-92002431D01*
X112290236Y-91978449D01*
X112290235Y-91978448D01*
X112290233Y-91978442D01*
X112167267Y-91765459D01*
X112164231Y-91761503D01*
X112117861Y-91701071D01*
X112017553Y-91570347D01*
X111843653Y-91396447D01*
X111782981Y-91349892D01*
X111648544Y-91246735D01*
X111648541Y-91246733D01*
X111435558Y-91123767D01*
X111435554Y-91123765D01*
X111435550Y-91123763D01*
X111208351Y-91029655D01*
X111208350Y-91029654D01*
X111208346Y-91029653D01*
X110970794Y-90966001D01*
X110970791Y-90966000D01*
X110970789Y-90966000D01*
X110726966Y-90933900D01*
X110481034Y-90933900D01*
X110481033Y-90933900D01*
X110237213Y-90966000D01*
X110237208Y-90966000D01*
X109999661Y-91029651D01*
X109999648Y-91029655D01*
X109772449Y-91123763D01*
X109559455Y-91246735D01*
X109364350Y-91396444D01*
X109190444Y-91570350D01*
X109040735Y-91765455D01*
X108917763Y-91978449D01*
X108823655Y-92205648D01*
X108823651Y-92205661D01*
X108760000Y-92443208D01*
X108760000Y-92443213D01*
X108733786Y-92642329D01*
X108727900Y-92687034D01*
X104997144Y-92687034D01*
X104944233Y-92559297D01*
X104827628Y-92384784D01*
X104679216Y-92236372D01*
X104674925Y-92233505D01*
X104616409Y-92194406D01*
X104520489Y-92130314D01*
X104482610Y-92082266D01*
X104480208Y-92021128D01*
X104514200Y-91970254D01*
X104520480Y-91965690D01*
X104679216Y-91859628D01*
X104827628Y-91711216D01*
X104944233Y-91536703D01*
X105024553Y-91342795D01*
X105065500Y-91136943D01*
X105065500Y-90927057D01*
X105024553Y-90721205D01*
X104944233Y-90527297D01*
X104827628Y-90352784D01*
X104679216Y-90204372D01*
X104674169Y-90201000D01*
X104604237Y-90154273D01*
X104520489Y-90098314D01*
X104482610Y-90050266D01*
X104480208Y-89989128D01*
X104514200Y-89938254D01*
X104520480Y-89933690D01*
X104679216Y-89827628D01*
X104827628Y-89679216D01*
X104944233Y-89504703D01*
X105024553Y-89310795D01*
X105065500Y-89104943D01*
X105065500Y-88895057D01*
X105024553Y-88689205D01*
X104944233Y-88495297D01*
X104827628Y-88320784D01*
X104679216Y-88172372D01*
X104652462Y-88154496D01*
X104610891Y-88126719D01*
X104520489Y-88066314D01*
X104482610Y-88018266D01*
X104480208Y-87957128D01*
X104514200Y-87906254D01*
X104520480Y-87901690D01*
X104679216Y-87795628D01*
X104827628Y-87647216D01*
X104944233Y-87472703D01*
X105024553Y-87278795D01*
X105065500Y-87072943D01*
X105065500Y-86863057D01*
X105024553Y-86657205D01*
X104944233Y-86463297D01*
X104827628Y-86288784D01*
X104679216Y-86140372D01*
X104670254Y-86134384D01*
X104610810Y-86094665D01*
X104520489Y-86034314D01*
X104482610Y-85986266D01*
X104480208Y-85925128D01*
X104514200Y-85874254D01*
X104520480Y-85869690D01*
X104679216Y-85763628D01*
X104827628Y-85615216D01*
X104944233Y-85440703D01*
X105024553Y-85246795D01*
X105065500Y-85040943D01*
X105065500Y-84831057D01*
X105024553Y-84625205D01*
X104944233Y-84431297D01*
X104827628Y-84256784D01*
X104709344Y-84138500D01*
X104681569Y-84083986D01*
X104691140Y-84023554D01*
X104734405Y-83980289D01*
X104779350Y-83969499D01*
X104809861Y-83969499D01*
X104809864Y-83969499D01*
X104834991Y-83966585D01*
X104937765Y-83921206D01*
X105017206Y-83841765D01*
X105062585Y-83738991D01*
X105065500Y-83713865D01*
X105065499Y-83035034D01*
X108727900Y-83035034D01*
X108727900Y-83280966D01*
X108756802Y-83500499D01*
X108760000Y-83524786D01*
X108760000Y-83524791D01*
X108783006Y-83610650D01*
X108821740Y-83755208D01*
X108823651Y-83762338D01*
X108823655Y-83762351D01*
X108917763Y-83989550D01*
X108917765Y-83989554D01*
X108917767Y-83989558D01*
X109040733Y-84202541D01*
X109040735Y-84202544D01*
X109106852Y-84288710D01*
X109190447Y-84397653D01*
X109364347Y-84571553D01*
X109559459Y-84721267D01*
X109772442Y-84844233D01*
X109772448Y-84844235D01*
X109772449Y-84844236D01*
X109778999Y-84846949D01*
X109999654Y-84938347D01*
X110237206Y-85001999D01*
X110481034Y-85034100D01*
X110481035Y-85034100D01*
X110726965Y-85034100D01*
X110726966Y-85034100D01*
X110970794Y-85001999D01*
X111208346Y-84938347D01*
X111435558Y-84844233D01*
X111648541Y-84721267D01*
X111843653Y-84571553D01*
X112017553Y-84397653D01*
X112167267Y-84202541D01*
X112290233Y-83989558D01*
X112384347Y-83762346D01*
X112447999Y-83524794D01*
X112480100Y-83280966D01*
X112480100Y-83035034D01*
X112447999Y-82791206D01*
X112384347Y-82553654D01*
X112290233Y-82326442D01*
X112167267Y-82113459D01*
X112162681Y-82107483D01*
X112116936Y-82047866D01*
X112017553Y-81918347D01*
X111843653Y-81744447D01*
X111755407Y-81676734D01*
X111648544Y-81594735D01*
X111648541Y-81594733D01*
X111435558Y-81471767D01*
X111435554Y-81471765D01*
X111435550Y-81471763D01*
X111208351Y-81377655D01*
X111208350Y-81377654D01*
X111208346Y-81377653D01*
X110970794Y-81314001D01*
X110970791Y-81314000D01*
X110970789Y-81314000D01*
X110726966Y-81281900D01*
X110481034Y-81281900D01*
X110481033Y-81281900D01*
X110237213Y-81314000D01*
X110237208Y-81314000D01*
X109999661Y-81377651D01*
X109999648Y-81377655D01*
X109772449Y-81471763D01*
X109559455Y-81594735D01*
X109364350Y-81744444D01*
X109190444Y-81918350D01*
X109040735Y-82113455D01*
X108917763Y-82326449D01*
X108823655Y-82553648D01*
X108823651Y-82553661D01*
X108760000Y-82791208D01*
X108760000Y-82791213D01*
X108730759Y-83013321D01*
X108727900Y-83035034D01*
X105065499Y-83035034D01*
X105065499Y-82904000D01*
X105065499Y-82094139D01*
X105065499Y-82094136D01*
X105062585Y-82069009D01*
X105017206Y-81966235D01*
X104937765Y-81886794D01*
X104834991Y-81841415D01*
X104834990Y-81841414D01*
X104834988Y-81841414D01*
X104809869Y-81838500D01*
X104809865Y-81838500D01*
X104649500Y-81838500D01*
X104591309Y-81819593D01*
X104555345Y-81770093D01*
X104550500Y-81739500D01*
X104550500Y-79443032D01*
X104569407Y-79384841D01*
X104579490Y-79373034D01*
X104729510Y-79223015D01*
X104801984Y-79097485D01*
X104806853Y-79079314D01*
X109126500Y-79079314D01*
X109126500Y-79311885D01*
X109162879Y-79541577D01*
X109234747Y-79762763D01*
X109340326Y-79969976D01*
X109456959Y-80130506D01*
X109953077Y-79634387D01*
X109994251Y-79696008D01*
X110103592Y-79805349D01*
X110165209Y-79846520D01*
X109669091Y-80342639D01*
X109829623Y-80459273D01*
X110036836Y-80564852D01*
X110258022Y-80636720D01*
X110487715Y-80673100D01*
X110720285Y-80673100D01*
X110949977Y-80636720D01*
X111171163Y-80564852D01*
X111378378Y-80459272D01*
X111378384Y-80459268D01*
X111538907Y-80342640D01*
X111538907Y-80342639D01*
X111042789Y-79846521D01*
X111104408Y-79805349D01*
X111213749Y-79696008D01*
X111254921Y-79634389D01*
X111751039Y-80130507D01*
X111751040Y-80130507D01*
X111867668Y-79969984D01*
X111867672Y-79969978D01*
X111973252Y-79762763D01*
X112045120Y-79541577D01*
X112081500Y-79311885D01*
X112081500Y-79079314D01*
X112045120Y-78849622D01*
X111973252Y-78628436D01*
X111867673Y-78421223D01*
X111751039Y-78260691D01*
X111254920Y-78756809D01*
X111213749Y-78695192D01*
X111104408Y-78585851D01*
X111042787Y-78544677D01*
X111538906Y-78048559D01*
X111378376Y-77931926D01*
X111171163Y-77826347D01*
X110949977Y-77754479D01*
X110720285Y-77718100D01*
X110487715Y-77718100D01*
X110258022Y-77754479D01*
X110036836Y-77826347D01*
X109829621Y-77931927D01*
X109829617Y-77931929D01*
X109669091Y-78048558D01*
X110165211Y-78544678D01*
X110103592Y-78585851D01*
X109994251Y-78695192D01*
X109953078Y-78756811D01*
X109456958Y-78260691D01*
X109340329Y-78421217D01*
X109340327Y-78421221D01*
X109234747Y-78628436D01*
X109162879Y-78849622D01*
X109126500Y-79079314D01*
X104806853Y-79079314D01*
X104814760Y-79049807D01*
X104814760Y-79049805D01*
X104826348Y-79006557D01*
X104827837Y-79001000D01*
X104828263Y-78999410D01*
X104839500Y-78957475D01*
X104839500Y-77121846D01*
X104858407Y-77063655D01*
X104878681Y-77042962D01*
X104889078Y-77035078D01*
X104976364Y-76919975D01*
X105029359Y-76785590D01*
X105039500Y-76701144D01*
X105039500Y-76495943D01*
X114449500Y-76495943D01*
X114449500Y-76654057D01*
X114490423Y-76806784D01*
X114569480Y-76943716D01*
X114681284Y-77055520D01*
X114818216Y-77134577D01*
X114970943Y-77175500D01*
X114970945Y-77175500D01*
X115129055Y-77175500D01*
X115129057Y-77175500D01*
X115281784Y-77134577D01*
X115418716Y-77055520D01*
X115456907Y-77017329D01*
X115469741Y-77004496D01*
X115524258Y-76976719D01*
X115539744Y-76975500D01*
X115950334Y-76975500D01*
X116008525Y-76994407D01*
X116029587Y-77015171D01*
X116096789Y-77104942D01*
X116117454Y-77132546D01*
X116117457Y-77132548D01*
X116117458Y-77132549D01*
X116232670Y-77218797D01*
X116367511Y-77269089D01*
X116367512Y-77269089D01*
X116367517Y-77269091D01*
X116427127Y-77275500D01*
X116922872Y-77275499D01*
X116982483Y-77269091D01*
X117095890Y-77226793D01*
X117117329Y-77218797D01*
X117117329Y-77218796D01*
X117117331Y-77218796D01*
X117232546Y-77132546D01*
X117318796Y-77017331D01*
X117369091Y-76882483D01*
X117375500Y-76822873D01*
X117375499Y-76177128D01*
X117369091Y-76117517D01*
X117354747Y-76079059D01*
X117318797Y-75982670D01*
X117232549Y-75867458D01*
X117232548Y-75867457D01*
X117232546Y-75867454D01*
X117192721Y-75837641D01*
X117117329Y-75781202D01*
X116982488Y-75730910D01*
X116982483Y-75730909D01*
X116982481Y-75730908D01*
X116982477Y-75730908D01*
X116951249Y-75727550D01*
X116922873Y-75724500D01*
X116922870Y-75724500D01*
X116427133Y-75724500D01*
X116427129Y-75724500D01*
X116427128Y-75724501D01*
X116419949Y-75725272D01*
X116367519Y-75730908D01*
X116367514Y-75730909D01*
X116232670Y-75781202D01*
X116117458Y-75867450D01*
X116117450Y-75867458D01*
X116031202Y-75982670D01*
X115983677Y-76110096D01*
X115945627Y-76158011D01*
X115890919Y-76174500D01*
X115539744Y-76174500D01*
X115481553Y-76155593D01*
X115469741Y-76145504D01*
X115418718Y-76094482D01*
X115418716Y-76094480D01*
X115281784Y-76015423D01*
X115129057Y-75974500D01*
X114970943Y-75974500D01*
X114818216Y-76015423D01*
X114681284Y-76094480D01*
X114569480Y-76206284D01*
X114490423Y-76343216D01*
X114449500Y-76495943D01*
X105039500Y-76495943D01*
X105039500Y-76118856D01*
X105029359Y-76034410D01*
X104984826Y-75921482D01*
X104976365Y-75900027D01*
X104976364Y-75900026D01*
X104976364Y-75900025D01*
X104889078Y-75784922D01*
X104773975Y-75697636D01*
X104773974Y-75697635D01*
X104773972Y-75697634D01*
X104639591Y-75644641D01*
X104555148Y-75634500D01*
X104555144Y-75634500D01*
X104022856Y-75634500D01*
X104022851Y-75634500D01*
X103938408Y-75644641D01*
X103804027Y-75697634D01*
X103688922Y-75784922D01*
X103601634Y-75900028D01*
X103600004Y-75902928D01*
X103598118Y-75904665D01*
X103597545Y-75905421D01*
X103597409Y-75905318D01*
X103555002Y-75944384D01*
X103494229Y-75951470D01*
X103440896Y-75921482D01*
X103427414Y-75902924D01*
X103425922Y-75900271D01*
X103338723Y-75785282D01*
X103338717Y-75785276D01*
X103223729Y-75698077D01*
X103089468Y-75645132D01*
X103005104Y-75635000D01*
X102889001Y-75635000D01*
X102889000Y-75635001D01*
X102889000Y-76311000D01*
X102870093Y-76369191D01*
X102820593Y-76405155D01*
X102790000Y-76410000D01*
X102739001Y-76410000D01*
X102739000Y-76410001D01*
X102739000Y-76461000D01*
X102720093Y-76519191D01*
X102670593Y-76555155D01*
X102640000Y-76560000D01*
X101989001Y-76560000D01*
X101989000Y-76560001D01*
X101989000Y-76701104D01*
X101999132Y-76785468D01*
X102052077Y-76919729D01*
X102139276Y-77034717D01*
X102139282Y-77034723D01*
X102220900Y-77096616D01*
X102255843Y-77146843D01*
X102254589Y-77208015D01*
X102217619Y-77256768D01*
X102161081Y-77274500D01*
X101572273Y-77274500D01*
X101521343Y-77288146D01*
X101470411Y-77301793D01*
X101406425Y-77338735D01*
X101406426Y-77338736D01*
X101379087Y-77354520D01*
X99662603Y-79071004D01*
X99608086Y-79098781D01*
X99592599Y-79100000D01*
X98019087Y-79100000D01*
X97976623Y-79121635D01*
X97916191Y-79112063D01*
X97882256Y-79083675D01*
X97826867Y-79010633D01*
X97787313Y-78980638D01*
X97713134Y-78924386D01*
X97713132Y-78924385D01*
X97662950Y-78904596D01*
X97615756Y-78865661D01*
X97600459Y-78806419D01*
X97622905Y-78749499D01*
X97662949Y-78720404D01*
X97713132Y-78700615D01*
X97826867Y-78614367D01*
X97851467Y-78581926D01*
X97901691Y-78546985D01*
X97962864Y-78548237D01*
X98011617Y-78585207D01*
X98029329Y-78643773D01*
X98028644Y-78653549D01*
X98025000Y-78683890D01*
X98025000Y-78799999D01*
X98025001Y-78800000D01*
X98649999Y-78800000D01*
X98650000Y-78799999D01*
X98650000Y-78200001D01*
X98950000Y-78200001D01*
X98950000Y-78799999D01*
X98950001Y-78800000D01*
X99574999Y-78800000D01*
X99575000Y-78799999D01*
X99575000Y-78683899D01*
X99574999Y-78683895D01*
X99564867Y-78599531D01*
X99511922Y-78465270D01*
X99424723Y-78350282D01*
X99424717Y-78350276D01*
X99309729Y-78263077D01*
X99175468Y-78210132D01*
X99091104Y-78200000D01*
X98950001Y-78200000D01*
X98950000Y-78200001D01*
X98650000Y-78200001D01*
X98650000Y-78158993D01*
X98652749Y-78158993D01*
X98659993Y-78113251D01*
X98678199Y-78088193D01*
X98773334Y-77993058D01*
X99195910Y-77570481D01*
X99195913Y-77570480D01*
X99820480Y-76945913D01*
X99843004Y-76906900D01*
X99860358Y-76876843D01*
X99860372Y-76876815D01*
X99860386Y-76876793D01*
X99873207Y-76854587D01*
X99900500Y-76752727D01*
X99900500Y-76489743D01*
X99919407Y-76431552D01*
X99929490Y-76419745D01*
X99980520Y-76368716D01*
X100059577Y-76231784D01*
X100089825Y-76118895D01*
X101989000Y-76118895D01*
X101989000Y-76259999D01*
X101989001Y-76260000D01*
X102588999Y-76260000D01*
X102589000Y-76259999D01*
X102589000Y-75635001D01*
X102588999Y-75635000D01*
X102472895Y-75635000D01*
X102388531Y-75645132D01*
X102254270Y-75698077D01*
X102139282Y-75785276D01*
X102139276Y-75785282D01*
X102052077Y-75900270D01*
X101999132Y-76034531D01*
X101989000Y-76118895D01*
X100089825Y-76118895D01*
X100100500Y-76079057D01*
X100100500Y-75920943D01*
X100059577Y-75768216D01*
X99980520Y-75631284D01*
X99868716Y-75519480D01*
X99731784Y-75440423D01*
X99579057Y-75399500D01*
X99420943Y-75399500D01*
X99268216Y-75440423D01*
X99131284Y-75519480D01*
X99019480Y-75631284D01*
X98940423Y-75768216D01*
X98899500Y-75920943D01*
X98899500Y-76079057D01*
X98940423Y-76231784D01*
X99019480Y-76368716D01*
X99070505Y-76419741D01*
X99074130Y-76426856D01*
X99080593Y-76431552D01*
X99087756Y-76453600D01*
X99098281Y-76474256D01*
X99099500Y-76489743D01*
X99099500Y-76493099D01*
X99080593Y-76551290D01*
X99070504Y-76563103D01*
X98629518Y-77004089D01*
X98067017Y-77566589D01*
X98012500Y-77594366D01*
X97952068Y-77584795D01*
X97919200Y-77553250D01*
X97917206Y-77554763D01*
X97899636Y-77531593D01*
X97826867Y-77435633D01*
X97719904Y-77354520D01*
X97713130Y-77349383D01*
X97663181Y-77329686D01*
X97615984Y-77290749D01*
X97600500Y-77237589D01*
X97600500Y-76760714D01*
X97600501Y-76760701D01*
X97600501Y-76647272D01*
X97600500Y-76647270D01*
X97573207Y-76545413D01*
X97549597Y-76504520D01*
X97549596Y-76504519D01*
X97520480Y-76454087D01*
X97445913Y-76379520D01*
X97445910Y-76379518D01*
X96445913Y-75379520D01*
X96445910Y-75379518D01*
X96445908Y-75379516D01*
X96354591Y-75326794D01*
X96354593Y-75326794D01*
X96315070Y-75316204D01*
X96252727Y-75299500D01*
X96252725Y-75299500D01*
X82058806Y-75299500D01*
X82058790Y-75299499D01*
X82052727Y-75299499D01*
X81947273Y-75299499D01*
X81845412Y-75326793D01*
X81845411Y-75326793D01*
X81845409Y-75326794D01*
X81806989Y-75348976D01*
X81806986Y-75348977D01*
X81799750Y-75353156D01*
X81754087Y-75379520D01*
X81679520Y-75454087D01*
X81679518Y-75454089D01*
X81676266Y-75457340D01*
X81676261Y-75457345D01*
X78597109Y-78536496D01*
X78542592Y-78564273D01*
X78482160Y-78554702D01*
X78443280Y-78519164D01*
X78429820Y-78497743D01*
X78429817Y-78497740D01*
X78429816Y-78497738D01*
X78302262Y-78370184D01*
X78302259Y-78370182D01*
X78302258Y-78370181D01*
X78149523Y-78274211D01*
X77979261Y-78214633D01*
X77979249Y-78214630D01*
X77844970Y-78199500D01*
X77844954Y-78199500D01*
X76755046Y-78199500D01*
X76755029Y-78199500D01*
X76620750Y-78214630D01*
X76620738Y-78214633D01*
X76450477Y-78274211D01*
X76450476Y-78274211D01*
X76297741Y-78370181D01*
X76170181Y-78497741D01*
X76074211Y-78650476D01*
X76074211Y-78650477D01*
X76014633Y-78820738D01*
X76014630Y-78820750D01*
X75999500Y-78955029D01*
X75999500Y-79750500D01*
X75980593Y-79808691D01*
X75931093Y-79844655D01*
X75900500Y-79849500D01*
X72350694Y-79849500D01*
X72292503Y-79830593D01*
X72256539Y-79781093D01*
X72256177Y-79779953D01*
X72245514Y-79745736D01*
X72245509Y-79745724D01*
X72160650Y-79605350D01*
X72160649Y-79605349D01*
X72160648Y-79605347D01*
X72044653Y-79489352D01*
X72044650Y-79489350D01*
X72044649Y-79489349D01*
X71904275Y-79404490D01*
X71904263Y-79404485D01*
X71747662Y-79355686D01*
X71747656Y-79355684D01*
X71679599Y-79349500D01*
X71679594Y-79349500D01*
X70320406Y-79349500D01*
X70320400Y-79349500D01*
X70252343Y-79355684D01*
X70252337Y-79355686D01*
X70095736Y-79404485D01*
X70095724Y-79404490D01*
X69955350Y-79489349D01*
X69839351Y-79605348D01*
X69789632Y-79687594D01*
X69769074Y-79705367D01*
X69749855Y-79724587D01*
X69746169Y-79725170D01*
X69743347Y-79727611D01*
X69716267Y-79729906D01*
X69689423Y-79734158D01*
X69686098Y-79732463D01*
X69682381Y-79732779D01*
X69634906Y-79706381D01*
X69554496Y-79625971D01*
X69526719Y-79571454D01*
X69525500Y-79555967D01*
X69525500Y-79333857D01*
X69525499Y-79333851D01*
X69524436Y-79324999D01*
X69515359Y-79249410D01*
X69476157Y-79150001D01*
X69462365Y-79115027D01*
X69462364Y-79115026D01*
X69462364Y-79115025D01*
X69375078Y-78999922D01*
X69259975Y-78912636D01*
X69259970Y-78912634D01*
X69257075Y-78911006D01*
X69255337Y-78909120D01*
X69254579Y-78908545D01*
X69254682Y-78908408D01*
X69215617Y-78866007D01*
X69208528Y-78805233D01*
X69238514Y-78751900D01*
X69257079Y-78738412D01*
X69259729Y-78736922D01*
X69374717Y-78649723D01*
X69374723Y-78649717D01*
X69461922Y-78534729D01*
X69508903Y-78415594D01*
X69547840Y-78368397D01*
X69607082Y-78353100D01*
X69664002Y-78375546D01*
X69696857Y-78427162D01*
X69700001Y-78451913D01*
X69700001Y-78529566D01*
X69706179Y-78597564D01*
X69706181Y-78597573D01*
X69754942Y-78754054D01*
X69754948Y-78754068D01*
X69839745Y-78894339D01*
X69955660Y-79010254D01*
X70095931Y-79095051D01*
X70095945Y-79095057D01*
X70252431Y-79143819D01*
X70320441Y-79149999D01*
X70849998Y-79149999D01*
X70850000Y-79149998D01*
X70850000Y-78250001D01*
X71150000Y-78250001D01*
X71150000Y-79149998D01*
X71150001Y-79149999D01*
X71679550Y-79149999D01*
X71679566Y-79149998D01*
X71747564Y-79143820D01*
X71747573Y-79143818D01*
X71904054Y-79095057D01*
X71904068Y-79095051D01*
X72044339Y-79010254D01*
X72160254Y-78894339D01*
X72245051Y-78754068D01*
X72245057Y-78754054D01*
X72293819Y-78597568D01*
X72299999Y-78529564D01*
X72300000Y-78529552D01*
X72300000Y-78250001D01*
X72299999Y-78250000D01*
X71150001Y-78250000D01*
X71150000Y-78250001D01*
X70850000Y-78250001D01*
X70849999Y-78250000D01*
X69700002Y-78250000D01*
X69694004Y-78255998D01*
X69639487Y-78283775D01*
X69579055Y-78274204D01*
X69535790Y-78230939D01*
X69529424Y-78204425D01*
X69524999Y-78200000D01*
X67975001Y-78200000D01*
X67975000Y-78200001D01*
X67975000Y-78316104D01*
X67985132Y-78400468D01*
X68038077Y-78534729D01*
X68125276Y-78649717D01*
X68125282Y-78649723D01*
X68240271Y-78736922D01*
X68242924Y-78738414D01*
X68244514Y-78740139D01*
X68245668Y-78741015D01*
X68245511Y-78741222D01*
X68284381Y-78783413D01*
X68291471Y-78844187D01*
X68261485Y-78897520D01*
X68242928Y-78911004D01*
X68240028Y-78912634D01*
X68240025Y-78912635D01*
X68240025Y-78912636D01*
X68175569Y-78961515D01*
X68124922Y-78999922D01*
X68037634Y-79115027D01*
X67984641Y-79249408D01*
X67974500Y-79333851D01*
X67974500Y-79866148D01*
X67984641Y-79950591D01*
X68037634Y-80084972D01*
X68037635Y-80084974D01*
X68037636Y-80084975D01*
X68124922Y-80200078D01*
X68240025Y-80287364D01*
X68240026Y-80287364D01*
X68240027Y-80287365D01*
X68271157Y-80299641D01*
X68374410Y-80340359D01*
X68458856Y-80350500D01*
X68680967Y-80350500D01*
X68688564Y-80352968D01*
X68696454Y-80351719D01*
X68717109Y-80362243D01*
X68739158Y-80369407D01*
X68750971Y-80379496D01*
X68890734Y-80519259D01*
X68918511Y-80573776D01*
X68908940Y-80634208D01*
X68900000Y-80646513D01*
X68900000Y-81249999D01*
X68900001Y-81250000D01*
X69524999Y-81250000D01*
X69525000Y-81249999D01*
X69525000Y-81133899D01*
X69524999Y-81133895D01*
X69516282Y-81061305D01*
X69520421Y-81040309D01*
X69520421Y-81018907D01*
X69526211Y-81010937D01*
X69528116Y-81001275D01*
X69543803Y-80986723D01*
X69556385Y-80969407D01*
X69565754Y-80966362D01*
X69572975Y-80959665D01*
X69614576Y-80950500D01*
X69622474Y-80950500D01*
X69649306Y-80950500D01*
X69707497Y-80969407D01*
X69743461Y-81018907D01*
X69743823Y-81020047D01*
X69754485Y-81054263D01*
X69754490Y-81054275D01*
X69839349Y-81194649D01*
X69839350Y-81194650D01*
X69839352Y-81194653D01*
X69955347Y-81310648D01*
X69955349Y-81310649D01*
X69955350Y-81310650D01*
X70095724Y-81395509D01*
X70095727Y-81395510D01*
X70095730Y-81395512D01*
X70095734Y-81395513D01*
X70095736Y-81395514D01*
X70124637Y-81404520D01*
X70252343Y-81444315D01*
X70320406Y-81450500D01*
X70320412Y-81450500D01*
X71679588Y-81450500D01*
X71679594Y-81450500D01*
X71747657Y-81444315D01*
X71904270Y-81395512D01*
X72044653Y-81310648D01*
X72160648Y-81194653D01*
X72241825Y-81060369D01*
X72245509Y-81054275D01*
X72245509Y-81054274D01*
X72245512Y-81054270D01*
X72247719Y-81047184D01*
X72256177Y-81020047D01*
X72291540Y-80970116D01*
X72349498Y-80950507D01*
X72350694Y-80950500D01*
X75900500Y-80950500D01*
X75958691Y-80969407D01*
X75994655Y-81018907D01*
X75999500Y-81049500D01*
X75999500Y-81844970D01*
X76014630Y-81979249D01*
X76014633Y-81979261D01*
X76074211Y-82149522D01*
X76074211Y-82149523D01*
X76150171Y-82270412D01*
X76170184Y-82302262D01*
X76297738Y-82429816D01*
X76297740Y-82429817D01*
X76297741Y-82429818D01*
X76440319Y-82519406D01*
X76450478Y-82525789D01*
X76485838Y-82538162D01*
X76620738Y-82585366D01*
X76620742Y-82585367D01*
X76620745Y-82585368D01*
X76665855Y-82590450D01*
X76721562Y-82615754D01*
X76751758Y-82668969D01*
X76744907Y-82729770D01*
X76724774Y-82758832D01*
X75113103Y-84370504D01*
X75058586Y-84398281D01*
X75043099Y-84399500D01*
X75027525Y-84399500D01*
X74982808Y-84411482D01*
X74887510Y-84437017D01*
X74761989Y-84509487D01*
X74659487Y-84611989D01*
X74639407Y-84646770D01*
X74593938Y-84687711D01*
X74533087Y-84694107D01*
X74483667Y-84667274D01*
X72431491Y-82615098D01*
X72405868Y-82570715D01*
X72401538Y-82554554D01*
X72396503Y-82535763D01*
X72340485Y-82438737D01*
X72337645Y-82435897D01*
X72329494Y-82427745D01*
X72301718Y-82373228D01*
X72300500Y-82357744D01*
X72300500Y-82270412D01*
X72300499Y-82270400D01*
X72300180Y-82266893D01*
X72294315Y-82202343D01*
X72259688Y-82091222D01*
X72245514Y-82045736D01*
X72245509Y-82045724D01*
X72160650Y-81905350D01*
X72160649Y-81905349D01*
X72160648Y-81905347D01*
X72044653Y-81789352D01*
X72044650Y-81789350D01*
X72044649Y-81789349D01*
X71904275Y-81704490D01*
X71904263Y-81704485D01*
X71747662Y-81655686D01*
X71747656Y-81655684D01*
X71679599Y-81649500D01*
X71679594Y-81649500D01*
X70320406Y-81649500D01*
X70320400Y-81649500D01*
X70252343Y-81655684D01*
X70252337Y-81655686D01*
X70095736Y-81704485D01*
X70095724Y-81704490D01*
X69955350Y-81789349D01*
X69839349Y-81905350D01*
X69754487Y-82045730D01*
X69727004Y-82133925D01*
X69691641Y-82183855D01*
X69681992Y-82190204D01*
X69561985Y-82259490D01*
X69561982Y-82259492D01*
X69490984Y-82330489D01*
X69483383Y-82334361D01*
X69478294Y-82341208D01*
X69456661Y-82347976D01*
X69436467Y-82358266D01*
X69428041Y-82356931D01*
X69419900Y-82359479D01*
X69399042Y-82352338D01*
X69376035Y-82348694D01*
X69361919Y-82339937D01*
X69361508Y-82339631D01*
X69259975Y-82262636D01*
X69255620Y-82260918D01*
X69246531Y-82254162D01*
X69232289Y-82234103D01*
X69215617Y-82216007D01*
X69214865Y-82209562D01*
X69211110Y-82204273D01*
X69211378Y-82179671D01*
X69208528Y-82155233D01*
X69211707Y-82149578D01*
X69211778Y-82143091D01*
X69226457Y-82123343D01*
X69238514Y-82101900D01*
X69246958Y-82095764D01*
X69248280Y-82093987D01*
X69250256Y-82093368D01*
X69257079Y-82088412D01*
X69259729Y-82086922D01*
X69374717Y-81999723D01*
X69374723Y-81999717D01*
X69461922Y-81884729D01*
X69514867Y-81750468D01*
X69524999Y-81666104D01*
X69525000Y-81666100D01*
X69525000Y-81550001D01*
X69524999Y-81550000D01*
X67975001Y-81550000D01*
X67975000Y-81550001D01*
X67975000Y-81666104D01*
X67985132Y-81750468D01*
X68038077Y-81884729D01*
X68125276Y-81999717D01*
X68125282Y-81999723D01*
X68240271Y-82086922D01*
X68242924Y-82088414D01*
X68244514Y-82090139D01*
X68245668Y-82091015D01*
X68245511Y-82091222D01*
X68284381Y-82133413D01*
X68291471Y-82194187D01*
X68261485Y-82247520D01*
X68242928Y-82261004D01*
X68240028Y-82262634D01*
X68240025Y-82262635D01*
X68240025Y-82262636D01*
X68229787Y-82270400D01*
X68124922Y-82349922D01*
X68037634Y-82465027D01*
X67984641Y-82599408D01*
X67974500Y-82683851D01*
X67974500Y-83216148D01*
X67984641Y-83300591D01*
X68037634Y-83434972D01*
X68037635Y-83434974D01*
X68037636Y-83434975D01*
X68124922Y-83550078D01*
X68240025Y-83637364D01*
X68240026Y-83637364D01*
X68240027Y-83637365D01*
X68307217Y-83663861D01*
X68374410Y-83690359D01*
X68458856Y-83700500D01*
X68458858Y-83700500D01*
X69041142Y-83700500D01*
X69041144Y-83700500D01*
X69125590Y-83690359D01*
X69259975Y-83637364D01*
X69375078Y-83550078D01*
X69382962Y-83539680D01*
X69433188Y-83504739D01*
X69461846Y-83500500D01*
X69722476Y-83500500D01*
X69722476Y-83500499D01*
X69764053Y-83489359D01*
X69825154Y-83492560D01*
X69859678Y-83514979D01*
X69955347Y-83610648D01*
X69955349Y-83610649D01*
X69955350Y-83610650D01*
X70095724Y-83695509D01*
X70095727Y-83695510D01*
X70095730Y-83695512D01*
X70095734Y-83695513D01*
X70095736Y-83695514D01*
X70154610Y-83713860D01*
X70252343Y-83744315D01*
X70320406Y-83750500D01*
X70320412Y-83750500D01*
X71679588Y-83750500D01*
X71679594Y-83750500D01*
X71747657Y-83744315D01*
X71904270Y-83695512D01*
X72044653Y-83610648D01*
X72099451Y-83555849D01*
X72153965Y-83528073D01*
X72214397Y-83537644D01*
X72239457Y-83555850D01*
X74464103Y-85780496D01*
X74491880Y-85835013D01*
X74482309Y-85895445D01*
X74439044Y-85938710D01*
X74394099Y-85949500D01*
X73295725Y-85949500D01*
X73265305Y-85952353D01*
X73265296Y-85952355D01*
X73137116Y-85997207D01*
X73027850Y-86077849D01*
X73004648Y-86109288D01*
X72954880Y-86144881D01*
X72924992Y-86149500D01*
X72921476Y-86149500D01*
X72816022Y-86149500D01*
X72753678Y-86166204D01*
X72714156Y-86176794D01*
X72622840Y-86229516D01*
X72006852Y-86845504D01*
X71952335Y-86873281D01*
X71936848Y-86874500D01*
X67254075Y-86874500D01*
X67191958Y-86891144D01*
X67152210Y-86901794D01*
X67075798Y-86945912D01*
X67060889Y-86954519D01*
X66769904Y-87245504D01*
X66762787Y-87249129D01*
X66758092Y-87255593D01*
X66736042Y-87262757D01*
X66715388Y-87273281D01*
X66699901Y-87274500D01*
X66549499Y-87274500D01*
X66491308Y-87255593D01*
X66455344Y-87206093D01*
X66450499Y-87175500D01*
X66450499Y-86255139D01*
X66450499Y-86255136D01*
X66447585Y-86230009D01*
X66402206Y-86127235D01*
X66322765Y-86047794D01*
X66219991Y-86002415D01*
X66219990Y-86002414D01*
X66219988Y-86002414D01*
X66194868Y-85999500D01*
X64105139Y-85999500D01*
X64105136Y-85999501D01*
X64080009Y-86002414D01*
X63977235Y-86047794D01*
X63897794Y-86127235D01*
X63852414Y-86230011D01*
X63849500Y-86255130D01*
X63849500Y-87544860D01*
X63849501Y-87544863D01*
X63852414Y-87569990D01*
X63863598Y-87595318D01*
X63897794Y-87672765D01*
X63977235Y-87752206D01*
X64080009Y-87797585D01*
X64105135Y-87800500D01*
X65843098Y-87800499D01*
X65850695Y-87802967D01*
X65858585Y-87801718D01*
X65879240Y-87812242D01*
X65901289Y-87819406D01*
X65913102Y-87829495D01*
X65913603Y-87829996D01*
X65941380Y-87884513D01*
X65931809Y-87944945D01*
X65913533Y-87970073D01*
X65913032Y-87970573D01*
X65899099Y-87977654D01*
X65888544Y-87988210D01*
X65873710Y-87990559D01*
X65858487Y-87998297D01*
X65843098Y-87999500D01*
X64105139Y-87999500D01*
X64105136Y-87999501D01*
X64080009Y-88002414D01*
X63977235Y-88047794D01*
X63897794Y-88127235D01*
X63852414Y-88230011D01*
X63849500Y-88255130D01*
X63849500Y-89544860D01*
X63849500Y-89544862D01*
X63849501Y-89544864D01*
X63849590Y-89545633D01*
X63852414Y-89569990D01*
X63862087Y-89591897D01*
X63897794Y-89672765D01*
X63977235Y-89752206D01*
X64080009Y-89797585D01*
X64105135Y-89800500D01*
X66194864Y-89800499D01*
X66219991Y-89797585D01*
X66322765Y-89752206D01*
X66402206Y-89672765D01*
X66447585Y-89569991D01*
X66450500Y-89544865D01*
X66450499Y-88624499D01*
X66469406Y-88566309D01*
X66518906Y-88530345D01*
X66549499Y-88525500D01*
X67145923Y-88525500D01*
X67145925Y-88525500D01*
X67247786Y-88498207D01*
X67247788Y-88498205D01*
X67247790Y-88498205D01*
X67339106Y-88445483D01*
X67339106Y-88445482D01*
X67339111Y-88445480D01*
X67554582Y-88230009D01*
X67630096Y-88154496D01*
X67684612Y-88126719D01*
X67700099Y-88125500D01*
X71936848Y-88125500D01*
X71995039Y-88144407D01*
X72006852Y-88154496D01*
X72622836Y-88770480D01*
X72622838Y-88770481D01*
X72622839Y-88770482D01*
X72622840Y-88770483D01*
X72714157Y-88823205D01*
X72714155Y-88823205D01*
X72714159Y-88823206D01*
X72714161Y-88823207D01*
X72816022Y-88850500D01*
X72921476Y-88850500D01*
X72924992Y-88850500D01*
X72983183Y-88869407D01*
X73004647Y-88890711D01*
X73007855Y-88895058D01*
X73027850Y-88922150D01*
X73137116Y-89002792D01*
X73137117Y-89002792D01*
X73137118Y-89002793D01*
X73265301Y-89047646D01*
X73295725Y-89050499D01*
X73295727Y-89050500D01*
X74396720Y-89050500D01*
X74454911Y-89069407D01*
X74490875Y-89118907D01*
X74490875Y-89180093D01*
X74482456Y-89199000D01*
X74426795Y-89295406D01*
X74426793Y-89295410D01*
X74426793Y-89295412D01*
X74403079Y-89383916D01*
X74403078Y-89383915D01*
X74399500Y-89397270D01*
X74399500Y-89486944D01*
X74380593Y-89545135D01*
X74336819Y-89579041D01*
X74315028Y-89587634D01*
X74315025Y-89587635D01*
X74315025Y-89587636D01*
X74199922Y-89674922D01*
X74154140Y-89735295D01*
X74112634Y-89790028D01*
X74111004Y-89792928D01*
X74109118Y-89794665D01*
X74108545Y-89795421D01*
X74108409Y-89795318D01*
X74066002Y-89834384D01*
X74005229Y-89841470D01*
X73951896Y-89811482D01*
X73938414Y-89792924D01*
X73936922Y-89790271D01*
X73849723Y-89675282D01*
X73849717Y-89675276D01*
X73734729Y-89588077D01*
X73600468Y-89535132D01*
X73516104Y-89525000D01*
X73400001Y-89525000D01*
X73400000Y-89525001D01*
X73400000Y-90201000D01*
X73381093Y-90259191D01*
X73331593Y-90295155D01*
X73301000Y-90300000D01*
X73250001Y-90300000D01*
X73250000Y-90300001D01*
X73250000Y-90351000D01*
X73231093Y-90409191D01*
X73181593Y-90445155D01*
X73151000Y-90450000D01*
X72500001Y-90450000D01*
X72500000Y-90450001D01*
X72500000Y-90591104D01*
X72510132Y-90675468D01*
X72563077Y-90809729D01*
X72650276Y-90924717D01*
X72650282Y-90924723D01*
X72765270Y-91011922D01*
X72899531Y-91064867D01*
X72983895Y-91074999D01*
X72983900Y-91075000D01*
X73098673Y-91075000D01*
X73156864Y-91093907D01*
X73192828Y-91143407D01*
X73197673Y-91174000D01*
X73197673Y-91178957D01*
X73197673Y-91337071D01*
X73238596Y-91489798D01*
X73317653Y-91626730D01*
X73337479Y-91646556D01*
X73365255Y-91701071D01*
X73355684Y-91761503D01*
X73352197Y-91767774D01*
X73304945Y-91845938D01*
X73304942Y-91845945D01*
X73256180Y-92002431D01*
X73250000Y-92070435D01*
X73250000Y-92599999D01*
X73250001Y-92600000D01*
X75349998Y-92600000D01*
X75349999Y-92599999D01*
X75349999Y-92070449D01*
X75349998Y-92070433D01*
X75343820Y-92002435D01*
X75343818Y-92002426D01*
X75295057Y-91845945D01*
X75295051Y-91845931D01*
X75210254Y-91705660D01*
X75094339Y-91589745D01*
X75014470Y-91541463D01*
X74974453Y-91495179D01*
X74969283Y-91434212D01*
X74995681Y-91386739D01*
X75120480Y-91261941D01*
X75173207Y-91170616D01*
X75194505Y-91091125D01*
X75227829Y-91039812D01*
X75253811Y-91024653D01*
X75284975Y-91012364D01*
X75400078Y-90925078D01*
X75421617Y-90896673D01*
X75471842Y-90861733D01*
X75533014Y-90862986D01*
X75581767Y-90899955D01*
X75599500Y-90956494D01*
X75599500Y-93593099D01*
X75580593Y-93651290D01*
X75570503Y-93663103D01*
X75436719Y-93796886D01*
X75382203Y-93824663D01*
X75321771Y-93815091D01*
X75278506Y-93771827D01*
X75268935Y-93711395D01*
X75281995Y-93675663D01*
X75295054Y-93654061D01*
X75295057Y-93654054D01*
X75343819Y-93497568D01*
X75349999Y-93429564D01*
X75350000Y-93429552D01*
X75350000Y-92900001D01*
X75349999Y-92900000D01*
X73250002Y-92900000D01*
X73250001Y-92900001D01*
X73250001Y-93194600D01*
X73242837Y-93216647D01*
X73239211Y-93239545D01*
X73233562Y-93245193D01*
X73231094Y-93252791D01*
X73212337Y-93266418D01*
X73195946Y-93282810D01*
X73188056Y-93284059D01*
X73181594Y-93288755D01*
X73158409Y-93288755D01*
X73135514Y-93292381D01*
X73128397Y-93288755D01*
X73120408Y-93288755D01*
X73080997Y-93264604D01*
X73079496Y-93263103D01*
X73051719Y-93208586D01*
X73050500Y-93193099D01*
X73050500Y-92070412D01*
X73050499Y-92070400D01*
X73048179Y-92044871D01*
X73044315Y-92002343D01*
X73002707Y-91868818D01*
X72995514Y-91845736D01*
X72995509Y-91845724D01*
X72910650Y-91705350D01*
X72910649Y-91705349D01*
X72910648Y-91705347D01*
X72794653Y-91589352D01*
X72794650Y-91589350D01*
X72794649Y-91589349D01*
X72654275Y-91504490D01*
X72654263Y-91504485D01*
X72497662Y-91455686D01*
X72497657Y-91455685D01*
X72490538Y-91455038D01*
X72434298Y-91430940D01*
X72402963Y-91378388D01*
X72400500Y-91356444D01*
X72400500Y-91347273D01*
X72387967Y-91300500D01*
X72381000Y-91274499D01*
X72373207Y-91245412D01*
X72372337Y-91243906D01*
X72346240Y-91198705D01*
X72346240Y-91198704D01*
X72320481Y-91154089D01*
X72320480Y-91154087D01*
X72245913Y-91079520D01*
X72245910Y-91079518D01*
X72157405Y-90991013D01*
X72129628Y-90936496D01*
X72139199Y-90876064D01*
X72148518Y-90861200D01*
X72187364Y-90809975D01*
X72240359Y-90675590D01*
X72250500Y-90591144D01*
X72250500Y-90008895D01*
X72500000Y-90008895D01*
X72500000Y-90149999D01*
X72500001Y-90150000D01*
X73099999Y-90150000D01*
X73100000Y-90149999D01*
X73100000Y-89525001D01*
X73099999Y-89525000D01*
X72983895Y-89525000D01*
X72899531Y-89535132D01*
X72765270Y-89588077D01*
X72650282Y-89675276D01*
X72650276Y-89675282D01*
X72563077Y-89790270D01*
X72510132Y-89924531D01*
X72500000Y-90008895D01*
X72250500Y-90008895D01*
X72250500Y-90008856D01*
X72240359Y-89924410D01*
X72191495Y-89800500D01*
X72187365Y-89790027D01*
X72187364Y-89790026D01*
X72187364Y-89790025D01*
X72100078Y-89674922D01*
X71984975Y-89587636D01*
X71984972Y-89587634D01*
X71984971Y-89587634D01*
X71963181Y-89579041D01*
X71941822Y-89561420D01*
X71919407Y-89545135D01*
X71918427Y-89542120D01*
X71915984Y-89540105D01*
X71900500Y-89486944D01*
X71900500Y-89360714D01*
X71900501Y-89360701D01*
X71900501Y-89247272D01*
X71900500Y-89247270D01*
X71885474Y-89191193D01*
X71873207Y-89145413D01*
X71853923Y-89112012D01*
X71853923Y-89112011D01*
X71832554Y-89075000D01*
X71820480Y-89054087D01*
X71745913Y-88979520D01*
X71745911Y-88979519D01*
X71740269Y-88973876D01*
X71740265Y-88973873D01*
X71545913Y-88779519D01*
X71454591Y-88726794D01*
X71454593Y-88726794D01*
X71415070Y-88716204D01*
X71352727Y-88699500D01*
X71352725Y-88699500D01*
X71319031Y-88699500D01*
X71260840Y-88680593D01*
X71249033Y-88670509D01*
X71238015Y-88659491D01*
X71238012Y-88659489D01*
X71238010Y-88659487D01*
X71112488Y-88587017D01*
X71112489Y-88587017D01*
X71041532Y-88568004D01*
X70972475Y-88549500D01*
X70827525Y-88549500D01*
X70766350Y-88565892D01*
X70687510Y-88587017D01*
X70561989Y-88659487D01*
X70459487Y-88761989D01*
X70387017Y-88887510D01*
X70364939Y-88969907D01*
X70349500Y-89027525D01*
X70349500Y-89172475D01*
X70369542Y-89247272D01*
X70387017Y-89312489D01*
X70437136Y-89399296D01*
X70449858Y-89459144D01*
X70424972Y-89515040D01*
X70371984Y-89545633D01*
X70315083Y-89540894D01*
X70300472Y-89535132D01*
X70216104Y-89525000D01*
X70100001Y-89525000D01*
X70100000Y-89525001D01*
X70100000Y-90201000D01*
X70081093Y-90259191D01*
X70031593Y-90295155D01*
X70001000Y-90300000D01*
X69950001Y-90300000D01*
X69950000Y-90300001D01*
X69950000Y-90351000D01*
X69931093Y-90409191D01*
X69881593Y-90445155D01*
X69851000Y-90450000D01*
X69200001Y-90450000D01*
X69200000Y-90450001D01*
X69200000Y-90591104D01*
X69210132Y-90675468D01*
X69263077Y-90809729D01*
X69350276Y-90924717D01*
X69350282Y-90924723D01*
X69443651Y-90995527D01*
X69456335Y-91013759D01*
X69472040Y-91029463D01*
X69473449Y-91038359D01*
X69478594Y-91045754D01*
X69478138Y-91067959D01*
X69481614Y-91089895D01*
X69477524Y-91097921D01*
X69477340Y-91106926D01*
X69453838Y-91144412D01*
X69438739Y-91159512D01*
X69359514Y-91238737D01*
X69303498Y-91335759D01*
X69303496Y-91335763D01*
X69290963Y-91382537D01*
X69257639Y-91433851D01*
X69207398Y-91454249D01*
X69207481Y-91454663D01*
X69205321Y-91455092D01*
X69204303Y-91455506D01*
X69202350Y-91455683D01*
X69202337Y-91455686D01*
X69045736Y-91504485D01*
X69045724Y-91504490D01*
X68905350Y-91589349D01*
X68789349Y-91705350D01*
X68704490Y-91845724D01*
X68704485Y-91845736D01*
X68655686Y-92002337D01*
X68655684Y-92002343D01*
X68650495Y-92059459D01*
X68626399Y-92115700D01*
X68573848Y-92147037D01*
X68551901Y-92149500D01*
X68111846Y-92149500D01*
X68053655Y-92130593D01*
X68032962Y-92110319D01*
X68025078Y-92099922D01*
X67909975Y-92012636D01*
X67909974Y-92012635D01*
X67909972Y-92012634D01*
X67775591Y-91959641D01*
X67691148Y-91949500D01*
X67691144Y-91949500D01*
X67469032Y-91949500D01*
X67410841Y-91930593D01*
X67399028Y-91920504D01*
X66479495Y-91000970D01*
X66451718Y-90946453D01*
X66450499Y-90930966D01*
X66450499Y-90755139D01*
X66450499Y-90755136D01*
X66447585Y-90730009D01*
X66402206Y-90627235D01*
X66322765Y-90547794D01*
X66219991Y-90502415D01*
X66219990Y-90502414D01*
X66219988Y-90502414D01*
X66194868Y-90499500D01*
X64105139Y-90499500D01*
X64105136Y-90499501D01*
X64080009Y-90502414D01*
X63977235Y-90547794D01*
X63897794Y-90627235D01*
X63852414Y-90730011D01*
X63849500Y-90755130D01*
X63849500Y-90755132D01*
X63849500Y-90755135D01*
X63849501Y-92044864D01*
X63849502Y-92044871D01*
X63852414Y-92069990D01*
X63870221Y-92110319D01*
X63897794Y-92172765D01*
X63977235Y-92252206D01*
X64080009Y-92297585D01*
X64105135Y-92300500D01*
X66180967Y-92300499D01*
X66239158Y-92319406D01*
X66250971Y-92329495D01*
X66595504Y-92674028D01*
X66623281Y-92728545D01*
X66624500Y-92744032D01*
X66624500Y-92966148D01*
X66634641Y-93050591D01*
X66687634Y-93184972D01*
X66687635Y-93184974D01*
X66687636Y-93184975D01*
X66774922Y-93300078D01*
X66890025Y-93387364D01*
X66890033Y-93387367D01*
X66892921Y-93388991D01*
X66894658Y-93390876D01*
X66895421Y-93391455D01*
X66895317Y-93391591D01*
X66934380Y-93433989D01*
X66941472Y-93494762D01*
X66911488Y-93548097D01*
X66892932Y-93561581D01*
X66890272Y-93563076D01*
X66775282Y-93650276D01*
X66775276Y-93650282D01*
X66688077Y-93765270D01*
X66635132Y-93899531D01*
X66625000Y-93983895D01*
X66625000Y-94099999D01*
X66625001Y-94100000D01*
X68174999Y-94100000D01*
X68175000Y-94099999D01*
X68175000Y-93983899D01*
X68174999Y-93983895D01*
X68164867Y-93899531D01*
X68111922Y-93765270D01*
X68024723Y-93650282D01*
X68024717Y-93650276D01*
X67909725Y-93563074D01*
X67907072Y-93561583D01*
X67905482Y-93559857D01*
X67904332Y-93558985D01*
X67904488Y-93558778D01*
X67865616Y-93516582D01*
X67858529Y-93455809D01*
X67888516Y-93402476D01*
X67907082Y-93388989D01*
X67909966Y-93387367D01*
X67909975Y-93387364D01*
X68025078Y-93300078D01*
X68032962Y-93289680D01*
X68083188Y-93254739D01*
X68111846Y-93250500D01*
X68550500Y-93250500D01*
X68608691Y-93269407D01*
X68644655Y-93318907D01*
X68649500Y-93349500D01*
X68649500Y-93429599D01*
X68655684Y-93497656D01*
X68655686Y-93497662D01*
X68704485Y-93654263D01*
X68704490Y-93654275D01*
X68789349Y-93794649D01*
X68789350Y-93794650D01*
X68789352Y-93794653D01*
X68905347Y-93910648D01*
X68905349Y-93910649D01*
X68905350Y-93910650D01*
X69045724Y-93995509D01*
X69045727Y-93995510D01*
X69045730Y-93995512D01*
X69045734Y-93995513D01*
X69045736Y-93995514D01*
X69097826Y-94011746D01*
X69202343Y-94044315D01*
X69270406Y-94050500D01*
X69270412Y-94050500D01*
X70129588Y-94050500D01*
X70129594Y-94050500D01*
X70197657Y-94044315D01*
X70354270Y-93995512D01*
X70494653Y-93910648D01*
X70610648Y-93794653D01*
X70695512Y-93654270D01*
X70744315Y-93497657D01*
X70750500Y-93429594D01*
X70750500Y-92070406D01*
X70745350Y-92013734D01*
X70744871Y-92008459D01*
X70749310Y-91988933D01*
X70749310Y-91968907D01*
X70755936Y-91959786D01*
X70758435Y-91948796D01*
X70773502Y-91935608D01*
X70785274Y-91919407D01*
X70795994Y-91915923D01*
X70804477Y-91908500D01*
X70843465Y-91900500D01*
X70856535Y-91900500D01*
X70914726Y-91919407D01*
X70950690Y-91968907D01*
X70955129Y-92008459D01*
X70949500Y-92070399D01*
X70949500Y-93429599D01*
X70955684Y-93497656D01*
X70955686Y-93497662D01*
X71004485Y-93654263D01*
X71004490Y-93654275D01*
X71089349Y-93794649D01*
X71089350Y-93794650D01*
X71089352Y-93794653D01*
X71205347Y-93910648D01*
X71205349Y-93910649D01*
X71205350Y-93910650D01*
X71345724Y-93995509D01*
X71345726Y-93995510D01*
X71345730Y-93995512D01*
X71379952Y-94006176D01*
X71429883Y-94041537D01*
X71449493Y-94099495D01*
X71449500Y-94100693D01*
X71449500Y-97650500D01*
X71430593Y-97708691D01*
X71381093Y-97744655D01*
X71350500Y-97749500D01*
X70555029Y-97749500D01*
X70420750Y-97764630D01*
X70420738Y-97764633D01*
X70250477Y-97824211D01*
X70250476Y-97824211D01*
X70097741Y-97920181D01*
X69970181Y-98047741D01*
X69874211Y-98200476D01*
X69874211Y-98200477D01*
X69814633Y-98370738D01*
X69814630Y-98370750D01*
X69799500Y-98505029D01*
X69799500Y-99594970D01*
X69814630Y-99729249D01*
X69814633Y-99729261D01*
X69874211Y-99899522D01*
X69874211Y-99899523D01*
X69958174Y-100033149D01*
X69970184Y-100052262D01*
X70097738Y-100179816D01*
X70097740Y-100179817D01*
X70097741Y-100179818D01*
X70249793Y-100275359D01*
X70250478Y-100275789D01*
X70307975Y-100295908D01*
X70420738Y-100335366D01*
X70420742Y-100335367D01*
X70420745Y-100335368D01*
X70420746Y-100335368D01*
X70420750Y-100335369D01*
X70555029Y-100350499D01*
X70555045Y-100350499D01*
X70555046Y-100350500D01*
X70555047Y-100350500D01*
X73444953Y-100350500D01*
X73444954Y-100350500D01*
X73444955Y-100350499D01*
X73444970Y-100350499D01*
X73579249Y-100335369D01*
X73579251Y-100335368D01*
X73579255Y-100335368D01*
X73749522Y-100275789D01*
X73902262Y-100179816D01*
X74029816Y-100052262D01*
X74125789Y-99899522D01*
X74185368Y-99729255D01*
X74185810Y-99725333D01*
X74200499Y-99594970D01*
X74200500Y-99594953D01*
X74200500Y-99549500D01*
X74219407Y-99491309D01*
X74268907Y-99455345D01*
X74299500Y-99450500D01*
X77452725Y-99450500D01*
X77452727Y-99450500D01*
X77554588Y-99423207D01*
X77554590Y-99423205D01*
X77554592Y-99423205D01*
X77645908Y-99370483D01*
X77645908Y-99370482D01*
X77645913Y-99370480D01*
X80736897Y-96279496D01*
X80791414Y-96251719D01*
X80806901Y-96250500D01*
X80822474Y-96250500D01*
X80822475Y-96250500D01*
X80962485Y-96212984D01*
X80962487Y-96212982D01*
X80962489Y-96212982D01*
X81088010Y-96140512D01*
X81088010Y-96140511D01*
X81088015Y-96140509D01*
X81190509Y-96038015D01*
X81239763Y-95952703D01*
X81285233Y-95911763D01*
X81346083Y-95905367D01*
X81399071Y-95935960D01*
X81423958Y-95991856D01*
X81424500Y-96002204D01*
X81424500Y-96493982D01*
X81424500Y-96606018D01*
X81446657Y-96688710D01*
X81453498Y-96714241D01*
X81508492Y-96809491D01*
X81509515Y-96811263D01*
X83145505Y-98447253D01*
X83173281Y-98501768D01*
X83174500Y-98517255D01*
X83174500Y-98916148D01*
X83184641Y-99000591D01*
X83237634Y-99134972D01*
X83237635Y-99134974D01*
X83237636Y-99134975D01*
X83324922Y-99250078D01*
X83440025Y-99337364D01*
X83461818Y-99345957D01*
X83509015Y-99384893D01*
X83524500Y-99438055D01*
X83524500Y-99684567D01*
X83505593Y-99742758D01*
X83460096Y-99777325D01*
X83382670Y-99806202D01*
X83267458Y-99892450D01*
X83267450Y-99892458D01*
X83180261Y-100008928D01*
X83130252Y-100044181D01*
X83126632Y-100045225D01*
X83095763Y-100053496D01*
X83095759Y-100053498D01*
X82998737Y-100109514D01*
X82352746Y-100755504D01*
X82298230Y-100783281D01*
X82282743Y-100784500D01*
X81406893Y-100784500D01*
X81318434Y-100795123D01*
X81177660Y-100850637D01*
X81177656Y-100850640D01*
X81057081Y-100942075D01*
X81057075Y-100942081D01*
X80965640Y-101062656D01*
X80965637Y-101062660D01*
X80910123Y-101203434D01*
X80899500Y-101291893D01*
X80899500Y-102428106D01*
X80910123Y-102516565D01*
X80965637Y-102657339D01*
X80965638Y-102657341D01*
X80965639Y-102657342D01*
X81057078Y-102777922D01*
X81177658Y-102869361D01*
X81177659Y-102869361D01*
X81177660Y-102869362D01*
X81248047Y-102897119D01*
X81318436Y-102924877D01*
X81406898Y-102935500D01*
X81406900Y-102935500D01*
X82293100Y-102935500D01*
X82293102Y-102935500D01*
X82381564Y-102924877D01*
X82522342Y-102869361D01*
X82642922Y-102777922D01*
X82734361Y-102657342D01*
X82789877Y-102516564D01*
X82800500Y-102428102D01*
X82800500Y-102355899D01*
X82807665Y-102333846D01*
X82811293Y-102310950D01*
X82816938Y-102305304D01*
X82819407Y-102297708D01*
X82838166Y-102284078D01*
X82854559Y-102267687D01*
X82862445Y-102266438D01*
X82868907Y-102261744D01*
X82892096Y-102261744D01*
X82914992Y-102258119D01*
X82922106Y-102261744D01*
X82930093Y-102261744D01*
X82969504Y-102285897D01*
X82979518Y-102295911D01*
X82979521Y-102295914D01*
X82979525Y-102295919D01*
X83017453Y-102333846D01*
X83054087Y-102370480D01*
X83099750Y-102396843D01*
X83103152Y-102398807D01*
X83103600Y-102399066D01*
X83121951Y-102419457D01*
X83144522Y-102444527D01*
X83144528Y-102444543D01*
X83144530Y-102444545D01*
X83144530Y-102444547D01*
X83146838Y-102450194D01*
X83181204Y-102542332D01*
X83241529Y-102622915D01*
X83267454Y-102657546D01*
X83267457Y-102657548D01*
X83267458Y-102657549D01*
X83382670Y-102743797D01*
X83517511Y-102794089D01*
X83517512Y-102794089D01*
X83517517Y-102794091D01*
X83577127Y-102800500D01*
X84222872Y-102800499D01*
X84282483Y-102794091D01*
X84349907Y-102768943D01*
X84417329Y-102743797D01*
X84417329Y-102743796D01*
X84417331Y-102743796D01*
X84532546Y-102657546D01*
X84618796Y-102542331D01*
X84618795Y-102542331D01*
X84620413Y-102540171D01*
X84670421Y-102504918D01*
X84699666Y-102500500D01*
X112726725Y-102500500D01*
X112726727Y-102500500D01*
X112828588Y-102473207D01*
X112828590Y-102473205D01*
X112828592Y-102473205D01*
X112919908Y-102420483D01*
X112919908Y-102420482D01*
X112919913Y-102420480D01*
X115025897Y-100314494D01*
X115080414Y-100286718D01*
X115095901Y-100285499D01*
X115511867Y-100285499D01*
X115511872Y-100285499D01*
X115571483Y-100279091D01*
X115638907Y-100253943D01*
X115706329Y-100228797D01*
X115706329Y-100228796D01*
X115706331Y-100228796D01*
X115821546Y-100142546D01*
X115907796Y-100027331D01*
X115910632Y-100019729D01*
X115950401Y-99913102D01*
X115958091Y-99892483D01*
X115964500Y-99832873D01*
X115964499Y-99187128D01*
X115958091Y-99127517D01*
X115910751Y-99000591D01*
X115907797Y-98992670D01*
X115821549Y-98877458D01*
X115821548Y-98877457D01*
X115821546Y-98877454D01*
X115766844Y-98836504D01*
X115706329Y-98791202D01*
X115571488Y-98740910D01*
X115571483Y-98740909D01*
X115571481Y-98740908D01*
X115571477Y-98740908D01*
X115540249Y-98737550D01*
X115511873Y-98734500D01*
X115511870Y-98734500D01*
X115016133Y-98734500D01*
X115016129Y-98734500D01*
X115016128Y-98734501D01*
X115011486Y-98735000D01*
X114956519Y-98740908D01*
X114956514Y-98740909D01*
X114821670Y-98791202D01*
X114706458Y-98877450D01*
X114706450Y-98877458D01*
X114620202Y-98992670D01*
X114569910Y-99127511D01*
X114569908Y-99127522D01*
X114563500Y-99187129D01*
X114563500Y-99603098D01*
X114544593Y-99661289D01*
X114534504Y-99673102D01*
X112537103Y-101670504D01*
X112482586Y-101698281D01*
X112467099Y-101699500D01*
X91876484Y-101699500D01*
X91818293Y-101680593D01*
X91782329Y-101631093D01*
X91782329Y-101569907D01*
X91790748Y-101551000D01*
X91812982Y-101512489D01*
X91812982Y-101512487D01*
X91812984Y-101512485D01*
X91850500Y-101372475D01*
X91850500Y-101227525D01*
X91812984Y-101087515D01*
X91812982Y-101087512D01*
X91812982Y-101087510D01*
X91740512Y-100961989D01*
X91740510Y-100961987D01*
X91740509Y-100961985D01*
X91638015Y-100859491D01*
X91638012Y-100859489D01*
X91638010Y-100859487D01*
X91512488Y-100787017D01*
X91512489Y-100787017D01*
X91482896Y-100779087D01*
X91372475Y-100749500D01*
X91372474Y-100749500D01*
X91356901Y-100749500D01*
X91298710Y-100730593D01*
X91286897Y-100720504D01*
X86479496Y-95913103D01*
X86451719Y-95858586D01*
X86450500Y-95843099D01*
X86450500Y-95456010D01*
X86469407Y-95397819D01*
X86518907Y-95361855D01*
X86580093Y-95361855D01*
X86619501Y-95386004D01*
X89512418Y-98278921D01*
X92379409Y-101145912D01*
X92379410Y-101145913D01*
X92379409Y-101145913D01*
X92420513Y-101187016D01*
X92453977Y-101220480D01*
X92545303Y-101273207D01*
X92647163Y-101300500D01*
X92647165Y-101300500D01*
X109052725Y-101300500D01*
X109052727Y-101300500D01*
X109154588Y-101273207D01*
X109154590Y-101273205D01*
X109154592Y-101273205D01*
X109245908Y-101220483D01*
X109245908Y-101220482D01*
X109245913Y-101220480D01*
X110597897Y-99868494D01*
X110618400Y-99852764D01*
X110645913Y-99836880D01*
X113806752Y-96676039D01*
X113828537Y-96664940D01*
X113848690Y-96651106D01*
X113854616Y-96651652D01*
X113861267Y-96648264D01*
X113909853Y-96652742D01*
X113915942Y-96654902D01*
X113933015Y-96663601D01*
X114021570Y-96692373D01*
X114022814Y-96692815D01*
X114046061Y-96710674D01*
X114069807Y-96727926D01*
X114071090Y-96729901D01*
X114071335Y-96730090D01*
X114071437Y-96730436D01*
X114075451Y-96736617D01*
X114082907Y-96749531D01*
X114093520Y-96767913D01*
X114168087Y-96842480D01*
X114259413Y-96895207D01*
X114361273Y-96922500D01*
X114361275Y-96922500D01*
X114466725Y-96922500D01*
X114466727Y-96922500D01*
X114568587Y-96895207D01*
X114659913Y-96842480D01*
X114734480Y-96767913D01*
X114752546Y-96736619D01*
X114798012Y-96695679D01*
X114807684Y-96691965D01*
X114894985Y-96663601D01*
X115070715Y-96574062D01*
X115230275Y-96458135D01*
X115369735Y-96318675D01*
X115485662Y-96159115D01*
X115575201Y-95983385D01*
X115589845Y-95938314D01*
X115625809Y-95888815D01*
X115683999Y-95869907D01*
X115742190Y-95888814D01*
X115778154Y-95938314D01*
X115778155Y-95938315D01*
X115792798Y-95983383D01*
X115872857Y-96140509D01*
X115882338Y-96159115D01*
X115998265Y-96318675D01*
X116137725Y-96458135D01*
X116297285Y-96574062D01*
X116309442Y-96580256D01*
X116352708Y-96623518D01*
X116363500Y-96668467D01*
X116363500Y-98835090D01*
X116344593Y-98893281D01*
X116343754Y-98894419D01*
X116270201Y-98992672D01*
X116219910Y-99127511D01*
X116219908Y-99127522D01*
X116213500Y-99187129D01*
X116213500Y-99832866D01*
X116213501Y-99832870D01*
X116219908Y-99892480D01*
X116219909Y-99892485D01*
X116270202Y-100027329D01*
X116350863Y-100135078D01*
X116356454Y-100142546D01*
X116356457Y-100142548D01*
X116356458Y-100142549D01*
X116471670Y-100228797D01*
X116606511Y-100279089D01*
X116606512Y-100279089D01*
X116606517Y-100279091D01*
X116666127Y-100285500D01*
X117161872Y-100285499D01*
X117221483Y-100279091D01*
X117288907Y-100253943D01*
X117356329Y-100228797D01*
X117356329Y-100228796D01*
X117356331Y-100228796D01*
X117471546Y-100142546D01*
X117557796Y-100027331D01*
X117560632Y-100019729D01*
X117600401Y-99913102D01*
X117608091Y-99892483D01*
X117614500Y-99832873D01*
X117614499Y-99187128D01*
X117608091Y-99127517D01*
X117608089Y-99127511D01*
X117557798Y-98992672D01*
X117484246Y-98894419D01*
X117464510Y-98836504D01*
X117464500Y-98835090D01*
X117464500Y-96709229D01*
X117483407Y-96651038D01*
X117518556Y-96621019D01*
X117547998Y-96606018D01*
X117610715Y-96574062D01*
X117770275Y-96458135D01*
X117909735Y-96318675D01*
X118025662Y-96159115D01*
X118115201Y-95983385D01*
X118129845Y-95938314D01*
X118165809Y-95888815D01*
X118223999Y-95869907D01*
X118282190Y-95888814D01*
X118318154Y-95938314D01*
X118318155Y-95938315D01*
X118332798Y-95983383D01*
X118412857Y-96140509D01*
X118422338Y-96159115D01*
X118538265Y-96318675D01*
X118677725Y-96458135D01*
X118837285Y-96574062D01*
X119013015Y-96663601D01*
X119200588Y-96724547D01*
X119200589Y-96724547D01*
X119200592Y-96724548D01*
X119395384Y-96755400D01*
X119395387Y-96755400D01*
X119592616Y-96755400D01*
X119787407Y-96724548D01*
X119787408Y-96724547D01*
X119787412Y-96724547D01*
X119974985Y-96663601D01*
X120150715Y-96574062D01*
X120310275Y-96458135D01*
X120354498Y-96413911D01*
X120409013Y-96386136D01*
X120469445Y-96395707D01*
X120512710Y-96438972D01*
X120523500Y-96483917D01*
X120523500Y-96773286D01*
X120508491Y-101291941D01*
X120506342Y-101939089D01*
X120506163Y-101992963D01*
X120506150Y-101997272D01*
X120506149Y-101997308D01*
X120506135Y-102001447D01*
X120505861Y-102008488D01*
X120490744Y-102210829D01*
X120488696Y-102224775D01*
X120445759Y-102419457D01*
X120441751Y-102432970D01*
X120371602Y-102619579D01*
X120365715Y-102632387D01*
X120269776Y-102807140D01*
X120262130Y-102818982D01*
X120142345Y-102978339D01*
X120133095Y-102988975D01*
X119991888Y-103129709D01*
X119981224Y-103138920D01*
X119918929Y-103185420D01*
X119821465Y-103258171D01*
X119809598Y-103265776D01*
X119634525Y-103361128D01*
X119621698Y-103366972D01*
X119434853Y-103436496D01*
X119421325Y-103440459D01*
X119226499Y-103482742D01*
X119212546Y-103484743D01*
X119009215Y-103499248D01*
X119002172Y-103499499D01*
X118982964Y-103499499D01*
X118940757Y-103499498D01*
X118940750Y-103499499D01*
X118933847Y-103499500D01*
X118933846Y-103499499D01*
X118933846Y-103499500D01*
X61753540Y-103499500D01*
X61746477Y-103499248D01*
X61543662Y-103484742D01*
X61529681Y-103482732D01*
X61334457Y-103440264D01*
X61320904Y-103436284D01*
X61133715Y-103366466D01*
X61120875Y-103360602D01*
X60976896Y-103281984D01*
X60945525Y-103264854D01*
X60933643Y-103257218D01*
X60773709Y-103137493D01*
X60763033Y-103128243D01*
X60621756Y-102986966D01*
X60612506Y-102976290D01*
X60581970Y-102935499D01*
X60492781Y-102816356D01*
X60485145Y-102804474D01*
X60482975Y-102800500D01*
X60389394Y-102629118D01*
X60383537Y-102616292D01*
X60313713Y-102429088D01*
X60309737Y-102415549D01*
X60267265Y-102220308D01*
X60265258Y-102206345D01*
X60251215Y-102010001D01*
X76400000Y-102010001D01*
X76400000Y-102428064D01*
X76410613Y-102516443D01*
X76466080Y-102657095D01*
X76557435Y-102777564D01*
X76677904Y-102868919D01*
X76818556Y-102924386D01*
X76906935Y-102934999D01*
X76906942Y-102935000D01*
X77199999Y-102935000D01*
X77200000Y-102934999D01*
X77200000Y-102010001D01*
X77500000Y-102010001D01*
X77500000Y-102934999D01*
X77500001Y-102935000D01*
X77793058Y-102935000D01*
X77793064Y-102934999D01*
X77881443Y-102924386D01*
X78022095Y-102868919D01*
X78142564Y-102777564D01*
X78233919Y-102657095D01*
X78289386Y-102516443D01*
X78299999Y-102428064D01*
X78300000Y-102428058D01*
X78300000Y-102010001D01*
X78299999Y-102010000D01*
X77500001Y-102010000D01*
X77500000Y-102010001D01*
X77200000Y-102010001D01*
X77199999Y-102010000D01*
X76400001Y-102010000D01*
X76400000Y-102010001D01*
X60251215Y-102010001D01*
X60250752Y-102003522D01*
X60250500Y-101996460D01*
X60250500Y-101291935D01*
X76400000Y-101291935D01*
X76400000Y-101709999D01*
X76400001Y-101710000D01*
X77199999Y-101710000D01*
X77200000Y-101709999D01*
X77200000Y-100785001D01*
X77500000Y-100785001D01*
X77500000Y-101709999D01*
X77500001Y-101710000D01*
X78299999Y-101710000D01*
X78300000Y-101709999D01*
X78300000Y-101291941D01*
X78299999Y-101291935D01*
X78289386Y-101203556D01*
X78233919Y-101062904D01*
X78142564Y-100942435D01*
X78022095Y-100851080D01*
X77881443Y-100795613D01*
X77793064Y-100785000D01*
X77500001Y-100785000D01*
X77500000Y-100785001D01*
X77200000Y-100785001D01*
X77199999Y-100785000D01*
X76906935Y-100785000D01*
X76818556Y-100795613D01*
X76677904Y-100851080D01*
X76557435Y-100942435D01*
X76466080Y-101062904D01*
X76410613Y-101203556D01*
X76400000Y-101291935D01*
X60250500Y-101291935D01*
X60250500Y-93662401D01*
X60624500Y-93662401D01*
X60624500Y-93837598D01*
X60651903Y-94010623D01*
X60701246Y-94162485D01*
X60706042Y-94177244D01*
X60741332Y-94246503D01*
X60785574Y-94333335D01*
X60785577Y-94333339D01*
X60888551Y-94475071D01*
X61012429Y-94598949D01*
X61154161Y-94701923D01*
X61310256Y-94781458D01*
X61476872Y-94835595D01*
X61476873Y-94835595D01*
X61476876Y-94835596D01*
X61649902Y-94863000D01*
X61649905Y-94863000D01*
X63450098Y-94863000D01*
X63623123Y-94835596D01*
X63623124Y-94835595D01*
X63623128Y-94835595D01*
X63789744Y-94781458D01*
X63945839Y-94701923D01*
X64087571Y-94598949D01*
X64211449Y-94475071D01*
X64265990Y-94400001D01*
X66625000Y-94400001D01*
X66625000Y-94516104D01*
X66635132Y-94600468D01*
X66688077Y-94734729D01*
X66775276Y-94849717D01*
X66775282Y-94849723D01*
X66890270Y-94936922D01*
X67024531Y-94989867D01*
X67108895Y-94999999D01*
X67108900Y-95000000D01*
X67249999Y-95000000D01*
X67250000Y-94999999D01*
X67250000Y-94400001D01*
X67550000Y-94400001D01*
X67550000Y-94999999D01*
X67550001Y-95000000D01*
X67691100Y-95000000D01*
X67691104Y-94999999D01*
X67775468Y-94989867D01*
X67909729Y-94936922D01*
X68024717Y-94849723D01*
X68024723Y-94849717D01*
X68111922Y-94734729D01*
X68164867Y-94600468D01*
X68174999Y-94516104D01*
X68175000Y-94516100D01*
X68175000Y-94400001D01*
X68174999Y-94400000D01*
X67550001Y-94400000D01*
X67550000Y-94400001D01*
X67250000Y-94400001D01*
X67249999Y-94400000D01*
X66625001Y-94400000D01*
X66625000Y-94400001D01*
X64265990Y-94400001D01*
X64314423Y-94333339D01*
X64315713Y-94330809D01*
X64324252Y-94314049D01*
X64324252Y-94314048D01*
X64333790Y-94295329D01*
X64393958Y-94177244D01*
X64448095Y-94010628D01*
X64448096Y-94010623D01*
X64475500Y-93837598D01*
X64475500Y-93662401D01*
X64448096Y-93489376D01*
X64445917Y-93482669D01*
X64393958Y-93322756D01*
X64314423Y-93166661D01*
X64211449Y-93024929D01*
X64087571Y-92901051D01*
X63945839Y-92798077D01*
X63945838Y-92798076D01*
X63945836Y-92798075D01*
X63857773Y-92753205D01*
X63789744Y-92718542D01*
X63789741Y-92718541D01*
X63623123Y-92664403D01*
X63450098Y-92637000D01*
X63450095Y-92637000D01*
X61649905Y-92637000D01*
X61649902Y-92637000D01*
X61476876Y-92664403D01*
X61310258Y-92718541D01*
X61154163Y-92798075D01*
X61012430Y-92901050D01*
X60888550Y-93024930D01*
X60785575Y-93166663D01*
X60706041Y-93322758D01*
X60651903Y-93489376D01*
X60624500Y-93662401D01*
X60250500Y-93662401D01*
X60250500Y-90063768D01*
X61674500Y-90063768D01*
X61674500Y-90063770D01*
X61674500Y-90063771D01*
X61674500Y-90236229D01*
X61700593Y-90367410D01*
X61708145Y-90405373D01*
X61708145Y-90405375D01*
X61774139Y-90564700D01*
X61774145Y-90564712D01*
X61834353Y-90654817D01*
X61869955Y-90708099D01*
X61991901Y-90830045D01*
X62041201Y-90862986D01*
X62135287Y-90925854D01*
X62135299Y-90925860D01*
X62168517Y-90939619D01*
X62294626Y-90991855D01*
X62463771Y-91025500D01*
X62463772Y-91025500D01*
X62636228Y-91025500D01*
X62636229Y-91025500D01*
X62805374Y-90991855D01*
X62964705Y-90925858D01*
X62964707Y-90925856D01*
X62964712Y-90925854D01*
X63009699Y-90895794D01*
X63108099Y-90830045D01*
X63230045Y-90708099D01*
X63298188Y-90606115D01*
X63325854Y-90564712D01*
X63325860Y-90564700D01*
X63337285Y-90537118D01*
X63391855Y-90405374D01*
X63425500Y-90236229D01*
X63425500Y-90063771D01*
X63414584Y-90008895D01*
X69200000Y-90008895D01*
X69200000Y-90149999D01*
X69200001Y-90150000D01*
X69799999Y-90150000D01*
X69800000Y-90149999D01*
X69800000Y-89525001D01*
X69799999Y-89525000D01*
X69683895Y-89525000D01*
X69599531Y-89535132D01*
X69465270Y-89588077D01*
X69350282Y-89675276D01*
X69350276Y-89675282D01*
X69263077Y-89790270D01*
X69210132Y-89924531D01*
X69200000Y-90008895D01*
X63414584Y-90008895D01*
X63391855Y-89894626D01*
X63350195Y-89794050D01*
X63325860Y-89735299D01*
X63325854Y-89735287D01*
X63269200Y-89650500D01*
X63230045Y-89591901D01*
X63108099Y-89469955D01*
X63060298Y-89438015D01*
X62964712Y-89374145D01*
X62964700Y-89374139D01*
X62805374Y-89308145D01*
X62636231Y-89274500D01*
X62636229Y-89274500D01*
X62463771Y-89274500D01*
X62463768Y-89274500D01*
X62294626Y-89308145D01*
X62294624Y-89308145D01*
X62135299Y-89374139D01*
X62135287Y-89374145D01*
X61991901Y-89469955D01*
X61991897Y-89469958D01*
X61869958Y-89591897D01*
X61869955Y-89591901D01*
X61774145Y-89735287D01*
X61774139Y-89735299D01*
X61708145Y-89894624D01*
X61708145Y-89894626D01*
X61674500Y-90063768D01*
X60250500Y-90063768D01*
X60250500Y-85563768D01*
X61674500Y-85563768D01*
X61674500Y-85736231D01*
X61683305Y-85780496D01*
X61705173Y-85890435D01*
X61708145Y-85905373D01*
X61708145Y-85905375D01*
X61774139Y-86064700D01*
X61774145Y-86064712D01*
X61833175Y-86153054D01*
X61869955Y-86208099D01*
X61991901Y-86330045D01*
X62050062Y-86368907D01*
X62135287Y-86425854D01*
X62135299Y-86425860D01*
X62145519Y-86430093D01*
X62294626Y-86491855D01*
X62463771Y-86525500D01*
X62463772Y-86525500D01*
X62636228Y-86525500D01*
X62636229Y-86525500D01*
X62805374Y-86491855D01*
X62964705Y-86425858D01*
X62964707Y-86425856D01*
X62964712Y-86425854D01*
X63015239Y-86392092D01*
X63108099Y-86330045D01*
X63230045Y-86208099D01*
X63305403Y-86095318D01*
X63325854Y-86064712D01*
X63325860Y-86064700D01*
X63329961Y-86054799D01*
X63391855Y-85905374D01*
X63425500Y-85736229D01*
X63425500Y-85563771D01*
X63391855Y-85394626D01*
X63360502Y-85318934D01*
X63325860Y-85235299D01*
X63325854Y-85235287D01*
X63270893Y-85153034D01*
X63230045Y-85091901D01*
X63108099Y-84969955D01*
X63060796Y-84938348D01*
X62964712Y-84874145D01*
X62964700Y-84874139D01*
X62805374Y-84808145D01*
X62636231Y-84774500D01*
X62636229Y-84774500D01*
X62463771Y-84774500D01*
X62463768Y-84774500D01*
X62294626Y-84808145D01*
X62294624Y-84808145D01*
X62135299Y-84874139D01*
X62135287Y-84874145D01*
X61991901Y-84969955D01*
X61991897Y-84969958D01*
X61869958Y-85091897D01*
X61869955Y-85091901D01*
X61774145Y-85235287D01*
X61774139Y-85235299D01*
X61708145Y-85394624D01*
X61708145Y-85394626D01*
X61674500Y-85563768D01*
X60250500Y-85563768D01*
X60250500Y-84550001D01*
X63850001Y-84550001D01*
X63850001Y-85044791D01*
X63852909Y-85069874D01*
X63898213Y-85172477D01*
X63977522Y-85251786D01*
X64080127Y-85297090D01*
X64105203Y-85299999D01*
X64999998Y-85299999D01*
X65000000Y-85299998D01*
X65000000Y-84550001D01*
X65300000Y-84550001D01*
X65300000Y-85299998D01*
X65300001Y-85299999D01*
X66194790Y-85299999D01*
X66194791Y-85299998D01*
X66219874Y-85297090D01*
X66322477Y-85251786D01*
X66401786Y-85172477D01*
X66447090Y-85069872D01*
X66449999Y-85044797D01*
X66450000Y-85044795D01*
X66450000Y-84550001D01*
X66449999Y-84550000D01*
X65300001Y-84550000D01*
X65300000Y-84550001D01*
X65000000Y-84550001D01*
X64999999Y-84550000D01*
X63850002Y-84550000D01*
X63850001Y-84550001D01*
X60250500Y-84550001D01*
X60250500Y-83755202D01*
X63850000Y-83755202D01*
X63850000Y-84249999D01*
X63850001Y-84250000D01*
X64999999Y-84250000D01*
X65000000Y-84249999D01*
X65000000Y-83500001D01*
X65300000Y-83500001D01*
X65300000Y-84249999D01*
X65300001Y-84250000D01*
X66449998Y-84250000D01*
X66449999Y-84249999D01*
X66449999Y-83755210D01*
X66449998Y-83755208D01*
X66447090Y-83730125D01*
X66401786Y-83627522D01*
X66322477Y-83548213D01*
X66219872Y-83502909D01*
X66194797Y-83500000D01*
X65300001Y-83500000D01*
X65300000Y-83500001D01*
X65000000Y-83500001D01*
X64999999Y-83500000D01*
X64105210Y-83500000D01*
X64105208Y-83500001D01*
X64080125Y-83502909D01*
X63977522Y-83548213D01*
X63898213Y-83627522D01*
X63852909Y-83730127D01*
X63850000Y-83755202D01*
X60250500Y-83755202D01*
X60250500Y-81899999D01*
X60634889Y-81899999D01*
X60634890Y-81900000D01*
X61278590Y-81900000D01*
X61275556Y-81905255D01*
X61250000Y-82000630D01*
X61250000Y-82099370D01*
X61275556Y-82194745D01*
X61278590Y-82200000D01*
X60634889Y-82200000D01*
X60652393Y-82310508D01*
X60706505Y-82477050D01*
X60786003Y-82633074D01*
X60888932Y-82774743D01*
X61012756Y-82898567D01*
X61154425Y-83001496D01*
X61310449Y-83080994D01*
X61476991Y-83135106D01*
X61649941Y-83162500D01*
X62399999Y-83162500D01*
X62400000Y-83162499D01*
X62400000Y-82425000D01*
X62700000Y-82425000D01*
X62700000Y-83162499D01*
X62700001Y-83162500D01*
X63450059Y-83162500D01*
X63623008Y-83135106D01*
X63789550Y-83080994D01*
X63945574Y-83001496D01*
X64087243Y-82898567D01*
X64211067Y-82774743D01*
X64313996Y-82633074D01*
X64393494Y-82477050D01*
X64447606Y-82310508D01*
X64465110Y-82200000D01*
X63821410Y-82200000D01*
X63824444Y-82194745D01*
X63850000Y-82099370D01*
X63850000Y-82000630D01*
X63824444Y-81905255D01*
X63821410Y-81900000D01*
X64465110Y-81900000D01*
X64465110Y-81899999D01*
X64447606Y-81789491D01*
X64393494Y-81622949D01*
X64313996Y-81466925D01*
X64211067Y-81325256D01*
X64087243Y-81201432D01*
X63994287Y-81133895D01*
X67975000Y-81133895D01*
X67975000Y-81249999D01*
X67975001Y-81250000D01*
X68599999Y-81250000D01*
X68600000Y-81249999D01*
X68600000Y-80650001D01*
X68599999Y-80650000D01*
X68458895Y-80650000D01*
X68374531Y-80660132D01*
X68240270Y-80713077D01*
X68125282Y-80800276D01*
X68125276Y-80800282D01*
X68038077Y-80915270D01*
X67985132Y-81049531D01*
X67975000Y-81133895D01*
X63994287Y-81133895D01*
X63945574Y-81098503D01*
X63789550Y-81019005D01*
X63623008Y-80964893D01*
X63450059Y-80937500D01*
X62700001Y-80937500D01*
X62700000Y-80937501D01*
X62700000Y-81675000D01*
X62400000Y-81675000D01*
X62400000Y-80937501D01*
X62399999Y-80937500D01*
X61649941Y-80937500D01*
X61476991Y-80964893D01*
X61310449Y-81019005D01*
X61154425Y-81098503D01*
X61012756Y-81201432D01*
X60888932Y-81325256D01*
X60786003Y-81466925D01*
X60706505Y-81622949D01*
X60652393Y-81789491D01*
X60634889Y-81899999D01*
X60250500Y-81899999D01*
X60250500Y-77783895D01*
X67975000Y-77783895D01*
X67975000Y-77899999D01*
X67975001Y-77900000D01*
X68599999Y-77900000D01*
X68600000Y-77899999D01*
X68600000Y-77300001D01*
X68900000Y-77300001D01*
X68900000Y-77899999D01*
X68900001Y-77900000D01*
X69524999Y-77900000D01*
X69530996Y-77894003D01*
X69585513Y-77866226D01*
X69645945Y-77875797D01*
X69689210Y-77919062D01*
X69695574Y-77945573D01*
X69700001Y-77950000D01*
X70849999Y-77950000D01*
X70850000Y-77949999D01*
X70850000Y-77050001D01*
X71150000Y-77050001D01*
X71150000Y-77949999D01*
X71150001Y-77950000D01*
X72299998Y-77950000D01*
X72299999Y-77949999D01*
X72299999Y-77670449D01*
X72299998Y-77670433D01*
X72293820Y-77602435D01*
X72293818Y-77602426D01*
X72245057Y-77445945D01*
X72245051Y-77445931D01*
X72160254Y-77305660D01*
X72044339Y-77189745D01*
X71904068Y-77104948D01*
X71904054Y-77104942D01*
X71747568Y-77056180D01*
X71679564Y-77050000D01*
X71150001Y-77050000D01*
X71150000Y-77050001D01*
X70850000Y-77050001D01*
X70849999Y-77050000D01*
X70320449Y-77050000D01*
X70320433Y-77050001D01*
X70252435Y-77056179D01*
X70252426Y-77056181D01*
X70095945Y-77104942D01*
X70095931Y-77104948D01*
X69955660Y-77189745D01*
X69839745Y-77305660D01*
X69754948Y-77445931D01*
X69754942Y-77445945D01*
X69706180Y-77602431D01*
X69700913Y-77660389D01*
X69676816Y-77716630D01*
X69624264Y-77747966D01*
X69563330Y-77742428D01*
X69517288Y-77702132D01*
X69510221Y-77687748D01*
X69461922Y-77565270D01*
X69374723Y-77450282D01*
X69374717Y-77450276D01*
X69259729Y-77363077D01*
X69125468Y-77310132D01*
X69041104Y-77300000D01*
X68900001Y-77300000D01*
X68900000Y-77300001D01*
X68600000Y-77300001D01*
X68599999Y-77300000D01*
X68458895Y-77300000D01*
X68374531Y-77310132D01*
X68240270Y-77363077D01*
X68125282Y-77450276D01*
X68125276Y-77450282D01*
X68038077Y-77565270D01*
X67985132Y-77699531D01*
X67975000Y-77783895D01*
X60250500Y-77783895D01*
X60250500Y-76003539D01*
X60250752Y-75996477D01*
X60256154Y-75920943D01*
X60265258Y-75793652D01*
X60267265Y-75779693D01*
X60309737Y-75584447D01*
X60313711Y-75570914D01*
X60383539Y-75383701D01*
X60389391Y-75370886D01*
X60485150Y-75195516D01*
X60492777Y-75183648D01*
X60612515Y-75023698D01*
X60621749Y-75013040D01*
X60763040Y-74871749D01*
X60773698Y-74862515D01*
X60933648Y-74742777D01*
X60945516Y-74735150D01*
X61120886Y-74639391D01*
X61133701Y-74633539D01*
X61320914Y-74563711D01*
X61334447Y-74559737D01*
X61529693Y-74517265D01*
X61543652Y-74515258D01*
X61723568Y-74502390D01*
X61746478Y-74500752D01*
X61753540Y-74500500D01*
X61815892Y-74500500D01*
X118943323Y-74500500D01*
X119005691Y-74500500D01*
X119012733Y-74500751D01*
G37*
%TD.AperFunction*%
%TA.AperFunction,Conductor*%
G36*
X82949000Y-94361880D02*
G01*
X83043134Y-94416229D01*
X83041651Y-94418796D01*
X83078860Y-94450580D01*
X83093139Y-94510076D01*
X83088095Y-94531086D01*
X83088696Y-94531247D01*
X83087016Y-94537513D01*
X83087016Y-94537515D01*
X83049500Y-94677525D01*
X83049500Y-94822475D01*
X83072663Y-94908919D01*
X83087017Y-94962489D01*
X83159487Y-95088010D01*
X83159489Y-95088012D01*
X83159491Y-95088015D01*
X83261985Y-95190509D01*
X83261987Y-95190510D01*
X83261989Y-95190512D01*
X83387511Y-95262982D01*
X83387512Y-95262982D01*
X83387515Y-95262984D01*
X83527525Y-95300500D01*
X83527526Y-95300500D01*
X83672474Y-95300500D01*
X83672475Y-95300500D01*
X83812485Y-95262984D01*
X83812487Y-95262982D01*
X83812489Y-95262982D01*
X83938010Y-95190512D01*
X83938010Y-95190511D01*
X83938015Y-95190509D01*
X84040509Y-95088015D01*
X84040512Y-95088009D01*
X84044460Y-95082866D01*
X84045537Y-95083692D01*
X84085729Y-95047501D01*
X84146579Y-95041102D01*
X84199568Y-95071693D01*
X84224457Y-95127587D01*
X84225000Y-95137940D01*
X84225000Y-95216104D01*
X84235132Y-95300468D01*
X84288077Y-95434729D01*
X84375276Y-95549717D01*
X84375282Y-95549723D01*
X84490270Y-95636922D01*
X84624531Y-95689867D01*
X84708895Y-95699999D01*
X84708900Y-95700000D01*
X84849999Y-95700000D01*
X84850000Y-95699999D01*
X84850000Y-95049000D01*
X84854845Y-95034088D01*
X84854845Y-95018407D01*
X84864061Y-95005721D01*
X84868907Y-94990809D01*
X84881592Y-94981592D01*
X84890809Y-94968907D01*
X84905721Y-94964061D01*
X84918407Y-94954845D01*
X84949000Y-94950000D01*
X85051000Y-94950000D01*
X85109191Y-94968907D01*
X85145155Y-95018407D01*
X85150000Y-95049000D01*
X85150000Y-95699999D01*
X85150001Y-95700000D01*
X85291100Y-95700000D01*
X85291104Y-95699999D01*
X85375472Y-95689867D01*
X85514181Y-95635167D01*
X85575251Y-95631408D01*
X85626867Y-95664263D01*
X85649313Y-95721182D01*
X85649500Y-95727264D01*
X85649500Y-95997273D01*
X85649500Y-96102727D01*
X85664608Y-96159112D01*
X85676794Y-96204592D01*
X85729516Y-96295908D01*
X85729520Y-96295913D01*
X85964103Y-96530497D01*
X85991880Y-96585013D01*
X85982309Y-96645445D01*
X85939044Y-96688710D01*
X85894099Y-96699500D01*
X85877525Y-96699500D01*
X85815790Y-96716041D01*
X85737510Y-96737017D01*
X85611989Y-96809487D01*
X85509487Y-96911989D01*
X85437017Y-97037510D01*
X85415349Y-97118377D01*
X85399500Y-97177525D01*
X85399500Y-97322475D01*
X85415490Y-97382149D01*
X85437017Y-97462489D01*
X85509487Y-97588010D01*
X85509489Y-97588012D01*
X85509491Y-97588015D01*
X85520505Y-97599029D01*
X85548281Y-97653544D01*
X85549500Y-97669031D01*
X85549500Y-99843098D01*
X85530593Y-99901289D01*
X85520504Y-99913102D01*
X84844503Y-100589102D01*
X84789986Y-100616879D01*
X84729554Y-100607308D01*
X84686289Y-100564043D01*
X84675499Y-100519100D01*
X84675499Y-100202128D01*
X84669091Y-100142517D01*
X84669090Y-100142514D01*
X84618797Y-100007670D01*
X84532549Y-99892458D01*
X84532548Y-99892457D01*
X84532546Y-99892454D01*
X84532541Y-99892450D01*
X84415171Y-99804586D01*
X84379918Y-99754577D01*
X84375500Y-99725333D01*
X84375500Y-99438055D01*
X84394407Y-99379864D01*
X84438181Y-99345957D01*
X84459975Y-99337364D01*
X84575078Y-99250078D01*
X84662364Y-99134975D01*
X84715359Y-99000590D01*
X84725500Y-98916144D01*
X84725500Y-98383856D01*
X84715359Y-98299410D01*
X84662364Y-98165025D01*
X84575078Y-98049922D01*
X84459975Y-97962636D01*
X84459970Y-97962634D01*
X84457075Y-97961006D01*
X84455337Y-97959120D01*
X84454579Y-97958545D01*
X84454682Y-97958408D01*
X84415617Y-97916007D01*
X84408528Y-97855233D01*
X84438514Y-97801900D01*
X84457079Y-97788412D01*
X84459729Y-97786922D01*
X84574717Y-97699723D01*
X84574723Y-97699717D01*
X84661922Y-97584729D01*
X84714867Y-97450468D01*
X84724999Y-97366104D01*
X84725000Y-97366100D01*
X84725000Y-97250001D01*
X84724999Y-97250000D01*
X83192756Y-97250000D01*
X83134565Y-97231093D01*
X83122752Y-97221004D01*
X82735643Y-96833895D01*
X83175000Y-96833895D01*
X83175000Y-96949999D01*
X83175001Y-96950000D01*
X83799999Y-96950000D01*
X83800000Y-96949999D01*
X83800000Y-96350001D01*
X84100000Y-96350001D01*
X84100000Y-96949999D01*
X84100001Y-96950000D01*
X84724999Y-96950000D01*
X84725000Y-96949999D01*
X84725000Y-96833899D01*
X84724999Y-96833895D01*
X84714867Y-96749531D01*
X84661922Y-96615270D01*
X84574723Y-96500282D01*
X84574717Y-96500276D01*
X84459729Y-96413077D01*
X84325468Y-96360132D01*
X84241104Y-96350000D01*
X84100001Y-96350000D01*
X84100000Y-96350001D01*
X83800000Y-96350001D01*
X83799999Y-96350000D01*
X83658895Y-96350000D01*
X83574531Y-96360132D01*
X83440270Y-96413077D01*
X83325282Y-96500276D01*
X83325276Y-96500282D01*
X83238077Y-96615270D01*
X83185132Y-96749531D01*
X83175000Y-96833895D01*
X82735643Y-96833895D01*
X82304496Y-96402748D01*
X82276719Y-96348231D01*
X82275500Y-96332744D01*
X82275500Y-95065436D01*
X82294407Y-95007245D01*
X82343907Y-94971281D01*
X82362692Y-94967143D01*
X82381564Y-94964877D01*
X82522342Y-94909361D01*
X82642922Y-94817922D01*
X82734361Y-94697342D01*
X82789877Y-94556564D01*
X82800500Y-94468102D01*
X82800500Y-94447616D01*
X82819407Y-94389425D01*
X82868907Y-94353461D01*
X82930093Y-94353461D01*
X82949000Y-94361880D01*
G37*
%TD.AperFunction*%
%TA.AperFunction,Conductor*%
G36*
X77245683Y-92269407D02*
G01*
X77267147Y-92290711D01*
X77273292Y-92299037D01*
X77290350Y-92322150D01*
X77399616Y-92402792D01*
X77399617Y-92402792D01*
X77399618Y-92402793D01*
X77527801Y-92447646D01*
X77558225Y-92450499D01*
X77558227Y-92450500D01*
X77558234Y-92450500D01*
X78691773Y-92450500D01*
X78691773Y-92450499D01*
X78722199Y-92447646D01*
X78850382Y-92402793D01*
X78860091Y-92395626D01*
X78918138Y-92376284D01*
X78976469Y-92394754D01*
X78988885Y-92405278D01*
X79379518Y-92795912D01*
X79379519Y-92795912D01*
X79379520Y-92795913D01*
X79379519Y-92795913D01*
X79418248Y-92834641D01*
X79454087Y-92870480D01*
X79545413Y-92923207D01*
X79647273Y-92950500D01*
X80881952Y-92950500D01*
X80940143Y-92969407D01*
X80976107Y-93018907D01*
X80976107Y-93080093D01*
X80968248Y-93098019D01*
X80965637Y-93102662D01*
X80910123Y-93243434D01*
X80899500Y-93331893D01*
X80899500Y-94468106D01*
X80910123Y-94556565D01*
X80965637Y-94697339D01*
X80965638Y-94697341D01*
X80965639Y-94697342D01*
X81057078Y-94817922D01*
X81177658Y-94909361D01*
X81177659Y-94909361D01*
X81177660Y-94909362D01*
X81234171Y-94931647D01*
X81318436Y-94964877D01*
X81337303Y-94967142D01*
X81392823Y-94992851D01*
X81422630Y-95046285D01*
X81424500Y-95065436D01*
X81424500Y-95397795D01*
X81405593Y-95455986D01*
X81356093Y-95491950D01*
X81294907Y-95491950D01*
X81245407Y-95455986D01*
X81239764Y-95447295D01*
X81190512Y-95361989D01*
X81190510Y-95361987D01*
X81190509Y-95361985D01*
X81088015Y-95259491D01*
X81088012Y-95259489D01*
X81088010Y-95259487D01*
X80962488Y-95187017D01*
X80962489Y-95187017D01*
X80921373Y-95176000D01*
X80822475Y-95149500D01*
X80677525Y-95149500D01*
X80651054Y-95156593D01*
X80537510Y-95187017D01*
X80411989Y-95259487D01*
X80309487Y-95361989D01*
X80237017Y-95487510D01*
X80199500Y-95627525D01*
X80199500Y-95643099D01*
X80180593Y-95701290D01*
X80170504Y-95713103D01*
X77263103Y-98620504D01*
X77208586Y-98648281D01*
X77193099Y-98649500D01*
X74299500Y-98649500D01*
X74241309Y-98630593D01*
X74205345Y-98581093D01*
X74200500Y-98550500D01*
X74200500Y-98505046D01*
X74200499Y-98505029D01*
X74185369Y-98370750D01*
X74185366Y-98370738D01*
X74153237Y-98278921D01*
X74125789Y-98200478D01*
X74103512Y-98165025D01*
X74029818Y-98047741D01*
X74029817Y-98047740D01*
X74029816Y-98047738D01*
X73902262Y-97920184D01*
X73902259Y-97920182D01*
X73902258Y-97920181D01*
X73749523Y-97824211D01*
X73579261Y-97764633D01*
X73579249Y-97764630D01*
X73444970Y-97749500D01*
X73444954Y-97749500D01*
X72649500Y-97749500D01*
X72591309Y-97730593D01*
X72555345Y-97681093D01*
X72550500Y-97650500D01*
X72550500Y-94105901D01*
X72569407Y-94047710D01*
X72618907Y-94011746D01*
X72680093Y-94011746D01*
X72719504Y-94035897D01*
X73329520Y-94645913D01*
X73329519Y-94645913D01*
X73367169Y-94683562D01*
X73404087Y-94720480D01*
X73495413Y-94773207D01*
X73597273Y-94800500D01*
X73597275Y-94800500D01*
X75452725Y-94800500D01*
X75452727Y-94800500D01*
X75554588Y-94773207D01*
X75554590Y-94773205D01*
X75554592Y-94773205D01*
X75645908Y-94720483D01*
X75645908Y-94720482D01*
X75645913Y-94720480D01*
X76230998Y-94135394D01*
X76285513Y-94107619D01*
X76345945Y-94117190D01*
X76389210Y-94160455D01*
X76400000Y-94205400D01*
X76400000Y-94468064D01*
X76410613Y-94556443D01*
X76466080Y-94697095D01*
X76557435Y-94817564D01*
X76677904Y-94908919D01*
X76818556Y-94964386D01*
X76906935Y-94974999D01*
X76906942Y-94975000D01*
X77199999Y-94975000D01*
X77200000Y-94974999D01*
X77200000Y-94050001D01*
X77500000Y-94050001D01*
X77500000Y-94974999D01*
X77500001Y-94975000D01*
X77793058Y-94975000D01*
X77793064Y-94974999D01*
X77881443Y-94964386D01*
X78022095Y-94908919D01*
X78142564Y-94817564D01*
X78233919Y-94697095D01*
X78289386Y-94556443D01*
X78299999Y-94468064D01*
X78300000Y-94468058D01*
X78300000Y-94050001D01*
X78299999Y-94050000D01*
X77500001Y-94050000D01*
X77500000Y-94050001D01*
X77200000Y-94050001D01*
X77200000Y-92825001D01*
X77500000Y-92825001D01*
X77500000Y-93749999D01*
X77500001Y-93750000D01*
X78299999Y-93750000D01*
X78300000Y-93749999D01*
X78300000Y-93331941D01*
X78299999Y-93331935D01*
X78289386Y-93243556D01*
X78233919Y-93102904D01*
X78142564Y-92982435D01*
X78022095Y-92891080D01*
X77881443Y-92835613D01*
X77793064Y-92825000D01*
X77500001Y-92825000D01*
X77500000Y-92825001D01*
X77200000Y-92825001D01*
X77199999Y-92825000D01*
X76906935Y-92825000D01*
X76818556Y-92835613D01*
X76677902Y-92891080D01*
X76559319Y-92981006D01*
X76501528Y-93001101D01*
X76442962Y-92983390D01*
X76405992Y-92934637D01*
X76400500Y-92902122D01*
X76400500Y-92468687D01*
X76419407Y-92410496D01*
X76468907Y-92374532D01*
X76525122Y-92373061D01*
X76627522Y-92400499D01*
X76627524Y-92400500D01*
X76627525Y-92400500D01*
X76772474Y-92400500D01*
X76772475Y-92400500D01*
X76912485Y-92362984D01*
X76912487Y-92362982D01*
X76912489Y-92362982D01*
X77038010Y-92290512D01*
X77038010Y-92290511D01*
X77038015Y-92290509D01*
X77049029Y-92279494D01*
X77056144Y-92275869D01*
X77060840Y-92269407D01*
X77082888Y-92262243D01*
X77103544Y-92251719D01*
X77119031Y-92250500D01*
X77187492Y-92250500D01*
X77245683Y-92269407D01*
G37*
%TD.AperFunction*%
%TA.AperFunction,Conductor*%
G36*
X88582691Y-94943907D02*
G01*
X88618655Y-94993407D01*
X88623500Y-95024000D01*
X88623500Y-95126000D01*
X88604593Y-95184191D01*
X88555093Y-95220155D01*
X88524500Y-95225000D01*
X88199000Y-95225000D01*
X88184088Y-95220155D01*
X88168407Y-95220155D01*
X88155721Y-95210938D01*
X88140809Y-95206093D01*
X88131592Y-95193407D01*
X88118907Y-95184191D01*
X88114061Y-95169278D01*
X88104845Y-95156593D01*
X88100000Y-95126000D01*
X88100000Y-95024000D01*
X88118907Y-94965809D01*
X88168407Y-94929845D01*
X88199000Y-94925000D01*
X88524500Y-94925000D01*
X88582691Y-94943907D01*
G37*
%TD.AperFunction*%
%TA.AperFunction,Conductor*%
G36*
X90118835Y-91898347D02*
G01*
X90138939Y-91926017D01*
X90164940Y-91979202D01*
X90166878Y-91987579D01*
X90170155Y-91992089D01*
X90170155Y-92001740D01*
X90175000Y-92022682D01*
X90175000Y-92170905D01*
X90217357Y-92164735D01*
X90217362Y-92164733D01*
X90255948Y-92145870D01*
X90316530Y-92137298D01*
X90342906Y-92145868D01*
X90382491Y-92165220D01*
X90453051Y-92175500D01*
X90550500Y-92175499D01*
X90608690Y-92194406D01*
X90644654Y-92243905D01*
X90649500Y-92274499D01*
X90649500Y-92976472D01*
X90630593Y-93034663D01*
X90581093Y-93070627D01*
X90519907Y-93070627D01*
X90471617Y-93036292D01*
X90425081Y-92974926D01*
X90425078Y-92974922D01*
X90309975Y-92887636D01*
X90309974Y-92887635D01*
X90309972Y-92887634D01*
X90175591Y-92834641D01*
X90091148Y-92824500D01*
X90091144Y-92824500D01*
X89831901Y-92824500D01*
X89773710Y-92805593D01*
X89761897Y-92795504D01*
X89479496Y-92513103D01*
X89475869Y-92505985D01*
X89469407Y-92501290D01*
X89462243Y-92479241D01*
X89451719Y-92458586D01*
X89450500Y-92443099D01*
X89450500Y-92274499D01*
X89469407Y-92216308D01*
X89518907Y-92180344D01*
X89549496Y-92175499D01*
X89646948Y-92175499D01*
X89687470Y-92169595D01*
X89717505Y-92165221D01*
X89717506Y-92165220D01*
X89717509Y-92165220D01*
X89757091Y-92145869D01*
X89817668Y-92137298D01*
X89844051Y-92145870D01*
X89882632Y-92164732D01*
X89882637Y-92164733D01*
X89925000Y-92170905D01*
X89925000Y-92022682D01*
X89929845Y-92007770D01*
X89929845Y-91992089D01*
X89935054Y-91979213D01*
X89961061Y-91926015D01*
X90003601Y-91882045D01*
X90063866Y-91871475D01*
X90118835Y-91898347D01*
G37*
%TD.AperFunction*%
%TA.AperFunction,Conductor*%
G36*
X82101290Y-90369407D02*
G01*
X82113103Y-90379496D01*
X82454809Y-90721201D01*
X82780518Y-91046910D01*
X82780520Y-91046913D01*
X82855087Y-91121480D01*
X82879826Y-91135763D01*
X82946412Y-91174207D01*
X83048273Y-91201501D01*
X83048275Y-91201501D01*
X83159790Y-91201501D01*
X83159806Y-91201500D01*
X84364225Y-91201500D01*
X84364227Y-91201500D01*
X84448676Y-91178872D01*
X84474299Y-91175499D01*
X84525500Y-91175499D01*
X84583691Y-91194406D01*
X84619655Y-91243906D01*
X84624500Y-91274499D01*
X84624500Y-91846943D01*
X84624501Y-91846951D01*
X84634778Y-91917504D01*
X84634779Y-91917508D01*
X84635708Y-91919407D01*
X84639440Y-91927042D01*
X84649500Y-91970522D01*
X84649500Y-92050500D01*
X84630593Y-92108691D01*
X84581093Y-92144655D01*
X84550500Y-92149500D01*
X82118688Y-92149500D01*
X82060497Y-92130593D01*
X82024533Y-92081093D01*
X82023061Y-92024877D01*
X82028097Y-92006083D01*
X82050500Y-91922475D01*
X82050500Y-91777525D01*
X82012984Y-91637515D01*
X82012982Y-91637512D01*
X82012982Y-91637510D01*
X81940512Y-91511989D01*
X81940510Y-91511987D01*
X81940509Y-91511985D01*
X81838015Y-91409491D01*
X81838012Y-91409489D01*
X81838010Y-91409487D01*
X81712488Y-91337017D01*
X81712489Y-91337017D01*
X81682896Y-91329087D01*
X81572475Y-91299500D01*
X81441477Y-91299500D01*
X81383286Y-91280593D01*
X81347322Y-91231093D01*
X81347322Y-91169907D01*
X81348032Y-91167803D01*
X81359649Y-91134601D01*
X81362499Y-91104211D01*
X81362500Y-91104210D01*
X81362500Y-91050001D01*
X81362499Y-91050000D01*
X80499000Y-91050000D01*
X80484088Y-91045155D01*
X80468407Y-91045155D01*
X80455721Y-91035938D01*
X80440809Y-91031093D01*
X80431592Y-91018407D01*
X80418907Y-91009191D01*
X80414061Y-90994278D01*
X80404845Y-90981593D01*
X80400000Y-90951000D01*
X80400000Y-90849000D01*
X80418907Y-90790809D01*
X80468407Y-90754845D01*
X80499000Y-90750000D01*
X81362498Y-90750000D01*
X81362499Y-90749999D01*
X81362499Y-90695796D01*
X81359649Y-90665399D01*
X81359649Y-90665397D01*
X81314844Y-90537350D01*
X81293395Y-90508288D01*
X81274053Y-90450240D01*
X81292524Y-90391910D01*
X81341754Y-90355577D01*
X81373050Y-90350500D01*
X82043099Y-90350500D01*
X82101290Y-90369407D01*
G37*
%TD.AperFunction*%
%TA.AperFunction,Conductor*%
G36*
X91118835Y-84023347D02*
G01*
X91138939Y-84051017D01*
X91164940Y-84104202D01*
X91166878Y-84112579D01*
X91170155Y-84117089D01*
X91170155Y-84126740D01*
X91175000Y-84147682D01*
X91175000Y-84295905D01*
X91217357Y-84289735D01*
X91217362Y-84289733D01*
X91255948Y-84270870D01*
X91316530Y-84262298D01*
X91329387Y-84265451D01*
X91336342Y-84267659D01*
X91382491Y-84290220D01*
X91428536Y-84296928D01*
X91436227Y-84299370D01*
X91454856Y-84312714D01*
X91475399Y-84322862D01*
X91479244Y-84330182D01*
X91485968Y-84334999D01*
X91493196Y-84356746D01*
X91503851Y-84377030D01*
X91504236Y-84379457D01*
X91509779Y-84417506D01*
X91509779Y-84417507D01*
X91509780Y-84417509D01*
X91528851Y-84456520D01*
X91537422Y-84517101D01*
X91528851Y-84543479D01*
X91509781Y-84582487D01*
X91509780Y-84582489D01*
X91509780Y-84582491D01*
X91499501Y-84653048D01*
X91499500Y-84653054D01*
X91499500Y-84846943D01*
X91499501Y-84846951D01*
X91509778Y-84917505D01*
X91509780Y-84917509D01*
X91528851Y-84956520D01*
X91537422Y-85017101D01*
X91528851Y-85043479D01*
X91509781Y-85082487D01*
X91509780Y-85082489D01*
X91508409Y-85091901D01*
X91499501Y-85153048D01*
X91499500Y-85153054D01*
X91499500Y-85346943D01*
X91499501Y-85346951D01*
X91509778Y-85417505D01*
X91509780Y-85417509D01*
X91528851Y-85456520D01*
X91537422Y-85517101D01*
X91528851Y-85543479D01*
X91509781Y-85582487D01*
X91509780Y-85582489D01*
X91509780Y-85582491D01*
X91499501Y-85653048D01*
X91499500Y-85653054D01*
X91499500Y-85846943D01*
X91499501Y-85846951D01*
X91509778Y-85917505D01*
X91509780Y-85917509D01*
X91528851Y-85956520D01*
X91537422Y-86017101D01*
X91528851Y-86043479D01*
X91509781Y-86082487D01*
X91509780Y-86082489D01*
X91508260Y-86092924D01*
X91499501Y-86153048D01*
X91499500Y-86153054D01*
X91499500Y-86346943D01*
X91499501Y-86346951D01*
X91509778Y-86417505D01*
X91509780Y-86417509D01*
X91528851Y-86456520D01*
X91537422Y-86517101D01*
X91528851Y-86543479D01*
X91509781Y-86582487D01*
X91509780Y-86582489D01*
X91509780Y-86582491D01*
X91499501Y-86653048D01*
X91499500Y-86653054D01*
X91499500Y-86846943D01*
X91499501Y-86846951D01*
X91509778Y-86917505D01*
X91509780Y-86917509D01*
X91528851Y-86956520D01*
X91537422Y-87017101D01*
X91528851Y-87043479D01*
X91509781Y-87082487D01*
X91509780Y-87082489D01*
X91507383Y-87098942D01*
X91499501Y-87153048D01*
X91499500Y-87153054D01*
X91499500Y-87346943D01*
X91499501Y-87346951D01*
X91509778Y-87417505D01*
X91509780Y-87417509D01*
X91528851Y-87456520D01*
X91537422Y-87517101D01*
X91528851Y-87543479D01*
X91509781Y-87582487D01*
X91509780Y-87582489D01*
X91508260Y-87592924D01*
X91499501Y-87653048D01*
X91499500Y-87653054D01*
X91499500Y-87846943D01*
X91499501Y-87846951D01*
X91509778Y-87917505D01*
X91509780Y-87917509D01*
X91528851Y-87956520D01*
X91537422Y-88017101D01*
X91528851Y-88043479D01*
X91509781Y-88082487D01*
X91509780Y-88082489D01*
X91507935Y-88095155D01*
X91499501Y-88153048D01*
X91499500Y-88153054D01*
X91499500Y-88346943D01*
X91499501Y-88346951D01*
X91509778Y-88417505D01*
X91509780Y-88417509D01*
X91528851Y-88456520D01*
X91537422Y-88517101D01*
X91528851Y-88543479D01*
X91509781Y-88582487D01*
X91509780Y-88582489D01*
X91507302Y-88599500D01*
X91499501Y-88653048D01*
X91499500Y-88653054D01*
X91499500Y-88846943D01*
X91499501Y-88846951D01*
X91509778Y-88917505D01*
X91509780Y-88917509D01*
X91528851Y-88956520D01*
X91537422Y-89017101D01*
X91528851Y-89043479D01*
X91509781Y-89082487D01*
X91509780Y-89082489D01*
X91507477Y-89098299D01*
X91499501Y-89153048D01*
X91499500Y-89153054D01*
X91499500Y-89346943D01*
X91499501Y-89346951D01*
X91509778Y-89417505D01*
X91509780Y-89417509D01*
X91528851Y-89456520D01*
X91537422Y-89517101D01*
X91528851Y-89543479D01*
X91509781Y-89582487D01*
X91509780Y-89582489D01*
X91508409Y-89591901D01*
X91499501Y-89653048D01*
X91499500Y-89653054D01*
X91499500Y-89846943D01*
X91499501Y-89846951D01*
X91509778Y-89917505D01*
X91509780Y-89917509D01*
X91528851Y-89956520D01*
X91537422Y-90017101D01*
X91528851Y-90043479D01*
X91509781Y-90082487D01*
X91509780Y-90082489D01*
X91509011Y-90087767D01*
X91499501Y-90153048D01*
X91499500Y-90153054D01*
X91499500Y-90346943D01*
X91499501Y-90346951D01*
X91509778Y-90417505D01*
X91509780Y-90417509D01*
X91528851Y-90456520D01*
X91537422Y-90517101D01*
X91534294Y-90529876D01*
X91532075Y-90536884D01*
X91509780Y-90582491D01*
X91503078Y-90628486D01*
X91500654Y-90636147D01*
X91487304Y-90654817D01*
X91477136Y-90675401D01*
X91469851Y-90679226D01*
X91465067Y-90685919D01*
X91443290Y-90693177D01*
X91422967Y-90703852D01*
X91420543Y-90704236D01*
X91382491Y-90709779D01*
X91343480Y-90728851D01*
X91282898Y-90737422D01*
X91256521Y-90728851D01*
X91217509Y-90709780D01*
X91217510Y-90709780D01*
X91203397Y-90707724D01*
X91146949Y-90699500D01*
X91146945Y-90699500D01*
X90953056Y-90699500D01*
X90953048Y-90699501D01*
X90882492Y-90709779D01*
X90843480Y-90728851D01*
X90782898Y-90737422D01*
X90756521Y-90728851D01*
X90717509Y-90709780D01*
X90717510Y-90709780D01*
X90703397Y-90707724D01*
X90646949Y-90699500D01*
X90646945Y-90699500D01*
X90453056Y-90699500D01*
X90453048Y-90699501D01*
X90382495Y-90709778D01*
X90382487Y-90709781D01*
X90342910Y-90729129D01*
X90282327Y-90737700D01*
X90255951Y-90729129D01*
X90217363Y-90710265D01*
X90175000Y-90704092D01*
X90175000Y-90852315D01*
X90170154Y-90867228D01*
X90170154Y-90882909D01*
X90164941Y-90895795D01*
X90138941Y-90948979D01*
X90096397Y-90992953D01*
X90036132Y-91003523D01*
X89981164Y-90976651D01*
X89961059Y-90948979D01*
X89935059Y-90895794D01*
X89933120Y-90887412D01*
X89929845Y-90882905D01*
X89929845Y-90873257D01*
X89925000Y-90852314D01*
X89925000Y-90704094D01*
X89882634Y-90710266D01*
X89882629Y-90710268D01*
X89844048Y-90729129D01*
X89783466Y-90737700D01*
X89757090Y-90729130D01*
X89753473Y-90727362D01*
X89717509Y-90709780D01*
X89646949Y-90699500D01*
X89646945Y-90699500D01*
X89453056Y-90699500D01*
X89453048Y-90699501D01*
X89382492Y-90709779D01*
X89343480Y-90728851D01*
X89282898Y-90737422D01*
X89256521Y-90728851D01*
X89217509Y-90709780D01*
X89217510Y-90709780D01*
X89203397Y-90707724D01*
X89146949Y-90699500D01*
X89146945Y-90699500D01*
X88953056Y-90699500D01*
X88953048Y-90699501D01*
X88882492Y-90709779D01*
X88843480Y-90728851D01*
X88782898Y-90737422D01*
X88756521Y-90728851D01*
X88717509Y-90709780D01*
X88717510Y-90709780D01*
X88703397Y-90707724D01*
X88646949Y-90699500D01*
X88646945Y-90699500D01*
X88453056Y-90699500D01*
X88453048Y-90699501D01*
X88382492Y-90709779D01*
X88343480Y-90728851D01*
X88282898Y-90737422D01*
X88256521Y-90728851D01*
X88217509Y-90709780D01*
X88217510Y-90709780D01*
X88203397Y-90707724D01*
X88146949Y-90699500D01*
X88146945Y-90699500D01*
X87953056Y-90699500D01*
X87953048Y-90699501D01*
X87882492Y-90709779D01*
X87843480Y-90728851D01*
X87782898Y-90737422D01*
X87756521Y-90728851D01*
X87717509Y-90709780D01*
X87717510Y-90709780D01*
X87703397Y-90707724D01*
X87646949Y-90699500D01*
X87646945Y-90699500D01*
X87453056Y-90699500D01*
X87453048Y-90699501D01*
X87382492Y-90709779D01*
X87343480Y-90728851D01*
X87282898Y-90737422D01*
X87256521Y-90728851D01*
X87217509Y-90709780D01*
X87217510Y-90709780D01*
X87203397Y-90707724D01*
X87146949Y-90699500D01*
X87146945Y-90699500D01*
X86953056Y-90699500D01*
X86953048Y-90699501D01*
X86882492Y-90709779D01*
X86843480Y-90728851D01*
X86782898Y-90737422D01*
X86756521Y-90728851D01*
X86717509Y-90709780D01*
X86717510Y-90709780D01*
X86703397Y-90707724D01*
X86646949Y-90699500D01*
X86646945Y-90699500D01*
X86453056Y-90699500D01*
X86453048Y-90699501D01*
X86382492Y-90709779D01*
X86343480Y-90728851D01*
X86282898Y-90737422D01*
X86256521Y-90728851D01*
X86217509Y-90709780D01*
X86217510Y-90709780D01*
X86203397Y-90707724D01*
X86146949Y-90699500D01*
X86146945Y-90699500D01*
X85953056Y-90699500D01*
X85953048Y-90699501D01*
X85882492Y-90709779D01*
X85843480Y-90728851D01*
X85782898Y-90737422D01*
X85756521Y-90728851D01*
X85717509Y-90709780D01*
X85717510Y-90709780D01*
X85703397Y-90707724D01*
X85646949Y-90699500D01*
X85646945Y-90699500D01*
X85453056Y-90699500D01*
X85453048Y-90699501D01*
X85382492Y-90709779D01*
X85343480Y-90728851D01*
X85282898Y-90737422D01*
X85270123Y-90734294D01*
X85263117Y-90732076D01*
X85217509Y-90709780D01*
X85171511Y-90703078D01*
X85163852Y-90700654D01*
X85145181Y-90687304D01*
X85124598Y-90677136D01*
X85120772Y-90669851D01*
X85114080Y-90665067D01*
X85106821Y-90643292D01*
X85096147Y-90622968D01*
X85095763Y-90620540D01*
X85090221Y-90582495D01*
X85090218Y-90582485D01*
X85071149Y-90543480D01*
X85062577Y-90482898D01*
X85071149Y-90456518D01*
X85090220Y-90417509D01*
X85100500Y-90346949D01*
X85100499Y-90153052D01*
X85095359Y-90117771D01*
X85090221Y-90082495D01*
X85090218Y-90082485D01*
X85071149Y-90043480D01*
X85062577Y-89982898D01*
X85071149Y-89956518D01*
X85090220Y-89917509D01*
X85100500Y-89846949D01*
X85100499Y-89653052D01*
X85091591Y-89591901D01*
X85090221Y-89582495D01*
X85090218Y-89582485D01*
X85071149Y-89543480D01*
X85062577Y-89482898D01*
X85071149Y-89456518D01*
X85080195Y-89438015D01*
X85090220Y-89417509D01*
X85100500Y-89346949D01*
X85100499Y-89153052D01*
X85095359Y-89117771D01*
X85090221Y-89082495D01*
X85090218Y-89082485D01*
X85071149Y-89043480D01*
X85062577Y-88982898D01*
X85071149Y-88956518D01*
X85090220Y-88917509D01*
X85100500Y-88846949D01*
X85100499Y-88653052D01*
X85094224Y-88609975D01*
X85090221Y-88582495D01*
X85090218Y-88582485D01*
X85071149Y-88543480D01*
X85062577Y-88482898D01*
X85071149Y-88456518D01*
X85076544Y-88445483D01*
X85090220Y-88417509D01*
X85100500Y-88346949D01*
X85100499Y-88153052D01*
X85092065Y-88095155D01*
X85090221Y-88082495D01*
X85090218Y-88082485D01*
X85071149Y-88043480D01*
X85062577Y-87982898D01*
X85071149Y-87956518D01*
X85076807Y-87944945D01*
X85090220Y-87917509D01*
X85100500Y-87846949D01*
X85100499Y-87653052D01*
X85092089Y-87595318D01*
X85090221Y-87582495D01*
X85090218Y-87582485D01*
X85071149Y-87543480D01*
X85062577Y-87482898D01*
X85071149Y-87456518D01*
X85072660Y-87453427D01*
X85090220Y-87417509D01*
X85100500Y-87346949D01*
X85100499Y-87153052D01*
X85092617Y-87098942D01*
X85090221Y-87082495D01*
X85090218Y-87082485D01*
X85071149Y-87043480D01*
X85062577Y-86982898D01*
X85071149Y-86956518D01*
X85090220Y-86917509D01*
X85100500Y-86846949D01*
X85100499Y-86653052D01*
X85090220Y-86582491D01*
X85090219Y-86582489D01*
X85090218Y-86582485D01*
X85071149Y-86543480D01*
X85062577Y-86482898D01*
X85071149Y-86456518D01*
X85074899Y-86448848D01*
X85090220Y-86417509D01*
X85100500Y-86346949D01*
X85100499Y-86153052D01*
X85092089Y-86095318D01*
X85090221Y-86082495D01*
X85090218Y-86082485D01*
X85071149Y-86043480D01*
X85062577Y-85982898D01*
X85071149Y-85956518D01*
X85071798Y-85955191D01*
X85090220Y-85917509D01*
X85100500Y-85846949D01*
X85100499Y-85653052D01*
X85093498Y-85604995D01*
X85090221Y-85582495D01*
X85090218Y-85582485D01*
X85071149Y-85543480D01*
X85062577Y-85482898D01*
X85071149Y-85456518D01*
X85079327Y-85439790D01*
X85090220Y-85417509D01*
X85100500Y-85346949D01*
X85100499Y-85153052D01*
X85094415Y-85111290D01*
X85090221Y-85082495D01*
X85090218Y-85082485D01*
X85071149Y-85043480D01*
X85062577Y-84982898D01*
X85071149Y-84956518D01*
X85076334Y-84945912D01*
X85090220Y-84917509D01*
X85100500Y-84846949D01*
X85100499Y-84653052D01*
X85094517Y-84611985D01*
X85090221Y-84582495D01*
X85090218Y-84582485D01*
X85071149Y-84543480D01*
X85062577Y-84482898D01*
X85065705Y-84470122D01*
X85067920Y-84463121D01*
X85090220Y-84417509D01*
X85096922Y-84371505D01*
X85099345Y-84363852D01*
X85112695Y-84345179D01*
X85122862Y-84324600D01*
X85130145Y-84320774D01*
X85134932Y-84314080D01*
X85156709Y-84306821D01*
X85177029Y-84296148D01*
X85179459Y-84295763D01*
X85217504Y-84290221D01*
X85217505Y-84290220D01*
X85217509Y-84290220D01*
X85256519Y-84271148D01*
X85317100Y-84262577D01*
X85343475Y-84271146D01*
X85382491Y-84290220D01*
X85453051Y-84300500D01*
X85646948Y-84300499D01*
X85694542Y-84293565D01*
X85717504Y-84290221D01*
X85717505Y-84290220D01*
X85717509Y-84290220D01*
X85756519Y-84271148D01*
X85817100Y-84262577D01*
X85843475Y-84271146D01*
X85882491Y-84290220D01*
X85953051Y-84300500D01*
X86146948Y-84300499D01*
X86194542Y-84293565D01*
X86217504Y-84290221D01*
X86217505Y-84290220D01*
X86217509Y-84290220D01*
X86256519Y-84271148D01*
X86317100Y-84262577D01*
X86343475Y-84271146D01*
X86382491Y-84290220D01*
X86453051Y-84300500D01*
X86646948Y-84300499D01*
X86694542Y-84293565D01*
X86717504Y-84290221D01*
X86717505Y-84290220D01*
X86717509Y-84290220D01*
X86756519Y-84271148D01*
X86817100Y-84262577D01*
X86843475Y-84271146D01*
X86882491Y-84290220D01*
X86953051Y-84300500D01*
X87146948Y-84300499D01*
X87194542Y-84293565D01*
X87217504Y-84290221D01*
X87217505Y-84290220D01*
X87217509Y-84290220D01*
X87256519Y-84271148D01*
X87317100Y-84262577D01*
X87343475Y-84271146D01*
X87382491Y-84290220D01*
X87453051Y-84300500D01*
X87646948Y-84300499D01*
X87694542Y-84293565D01*
X87717504Y-84290221D01*
X87717505Y-84290220D01*
X87717509Y-84290220D01*
X87756519Y-84271148D01*
X87817100Y-84262577D01*
X87843475Y-84271146D01*
X87882491Y-84290220D01*
X87953051Y-84300500D01*
X88146948Y-84300499D01*
X88194542Y-84293565D01*
X88217504Y-84290221D01*
X88217505Y-84290220D01*
X88217509Y-84290220D01*
X88256519Y-84271148D01*
X88317100Y-84262577D01*
X88343475Y-84271146D01*
X88382491Y-84290220D01*
X88453051Y-84300500D01*
X88646948Y-84300499D01*
X88694542Y-84293565D01*
X88717504Y-84290221D01*
X88717505Y-84290220D01*
X88717509Y-84290220D01*
X88756519Y-84271148D01*
X88817100Y-84262577D01*
X88843475Y-84271146D01*
X88882491Y-84290220D01*
X88953051Y-84300500D01*
X89146948Y-84300499D01*
X89194542Y-84293565D01*
X89217504Y-84290221D01*
X89217505Y-84290220D01*
X89217509Y-84290220D01*
X89256519Y-84271148D01*
X89317100Y-84262577D01*
X89343475Y-84271146D01*
X89382491Y-84290220D01*
X89453051Y-84300500D01*
X89646948Y-84300499D01*
X89694542Y-84293565D01*
X89717504Y-84290221D01*
X89717505Y-84290220D01*
X89717509Y-84290220D01*
X89756519Y-84271148D01*
X89817100Y-84262577D01*
X89843475Y-84271146D01*
X89882491Y-84290220D01*
X89953051Y-84300500D01*
X90146948Y-84300499D01*
X90194542Y-84293565D01*
X90217504Y-84290221D01*
X90217505Y-84290220D01*
X90217509Y-84290220D01*
X90256519Y-84271148D01*
X90317100Y-84262577D01*
X90343475Y-84271146D01*
X90382491Y-84290220D01*
X90453051Y-84300500D01*
X90646948Y-84300499D01*
X90687470Y-84294595D01*
X90717505Y-84290221D01*
X90717506Y-84290220D01*
X90717509Y-84290220D01*
X90757091Y-84270869D01*
X90817668Y-84262298D01*
X90844051Y-84270870D01*
X90882632Y-84289732D01*
X90882637Y-84289733D01*
X90925000Y-84295905D01*
X90925000Y-84147682D01*
X90929845Y-84132770D01*
X90929845Y-84117089D01*
X90935054Y-84104213D01*
X90961061Y-84051015D01*
X91003601Y-84007045D01*
X91063866Y-83996475D01*
X91118835Y-84023347D01*
G37*
%TD.AperFunction*%
%TA.AperFunction,Conductor*%
G36*
X80777524Y-82594407D02*
G01*
X80813488Y-82643907D01*
X80813488Y-82705093D01*
X80779152Y-82753384D01*
X80750282Y-82775276D01*
X80750276Y-82775282D01*
X80663077Y-82890270D01*
X80610132Y-83024531D01*
X80600000Y-83108895D01*
X80600000Y-83249999D01*
X80600001Y-83250000D01*
X81251000Y-83250000D01*
X81309191Y-83268907D01*
X81345155Y-83318407D01*
X81350000Y-83349000D01*
X81350000Y-83399999D01*
X81350001Y-83400000D01*
X81401000Y-83400000D01*
X81459191Y-83418907D01*
X81495155Y-83468407D01*
X81500000Y-83499000D01*
X81500000Y-84192317D01*
X81509787Y-84211526D01*
X81508451Y-84219960D01*
X81511000Y-84228111D01*
X81503856Y-84248968D01*
X81500216Y-84271958D01*
X81491449Y-84286088D01*
X81491171Y-84286461D01*
X81412636Y-84390025D01*
X81410916Y-84394386D01*
X81404153Y-84403481D01*
X81384093Y-84417717D01*
X81366002Y-84434384D01*
X81359551Y-84435136D01*
X81354257Y-84438894D01*
X81329659Y-84438621D01*
X81305229Y-84441470D01*
X81299569Y-84438287D01*
X81293075Y-84438216D01*
X81273335Y-84423536D01*
X81251896Y-84411482D01*
X81245752Y-84403025D01*
X81243977Y-84401705D01*
X81243360Y-84399732D01*
X81238414Y-84392924D01*
X81236922Y-84390270D01*
X81180317Y-84315626D01*
X81160221Y-84257835D01*
X81177932Y-84199269D01*
X81189197Y-84185802D01*
X81200000Y-84174999D01*
X81200000Y-83550001D01*
X81199999Y-83550000D01*
X80600001Y-83550000D01*
X80600000Y-83550001D01*
X80600000Y-83691104D01*
X80610132Y-83775468D01*
X80663077Y-83909727D01*
X80719683Y-83984373D01*
X80739778Y-84042165D01*
X80722067Y-84100730D01*
X80710803Y-84114196D01*
X80700000Y-84124999D01*
X80700000Y-85674999D01*
X80717497Y-85692496D01*
X80745274Y-85747013D01*
X80735703Y-85807445D01*
X80725000Y-85822176D01*
X80725000Y-87226432D01*
X80730244Y-87243766D01*
X80738781Y-87260520D01*
X80737589Y-87268041D01*
X80740000Y-87276007D01*
X80740000Y-88001000D01*
X80721093Y-88059191D01*
X80671593Y-88095155D01*
X80641000Y-88100000D01*
X80539000Y-88100000D01*
X80480809Y-88081093D01*
X80444845Y-88031593D01*
X80440000Y-88001000D01*
X80440000Y-87473150D01*
X80435867Y-87458415D01*
X80426219Y-87439480D01*
X80425000Y-87423993D01*
X80425000Y-85987258D01*
X80428373Y-85961635D01*
X80438155Y-85925128D01*
X80450500Y-85879057D01*
X80450500Y-85720943D01*
X80409577Y-85568216D01*
X80409575Y-85568212D01*
X80407533Y-85563281D01*
X80400000Y-85525402D01*
X80400000Y-85050001D01*
X80399999Y-85050000D01*
X79800001Y-85050000D01*
X79800000Y-85050001D01*
X79800000Y-85115748D01*
X79781093Y-85173939D01*
X79731593Y-85209903D01*
X79726624Y-85211374D01*
X79618219Y-85240421D01*
X79618215Y-85240423D01*
X79523999Y-85294818D01*
X79464151Y-85307539D01*
X79408255Y-85282652D01*
X79377663Y-85229663D01*
X79375500Y-85209081D01*
X79375500Y-84608895D01*
X79800000Y-84608895D01*
X79800000Y-84749999D01*
X79800001Y-84750000D01*
X80399999Y-84750000D01*
X80400000Y-84749999D01*
X80400000Y-84125001D01*
X80399999Y-84125000D01*
X80283895Y-84125000D01*
X80199531Y-84135132D01*
X80065270Y-84188077D01*
X79950282Y-84275276D01*
X79950276Y-84275282D01*
X79863077Y-84390270D01*
X79810132Y-84524531D01*
X79800000Y-84608895D01*
X79375500Y-84608895D01*
X79375500Y-83350098D01*
X79394407Y-83291907D01*
X79404496Y-83280094D01*
X80080094Y-82604496D01*
X80134611Y-82576719D01*
X80150098Y-82575500D01*
X80719333Y-82575500D01*
X80777524Y-82594407D01*
G37*
%TD.AperFunction*%
%TA.AperFunction,Conductor*%
G36*
X72845945Y-87235939D02*
G01*
X72889210Y-87279204D01*
X72900000Y-87324149D01*
X72900000Y-87349999D01*
X72900001Y-87350000D01*
X74824998Y-87350000D01*
X74824999Y-87349999D01*
X74824999Y-87347368D01*
X74843906Y-87289177D01*
X74893406Y-87253213D01*
X74954592Y-87253213D01*
X74994003Y-87277364D01*
X75130119Y-87413480D01*
X75157896Y-87467997D01*
X75148325Y-87528429D01*
X75130119Y-87553488D01*
X74994004Y-87689603D01*
X74939487Y-87717380D01*
X74879055Y-87707809D01*
X74835790Y-87664544D01*
X74834604Y-87659605D01*
X74824999Y-87650000D01*
X72900002Y-87650000D01*
X72900001Y-87650001D01*
X72900001Y-87675851D01*
X72881094Y-87734042D01*
X72831594Y-87770006D01*
X72770408Y-87770006D01*
X72730997Y-87745855D01*
X72555145Y-87570003D01*
X72527368Y-87515486D01*
X72536939Y-87455054D01*
X72555143Y-87429998D01*
X72730997Y-87254145D01*
X72785513Y-87226368D01*
X72845945Y-87235939D01*
G37*
%TD.AperFunction*%
%TA.AperFunction,Conductor*%
G36*
X81422517Y-87088510D02*
G01*
X81436006Y-87107075D01*
X81437634Y-87109970D01*
X81437636Y-87109975D01*
X81524922Y-87225078D01*
X81524925Y-87225080D01*
X81524926Y-87225081D01*
X81593132Y-87276804D01*
X81628074Y-87327030D01*
X81626820Y-87388203D01*
X81593133Y-87434570D01*
X81539924Y-87474920D01*
X81539922Y-87474922D01*
X81458350Y-87582491D01*
X81452634Y-87590028D01*
X81451004Y-87592928D01*
X81449118Y-87594665D01*
X81448545Y-87595421D01*
X81448409Y-87595318D01*
X81406002Y-87634384D01*
X81345229Y-87641470D01*
X81291896Y-87611482D01*
X81278414Y-87592924D01*
X81276922Y-87590271D01*
X81189723Y-87475282D01*
X81189716Y-87475275D01*
X81121039Y-87423195D01*
X81086097Y-87372969D01*
X81087351Y-87311796D01*
X81121040Y-87265428D01*
X81174717Y-87224723D01*
X81174723Y-87224717D01*
X81261922Y-87109729D01*
X81263412Y-87107079D01*
X81265137Y-87105489D01*
X81266015Y-87104332D01*
X81266222Y-87104489D01*
X81308409Y-87065620D01*
X81369182Y-87058527D01*
X81422517Y-87088510D01*
G37*
%TD.AperFunction*%
%TA.AperFunction,Conductor*%
G36*
X97584290Y-82644407D02*
G01*
X97596103Y-82654496D01*
X99072103Y-84130496D01*
X99099880Y-84185013D01*
X99090309Y-84245445D01*
X99047044Y-84288710D01*
X99002099Y-84299500D01*
X97656108Y-84299500D01*
X97597917Y-84280593D01*
X97563350Y-84235098D01*
X97543796Y-84182669D01*
X97540791Y-84178655D01*
X97457549Y-84067458D01*
X97457548Y-84067457D01*
X97457546Y-84067454D01*
X97400939Y-84025078D01*
X97393989Y-84019875D01*
X97358737Y-83969866D01*
X97359611Y-83908687D01*
X97367583Y-83891121D01*
X97368293Y-83889892D01*
X97412984Y-83812485D01*
X97450500Y-83672475D01*
X97450500Y-83527525D01*
X97412984Y-83387515D01*
X97412982Y-83387512D01*
X97412982Y-83387510D01*
X97340512Y-83261989D01*
X97340510Y-83261987D01*
X97340509Y-83261985D01*
X97238015Y-83159491D01*
X97238012Y-83159489D01*
X97238010Y-83159487D01*
X97112488Y-83087017D01*
X97112489Y-83087017D01*
X97059983Y-83072948D01*
X96972475Y-83049500D01*
X96827525Y-83049500D01*
X96765790Y-83066041D01*
X96687510Y-83087017D01*
X96561989Y-83159487D01*
X96459487Y-83261989D01*
X96387017Y-83387510D01*
X96367061Y-83461988D01*
X96349500Y-83527525D01*
X96349500Y-83672475D01*
X96377097Y-83775468D01*
X96387017Y-83812487D01*
X96401045Y-83836784D01*
X96421651Y-83872475D01*
X96432417Y-83891121D01*
X96445139Y-83950970D01*
X96420253Y-84006865D01*
X96406011Y-84019875D01*
X96342455Y-84067453D01*
X96342450Y-84067458D01*
X96256202Y-84182670D01*
X96205910Y-84317511D01*
X96205908Y-84317522D01*
X96202470Y-84349500D01*
X96199511Y-84377030D01*
X96199500Y-84377129D01*
X96199500Y-84844099D01*
X96192336Y-84866146D01*
X96188710Y-84889044D01*
X96183061Y-84894692D01*
X96180593Y-84902290D01*
X96161836Y-84915917D01*
X96145445Y-84932309D01*
X96137555Y-84933558D01*
X96131093Y-84938254D01*
X96107908Y-84938254D01*
X96085013Y-84941880D01*
X96077896Y-84938254D01*
X96069907Y-84938254D01*
X96030496Y-84914103D01*
X95979495Y-84863102D01*
X95951718Y-84808585D01*
X95950499Y-84793098D01*
X95950499Y-84377133D01*
X95950499Y-84377128D01*
X95944091Y-84317517D01*
X95942206Y-84312463D01*
X95893797Y-84182670D01*
X95807549Y-84067458D01*
X95807548Y-84067457D01*
X95807546Y-84067454D01*
X95774224Y-84042509D01*
X95692329Y-83981202D01*
X95557488Y-83930910D01*
X95557483Y-83930909D01*
X95557481Y-83930908D01*
X95557477Y-83930908D01*
X95526249Y-83927550D01*
X95497873Y-83924500D01*
X95497870Y-83924500D01*
X95080897Y-83924500D01*
X95022706Y-83905593D01*
X94986742Y-83856093D01*
X94986742Y-83794907D01*
X95010891Y-83755500D01*
X95336896Y-83429494D01*
X95391412Y-83401718D01*
X95406899Y-83400499D01*
X95822867Y-83400499D01*
X95822872Y-83400499D01*
X95882483Y-83394091D01*
X95949907Y-83368943D01*
X96017329Y-83343797D01*
X96017329Y-83343796D01*
X96017331Y-83343796D01*
X96132546Y-83257546D01*
X96218796Y-83142331D01*
X96231282Y-83108856D01*
X96258815Y-83035034D01*
X96269091Y-83007483D01*
X96275500Y-82947873D01*
X96275499Y-82724499D01*
X96294406Y-82666310D01*
X96343906Y-82630346D01*
X96374499Y-82625500D01*
X97526099Y-82625500D01*
X97584290Y-82644407D01*
G37*
%TD.AperFunction*%
%TA.AperFunction,Conductor*%
G36*
X96051290Y-76119407D02*
G01*
X96063103Y-76129496D01*
X96770504Y-76836896D01*
X96798281Y-76891413D01*
X96799500Y-76906900D01*
X96799500Y-77237589D01*
X96780593Y-77295780D01*
X96736819Y-77329686D01*
X96686869Y-77349383D01*
X96573136Y-77435630D01*
X96573130Y-77435636D01*
X96486886Y-77549366D01*
X96486883Y-77549370D01*
X96434521Y-77682151D01*
X96424500Y-77765595D01*
X96424500Y-78284404D01*
X96434521Y-78367848D01*
X96486883Y-78500629D01*
X96486884Y-78500631D01*
X96486885Y-78500632D01*
X96573133Y-78614367D01*
X96686868Y-78700615D01*
X96686869Y-78700615D01*
X96686870Y-78700616D01*
X96737046Y-78720403D01*
X96784243Y-78759339D01*
X96799540Y-78818582D01*
X96777094Y-78875501D01*
X96737046Y-78904597D01*
X96686870Y-78924383D01*
X96686866Y-78924386D01*
X96573136Y-79010630D01*
X96573130Y-79010636D01*
X96486886Y-79124366D01*
X96486883Y-79124370D01*
X96434521Y-79257151D01*
X96424500Y-79340595D01*
X96424500Y-79768098D01*
X96405593Y-79826289D01*
X96395503Y-79838102D01*
X95911652Y-80321952D01*
X95857136Y-80349729D01*
X95831069Y-80350381D01*
X95825003Y-80349729D01*
X95822873Y-80349500D01*
X95822872Y-80349500D01*
X95177133Y-80349500D01*
X95177129Y-80349500D01*
X95177128Y-80349501D01*
X95169949Y-80350272D01*
X95117519Y-80355908D01*
X95117514Y-80355909D01*
X94982670Y-80406202D01*
X94867458Y-80492450D01*
X94867450Y-80492458D01*
X94779587Y-80609829D01*
X94729579Y-80645082D01*
X94700334Y-80649500D01*
X94502727Y-80649500D01*
X94397273Y-80649500D01*
X94354350Y-80661001D01*
X94295407Y-80676794D01*
X94204091Y-80729516D01*
X94204086Y-80729520D01*
X93863101Y-81070504D01*
X93808585Y-81098281D01*
X93793098Y-81099500D01*
X93377133Y-81099500D01*
X93377129Y-81099500D01*
X93377128Y-81099501D01*
X93369949Y-81100272D01*
X93317519Y-81105908D01*
X93317514Y-81105909D01*
X93182670Y-81156202D01*
X93067458Y-81242450D01*
X93067450Y-81242458D01*
X92981202Y-81357670D01*
X92930910Y-81492511D01*
X92930908Y-81492522D01*
X92924500Y-81552129D01*
X92924500Y-82047866D01*
X92924501Y-82047870D01*
X92930908Y-82107480D01*
X92930909Y-82107485D01*
X92981202Y-82242329D01*
X93067450Y-82357541D01*
X93067454Y-82357546D01*
X93067457Y-82357548D01*
X93067458Y-82357549D01*
X93182670Y-82443797D01*
X93317511Y-82494089D01*
X93317512Y-82494089D01*
X93317517Y-82494091D01*
X93377127Y-82500500D01*
X93844099Y-82500499D01*
X93866146Y-82507662D01*
X93889044Y-82511289D01*
X93894692Y-82516937D01*
X93902290Y-82519406D01*
X93915917Y-82538162D01*
X93932309Y-82554554D01*
X93933558Y-82562443D01*
X93938254Y-82568906D01*
X93938254Y-82592091D01*
X93941880Y-82614986D01*
X93938254Y-82622102D01*
X93938254Y-82630091D01*
X93914103Y-82669503D01*
X93863102Y-82720504D01*
X93808585Y-82748281D01*
X93793098Y-82749500D01*
X93377133Y-82749500D01*
X93377129Y-82749500D01*
X93377128Y-82749501D01*
X93369949Y-82750272D01*
X93317519Y-82755908D01*
X93317514Y-82755909D01*
X93182670Y-82806202D01*
X93067458Y-82892450D01*
X93067450Y-82892458D01*
X92981202Y-83007670D01*
X92930910Y-83142511D01*
X92930908Y-83142522D01*
X92924500Y-83202129D01*
X92924500Y-83411194D01*
X92905593Y-83469385D01*
X92856093Y-83505349D01*
X92794907Y-83505349D01*
X92745407Y-83469385D01*
X92741112Y-83462771D01*
X92740511Y-83461988D01*
X92740510Y-83461987D01*
X92740509Y-83461985D01*
X92638015Y-83359491D01*
X92638012Y-83359489D01*
X92638010Y-83359487D01*
X92512488Y-83287017D01*
X92512489Y-83287017D01*
X92422730Y-83262966D01*
X92372475Y-83249500D01*
X92227525Y-83249500D01*
X92100122Y-83283638D01*
X92039021Y-83280436D01*
X91991471Y-83241930D01*
X91976707Y-83203432D01*
X91975499Y-83195771D01*
X91975499Y-83153052D01*
X91965220Y-83082491D01*
X91954025Y-83059590D01*
X91951708Y-83044897D01*
X91952669Y-83038853D01*
X91950500Y-83029476D01*
X91950500Y-82410714D01*
X91950501Y-82410701D01*
X91950501Y-82297275D01*
X91950501Y-82297273D01*
X91923207Y-82195412D01*
X91920202Y-82190208D01*
X91895413Y-82147273D01*
X91895412Y-82147272D01*
X91870480Y-82104087D01*
X91835402Y-82069009D01*
X91795913Y-82029519D01*
X91795913Y-82029520D01*
X91724074Y-81957681D01*
X91698452Y-81913303D01*
X91659577Y-81768216D01*
X91580520Y-81631284D01*
X91468716Y-81519480D01*
X91468713Y-81519478D01*
X91335451Y-81442539D01*
X91294510Y-81397070D01*
X91288114Y-81336220D01*
X91314945Y-81286801D01*
X92140485Y-80461263D01*
X92196503Y-80364237D01*
X92196504Y-80364231D01*
X92198985Y-80358245D01*
X92200911Y-80359042D01*
X92229093Y-80315638D01*
X92286212Y-80293706D01*
X92345314Y-80309536D01*
X92351223Y-80313687D01*
X92377902Y-80333918D01*
X92518556Y-80389386D01*
X92606935Y-80399999D01*
X92606942Y-80400000D01*
X92949999Y-80400000D01*
X92950000Y-80399999D01*
X92950000Y-79599000D01*
X92954845Y-79584088D01*
X92954845Y-79568407D01*
X92964061Y-79555721D01*
X92968907Y-79540809D01*
X92981592Y-79531592D01*
X92990809Y-79518907D01*
X93005721Y-79514061D01*
X93018407Y-79504845D01*
X93049000Y-79500000D01*
X93151000Y-79500000D01*
X93209191Y-79518907D01*
X93245155Y-79568407D01*
X93250000Y-79599000D01*
X93250000Y-80399999D01*
X93250001Y-80400000D01*
X93593058Y-80400000D01*
X93593064Y-80399999D01*
X93681443Y-80389386D01*
X93822095Y-80333919D01*
X93942564Y-80242564D01*
X94033919Y-80122095D01*
X94089385Y-79981443D01*
X94094898Y-79935544D01*
X94120609Y-79880023D01*
X94174044Y-79850217D01*
X94234793Y-79857513D01*
X94272076Y-79887529D01*
X94300276Y-79924717D01*
X94300282Y-79924723D01*
X94415270Y-80011922D01*
X94549531Y-80064867D01*
X94633895Y-80074999D01*
X94633900Y-80075000D01*
X94774999Y-80075000D01*
X94775000Y-80074999D01*
X94775000Y-79475001D01*
X95075000Y-79475001D01*
X95075000Y-80074999D01*
X95075001Y-80075000D01*
X95216100Y-80075000D01*
X95216104Y-80074999D01*
X95300468Y-80064867D01*
X95434729Y-80011922D01*
X95549717Y-79924723D01*
X95549723Y-79924717D01*
X95636922Y-79809729D01*
X95689867Y-79675468D01*
X95699999Y-79591104D01*
X95700000Y-79591100D01*
X95700000Y-79475001D01*
X95699999Y-79475000D01*
X95075001Y-79475000D01*
X95075000Y-79475001D01*
X94775000Y-79475001D01*
X94775000Y-79424000D01*
X94793907Y-79365809D01*
X94843407Y-79329845D01*
X94874000Y-79325000D01*
X94924999Y-79325000D01*
X94925000Y-79324999D01*
X94925000Y-79274000D01*
X94943907Y-79215809D01*
X94993407Y-79179845D01*
X95024000Y-79175000D01*
X95699999Y-79175000D01*
X95700000Y-79174999D01*
X95700000Y-79058899D01*
X95699999Y-79058895D01*
X95689867Y-78974531D01*
X95636922Y-78840270D01*
X95549723Y-78725282D01*
X95549717Y-78725276D01*
X95434725Y-78638074D01*
X95432072Y-78636583D01*
X95430482Y-78634857D01*
X95429332Y-78633985D01*
X95429488Y-78633778D01*
X95390616Y-78591582D01*
X95383529Y-78530809D01*
X95413516Y-78477476D01*
X95432082Y-78463989D01*
X95434966Y-78462367D01*
X95434975Y-78462364D01*
X95550078Y-78375078D01*
X95637364Y-78259975D01*
X95690359Y-78125590D01*
X95700500Y-78041144D01*
X95700500Y-77508856D01*
X95690359Y-77424410D01*
X95647321Y-77315274D01*
X95637365Y-77290027D01*
X95637364Y-77290026D01*
X95637364Y-77290025D01*
X95550078Y-77174922D01*
X95434975Y-77087636D01*
X95434974Y-77087635D01*
X95434972Y-77087634D01*
X95300591Y-77034641D01*
X95216148Y-77024500D01*
X95216144Y-77024500D01*
X94633856Y-77024500D01*
X94633851Y-77024500D01*
X94549408Y-77034641D01*
X94415027Y-77087634D01*
X94299922Y-77174922D01*
X94299917Y-77174927D01*
X94299782Y-77175106D01*
X94299640Y-77175204D01*
X94295135Y-77179710D01*
X94294325Y-77178900D01*
X94277486Y-77190612D01*
X94256383Y-77207701D01*
X94252633Y-77207897D01*
X94249551Y-77210041D01*
X94195282Y-77210902D01*
X94162531Y-77202126D01*
X94111217Y-77168802D01*
X94092414Y-77124342D01*
X94091433Y-77124590D01*
X94089877Y-77118437D01*
X94087763Y-77113077D01*
X94040966Y-76994407D01*
X94034362Y-76977660D01*
X94034361Y-76977659D01*
X94034361Y-76977658D01*
X93942922Y-76857078D01*
X93822342Y-76765639D01*
X93822341Y-76765638D01*
X93822339Y-76765637D01*
X93681565Y-76710123D01*
X93593106Y-76699500D01*
X93593102Y-76699500D01*
X92606898Y-76699500D01*
X92606893Y-76699500D01*
X92518434Y-76710123D01*
X92377660Y-76765637D01*
X92377656Y-76765640D01*
X92257081Y-76857075D01*
X92257075Y-76857081D01*
X92165640Y-76977656D01*
X92165637Y-76977660D01*
X92110123Y-77118434D01*
X92099500Y-77206893D01*
X92099500Y-77957743D01*
X92080593Y-78015934D01*
X92070503Y-78027747D01*
X91813072Y-78285177D01*
X91758556Y-78312954D01*
X91698124Y-78303383D01*
X91654859Y-78260118D01*
X91645288Y-78199686D01*
X91650972Y-78178853D01*
X91689385Y-78081445D01*
X91699999Y-77993064D01*
X91700000Y-77993058D01*
X91700000Y-77750001D01*
X91699999Y-77750000D01*
X90799000Y-77750000D01*
X90740809Y-77731093D01*
X90704845Y-77681593D01*
X90700000Y-77651000D01*
X90700000Y-77600001D01*
X90699999Y-77600000D01*
X90649000Y-77600000D01*
X90590809Y-77581093D01*
X90554845Y-77531593D01*
X90550000Y-77501000D01*
X90550000Y-76700001D01*
X90850000Y-76700001D01*
X90850000Y-77449999D01*
X90850001Y-77450000D01*
X91699999Y-77450000D01*
X91700000Y-77449999D01*
X91700000Y-77206941D01*
X91699999Y-77206935D01*
X91689386Y-77118556D01*
X91633919Y-76977904D01*
X91542564Y-76857435D01*
X91422095Y-76766080D01*
X91281443Y-76710613D01*
X91193064Y-76700000D01*
X90850001Y-76700000D01*
X90850000Y-76700001D01*
X90550000Y-76700001D01*
X90549999Y-76700000D01*
X90206935Y-76700000D01*
X90118556Y-76710613D01*
X89977904Y-76766080D01*
X89857435Y-76857435D01*
X89766080Y-76977904D01*
X89710613Y-77118556D01*
X89700000Y-77206935D01*
X89700000Y-77271699D01*
X89681093Y-77329890D01*
X89631593Y-77365854D01*
X89570407Y-77365854D01*
X89520907Y-77329890D01*
X89514707Y-77320222D01*
X89511925Y-77315274D01*
X89424723Y-77200282D01*
X89424717Y-77200276D01*
X89309729Y-77113077D01*
X89175468Y-77060132D01*
X89091104Y-77050000D01*
X88950001Y-77050000D01*
X88950000Y-77050001D01*
X88950000Y-77701000D01*
X88931093Y-77759191D01*
X88881593Y-77795155D01*
X88851000Y-77800000D01*
X88800001Y-77800000D01*
X88800000Y-77800001D01*
X88800000Y-77851000D01*
X88781093Y-77909191D01*
X88731593Y-77945155D01*
X88701000Y-77950000D01*
X88025001Y-77950000D01*
X88025000Y-77950001D01*
X88025000Y-78066104D01*
X88035132Y-78150468D01*
X88088077Y-78284729D01*
X88175276Y-78399717D01*
X88175282Y-78399723D01*
X88290271Y-78486922D01*
X88292924Y-78488414D01*
X88294514Y-78490139D01*
X88295668Y-78491015D01*
X88295511Y-78491222D01*
X88334381Y-78533413D01*
X88341471Y-78594187D01*
X88311485Y-78647520D01*
X88292928Y-78661004D01*
X88290028Y-78662634D01*
X88290025Y-78662635D01*
X88290025Y-78662636D01*
X88188006Y-78740000D01*
X88174922Y-78749922D01*
X88087635Y-78865026D01*
X88042043Y-78980638D01*
X88003106Y-79027835D01*
X87943864Y-79043131D01*
X87886944Y-79020684D01*
X87871062Y-79004137D01*
X87784723Y-78890282D01*
X87784717Y-78890276D01*
X87669729Y-78803077D01*
X87535468Y-78750132D01*
X87451104Y-78740000D01*
X87310001Y-78740000D01*
X87310000Y-78740001D01*
X87310000Y-79391000D01*
X87305155Y-79405911D01*
X87305155Y-79421593D01*
X87295938Y-79434278D01*
X87291093Y-79449191D01*
X87278407Y-79458407D01*
X87269191Y-79471093D01*
X87254278Y-79475938D01*
X87241593Y-79485155D01*
X87211000Y-79490000D01*
X87109000Y-79490000D01*
X87050809Y-79471093D01*
X87014845Y-79421593D01*
X87010000Y-79391000D01*
X87010000Y-78740001D01*
X87009999Y-78740000D01*
X86868895Y-78740000D01*
X86784531Y-78750132D01*
X86650270Y-78803077D01*
X86535282Y-78890276D01*
X86535275Y-78890283D01*
X86452883Y-78998933D01*
X86402657Y-79033875D01*
X86341484Y-79032621D01*
X86292732Y-78995650D01*
X86275000Y-78939113D01*
X86275000Y-78833899D01*
X86274999Y-78833895D01*
X86264867Y-78749528D01*
X86211922Y-78615270D01*
X86124723Y-78500282D01*
X86124717Y-78500276D01*
X86009729Y-78413077D01*
X85875468Y-78360132D01*
X85791104Y-78350000D01*
X85650001Y-78350000D01*
X85650000Y-78350001D01*
X85650000Y-79001000D01*
X85631093Y-79059191D01*
X85581593Y-79095155D01*
X85551000Y-79100000D01*
X85500001Y-79100000D01*
X85500000Y-79100001D01*
X85500000Y-79151000D01*
X85481093Y-79209191D01*
X85431593Y-79245155D01*
X85401000Y-79250000D01*
X84725001Y-79250000D01*
X84725000Y-79250001D01*
X84725000Y-79350500D01*
X84720155Y-79365411D01*
X84720155Y-79381093D01*
X84710938Y-79393778D01*
X84706093Y-79408691D01*
X84693407Y-79417907D01*
X84684191Y-79430593D01*
X84669278Y-79435438D01*
X84656593Y-79444655D01*
X84626000Y-79449500D01*
X84558175Y-79449500D01*
X84499984Y-79430593D01*
X84464020Y-79381093D01*
X84464020Y-79319907D01*
X84465417Y-79315902D01*
X84468597Y-79307374D01*
X84468598Y-79307370D01*
X84475000Y-79247824D01*
X84475000Y-79150001D01*
X84474999Y-79150000D01*
X82925001Y-79150000D01*
X82925000Y-79150001D01*
X82925000Y-79247824D01*
X82924999Y-79247824D01*
X82931401Y-79307370D01*
X82931402Y-79307374D01*
X82934583Y-79315902D01*
X82937204Y-79377031D01*
X82903393Y-79428026D01*
X82846066Y-79449409D01*
X82841825Y-79449500D01*
X81519031Y-79449500D01*
X81460840Y-79430593D01*
X81449033Y-79420509D01*
X81438015Y-79409491D01*
X81438012Y-79409489D01*
X81438010Y-79409487D01*
X81312488Y-79337017D01*
X81312489Y-79337017D01*
X81233687Y-79315902D01*
X81172475Y-79299500D01*
X81027525Y-79299500D01*
X80981304Y-79311885D01*
X80887510Y-79337017D01*
X80761989Y-79409487D01*
X80659487Y-79511989D01*
X80587017Y-79637510D01*
X80549500Y-79777525D01*
X80549500Y-79900500D01*
X80530593Y-79958691D01*
X80481093Y-79994655D01*
X80450500Y-79999500D01*
X78699500Y-79999500D01*
X78684588Y-79994655D01*
X78668907Y-79994655D01*
X78656221Y-79985438D01*
X78641309Y-79980593D01*
X78632092Y-79967907D01*
X78619407Y-79958691D01*
X78614561Y-79943778D01*
X78605345Y-79931093D01*
X78600500Y-79900500D01*
X78600500Y-79706900D01*
X78619407Y-79648709D01*
X78629496Y-79636896D01*
X79514217Y-78752175D01*
X82925000Y-78752175D01*
X82925000Y-78849999D01*
X82925001Y-78850000D01*
X83549999Y-78850000D01*
X83550000Y-78849999D01*
X83550000Y-78300001D01*
X83850000Y-78300001D01*
X83850000Y-78849999D01*
X83850001Y-78850000D01*
X84474999Y-78850000D01*
X84475000Y-78849999D01*
X84475000Y-78833895D01*
X84725000Y-78833895D01*
X84725000Y-78949999D01*
X84725001Y-78950000D01*
X85349999Y-78950000D01*
X85350000Y-78949999D01*
X85350000Y-78350001D01*
X85349999Y-78350000D01*
X85208895Y-78350000D01*
X85124531Y-78360132D01*
X84990270Y-78413077D01*
X84875282Y-78500276D01*
X84875276Y-78500282D01*
X84788077Y-78615270D01*
X84735133Y-78749528D01*
X84725000Y-78833895D01*
X84475000Y-78833895D01*
X84475000Y-78752175D01*
X84468598Y-78692629D01*
X84468596Y-78692618D01*
X84418353Y-78557911D01*
X84418352Y-78557909D01*
X84332192Y-78442815D01*
X84332184Y-78442807D01*
X84217090Y-78356647D01*
X84217088Y-78356646D01*
X84082381Y-78306403D01*
X84082370Y-78306401D01*
X84022824Y-78300000D01*
X83850001Y-78300000D01*
X83850000Y-78300001D01*
X83550000Y-78300001D01*
X83549999Y-78300000D01*
X83377176Y-78300000D01*
X83317629Y-78306401D01*
X83317618Y-78306403D01*
X83182911Y-78356646D01*
X83182909Y-78356647D01*
X83067815Y-78442807D01*
X83067807Y-78442815D01*
X82981647Y-78557909D01*
X82981646Y-78557911D01*
X82931403Y-78692618D01*
X82931401Y-78692629D01*
X82925000Y-78752175D01*
X79514217Y-78752175D01*
X80732497Y-77533895D01*
X88025000Y-77533895D01*
X88025000Y-77649999D01*
X88025001Y-77650000D01*
X88649999Y-77650000D01*
X88650000Y-77649999D01*
X88650000Y-77050001D01*
X88649999Y-77050000D01*
X88508895Y-77050000D01*
X88424531Y-77060132D01*
X88290270Y-77113077D01*
X88175282Y-77200276D01*
X88175276Y-77200282D01*
X88088077Y-77315270D01*
X88035132Y-77449531D01*
X88025000Y-77533895D01*
X80732497Y-77533895D01*
X82136896Y-76129496D01*
X82191413Y-76101719D01*
X82206900Y-76100500D01*
X95993099Y-76100500D01*
X96051290Y-76119407D01*
G37*
%TD.AperFunction*%
%TA.AperFunction,Conductor*%
G36*
X91108691Y-82619407D02*
G01*
X91144655Y-82668907D01*
X91149500Y-82699500D01*
X91149500Y-83029476D01*
X91139445Y-83072948D01*
X91138945Y-83073971D01*
X91096405Y-83117949D01*
X91036141Y-83128524D01*
X90981170Y-83101657D01*
X90961055Y-83073971D01*
X90960555Y-83072948D01*
X90956397Y-83054972D01*
X90952490Y-83047609D01*
X90953326Y-83041694D01*
X90950500Y-83029476D01*
X90950500Y-82699500D01*
X90969407Y-82641309D01*
X91018907Y-82605345D01*
X91049500Y-82600500D01*
X91050500Y-82600500D01*
X91108691Y-82619407D01*
G37*
%TD.AperFunction*%
%TD*%
M02*
