%TF.GenerationSoftware,KiCad,Pcbnew,9.0.7*%
%TF.CreationDate,2026-03-07T14:20:03-05:00*%
%TF.ProjectId,USBToEthernet,55534254-6f45-4746-9865-726e65742e6b,rev?*%
%TF.SameCoordinates,Original*%
%TF.FileFunction,Legend,Bot*%
%TF.FilePolarity,Positive*%
%FSLAX46Y46*%
G04 Gerber Fmt 4.6, Leading zero omitted, Abs format (unit mm)*
G04 Created by KiCad (PCBNEW 9.0.7) date 2026-03-07 14:20:03*
%MOMM*%
%LPD*%
G01*
G04 APERTURE LIST*
%ADD10C,1.250000*%
%ADD11C,0.150000*%
%ADD12C,0.120000*%
G04 APERTURE END LIST*
D10*
G36*
X64340346Y-79107015D02*
G01*
X64896636Y-79211944D01*
X65378952Y-79377877D01*
X65797670Y-79601146D01*
X66161008Y-79881496D01*
X66472971Y-80222490D01*
X66716898Y-80610477D01*
X66895524Y-81052175D01*
X67007308Y-81556905D01*
X67046510Y-82136102D01*
X67007385Y-82713733D01*
X66895844Y-83216814D01*
X66717647Y-83656808D01*
X66474345Y-84043055D01*
X66163206Y-84382281D01*
X65800880Y-84660902D01*
X65382580Y-84883016D01*
X64899958Y-85048253D01*
X64342507Y-85152832D01*
X63697941Y-85189748D01*
X61263084Y-85189748D01*
X61263084Y-84744249D01*
X62041974Y-84744249D01*
X62873988Y-84744249D01*
X63636392Y-84744249D01*
X64121956Y-84713694D01*
X64538404Y-84627308D01*
X64896205Y-84490791D01*
X65204076Y-84306671D01*
X65468579Y-84074169D01*
X65686244Y-83799359D01*
X65860645Y-83476751D01*
X65991180Y-83098865D01*
X66074331Y-82656269D01*
X66103855Y-82137934D01*
X66074341Y-81620276D01*
X65991104Y-81176945D01*
X65860240Y-80797203D01*
X65685153Y-80471863D01*
X65466381Y-80193639D01*
X65200659Y-79957801D01*
X64892245Y-79771408D01*
X64534735Y-79633456D01*
X64119560Y-79546294D01*
X63636392Y-79515498D01*
X62873988Y-79515498D01*
X62873988Y-84744249D01*
X62041974Y-84744249D01*
X62041974Y-79515498D01*
X61263084Y-79515498D01*
X61263084Y-79070000D01*
X63697941Y-79070000D01*
X64340346Y-79107015D01*
G37*
G36*
X69341050Y-78239452D02*
G01*
X69627913Y-78969249D01*
X68000889Y-82985701D01*
X67504832Y-82985701D01*
X67504832Y-83431200D01*
X69509211Y-83431200D01*
X69509211Y-82985701D01*
X68812386Y-82985701D01*
X70037875Y-79991406D01*
X71263363Y-82985701D01*
X70611601Y-82985701D01*
X70611601Y-83431200D01*
X72247051Y-83431200D01*
X72247051Y-82985701D01*
X71759420Y-82985701D01*
X69763101Y-78058468D01*
X69606616Y-77734937D01*
X69454881Y-77516030D01*
X69308077Y-77377030D01*
X69132048Y-77280691D01*
X68901977Y-77217522D01*
X68603192Y-77194214D01*
X68207519Y-77224623D01*
X67799755Y-77311451D01*
X67799755Y-78132107D01*
X68185170Y-78132107D01*
X68237447Y-77893676D01*
X68326587Y-77754019D01*
X68465939Y-77671479D01*
X68689288Y-77639713D01*
X68897564Y-77671324D01*
X69051988Y-77759515D01*
X69178401Y-77915618D01*
X69341050Y-78239452D01*
G37*
G36*
X72615980Y-79070000D02*
G01*
X72615980Y-79515498D01*
X73296318Y-79515498D01*
X73296318Y-82985701D01*
X72574947Y-82985701D01*
X72574947Y-83431200D01*
X74050296Y-83431200D01*
X74050296Y-82650844D01*
X74209626Y-82931978D01*
X74390549Y-83152891D01*
X74593248Y-83322023D01*
X74825070Y-83446574D01*
X75082035Y-83522328D01*
X75370307Y-83548436D01*
X75729522Y-83518684D01*
X76017291Y-83436441D01*
X76247882Y-83308095D01*
X76431664Y-83134078D01*
X76568897Y-82921748D01*
X76675370Y-82646182D01*
X76745996Y-82292435D01*
X76772016Y-81842644D01*
X76772016Y-79515498D01*
X77444295Y-79515498D01*
X77444295Y-79070000D01*
X75361880Y-79070000D01*
X75361880Y-79515498D01*
X76013642Y-79515498D01*
X76013642Y-81605607D01*
X75984889Y-82147139D01*
X75913489Y-82496811D01*
X75816905Y-82709829D01*
X75662221Y-82869430D01*
X75439584Y-82971154D01*
X75124110Y-83009148D01*
X74869337Y-82983319D01*
X74656462Y-82910035D01*
X74476733Y-82791310D01*
X74324703Y-82623367D01*
X74181505Y-82351976D01*
X74085998Y-81986380D01*
X74050296Y-81499727D01*
X74050296Y-79515498D01*
X74706088Y-79515498D01*
X74706088Y-79070000D01*
X72615980Y-79070000D01*
G37*
G36*
X78491730Y-84788946D02*
G01*
X78525792Y-84965946D01*
X78629117Y-85119406D01*
X78780765Y-85225103D01*
X78959211Y-85260090D01*
X79133879Y-85225312D01*
X79284909Y-85119406D01*
X79388233Y-84965946D01*
X79422295Y-84788946D01*
X79388318Y-84609029D01*
X79286741Y-84458485D01*
X79137305Y-84356287D01*
X78959211Y-84322198D01*
X78780423Y-84356233D01*
X78629117Y-84458485D01*
X78526107Y-84609172D01*
X78491730Y-84788946D01*
G37*
G36*
X79454902Y-79515498D02*
G01*
X80168213Y-79515498D01*
X80168213Y-79070000D01*
X77979553Y-79070000D01*
X77979553Y-79515498D01*
X78700924Y-79515498D01*
X78700924Y-82985701D01*
X77979553Y-82985701D01*
X77979553Y-83431200D01*
X79454902Y-83431200D01*
X79454902Y-79515498D01*
G37*
G36*
X82803838Y-81732369D02*
G01*
X83717916Y-82985701D01*
X83131734Y-82985701D01*
X83131734Y-83431200D01*
X84807850Y-83431200D01*
X84807850Y-82985701D01*
X84230094Y-82985701D01*
X83062124Y-81381392D01*
X84422801Y-79515498D01*
X84992498Y-79515498D01*
X84992498Y-79070000D01*
X82980059Y-79070000D01*
X82980059Y-79515498D01*
X83533269Y-79515498D01*
X82586584Y-80813893D01*
X81635502Y-79515498D01*
X82201168Y-79515498D01*
X82201168Y-79070000D01*
X80545202Y-79070000D01*
X80545202Y-79515498D01*
X81123325Y-79515498D01*
X82324267Y-81164870D01*
X81000593Y-82985701D01*
X80463503Y-82985701D01*
X80463503Y-83431200D01*
X82410362Y-83431200D01*
X82410362Y-82985701D01*
X81889759Y-82985701D01*
X82803838Y-81732369D01*
G37*
G36*
X85036915Y-91405750D02*
G01*
X84258025Y-91405750D01*
X84258025Y-96634501D01*
X85036915Y-96634501D01*
X85036915Y-97080000D01*
X82602058Y-97080000D01*
X81959653Y-97042984D01*
X81403363Y-96938055D01*
X80921047Y-96772122D01*
X80502329Y-96548853D01*
X80138991Y-96268503D01*
X79827028Y-95927509D01*
X79583101Y-95539522D01*
X79404475Y-95097824D01*
X79292691Y-94593094D01*
X79253489Y-94013897D01*
X79253613Y-94012065D01*
X80196144Y-94012065D01*
X80225658Y-94529723D01*
X80308895Y-94973054D01*
X80439759Y-95352796D01*
X80614846Y-95678136D01*
X80833618Y-95956360D01*
X81099340Y-96192198D01*
X81407754Y-96378591D01*
X81765264Y-96516543D01*
X82180439Y-96603705D01*
X82663607Y-96634501D01*
X83426011Y-96634501D01*
X83426011Y-91405750D01*
X82663607Y-91405750D01*
X82178043Y-91436305D01*
X81761595Y-91522691D01*
X81403794Y-91659208D01*
X81095923Y-91843328D01*
X80831420Y-92075830D01*
X80613755Y-92350640D01*
X80439354Y-92673248D01*
X80308819Y-93051134D01*
X80225668Y-93493730D01*
X80196144Y-94012065D01*
X79253613Y-94012065D01*
X79292614Y-93436266D01*
X79404155Y-92933185D01*
X79582352Y-92493191D01*
X79825654Y-92106944D01*
X80136793Y-91767718D01*
X80499119Y-91489097D01*
X80917419Y-91266983D01*
X81400041Y-91101746D01*
X81957492Y-90997167D01*
X82602058Y-90960251D01*
X85036915Y-90960251D01*
X85036915Y-91405750D01*
G37*
G36*
X76958949Y-97910547D02*
G01*
X76672086Y-97180750D01*
X78299110Y-93164298D01*
X78795167Y-93164298D01*
X78795167Y-92718799D01*
X76790788Y-92718799D01*
X76790788Y-93164298D01*
X77487613Y-93164298D01*
X76262124Y-96158593D01*
X75036636Y-93164298D01*
X75688398Y-93164298D01*
X75688398Y-92718799D01*
X74052948Y-92718799D01*
X74052948Y-93164298D01*
X74540579Y-93164298D01*
X76536898Y-98091531D01*
X76693383Y-98415062D01*
X76845118Y-98633969D01*
X76991922Y-98772969D01*
X77167951Y-98869308D01*
X77398022Y-98932477D01*
X77696807Y-98955785D01*
X78092480Y-98925376D01*
X78500244Y-98838548D01*
X78500244Y-98017892D01*
X78114829Y-98017892D01*
X78062552Y-98256323D01*
X77973412Y-98395980D01*
X77834060Y-98478520D01*
X77610711Y-98510286D01*
X77402435Y-98478675D01*
X77248011Y-98390484D01*
X77121598Y-98234381D01*
X76958949Y-97910547D01*
G37*
G36*
X73684019Y-97080000D02*
G01*
X73684019Y-96634501D01*
X73003681Y-96634501D01*
X73003681Y-93164298D01*
X73725052Y-93164298D01*
X73725052Y-92718799D01*
X72249703Y-92718799D01*
X72249703Y-93499155D01*
X72090373Y-93218021D01*
X71909450Y-92997108D01*
X71706751Y-92827976D01*
X71474929Y-92703425D01*
X71217964Y-92627671D01*
X70929692Y-92601563D01*
X70570477Y-92631315D01*
X70282708Y-92713558D01*
X70052117Y-92841904D01*
X69868335Y-93015921D01*
X69731102Y-93228251D01*
X69624629Y-93503817D01*
X69554003Y-93857564D01*
X69527983Y-94307355D01*
X69527983Y-96634501D01*
X68855704Y-96634501D01*
X68855704Y-97080000D01*
X70938119Y-97080000D01*
X70938119Y-96634501D01*
X70286357Y-96634501D01*
X70286357Y-94544392D01*
X70315110Y-94002860D01*
X70386510Y-93653188D01*
X70483094Y-93440170D01*
X70637778Y-93280569D01*
X70860415Y-93178845D01*
X71175889Y-93140851D01*
X71430662Y-93166680D01*
X71643537Y-93239964D01*
X71823266Y-93358689D01*
X71975296Y-93526632D01*
X72118494Y-93798023D01*
X72214001Y-94163619D01*
X72249703Y-94650272D01*
X72249703Y-96634501D01*
X71593911Y-96634501D01*
X71593911Y-97080000D01*
X73684019Y-97080000D01*
G37*
G36*
X67808269Y-91361053D02*
G01*
X67774207Y-91184053D01*
X67670882Y-91030593D01*
X67519234Y-90924896D01*
X67340788Y-90889909D01*
X67166120Y-90924687D01*
X67015090Y-91030593D01*
X66911766Y-91184053D01*
X66877704Y-91361053D01*
X66911681Y-91540970D01*
X67013258Y-91691514D01*
X67162694Y-91793712D01*
X67340788Y-91827801D01*
X67519576Y-91793766D01*
X67670882Y-91691514D01*
X67773892Y-91540827D01*
X67808269Y-91361053D01*
G37*
G36*
X66845097Y-96634501D02*
G01*
X66131786Y-96634501D01*
X66131786Y-97080000D01*
X68320446Y-97080000D01*
X68320446Y-96634501D01*
X67599075Y-96634501D01*
X67599075Y-93164298D01*
X68320446Y-93164298D01*
X68320446Y-92718799D01*
X66845097Y-92718799D01*
X66845097Y-96634501D01*
G37*
G36*
X63496161Y-94417630D02*
G01*
X62582083Y-93164298D01*
X63168265Y-93164298D01*
X63168265Y-92718799D01*
X61492149Y-92718799D01*
X61492149Y-93164298D01*
X62069905Y-93164298D01*
X63237875Y-94768607D01*
X61877198Y-96634501D01*
X61307501Y-96634501D01*
X61307501Y-97080000D01*
X63319940Y-97080000D01*
X63319940Y-96634501D01*
X62766730Y-96634501D01*
X63713415Y-95336106D01*
X64664497Y-96634501D01*
X64098831Y-96634501D01*
X64098831Y-97080000D01*
X65754797Y-97080000D01*
X65754797Y-96634501D01*
X65176674Y-96634501D01*
X63975732Y-94985129D01*
X65299406Y-93164298D01*
X65836496Y-93164298D01*
X65836496Y-92718799D01*
X63889637Y-92718799D01*
X63889637Y-93164298D01*
X64410240Y-93164298D01*
X63496161Y-94417630D01*
G37*
D11*
X75856009Y-86591666D02*
X75856009Y-86258333D01*
X76379819Y-86258333D02*
X75379819Y-86258333D01*
X75379819Y-86258333D02*
X75379819Y-86734523D01*
X75856009Y-87448809D02*
X75903628Y-87591666D01*
X75903628Y-87591666D02*
X75951247Y-87639285D01*
X75951247Y-87639285D02*
X76046485Y-87686904D01*
X76046485Y-87686904D02*
X76189342Y-87686904D01*
X76189342Y-87686904D02*
X76284580Y-87639285D01*
X76284580Y-87639285D02*
X76332200Y-87591666D01*
X76332200Y-87591666D02*
X76379819Y-87496428D01*
X76379819Y-87496428D02*
X76379819Y-87115476D01*
X76379819Y-87115476D02*
X75379819Y-87115476D01*
X75379819Y-87115476D02*
X75379819Y-87448809D01*
X75379819Y-87448809D02*
X75427438Y-87544047D01*
X75427438Y-87544047D02*
X75475057Y-87591666D01*
X75475057Y-87591666D02*
X75570295Y-87639285D01*
X75570295Y-87639285D02*
X75665533Y-87639285D01*
X75665533Y-87639285D02*
X75760771Y-87591666D01*
X75760771Y-87591666D02*
X75808390Y-87544047D01*
X75808390Y-87544047D02*
X75856009Y-87448809D01*
X75856009Y-87448809D02*
X75856009Y-87115476D01*
X75475057Y-88067857D02*
X75427438Y-88115476D01*
X75427438Y-88115476D02*
X75379819Y-88210714D01*
X75379819Y-88210714D02*
X75379819Y-88448809D01*
X75379819Y-88448809D02*
X75427438Y-88544047D01*
X75427438Y-88544047D02*
X75475057Y-88591666D01*
X75475057Y-88591666D02*
X75570295Y-88639285D01*
X75570295Y-88639285D02*
X75665533Y-88639285D01*
X75665533Y-88639285D02*
X75808390Y-88591666D01*
X75808390Y-88591666D02*
X76379819Y-88020238D01*
X76379819Y-88020238D02*
X76379819Y-88639285D01*
X82617857Y-89359580D02*
X82665476Y-89407200D01*
X82665476Y-89407200D02*
X82808333Y-89454819D01*
X82808333Y-89454819D02*
X82903571Y-89454819D01*
X82903571Y-89454819D02*
X83046428Y-89407200D01*
X83046428Y-89407200D02*
X83141666Y-89311961D01*
X83141666Y-89311961D02*
X83189285Y-89216723D01*
X83189285Y-89216723D02*
X83236904Y-89026247D01*
X83236904Y-89026247D02*
X83236904Y-88883390D01*
X83236904Y-88883390D02*
X83189285Y-88692914D01*
X83189285Y-88692914D02*
X83141666Y-88597676D01*
X83141666Y-88597676D02*
X83046428Y-88502438D01*
X83046428Y-88502438D02*
X82903571Y-88454819D01*
X82903571Y-88454819D02*
X82808333Y-88454819D01*
X82808333Y-88454819D02*
X82665476Y-88502438D01*
X82665476Y-88502438D02*
X82617857Y-88550057D01*
X81665476Y-89454819D02*
X82236904Y-89454819D01*
X81951190Y-89454819D02*
X81951190Y-88454819D01*
X81951190Y-88454819D02*
X82046428Y-88597676D01*
X82046428Y-88597676D02*
X82141666Y-88692914D01*
X82141666Y-88692914D02*
X82236904Y-88740533D01*
X80808333Y-88454819D02*
X80998809Y-88454819D01*
X80998809Y-88454819D02*
X81094047Y-88502438D01*
X81094047Y-88502438D02*
X81141666Y-88550057D01*
X81141666Y-88550057D02*
X81236904Y-88692914D01*
X81236904Y-88692914D02*
X81284523Y-88883390D01*
X81284523Y-88883390D02*
X81284523Y-89264342D01*
X81284523Y-89264342D02*
X81236904Y-89359580D01*
X81236904Y-89359580D02*
X81189285Y-89407200D01*
X81189285Y-89407200D02*
X81094047Y-89454819D01*
X81094047Y-89454819D02*
X80903571Y-89454819D01*
X80903571Y-89454819D02*
X80808333Y-89407200D01*
X80808333Y-89407200D02*
X80760714Y-89359580D01*
X80760714Y-89359580D02*
X80713095Y-89264342D01*
X80713095Y-89264342D02*
X80713095Y-89026247D01*
X80713095Y-89026247D02*
X80760714Y-88931009D01*
X80760714Y-88931009D02*
X80808333Y-88883390D01*
X80808333Y-88883390D02*
X80903571Y-88835771D01*
X80903571Y-88835771D02*
X81094047Y-88835771D01*
X81094047Y-88835771D02*
X81189285Y-88883390D01*
X81189285Y-88883390D02*
X81236904Y-88931009D01*
X81236904Y-88931009D02*
X81284523Y-89026247D01*
X82733333Y-87631009D02*
X83066666Y-87631009D01*
X83066666Y-88154819D02*
X83066666Y-87154819D01*
X83066666Y-87154819D02*
X82590476Y-87154819D01*
X81876190Y-87631009D02*
X81733333Y-87678628D01*
X81733333Y-87678628D02*
X81685714Y-87726247D01*
X81685714Y-87726247D02*
X81638095Y-87821485D01*
X81638095Y-87821485D02*
X81638095Y-87964342D01*
X81638095Y-87964342D02*
X81685714Y-88059580D01*
X81685714Y-88059580D02*
X81733333Y-88107200D01*
X81733333Y-88107200D02*
X81828571Y-88154819D01*
X81828571Y-88154819D02*
X82209523Y-88154819D01*
X82209523Y-88154819D02*
X82209523Y-87154819D01*
X82209523Y-87154819D02*
X81876190Y-87154819D01*
X81876190Y-87154819D02*
X81780952Y-87202438D01*
X81780952Y-87202438D02*
X81733333Y-87250057D01*
X81733333Y-87250057D02*
X81685714Y-87345295D01*
X81685714Y-87345295D02*
X81685714Y-87440533D01*
X81685714Y-87440533D02*
X81733333Y-87535771D01*
X81733333Y-87535771D02*
X81780952Y-87583390D01*
X81780952Y-87583390D02*
X81876190Y-87631009D01*
X81876190Y-87631009D02*
X82209523Y-87631009D01*
X80685714Y-88154819D02*
X81257142Y-88154819D01*
X80971428Y-88154819D02*
X80971428Y-87154819D01*
X80971428Y-87154819D02*
X81066666Y-87297676D01*
X81066666Y-87297676D02*
X81161904Y-87392914D01*
X81161904Y-87392914D02*
X81257142Y-87440533D01*
X82642857Y-86709580D02*
X82690476Y-86757200D01*
X82690476Y-86757200D02*
X82833333Y-86804819D01*
X82833333Y-86804819D02*
X82928571Y-86804819D01*
X82928571Y-86804819D02*
X83071428Y-86757200D01*
X83071428Y-86757200D02*
X83166666Y-86661961D01*
X83166666Y-86661961D02*
X83214285Y-86566723D01*
X83214285Y-86566723D02*
X83261904Y-86376247D01*
X83261904Y-86376247D02*
X83261904Y-86233390D01*
X83261904Y-86233390D02*
X83214285Y-86042914D01*
X83214285Y-86042914D02*
X83166666Y-85947676D01*
X83166666Y-85947676D02*
X83071428Y-85852438D01*
X83071428Y-85852438D02*
X82928571Y-85804819D01*
X82928571Y-85804819D02*
X82833333Y-85804819D01*
X82833333Y-85804819D02*
X82690476Y-85852438D01*
X82690476Y-85852438D02*
X82642857Y-85900057D01*
X81690476Y-86804819D02*
X82261904Y-86804819D01*
X81976190Y-86804819D02*
X81976190Y-85804819D01*
X81976190Y-85804819D02*
X82071428Y-85947676D01*
X82071428Y-85947676D02*
X82166666Y-86042914D01*
X82166666Y-86042914D02*
X82261904Y-86090533D01*
X81357142Y-85804819D02*
X80690476Y-85804819D01*
X80690476Y-85804819D02*
X81119047Y-86804819D01*
D12*
%TO.C,C16*%
X79502836Y-88740000D02*
X79287164Y-88740000D01*
X79502836Y-89460000D02*
X79287164Y-89460000D01*
%TO.C,C17*%
X79452836Y-86640000D02*
X79237164Y-86640000D01*
X79452836Y-87360000D02*
X79237164Y-87360000D01*
%TD*%
M02*
