M48
; DRILL file {KiCad 9.0.7} date 2026-03-07T14:19:57-0500
; FORMAT={-:-/ absolute / metric / decimal}
; #@! TF.CreationDate,2026-03-07T14:19:57-05:00
; #@! TF.GenerationSoftware,Kicad,Pcbnew,9.0.7
; #@! TF.FileFunction,Plated,1,2,PTH
FMAT,2
METRIC
; #@! TA.AperFunction,Plated,PTH,ViaDrill
T1C0.300
; #@! TA.AperFunction,Plated,PTH,ComponentDrill
T2C0.750
; #@! TA.AperFunction,Plated,PTH,ComponentDrill
T3C1.020
; #@! TA.AperFunction,Plated,PTH,ComponentDrill
T4C1.270
; #@! TA.AperFunction,Plated,PTH,ComponentDrill
T5C1.570
%
G90
G05
T1
X59.925Y-82.55
X62.35Y-78.075
X62.925Y-90.45
X64.065Y-90.45
X64.1Y-79.55
X65.025Y-87.9
X65.025Y-90.45
X65.875Y-83.525
X67.375Y-89.7
X67.45Y-85.1
X68.575Y-92.85
X68.7Y-91.65
X68.975Y-89.325
X69.825Y-89.2
X70.65Y-81.175
X70.65Y-92.95
X70.878Y-91.376
X70.975Y-87.15
X70.975Y-88.15
X72.025Y-86.1
X72.025Y-88.3
X72.475Y-83.85
X72.61Y-85.355
X72.775Y-92.15
X73.0Y-92.875
X73.414Y-94.261
X74.175Y-96.0
X74.675Y-80.5
X74.975Y-96.0
X75.0Y-88.275
X75.05Y-89.45
X75.052Y-90.443
X75.575Y-94.275
X75.675Y-99.125
X75.775Y-96.0
X75.825Y-78.475
X75.925Y-80.55
X76.132Y-86.291
X76.169Y-87.298
X76.175Y-92.925
X76.182Y-88.367
X76.2Y-90.55
X76.2Y-93.725
X76.225Y-89.5
X76.65Y-94.6
X77.26Y-88.155
X77.275Y-82.95
X77.276Y-87.174
X77.301Y-86.316
X77.437Y-89.506
X77.45Y-90.45
X77.46Y-92.975
X77.8Y-94.375
X77.925Y-96.85
X78.95Y-86.067
X79.085Y-93.65
X79.175Y-83.0
X79.242Y-90.707
X79.725Y-85.625
X79.824Y-89.983
X79.932Y-82.236
X80.45Y-81.675
X81.075Y-95.92
X81.35Y-79.71
X81.375Y-80.8
X81.625Y-84.2
X81.925Y-98.2
X82.196Y-90.474
X82.275Y-93.5
X82.293Y-88.965
X82.425Y-83.03
X82.585Y-87.701
X82.621Y-86.085
X82.716Y-88.388
X83.4Y-96.7
X83.675Y-91.45
X83.875Y-93.425
X84.195Y-85.05
X84.325Y-77.225
X84.325Y-87.75
X84.325Y-90.45
X84.375Y-86.05
X84.425Y-88.8
X86.275Y-100.125
X88.725Y-78.75
X90.95Y-78.725
X96.175Y-88.175
X97.7Y-77.225
X97.875Y-90.0
T3
X87.341Y-82.572
X87.341Y-84.604
X87.341Y-86.636
X87.341Y-90.7
X87.341Y-92.732
X87.341Y-94.764
X89.881Y-83.588
X89.881Y-85.62
X89.881Y-87.652
X89.881Y-89.684
X89.881Y-91.716
X89.881Y-93.748
T4
X100.295Y-96.187
X102.835Y-81.15
X102.835Y-96.187
X105.375Y-81.15
X105.375Y-96.187
T5
X96.485Y-79.88
X96.485Y-97.457
T2
X58.125Y-82.05G85X56.275Y-82.05
G05
X58.125Y-93.75G85X56.275Y-93.75
G05
M30
