%TF.GenerationSoftware,KiCad,Pcbnew,9.0.7*%
%TF.CreationDate,2026-02-23T15:22:57-05:00*%
%TF.ProjectId,USBToEthernet,55534254-6f45-4746-9865-726e65742e6b,rev?*%
%TF.SameCoordinates,Original*%
%TF.FileFunction,Legend,Top*%
%TF.FilePolarity,Positive*%
%FSLAX46Y46*%
G04 Gerber Fmt 4.6, Leading zero omitted, Abs format (unit mm)*
G04 Created by KiCad (PCBNEW 9.0.7) date 2026-02-23 15:22:57*
%MOMM*%
%LPD*%
G01*
G04 APERTURE LIST*
%ADD10C,0.300000*%
%ADD11C,0.100000*%
%ADD12C,0.150000*%
%ADD13C,0.120000*%
%ADD14C,0.127000*%
%ADD15C,0.200000*%
G04 APERTURE END LIST*
D10*
G36*
X90203266Y-99364790D02*
G01*
X90376775Y-99403892D01*
X90529056Y-99466500D01*
X90667253Y-99554799D01*
X90781980Y-99663419D01*
X90875453Y-99794030D01*
X90943143Y-99939889D01*
X90984825Y-100103071D01*
X90999284Y-100287156D01*
X90999284Y-101470696D01*
X90984645Y-101660432D01*
X90942797Y-101825553D01*
X90875453Y-101970233D01*
X90782208Y-102099505D01*
X90667496Y-102208131D01*
X90529056Y-102297580D01*
X90376658Y-102361318D01*
X90203159Y-102401081D01*
X90004605Y-102415000D01*
X89148412Y-102415000D01*
X89148412Y-102007969D01*
X89601605Y-102007969D01*
X90004605Y-102007969D01*
X90163981Y-101990868D01*
X90293236Y-101942804D01*
X90398996Y-101865270D01*
X90478649Y-101761563D01*
X90528184Y-101632498D01*
X90545908Y-101470696D01*
X90545908Y-100287156D01*
X90528434Y-100130978D01*
X90479119Y-100003748D01*
X90398996Y-99898993D01*
X90293071Y-99820174D01*
X90163816Y-99771422D01*
X90004605Y-99754096D01*
X89601605Y-99754096D01*
X89601605Y-102007969D01*
X89148412Y-102007969D01*
X89148412Y-99351095D01*
X90004605Y-99351095D01*
X90203266Y-99364790D01*
G37*
G36*
X92035362Y-103170443D02*
G01*
X92371135Y-102280727D01*
X91506516Y-100106538D01*
X91989200Y-100106538D01*
X92480312Y-101407681D01*
X92551570Y-101609181D01*
X92597732Y-101802255D01*
X92645908Y-101609181D01*
X92711121Y-101407681D01*
X93168527Y-100106538D01*
X93646999Y-100106538D01*
X92509621Y-103170443D01*
X92035362Y-103170443D01*
G37*
G36*
X94187936Y-102415000D02*
G01*
X94187936Y-100106538D01*
X94636915Y-100106538D01*
X94636915Y-100547274D01*
X94674682Y-100404156D01*
X94739530Y-100287585D01*
X94832004Y-100192634D01*
X94946190Y-100123531D01*
X95084757Y-100080093D01*
X95253872Y-100064590D01*
X95422945Y-100079387D01*
X95568165Y-100121611D01*
X95693989Y-100189803D01*
X95803602Y-100284958D01*
X95891085Y-100400527D01*
X95954987Y-100535383D01*
X95995129Y-100693220D01*
X96009316Y-100878834D01*
X96009316Y-102415000D01*
X95556123Y-102415000D01*
X95556123Y-100946062D01*
X95540960Y-100791093D01*
X95499392Y-100671322D01*
X95434307Y-100578782D01*
X95345798Y-100509008D01*
X95237235Y-100466014D01*
X95102747Y-100450737D01*
X94965985Y-100466705D01*
X94855386Y-100511752D01*
X94764959Y-100585193D01*
X94698472Y-100681707D01*
X94656359Y-100803807D01*
X94641128Y-100958702D01*
X94641128Y-102415000D01*
X94187936Y-102415000D01*
G37*
G36*
X96692951Y-102415000D02*
G01*
X96692951Y-102003756D01*
X97494556Y-102003756D01*
X97494556Y-100517965D01*
X96776849Y-100517965D01*
X96776849Y-100106538D01*
X97947932Y-100106538D01*
X97947932Y-102003756D01*
X98690736Y-102003756D01*
X98690736Y-102415000D01*
X96692951Y-102415000D01*
G37*
G36*
X97683417Y-99707934D02*
G01*
X97547817Y-99687376D01*
X97448394Y-99630265D01*
X97399874Y-99573358D01*
X97370560Y-99505260D01*
X97360284Y-99422536D01*
X97370673Y-99336996D01*
X97400094Y-99267601D01*
X97448394Y-99210594D01*
X97547817Y-99153483D01*
X97683417Y-99132925D01*
X97819018Y-99153483D01*
X97918440Y-99210594D01*
X97966849Y-99267615D01*
X97996326Y-99337011D01*
X98006734Y-99422536D01*
X97996439Y-99505246D01*
X97967069Y-99573345D01*
X97918440Y-99630265D01*
X97819018Y-99687376D01*
X97683417Y-99707934D01*
G37*
G36*
X99051055Y-102415000D02*
G01*
X99861086Y-101223033D01*
X99101430Y-100106538D01*
X99621851Y-100106538D01*
X100029064Y-100744562D01*
X100087683Y-100851723D01*
X100134028Y-100946062D01*
X100173778Y-100851723D01*
X100234595Y-100744562D01*
X100637595Y-100106538D01*
X101162229Y-100106538D01*
X100402573Y-101227247D01*
X101208391Y-102415000D01*
X100687971Y-102415000D01*
X100238808Y-101722571D01*
X100180006Y-101609181D01*
X100134028Y-101508431D01*
X100083469Y-101609181D01*
X100020638Y-101722571D01*
X99571475Y-102415000D01*
X99051055Y-102415000D01*
G37*
D11*
X87937238Y-106457419D02*
X87746762Y-106457419D01*
X87746762Y-106457419D02*
X87651524Y-106505038D01*
X87651524Y-106505038D02*
X87603905Y-106552657D01*
X87603905Y-106552657D02*
X87508667Y-106695514D01*
X87508667Y-106695514D02*
X87461048Y-106885990D01*
X87461048Y-106885990D02*
X87461048Y-107266942D01*
X87461048Y-107266942D02*
X87508667Y-107362180D01*
X87508667Y-107362180D02*
X87556286Y-107409800D01*
X87556286Y-107409800D02*
X87651524Y-107457419D01*
X87651524Y-107457419D02*
X87842000Y-107457419D01*
X87842000Y-107457419D02*
X87937238Y-107409800D01*
X87937238Y-107409800D02*
X87984857Y-107362180D01*
X87984857Y-107362180D02*
X88032476Y-107266942D01*
X88032476Y-107266942D02*
X88032476Y-107028847D01*
X88032476Y-107028847D02*
X87984857Y-106933609D01*
X87984857Y-106933609D02*
X87937238Y-106885990D01*
X87937238Y-106885990D02*
X87842000Y-106838371D01*
X87842000Y-106838371D02*
X87651524Y-106838371D01*
X87651524Y-106838371D02*
X87556286Y-106885990D01*
X87556286Y-106885990D02*
X87508667Y-106933609D01*
X87508667Y-106933609D02*
X87461048Y-107028847D01*
X88984857Y-107457419D02*
X88413429Y-107457419D01*
X88699143Y-107457419D02*
X88699143Y-106457419D01*
X88699143Y-106457419D02*
X88603905Y-106600276D01*
X88603905Y-106600276D02*
X88508667Y-106695514D01*
X88508667Y-106695514D02*
X88413429Y-106743133D01*
X89413429Y-107362180D02*
X89461048Y-107409800D01*
X89461048Y-107409800D02*
X89413429Y-107457419D01*
X89413429Y-107457419D02*
X89365810Y-107409800D01*
X89365810Y-107409800D02*
X89413429Y-107362180D01*
X89413429Y-107362180D02*
X89413429Y-107457419D01*
X89842000Y-106552657D02*
X89889619Y-106505038D01*
X89889619Y-106505038D02*
X89984857Y-106457419D01*
X89984857Y-106457419D02*
X90222952Y-106457419D01*
X90222952Y-106457419D02*
X90318190Y-106505038D01*
X90318190Y-106505038D02*
X90365809Y-106552657D01*
X90365809Y-106552657D02*
X90413428Y-106647895D01*
X90413428Y-106647895D02*
X90413428Y-106743133D01*
X90413428Y-106743133D02*
X90365809Y-106885990D01*
X90365809Y-106885990D02*
X89794381Y-107457419D01*
X89794381Y-107457419D02*
X90413428Y-107457419D01*
X90984857Y-106885990D02*
X90889619Y-106838371D01*
X90889619Y-106838371D02*
X90842000Y-106790752D01*
X90842000Y-106790752D02*
X90794381Y-106695514D01*
X90794381Y-106695514D02*
X90794381Y-106647895D01*
X90794381Y-106647895D02*
X90842000Y-106552657D01*
X90842000Y-106552657D02*
X90889619Y-106505038D01*
X90889619Y-106505038D02*
X90984857Y-106457419D01*
X90984857Y-106457419D02*
X91175333Y-106457419D01*
X91175333Y-106457419D02*
X91270571Y-106505038D01*
X91270571Y-106505038D02*
X91318190Y-106552657D01*
X91318190Y-106552657D02*
X91365809Y-106647895D01*
X91365809Y-106647895D02*
X91365809Y-106695514D01*
X91365809Y-106695514D02*
X91318190Y-106790752D01*
X91318190Y-106790752D02*
X91270571Y-106838371D01*
X91270571Y-106838371D02*
X91175333Y-106885990D01*
X91175333Y-106885990D02*
X90984857Y-106885990D01*
X90984857Y-106885990D02*
X90889619Y-106933609D01*
X90889619Y-106933609D02*
X90842000Y-106981228D01*
X90842000Y-106981228D02*
X90794381Y-107076466D01*
X90794381Y-107076466D02*
X90794381Y-107266942D01*
X90794381Y-107266942D02*
X90842000Y-107362180D01*
X90842000Y-107362180D02*
X90889619Y-107409800D01*
X90889619Y-107409800D02*
X90984857Y-107457419D01*
X90984857Y-107457419D02*
X91175333Y-107457419D01*
X91175333Y-107457419D02*
X91270571Y-107409800D01*
X91270571Y-107409800D02*
X91318190Y-107362180D01*
X91318190Y-107362180D02*
X91365809Y-107266942D01*
X91365809Y-107266942D02*
X91365809Y-107076466D01*
X91365809Y-107076466D02*
X91318190Y-106981228D01*
X91318190Y-106981228D02*
X91270571Y-106933609D01*
X91270571Y-106933609D02*
X91175333Y-106885990D01*
X92318190Y-107457419D02*
X91746762Y-107457419D01*
X92032476Y-107457419D02*
X92032476Y-106457419D01*
X92032476Y-106457419D02*
X91937238Y-106600276D01*
X91937238Y-106600276D02*
X91842000Y-106695514D01*
X91842000Y-106695514D02*
X91746762Y-106743133D01*
X93175333Y-106457419D02*
X92984857Y-106457419D01*
X92984857Y-106457419D02*
X92889619Y-106505038D01*
X92889619Y-106505038D02*
X92842000Y-106552657D01*
X92842000Y-106552657D02*
X92746762Y-106695514D01*
X92746762Y-106695514D02*
X92699143Y-106885990D01*
X92699143Y-106885990D02*
X92699143Y-107266942D01*
X92699143Y-107266942D02*
X92746762Y-107362180D01*
X92746762Y-107362180D02*
X92794381Y-107409800D01*
X92794381Y-107409800D02*
X92889619Y-107457419D01*
X92889619Y-107457419D02*
X93080095Y-107457419D01*
X93080095Y-107457419D02*
X93175333Y-107409800D01*
X93175333Y-107409800D02*
X93222952Y-107362180D01*
X93222952Y-107362180D02*
X93270571Y-107266942D01*
X93270571Y-107266942D02*
X93270571Y-107028847D01*
X93270571Y-107028847D02*
X93222952Y-106933609D01*
X93222952Y-106933609D02*
X93175333Y-106885990D01*
X93175333Y-106885990D02*
X93080095Y-106838371D01*
X93080095Y-106838371D02*
X92889619Y-106838371D01*
X92889619Y-106838371D02*
X92794381Y-106885990D01*
X92794381Y-106885990D02*
X92746762Y-106933609D01*
X92746762Y-106933609D02*
X92699143Y-107028847D01*
X121006621Y-102450000D02*
X121006621Y-108686420D01*
X59725000Y-108686420D02*
X59725000Y-101200000D01*
X121006621Y-108100000D02*
X59725000Y-108100000D01*
X121006621Y-108100000D02*
X119880117Y-108686421D01*
X121006621Y-108100000D02*
X119880117Y-107513579D01*
X59725000Y-108100000D02*
X60851504Y-107513579D01*
X59725000Y-108100000D02*
X60851504Y-108686421D01*
X53507419Y-91463689D02*
X53507419Y-90844642D01*
X53507419Y-90844642D02*
X53888371Y-91177975D01*
X53888371Y-91177975D02*
X53888371Y-91035118D01*
X53888371Y-91035118D02*
X53935990Y-90939880D01*
X53935990Y-90939880D02*
X53983609Y-90892261D01*
X53983609Y-90892261D02*
X54078847Y-90844642D01*
X54078847Y-90844642D02*
X54316942Y-90844642D01*
X54316942Y-90844642D02*
X54412180Y-90892261D01*
X54412180Y-90892261D02*
X54459800Y-90939880D01*
X54459800Y-90939880D02*
X54507419Y-91035118D01*
X54507419Y-91035118D02*
X54507419Y-91320832D01*
X54507419Y-91320832D02*
X54459800Y-91416070D01*
X54459800Y-91416070D02*
X54412180Y-91463689D01*
X53507419Y-90225594D02*
X53507419Y-90130356D01*
X53507419Y-90130356D02*
X53555038Y-90035118D01*
X53555038Y-90035118D02*
X53602657Y-89987499D01*
X53602657Y-89987499D02*
X53697895Y-89939880D01*
X53697895Y-89939880D02*
X53888371Y-89892261D01*
X53888371Y-89892261D02*
X54126466Y-89892261D01*
X54126466Y-89892261D02*
X54316942Y-89939880D01*
X54316942Y-89939880D02*
X54412180Y-89987499D01*
X54412180Y-89987499D02*
X54459800Y-90035118D01*
X54459800Y-90035118D02*
X54507419Y-90130356D01*
X54507419Y-90130356D02*
X54507419Y-90225594D01*
X54507419Y-90225594D02*
X54459800Y-90320832D01*
X54459800Y-90320832D02*
X54412180Y-90368451D01*
X54412180Y-90368451D02*
X54316942Y-90416070D01*
X54316942Y-90416070D02*
X54126466Y-90463689D01*
X54126466Y-90463689D02*
X53888371Y-90463689D01*
X53888371Y-90463689D02*
X53697895Y-90416070D01*
X53697895Y-90416070D02*
X53602657Y-90368451D01*
X53602657Y-90368451D02*
X53555038Y-90320832D01*
X53555038Y-90320832D02*
X53507419Y-90225594D01*
X54412180Y-89463689D02*
X54459800Y-89416070D01*
X54459800Y-89416070D02*
X54507419Y-89463689D01*
X54507419Y-89463689D02*
X54459800Y-89511308D01*
X54459800Y-89511308D02*
X54412180Y-89463689D01*
X54412180Y-89463689D02*
X54507419Y-89463689D01*
X53507419Y-88797023D02*
X53507419Y-88701785D01*
X53507419Y-88701785D02*
X53555038Y-88606547D01*
X53555038Y-88606547D02*
X53602657Y-88558928D01*
X53602657Y-88558928D02*
X53697895Y-88511309D01*
X53697895Y-88511309D02*
X53888371Y-88463690D01*
X53888371Y-88463690D02*
X54126466Y-88463690D01*
X54126466Y-88463690D02*
X54316942Y-88511309D01*
X54316942Y-88511309D02*
X54412180Y-88558928D01*
X54412180Y-88558928D02*
X54459800Y-88606547D01*
X54459800Y-88606547D02*
X54507419Y-88701785D01*
X54507419Y-88701785D02*
X54507419Y-88797023D01*
X54507419Y-88797023D02*
X54459800Y-88892261D01*
X54459800Y-88892261D02*
X54412180Y-88939880D01*
X54412180Y-88939880D02*
X54316942Y-88987499D01*
X54316942Y-88987499D02*
X54126466Y-89035118D01*
X54126466Y-89035118D02*
X53888371Y-89035118D01*
X53888371Y-89035118D02*
X53697895Y-88987499D01*
X53697895Y-88987499D02*
X53602657Y-88939880D01*
X53602657Y-88939880D02*
X53555038Y-88892261D01*
X53555038Y-88892261D02*
X53507419Y-88797023D01*
X53602657Y-88082737D02*
X53555038Y-88035118D01*
X53555038Y-88035118D02*
X53507419Y-87939880D01*
X53507419Y-87939880D02*
X53507419Y-87701785D01*
X53507419Y-87701785D02*
X53555038Y-87606547D01*
X53555038Y-87606547D02*
X53602657Y-87558928D01*
X53602657Y-87558928D02*
X53697895Y-87511309D01*
X53697895Y-87511309D02*
X53793133Y-87511309D01*
X53793133Y-87511309D02*
X53935990Y-87558928D01*
X53935990Y-87558928D02*
X54507419Y-88130356D01*
X54507419Y-88130356D02*
X54507419Y-87511309D01*
X53507419Y-86606547D02*
X53507419Y-87082737D01*
X53507419Y-87082737D02*
X53983609Y-87130356D01*
X53983609Y-87130356D02*
X53935990Y-87082737D01*
X53935990Y-87082737D02*
X53888371Y-86987499D01*
X53888371Y-86987499D02*
X53888371Y-86749404D01*
X53888371Y-86749404D02*
X53935990Y-86654166D01*
X53935990Y-86654166D02*
X53983609Y-86606547D01*
X53983609Y-86606547D02*
X54078847Y-86558928D01*
X54078847Y-86558928D02*
X54316942Y-86558928D01*
X54316942Y-86558928D02*
X54412180Y-86606547D01*
X54412180Y-86606547D02*
X54459800Y-86654166D01*
X54459800Y-86654166D02*
X54507419Y-86749404D01*
X54507419Y-86749404D02*
X54507419Y-86987499D01*
X54507419Y-86987499D02*
X54459800Y-87082737D01*
X54459800Y-87082737D02*
X54412180Y-87130356D01*
X59200000Y-73975000D02*
X54563580Y-73975000D01*
X54563580Y-104000000D02*
X59225000Y-104000000D01*
X55150000Y-73975000D02*
X55150000Y-104000000D01*
X55150000Y-73975000D02*
X55736421Y-75101504D01*
X55150000Y-73975000D02*
X54563579Y-75101504D01*
X55150000Y-104000000D02*
X54563579Y-102873496D01*
X55150000Y-104000000D02*
X55736421Y-102873496D01*
D12*
X117333333Y-75529819D02*
X117000000Y-75053628D01*
X116761905Y-75529819D02*
X116761905Y-74529819D01*
X116761905Y-74529819D02*
X117142857Y-74529819D01*
X117142857Y-74529819D02*
X117238095Y-74577438D01*
X117238095Y-74577438D02*
X117285714Y-74625057D01*
X117285714Y-74625057D02*
X117333333Y-74720295D01*
X117333333Y-74720295D02*
X117333333Y-74863152D01*
X117333333Y-74863152D02*
X117285714Y-74958390D01*
X117285714Y-74958390D02*
X117238095Y-75006009D01*
X117238095Y-75006009D02*
X117142857Y-75053628D01*
X117142857Y-75053628D02*
X116761905Y-75053628D01*
X117666667Y-74529819D02*
X118285714Y-74529819D01*
X118285714Y-74529819D02*
X117952381Y-74910771D01*
X117952381Y-74910771D02*
X118095238Y-74910771D01*
X118095238Y-74910771D02*
X118190476Y-74958390D01*
X118190476Y-74958390D02*
X118238095Y-75006009D01*
X118238095Y-75006009D02*
X118285714Y-75101247D01*
X118285714Y-75101247D02*
X118285714Y-75339342D01*
X118285714Y-75339342D02*
X118238095Y-75434580D01*
X118238095Y-75434580D02*
X118190476Y-75482200D01*
X118190476Y-75482200D02*
X118095238Y-75529819D01*
X118095238Y-75529819D02*
X117809524Y-75529819D01*
X117809524Y-75529819D02*
X117714286Y-75482200D01*
X117714286Y-75482200D02*
X117666667Y-75434580D01*
X97454819Y-82392857D02*
X96978628Y-82726190D01*
X97454819Y-82964285D02*
X96454819Y-82964285D01*
X96454819Y-82964285D02*
X96454819Y-82583333D01*
X96454819Y-82583333D02*
X96502438Y-82488095D01*
X96502438Y-82488095D02*
X96550057Y-82440476D01*
X96550057Y-82440476D02*
X96645295Y-82392857D01*
X96645295Y-82392857D02*
X96788152Y-82392857D01*
X96788152Y-82392857D02*
X96883390Y-82440476D01*
X96883390Y-82440476D02*
X96931009Y-82488095D01*
X96931009Y-82488095D02*
X96978628Y-82583333D01*
X96978628Y-82583333D02*
X96978628Y-82964285D01*
X97454819Y-81440476D02*
X97454819Y-82011904D01*
X97454819Y-81726190D02*
X96454819Y-81726190D01*
X96454819Y-81726190D02*
X96597676Y-81821428D01*
X96597676Y-81821428D02*
X96692914Y-81916666D01*
X96692914Y-81916666D02*
X96740533Y-82011904D01*
X96550057Y-81059523D02*
X96502438Y-81011904D01*
X96502438Y-81011904D02*
X96454819Y-80916666D01*
X96454819Y-80916666D02*
X96454819Y-80678571D01*
X96454819Y-80678571D02*
X96502438Y-80583333D01*
X96502438Y-80583333D02*
X96550057Y-80535714D01*
X96550057Y-80535714D02*
X96645295Y-80488095D01*
X96645295Y-80488095D02*
X96740533Y-80488095D01*
X96740533Y-80488095D02*
X96883390Y-80535714D01*
X96883390Y-80535714D02*
X97454819Y-81107142D01*
X97454819Y-81107142D02*
X97454819Y-80488095D01*
X81500595Y-91754819D02*
X81500595Y-92564342D01*
X81500595Y-92564342D02*
X81548214Y-92659580D01*
X81548214Y-92659580D02*
X81595833Y-92707200D01*
X81595833Y-92707200D02*
X81691071Y-92754819D01*
X81691071Y-92754819D02*
X81881547Y-92754819D01*
X81881547Y-92754819D02*
X81976785Y-92707200D01*
X81976785Y-92707200D02*
X82024404Y-92659580D01*
X82024404Y-92659580D02*
X82072023Y-92564342D01*
X82072023Y-92564342D02*
X82072023Y-91754819D01*
X82452976Y-91754819D02*
X83072023Y-91754819D01*
X83072023Y-91754819D02*
X82738690Y-92135771D01*
X82738690Y-92135771D02*
X82881547Y-92135771D01*
X82881547Y-92135771D02*
X82976785Y-92183390D01*
X82976785Y-92183390D02*
X83024404Y-92231009D01*
X83024404Y-92231009D02*
X83072023Y-92326247D01*
X83072023Y-92326247D02*
X83072023Y-92564342D01*
X83072023Y-92564342D02*
X83024404Y-92659580D01*
X83024404Y-92659580D02*
X82976785Y-92707200D01*
X82976785Y-92707200D02*
X82881547Y-92754819D01*
X82881547Y-92754819D02*
X82595833Y-92754819D01*
X82595833Y-92754819D02*
X82500595Y-92707200D01*
X82500595Y-92707200D02*
X82452976Y-92659580D01*
X93879819Y-95816666D02*
X93403628Y-96149999D01*
X93879819Y-96388094D02*
X92879819Y-96388094D01*
X92879819Y-96388094D02*
X92879819Y-96007142D01*
X92879819Y-96007142D02*
X92927438Y-95911904D01*
X92927438Y-95911904D02*
X92975057Y-95864285D01*
X92975057Y-95864285D02*
X93070295Y-95816666D01*
X93070295Y-95816666D02*
X93213152Y-95816666D01*
X93213152Y-95816666D02*
X93308390Y-95864285D01*
X93308390Y-95864285D02*
X93356009Y-95911904D01*
X93356009Y-95911904D02*
X93403628Y-96007142D01*
X93403628Y-96007142D02*
X93403628Y-96388094D01*
X92879819Y-94911904D02*
X92879819Y-95388094D01*
X92879819Y-95388094D02*
X93356009Y-95435713D01*
X93356009Y-95435713D02*
X93308390Y-95388094D01*
X93308390Y-95388094D02*
X93260771Y-95292856D01*
X93260771Y-95292856D02*
X93260771Y-95054761D01*
X93260771Y-95054761D02*
X93308390Y-94959523D01*
X93308390Y-94959523D02*
X93356009Y-94911904D01*
X93356009Y-94911904D02*
X93451247Y-94864285D01*
X93451247Y-94864285D02*
X93689342Y-94864285D01*
X93689342Y-94864285D02*
X93784580Y-94911904D01*
X93784580Y-94911904D02*
X93832200Y-94959523D01*
X93832200Y-94959523D02*
X93879819Y-95054761D01*
X93879819Y-95054761D02*
X93879819Y-95292856D01*
X93879819Y-95292856D02*
X93832200Y-95388094D01*
X93832200Y-95388094D02*
X93784580Y-95435713D01*
X88559580Y-97967857D02*
X88607200Y-98015476D01*
X88607200Y-98015476D02*
X88654819Y-98158333D01*
X88654819Y-98158333D02*
X88654819Y-98253571D01*
X88654819Y-98253571D02*
X88607200Y-98396428D01*
X88607200Y-98396428D02*
X88511961Y-98491666D01*
X88511961Y-98491666D02*
X88416723Y-98539285D01*
X88416723Y-98539285D02*
X88226247Y-98586904D01*
X88226247Y-98586904D02*
X88083390Y-98586904D01*
X88083390Y-98586904D02*
X87892914Y-98539285D01*
X87892914Y-98539285D02*
X87797676Y-98491666D01*
X87797676Y-98491666D02*
X87702438Y-98396428D01*
X87702438Y-98396428D02*
X87654819Y-98253571D01*
X87654819Y-98253571D02*
X87654819Y-98158333D01*
X87654819Y-98158333D02*
X87702438Y-98015476D01*
X87702438Y-98015476D02*
X87750057Y-97967857D01*
X88654819Y-97015476D02*
X88654819Y-97586904D01*
X88654819Y-97301190D02*
X87654819Y-97301190D01*
X87654819Y-97301190D02*
X87797676Y-97396428D01*
X87797676Y-97396428D02*
X87892914Y-97491666D01*
X87892914Y-97491666D02*
X87940533Y-97586904D01*
X87654819Y-96682142D02*
X87654819Y-96063095D01*
X87654819Y-96063095D02*
X88035771Y-96396428D01*
X88035771Y-96396428D02*
X88035771Y-96253571D01*
X88035771Y-96253571D02*
X88083390Y-96158333D01*
X88083390Y-96158333D02*
X88131009Y-96110714D01*
X88131009Y-96110714D02*
X88226247Y-96063095D01*
X88226247Y-96063095D02*
X88464342Y-96063095D01*
X88464342Y-96063095D02*
X88559580Y-96110714D01*
X88559580Y-96110714D02*
X88607200Y-96158333D01*
X88607200Y-96158333D02*
X88654819Y-96253571D01*
X88654819Y-96253571D02*
X88654819Y-96539285D01*
X88654819Y-96539285D02*
X88607200Y-96634523D01*
X88607200Y-96634523D02*
X88559580Y-96682142D01*
X85804819Y-101942857D02*
X85328628Y-102276190D01*
X85804819Y-102514285D02*
X84804819Y-102514285D01*
X84804819Y-102514285D02*
X84804819Y-102133333D01*
X84804819Y-102133333D02*
X84852438Y-102038095D01*
X84852438Y-102038095D02*
X84900057Y-101990476D01*
X84900057Y-101990476D02*
X84995295Y-101942857D01*
X84995295Y-101942857D02*
X85138152Y-101942857D01*
X85138152Y-101942857D02*
X85233390Y-101990476D01*
X85233390Y-101990476D02*
X85281009Y-102038095D01*
X85281009Y-102038095D02*
X85328628Y-102133333D01*
X85328628Y-102133333D02*
X85328628Y-102514285D01*
X85804819Y-100990476D02*
X85804819Y-101561904D01*
X85804819Y-101276190D02*
X84804819Y-101276190D01*
X84804819Y-101276190D02*
X84947676Y-101371428D01*
X84947676Y-101371428D02*
X85042914Y-101466666D01*
X85042914Y-101466666D02*
X85090533Y-101561904D01*
X84804819Y-100657142D02*
X84804819Y-100038095D01*
X84804819Y-100038095D02*
X85185771Y-100371428D01*
X85185771Y-100371428D02*
X85185771Y-100228571D01*
X85185771Y-100228571D02*
X85233390Y-100133333D01*
X85233390Y-100133333D02*
X85281009Y-100085714D01*
X85281009Y-100085714D02*
X85376247Y-100038095D01*
X85376247Y-100038095D02*
X85614342Y-100038095D01*
X85614342Y-100038095D02*
X85709580Y-100085714D01*
X85709580Y-100085714D02*
X85757200Y-100133333D01*
X85757200Y-100133333D02*
X85804819Y-100228571D01*
X85804819Y-100228571D02*
X85804819Y-100514285D01*
X85804819Y-100514285D02*
X85757200Y-100609523D01*
X85757200Y-100609523D02*
X85709580Y-100657142D01*
X76434580Y-91392857D02*
X76482200Y-91440476D01*
X76482200Y-91440476D02*
X76529819Y-91583333D01*
X76529819Y-91583333D02*
X76529819Y-91678571D01*
X76529819Y-91678571D02*
X76482200Y-91821428D01*
X76482200Y-91821428D02*
X76386961Y-91916666D01*
X76386961Y-91916666D02*
X76291723Y-91964285D01*
X76291723Y-91964285D02*
X76101247Y-92011904D01*
X76101247Y-92011904D02*
X75958390Y-92011904D01*
X75958390Y-92011904D02*
X75767914Y-91964285D01*
X75767914Y-91964285D02*
X75672676Y-91916666D01*
X75672676Y-91916666D02*
X75577438Y-91821428D01*
X75577438Y-91821428D02*
X75529819Y-91678571D01*
X75529819Y-91678571D02*
X75529819Y-91583333D01*
X75529819Y-91583333D02*
X75577438Y-91440476D01*
X75577438Y-91440476D02*
X75625057Y-91392857D01*
X76529819Y-90440476D02*
X76529819Y-91011904D01*
X76529819Y-90726190D02*
X75529819Y-90726190D01*
X75529819Y-90726190D02*
X75672676Y-90821428D01*
X75672676Y-90821428D02*
X75767914Y-90916666D01*
X75767914Y-90916666D02*
X75815533Y-91011904D01*
X76529819Y-89964285D02*
X76529819Y-89773809D01*
X76529819Y-89773809D02*
X76482200Y-89678571D01*
X76482200Y-89678571D02*
X76434580Y-89630952D01*
X76434580Y-89630952D02*
X76291723Y-89535714D01*
X76291723Y-89535714D02*
X76101247Y-89488095D01*
X76101247Y-89488095D02*
X75720295Y-89488095D01*
X75720295Y-89488095D02*
X75625057Y-89535714D01*
X75625057Y-89535714D02*
X75577438Y-89583333D01*
X75577438Y-89583333D02*
X75529819Y-89678571D01*
X75529819Y-89678571D02*
X75529819Y-89869047D01*
X75529819Y-89869047D02*
X75577438Y-89964285D01*
X75577438Y-89964285D02*
X75625057Y-90011904D01*
X75625057Y-90011904D02*
X75720295Y-90059523D01*
X75720295Y-90059523D02*
X75958390Y-90059523D01*
X75958390Y-90059523D02*
X76053628Y-90011904D01*
X76053628Y-90011904D02*
X76101247Y-89964285D01*
X76101247Y-89964285D02*
X76148866Y-89869047D01*
X76148866Y-89869047D02*
X76148866Y-89678571D01*
X76148866Y-89678571D02*
X76101247Y-89583333D01*
X76101247Y-89583333D02*
X76053628Y-89535714D01*
X76053628Y-89535714D02*
X75958390Y-89488095D01*
X68488095Y-100504819D02*
X68488095Y-101314342D01*
X68488095Y-101314342D02*
X68535714Y-101409580D01*
X68535714Y-101409580D02*
X68583333Y-101457200D01*
X68583333Y-101457200D02*
X68678571Y-101504819D01*
X68678571Y-101504819D02*
X68869047Y-101504819D01*
X68869047Y-101504819D02*
X68964285Y-101457200D01*
X68964285Y-101457200D02*
X69011904Y-101409580D01*
X69011904Y-101409580D02*
X69059523Y-101314342D01*
X69059523Y-101314342D02*
X69059523Y-100504819D01*
X69964285Y-100504819D02*
X69773809Y-100504819D01*
X69773809Y-100504819D02*
X69678571Y-100552438D01*
X69678571Y-100552438D02*
X69630952Y-100600057D01*
X69630952Y-100600057D02*
X69535714Y-100742914D01*
X69535714Y-100742914D02*
X69488095Y-100933390D01*
X69488095Y-100933390D02*
X69488095Y-101314342D01*
X69488095Y-101314342D02*
X69535714Y-101409580D01*
X69535714Y-101409580D02*
X69583333Y-101457200D01*
X69583333Y-101457200D02*
X69678571Y-101504819D01*
X69678571Y-101504819D02*
X69869047Y-101504819D01*
X69869047Y-101504819D02*
X69964285Y-101457200D01*
X69964285Y-101457200D02*
X70011904Y-101409580D01*
X70011904Y-101409580D02*
X70059523Y-101314342D01*
X70059523Y-101314342D02*
X70059523Y-101076247D01*
X70059523Y-101076247D02*
X70011904Y-100981009D01*
X70011904Y-100981009D02*
X69964285Y-100933390D01*
X69964285Y-100933390D02*
X69869047Y-100885771D01*
X69869047Y-100885771D02*
X69678571Y-100885771D01*
X69678571Y-100885771D02*
X69583333Y-100933390D01*
X69583333Y-100933390D02*
X69535714Y-100981009D01*
X69535714Y-100981009D02*
X69488095Y-101076247D01*
X67759580Y-96166666D02*
X67807200Y-96214285D01*
X67807200Y-96214285D02*
X67854819Y-96357142D01*
X67854819Y-96357142D02*
X67854819Y-96452380D01*
X67854819Y-96452380D02*
X67807200Y-96595237D01*
X67807200Y-96595237D02*
X67711961Y-96690475D01*
X67711961Y-96690475D02*
X67616723Y-96738094D01*
X67616723Y-96738094D02*
X67426247Y-96785713D01*
X67426247Y-96785713D02*
X67283390Y-96785713D01*
X67283390Y-96785713D02*
X67092914Y-96738094D01*
X67092914Y-96738094D02*
X66997676Y-96690475D01*
X66997676Y-96690475D02*
X66902438Y-96595237D01*
X66902438Y-96595237D02*
X66854819Y-96452380D01*
X66854819Y-96452380D02*
X66854819Y-96357142D01*
X66854819Y-96357142D02*
X66902438Y-96214285D01*
X66902438Y-96214285D02*
X66950057Y-96166666D01*
X66854819Y-95833332D02*
X66854819Y-95214285D01*
X66854819Y-95214285D02*
X67235771Y-95547618D01*
X67235771Y-95547618D02*
X67235771Y-95404761D01*
X67235771Y-95404761D02*
X67283390Y-95309523D01*
X67283390Y-95309523D02*
X67331009Y-95261904D01*
X67331009Y-95261904D02*
X67426247Y-95214285D01*
X67426247Y-95214285D02*
X67664342Y-95214285D01*
X67664342Y-95214285D02*
X67759580Y-95261904D01*
X67759580Y-95261904D02*
X67807200Y-95309523D01*
X67807200Y-95309523D02*
X67854819Y-95404761D01*
X67854819Y-95404761D02*
X67854819Y-95690475D01*
X67854819Y-95690475D02*
X67807200Y-95785713D01*
X67807200Y-95785713D02*
X67759580Y-95833332D01*
X77532142Y-86959580D02*
X77484523Y-87007200D01*
X77484523Y-87007200D02*
X77341666Y-87054819D01*
X77341666Y-87054819D02*
X77246428Y-87054819D01*
X77246428Y-87054819D02*
X77103571Y-87007200D01*
X77103571Y-87007200D02*
X77008333Y-86911961D01*
X77008333Y-86911961D02*
X76960714Y-86816723D01*
X76960714Y-86816723D02*
X76913095Y-86626247D01*
X76913095Y-86626247D02*
X76913095Y-86483390D01*
X76913095Y-86483390D02*
X76960714Y-86292914D01*
X76960714Y-86292914D02*
X77008333Y-86197676D01*
X77008333Y-86197676D02*
X77103571Y-86102438D01*
X77103571Y-86102438D02*
X77246428Y-86054819D01*
X77246428Y-86054819D02*
X77341666Y-86054819D01*
X77341666Y-86054819D02*
X77484523Y-86102438D01*
X77484523Y-86102438D02*
X77532142Y-86150057D01*
X78484523Y-87054819D02*
X77913095Y-87054819D01*
X78198809Y-87054819D02*
X78198809Y-86054819D01*
X78198809Y-86054819D02*
X78103571Y-86197676D01*
X78103571Y-86197676D02*
X78008333Y-86292914D01*
X78008333Y-86292914D02*
X77913095Y-86340533D01*
X79341666Y-86388152D02*
X79341666Y-87054819D01*
X79103571Y-86007200D02*
X78865476Y-86721485D01*
X78865476Y-86721485D02*
X79484523Y-86721485D01*
X87609580Y-77842857D02*
X87657200Y-77890476D01*
X87657200Y-77890476D02*
X87704819Y-78033333D01*
X87704819Y-78033333D02*
X87704819Y-78128571D01*
X87704819Y-78128571D02*
X87657200Y-78271428D01*
X87657200Y-78271428D02*
X87561961Y-78366666D01*
X87561961Y-78366666D02*
X87466723Y-78414285D01*
X87466723Y-78414285D02*
X87276247Y-78461904D01*
X87276247Y-78461904D02*
X87133390Y-78461904D01*
X87133390Y-78461904D02*
X86942914Y-78414285D01*
X86942914Y-78414285D02*
X86847676Y-78366666D01*
X86847676Y-78366666D02*
X86752438Y-78271428D01*
X86752438Y-78271428D02*
X86704819Y-78128571D01*
X86704819Y-78128571D02*
X86704819Y-78033333D01*
X86704819Y-78033333D02*
X86752438Y-77890476D01*
X86752438Y-77890476D02*
X86800057Y-77842857D01*
X87704819Y-76890476D02*
X87704819Y-77461904D01*
X87704819Y-77176190D02*
X86704819Y-77176190D01*
X86704819Y-77176190D02*
X86847676Y-77271428D01*
X86847676Y-77271428D02*
X86942914Y-77366666D01*
X86942914Y-77366666D02*
X86990533Y-77461904D01*
X87704819Y-75938095D02*
X87704819Y-76509523D01*
X87704819Y-76223809D02*
X86704819Y-76223809D01*
X86704819Y-76223809D02*
X86847676Y-76319047D01*
X86847676Y-76319047D02*
X86942914Y-76414285D01*
X86942914Y-76414285D02*
X86990533Y-76509523D01*
X84204819Y-77441666D02*
X83728628Y-77774999D01*
X84204819Y-78013094D02*
X83204819Y-78013094D01*
X83204819Y-78013094D02*
X83204819Y-77632142D01*
X83204819Y-77632142D02*
X83252438Y-77536904D01*
X83252438Y-77536904D02*
X83300057Y-77489285D01*
X83300057Y-77489285D02*
X83395295Y-77441666D01*
X83395295Y-77441666D02*
X83538152Y-77441666D01*
X83538152Y-77441666D02*
X83633390Y-77489285D01*
X83633390Y-77489285D02*
X83681009Y-77536904D01*
X83681009Y-77536904D02*
X83728628Y-77632142D01*
X83728628Y-77632142D02*
X83728628Y-78013094D01*
X84204819Y-76489285D02*
X84204819Y-77060713D01*
X84204819Y-76774999D02*
X83204819Y-76774999D01*
X83204819Y-76774999D02*
X83347676Y-76870237D01*
X83347676Y-76870237D02*
X83442914Y-76965475D01*
X83442914Y-76965475D02*
X83490533Y-77060713D01*
X71488095Y-84779819D02*
X71488095Y-85589342D01*
X71488095Y-85589342D02*
X71535714Y-85684580D01*
X71535714Y-85684580D02*
X71583333Y-85732200D01*
X71583333Y-85732200D02*
X71678571Y-85779819D01*
X71678571Y-85779819D02*
X71869047Y-85779819D01*
X71869047Y-85779819D02*
X71964285Y-85732200D01*
X71964285Y-85732200D02*
X72011904Y-85684580D01*
X72011904Y-85684580D02*
X72059523Y-85589342D01*
X72059523Y-85589342D02*
X72059523Y-84779819D01*
X72964285Y-85113152D02*
X72964285Y-85779819D01*
X72726190Y-84732200D02*
X72488095Y-85446485D01*
X72488095Y-85446485D02*
X73107142Y-85446485D01*
X85508333Y-99484580D02*
X85460714Y-99532200D01*
X85460714Y-99532200D02*
X85317857Y-99579819D01*
X85317857Y-99579819D02*
X85222619Y-99579819D01*
X85222619Y-99579819D02*
X85079762Y-99532200D01*
X85079762Y-99532200D02*
X84984524Y-99436961D01*
X84984524Y-99436961D02*
X84936905Y-99341723D01*
X84936905Y-99341723D02*
X84889286Y-99151247D01*
X84889286Y-99151247D02*
X84889286Y-99008390D01*
X84889286Y-99008390D02*
X84936905Y-98817914D01*
X84936905Y-98817914D02*
X84984524Y-98722676D01*
X84984524Y-98722676D02*
X85079762Y-98627438D01*
X85079762Y-98627438D02*
X85222619Y-98579819D01*
X85222619Y-98579819D02*
X85317857Y-98579819D01*
X85317857Y-98579819D02*
X85460714Y-98627438D01*
X85460714Y-98627438D02*
X85508333Y-98675057D01*
X85984524Y-99579819D02*
X86175000Y-99579819D01*
X86175000Y-99579819D02*
X86270238Y-99532200D01*
X86270238Y-99532200D02*
X86317857Y-99484580D01*
X86317857Y-99484580D02*
X86413095Y-99341723D01*
X86413095Y-99341723D02*
X86460714Y-99151247D01*
X86460714Y-99151247D02*
X86460714Y-98770295D01*
X86460714Y-98770295D02*
X86413095Y-98675057D01*
X86413095Y-98675057D02*
X86365476Y-98627438D01*
X86365476Y-98627438D02*
X86270238Y-98579819D01*
X86270238Y-98579819D02*
X86079762Y-98579819D01*
X86079762Y-98579819D02*
X85984524Y-98627438D01*
X85984524Y-98627438D02*
X85936905Y-98675057D01*
X85936905Y-98675057D02*
X85889286Y-98770295D01*
X85889286Y-98770295D02*
X85889286Y-99008390D01*
X85889286Y-99008390D02*
X85936905Y-99103628D01*
X85936905Y-99103628D02*
X85984524Y-99151247D01*
X85984524Y-99151247D02*
X86079762Y-99198866D01*
X86079762Y-99198866D02*
X86270238Y-99198866D01*
X86270238Y-99198866D02*
X86365476Y-99151247D01*
X86365476Y-99151247D02*
X86413095Y-99103628D01*
X86413095Y-99103628D02*
X86460714Y-99008390D01*
X91273809Y-76153628D02*
X91273809Y-76629819D01*
X90940476Y-75629819D02*
X91273809Y-76153628D01*
X91273809Y-76153628D02*
X91607142Y-75629819D01*
X92464285Y-76629819D02*
X91892857Y-76629819D01*
X92178571Y-76629819D02*
X92178571Y-75629819D01*
X92178571Y-75629819D02*
X92083333Y-75772676D01*
X92083333Y-75772676D02*
X91988095Y-75867914D01*
X91988095Y-75867914D02*
X91892857Y-75915533D01*
X115922333Y-101464819D02*
X115589000Y-100988628D01*
X115350905Y-101464819D02*
X115350905Y-100464819D01*
X115350905Y-100464819D02*
X115731857Y-100464819D01*
X115731857Y-100464819D02*
X115827095Y-100512438D01*
X115827095Y-100512438D02*
X115874714Y-100560057D01*
X115874714Y-100560057D02*
X115922333Y-100655295D01*
X115922333Y-100655295D02*
X115922333Y-100798152D01*
X115922333Y-100798152D02*
X115874714Y-100893390D01*
X115874714Y-100893390D02*
X115827095Y-100941009D01*
X115827095Y-100941009D02*
X115731857Y-100988628D01*
X115731857Y-100988628D02*
X115350905Y-100988628D01*
X116779476Y-100798152D02*
X116779476Y-101464819D01*
X116541381Y-100417200D02*
X116303286Y-101131485D01*
X116303286Y-101131485D02*
X116922333Y-101131485D01*
X77897142Y-88559580D02*
X77849523Y-88607200D01*
X77849523Y-88607200D02*
X77706666Y-88654819D01*
X77706666Y-88654819D02*
X77611428Y-88654819D01*
X77611428Y-88654819D02*
X77468571Y-88607200D01*
X77468571Y-88607200D02*
X77373333Y-88511961D01*
X77373333Y-88511961D02*
X77325714Y-88416723D01*
X77325714Y-88416723D02*
X77278095Y-88226247D01*
X77278095Y-88226247D02*
X77278095Y-88083390D01*
X77278095Y-88083390D02*
X77325714Y-87892914D01*
X77325714Y-87892914D02*
X77373333Y-87797676D01*
X77373333Y-87797676D02*
X77468571Y-87702438D01*
X77468571Y-87702438D02*
X77611428Y-87654819D01*
X77611428Y-87654819D02*
X77706666Y-87654819D01*
X77706666Y-87654819D02*
X77849523Y-87702438D01*
X77849523Y-87702438D02*
X77897142Y-87750057D01*
X78849523Y-88654819D02*
X78278095Y-88654819D01*
X78563809Y-88654819D02*
X78563809Y-87654819D01*
X78563809Y-87654819D02*
X78468571Y-87797676D01*
X78468571Y-87797676D02*
X78373333Y-87892914D01*
X78373333Y-87892914D02*
X78278095Y-87940533D01*
X79754285Y-87654819D02*
X79278095Y-87654819D01*
X79278095Y-87654819D02*
X79230476Y-88131009D01*
X79230476Y-88131009D02*
X79278095Y-88083390D01*
X79278095Y-88083390D02*
X79373333Y-88035771D01*
X79373333Y-88035771D02*
X79611428Y-88035771D01*
X79611428Y-88035771D02*
X79706666Y-88083390D01*
X79706666Y-88083390D02*
X79754285Y-88131009D01*
X79754285Y-88131009D02*
X79801904Y-88226247D01*
X79801904Y-88226247D02*
X79801904Y-88464342D01*
X79801904Y-88464342D02*
X79754285Y-88559580D01*
X79754285Y-88559580D02*
X79706666Y-88607200D01*
X79706666Y-88607200D02*
X79611428Y-88654819D01*
X79611428Y-88654819D02*
X79373333Y-88654819D01*
X79373333Y-88654819D02*
X79278095Y-88607200D01*
X79278095Y-88607200D02*
X79230476Y-88559580D01*
X97673580Y-96051666D02*
X97721200Y-96099285D01*
X97721200Y-96099285D02*
X97768819Y-96242142D01*
X97768819Y-96242142D02*
X97768819Y-96337380D01*
X97768819Y-96337380D02*
X97721200Y-96480237D01*
X97721200Y-96480237D02*
X97625961Y-96575475D01*
X97625961Y-96575475D02*
X97530723Y-96623094D01*
X97530723Y-96623094D02*
X97340247Y-96670713D01*
X97340247Y-96670713D02*
X97197390Y-96670713D01*
X97197390Y-96670713D02*
X97006914Y-96623094D01*
X97006914Y-96623094D02*
X96911676Y-96575475D01*
X96911676Y-96575475D02*
X96816438Y-96480237D01*
X96816438Y-96480237D02*
X96768819Y-96337380D01*
X96768819Y-96337380D02*
X96768819Y-96242142D01*
X96768819Y-96242142D02*
X96816438Y-96099285D01*
X96816438Y-96099285D02*
X96864057Y-96051666D01*
X96768819Y-95146904D02*
X96768819Y-95623094D01*
X96768819Y-95623094D02*
X97245009Y-95670713D01*
X97245009Y-95670713D02*
X97197390Y-95623094D01*
X97197390Y-95623094D02*
X97149771Y-95527856D01*
X97149771Y-95527856D02*
X97149771Y-95289761D01*
X97149771Y-95289761D02*
X97197390Y-95194523D01*
X97197390Y-95194523D02*
X97245009Y-95146904D01*
X97245009Y-95146904D02*
X97340247Y-95099285D01*
X97340247Y-95099285D02*
X97578342Y-95099285D01*
X97578342Y-95099285D02*
X97673580Y-95146904D01*
X97673580Y-95146904D02*
X97721200Y-95194523D01*
X97721200Y-95194523D02*
X97768819Y-95289761D01*
X97768819Y-95289761D02*
X97768819Y-95527856D01*
X97768819Y-95527856D02*
X97721200Y-95623094D01*
X97721200Y-95623094D02*
X97673580Y-95670713D01*
X77807142Y-85259580D02*
X77759523Y-85307200D01*
X77759523Y-85307200D02*
X77616666Y-85354819D01*
X77616666Y-85354819D02*
X77521428Y-85354819D01*
X77521428Y-85354819D02*
X77378571Y-85307200D01*
X77378571Y-85307200D02*
X77283333Y-85211961D01*
X77283333Y-85211961D02*
X77235714Y-85116723D01*
X77235714Y-85116723D02*
X77188095Y-84926247D01*
X77188095Y-84926247D02*
X77188095Y-84783390D01*
X77188095Y-84783390D02*
X77235714Y-84592914D01*
X77235714Y-84592914D02*
X77283333Y-84497676D01*
X77283333Y-84497676D02*
X77378571Y-84402438D01*
X77378571Y-84402438D02*
X77521428Y-84354819D01*
X77521428Y-84354819D02*
X77616666Y-84354819D01*
X77616666Y-84354819D02*
X77759523Y-84402438D01*
X77759523Y-84402438D02*
X77807142Y-84450057D01*
X78759523Y-85354819D02*
X78188095Y-85354819D01*
X78473809Y-85354819D02*
X78473809Y-84354819D01*
X78473809Y-84354819D02*
X78378571Y-84497676D01*
X78378571Y-84497676D02*
X78283333Y-84592914D01*
X78283333Y-84592914D02*
X78188095Y-84640533D01*
X79330952Y-84783390D02*
X79235714Y-84735771D01*
X79235714Y-84735771D02*
X79188095Y-84688152D01*
X79188095Y-84688152D02*
X79140476Y-84592914D01*
X79140476Y-84592914D02*
X79140476Y-84545295D01*
X79140476Y-84545295D02*
X79188095Y-84450057D01*
X79188095Y-84450057D02*
X79235714Y-84402438D01*
X79235714Y-84402438D02*
X79330952Y-84354819D01*
X79330952Y-84354819D02*
X79521428Y-84354819D01*
X79521428Y-84354819D02*
X79616666Y-84402438D01*
X79616666Y-84402438D02*
X79664285Y-84450057D01*
X79664285Y-84450057D02*
X79711904Y-84545295D01*
X79711904Y-84545295D02*
X79711904Y-84592914D01*
X79711904Y-84592914D02*
X79664285Y-84688152D01*
X79664285Y-84688152D02*
X79616666Y-84735771D01*
X79616666Y-84735771D02*
X79521428Y-84783390D01*
X79521428Y-84783390D02*
X79330952Y-84783390D01*
X79330952Y-84783390D02*
X79235714Y-84831009D01*
X79235714Y-84831009D02*
X79188095Y-84878628D01*
X79188095Y-84878628D02*
X79140476Y-84973866D01*
X79140476Y-84973866D02*
X79140476Y-85164342D01*
X79140476Y-85164342D02*
X79188095Y-85259580D01*
X79188095Y-85259580D02*
X79235714Y-85307200D01*
X79235714Y-85307200D02*
X79330952Y-85354819D01*
X79330952Y-85354819D02*
X79521428Y-85354819D01*
X79521428Y-85354819D02*
X79616666Y-85307200D01*
X79616666Y-85307200D02*
X79664285Y-85259580D01*
X79664285Y-85259580D02*
X79711904Y-85164342D01*
X79711904Y-85164342D02*
X79711904Y-84973866D01*
X79711904Y-84973866D02*
X79664285Y-84878628D01*
X79664285Y-84878628D02*
X79616666Y-84831009D01*
X79616666Y-84831009D02*
X79521428Y-84783390D01*
X93029819Y-82392857D02*
X92553628Y-82726190D01*
X93029819Y-82964285D02*
X92029819Y-82964285D01*
X92029819Y-82964285D02*
X92029819Y-82583333D01*
X92029819Y-82583333D02*
X92077438Y-82488095D01*
X92077438Y-82488095D02*
X92125057Y-82440476D01*
X92125057Y-82440476D02*
X92220295Y-82392857D01*
X92220295Y-82392857D02*
X92363152Y-82392857D01*
X92363152Y-82392857D02*
X92458390Y-82440476D01*
X92458390Y-82440476D02*
X92506009Y-82488095D01*
X92506009Y-82488095D02*
X92553628Y-82583333D01*
X92553628Y-82583333D02*
X92553628Y-82964285D01*
X93029819Y-81440476D02*
X93029819Y-82011904D01*
X93029819Y-81726190D02*
X92029819Y-81726190D01*
X92029819Y-81726190D02*
X92172676Y-81821428D01*
X92172676Y-81821428D02*
X92267914Y-81916666D01*
X92267914Y-81916666D02*
X92315533Y-82011904D01*
X93029819Y-80488095D02*
X93029819Y-81059523D01*
X93029819Y-80773809D02*
X92029819Y-80773809D01*
X92029819Y-80773809D02*
X92172676Y-80869047D01*
X92172676Y-80869047D02*
X92267914Y-80964285D01*
X92267914Y-80964285D02*
X92315533Y-81059523D01*
X95154819Y-95141666D02*
X94678628Y-95474999D01*
X95154819Y-95713094D02*
X94154819Y-95713094D01*
X94154819Y-95713094D02*
X94154819Y-95332142D01*
X94154819Y-95332142D02*
X94202438Y-95236904D01*
X94202438Y-95236904D02*
X94250057Y-95189285D01*
X94250057Y-95189285D02*
X94345295Y-95141666D01*
X94345295Y-95141666D02*
X94488152Y-95141666D01*
X94488152Y-95141666D02*
X94583390Y-95189285D01*
X94583390Y-95189285D02*
X94631009Y-95236904D01*
X94631009Y-95236904D02*
X94678628Y-95332142D01*
X94678628Y-95332142D02*
X94678628Y-95713094D01*
X94154819Y-94284523D02*
X94154819Y-94474999D01*
X94154819Y-94474999D02*
X94202438Y-94570237D01*
X94202438Y-94570237D02*
X94250057Y-94617856D01*
X94250057Y-94617856D02*
X94392914Y-94713094D01*
X94392914Y-94713094D02*
X94583390Y-94760713D01*
X94583390Y-94760713D02*
X94964342Y-94760713D01*
X94964342Y-94760713D02*
X95059580Y-94713094D01*
X95059580Y-94713094D02*
X95107200Y-94665475D01*
X95107200Y-94665475D02*
X95154819Y-94570237D01*
X95154819Y-94570237D02*
X95154819Y-94379761D01*
X95154819Y-94379761D02*
X95107200Y-94284523D01*
X95107200Y-94284523D02*
X95059580Y-94236904D01*
X95059580Y-94236904D02*
X94964342Y-94189285D01*
X94964342Y-94189285D02*
X94726247Y-94189285D01*
X94726247Y-94189285D02*
X94631009Y-94236904D01*
X94631009Y-94236904D02*
X94583390Y-94284523D01*
X94583390Y-94284523D02*
X94535771Y-94379761D01*
X94535771Y-94379761D02*
X94535771Y-94570237D01*
X94535771Y-94570237D02*
X94583390Y-94665475D01*
X94583390Y-94665475D02*
X94631009Y-94713094D01*
X94631009Y-94713094D02*
X94726247Y-94760713D01*
X67679580Y-82341666D02*
X67727200Y-82389285D01*
X67727200Y-82389285D02*
X67774819Y-82532142D01*
X67774819Y-82532142D02*
X67774819Y-82627380D01*
X67774819Y-82627380D02*
X67727200Y-82770237D01*
X67727200Y-82770237D02*
X67631961Y-82865475D01*
X67631961Y-82865475D02*
X67536723Y-82913094D01*
X67536723Y-82913094D02*
X67346247Y-82960713D01*
X67346247Y-82960713D02*
X67203390Y-82960713D01*
X67203390Y-82960713D02*
X67012914Y-82913094D01*
X67012914Y-82913094D02*
X66917676Y-82865475D01*
X66917676Y-82865475D02*
X66822438Y-82770237D01*
X66822438Y-82770237D02*
X66774819Y-82627380D01*
X66774819Y-82627380D02*
X66774819Y-82532142D01*
X66774819Y-82532142D02*
X66822438Y-82389285D01*
X66822438Y-82389285D02*
X66870057Y-82341666D01*
X67774819Y-81389285D02*
X67774819Y-81960713D01*
X67774819Y-81674999D02*
X66774819Y-81674999D01*
X66774819Y-81674999D02*
X66917676Y-81770237D01*
X66917676Y-81770237D02*
X67012914Y-81865475D01*
X67012914Y-81865475D02*
X67060533Y-81960713D01*
X93707142Y-76484580D02*
X93659523Y-76532200D01*
X93659523Y-76532200D02*
X93516666Y-76579819D01*
X93516666Y-76579819D02*
X93421428Y-76579819D01*
X93421428Y-76579819D02*
X93278571Y-76532200D01*
X93278571Y-76532200D02*
X93183333Y-76436961D01*
X93183333Y-76436961D02*
X93135714Y-76341723D01*
X93135714Y-76341723D02*
X93088095Y-76151247D01*
X93088095Y-76151247D02*
X93088095Y-76008390D01*
X93088095Y-76008390D02*
X93135714Y-75817914D01*
X93135714Y-75817914D02*
X93183333Y-75722676D01*
X93183333Y-75722676D02*
X93278571Y-75627438D01*
X93278571Y-75627438D02*
X93421428Y-75579819D01*
X93421428Y-75579819D02*
X93516666Y-75579819D01*
X93516666Y-75579819D02*
X93659523Y-75627438D01*
X93659523Y-75627438D02*
X93707142Y-75675057D01*
X94088095Y-75675057D02*
X94135714Y-75627438D01*
X94135714Y-75627438D02*
X94230952Y-75579819D01*
X94230952Y-75579819D02*
X94469047Y-75579819D01*
X94469047Y-75579819D02*
X94564285Y-75627438D01*
X94564285Y-75627438D02*
X94611904Y-75675057D01*
X94611904Y-75675057D02*
X94659523Y-75770295D01*
X94659523Y-75770295D02*
X94659523Y-75865533D01*
X94659523Y-75865533D02*
X94611904Y-76008390D01*
X94611904Y-76008390D02*
X94040476Y-76579819D01*
X94040476Y-76579819D02*
X94659523Y-76579819D01*
X94992857Y-75579819D02*
X95659523Y-75579819D01*
X95659523Y-75579819D02*
X95230952Y-76579819D01*
X98954819Y-84892857D02*
X98478628Y-85226190D01*
X98954819Y-85464285D02*
X97954819Y-85464285D01*
X97954819Y-85464285D02*
X97954819Y-85083333D01*
X97954819Y-85083333D02*
X98002438Y-84988095D01*
X98002438Y-84988095D02*
X98050057Y-84940476D01*
X98050057Y-84940476D02*
X98145295Y-84892857D01*
X98145295Y-84892857D02*
X98288152Y-84892857D01*
X98288152Y-84892857D02*
X98383390Y-84940476D01*
X98383390Y-84940476D02*
X98431009Y-84988095D01*
X98431009Y-84988095D02*
X98478628Y-85083333D01*
X98478628Y-85083333D02*
X98478628Y-85464285D01*
X98954819Y-83940476D02*
X98954819Y-84511904D01*
X98954819Y-84226190D02*
X97954819Y-84226190D01*
X97954819Y-84226190D02*
X98097676Y-84321428D01*
X98097676Y-84321428D02*
X98192914Y-84416666D01*
X98192914Y-84416666D02*
X98240533Y-84511904D01*
X97954819Y-83321428D02*
X97954819Y-83226190D01*
X97954819Y-83226190D02*
X98002438Y-83130952D01*
X98002438Y-83130952D02*
X98050057Y-83083333D01*
X98050057Y-83083333D02*
X98145295Y-83035714D01*
X98145295Y-83035714D02*
X98335771Y-82988095D01*
X98335771Y-82988095D02*
X98573866Y-82988095D01*
X98573866Y-82988095D02*
X98764342Y-83035714D01*
X98764342Y-83035714D02*
X98859580Y-83083333D01*
X98859580Y-83083333D02*
X98907200Y-83130952D01*
X98907200Y-83130952D02*
X98954819Y-83226190D01*
X98954819Y-83226190D02*
X98954819Y-83321428D01*
X98954819Y-83321428D02*
X98907200Y-83416666D01*
X98907200Y-83416666D02*
X98859580Y-83464285D01*
X98859580Y-83464285D02*
X98764342Y-83511904D01*
X98764342Y-83511904D02*
X98573866Y-83559523D01*
X98573866Y-83559523D02*
X98335771Y-83559523D01*
X98335771Y-83559523D02*
X98145295Y-83511904D01*
X98145295Y-83511904D02*
X98050057Y-83464285D01*
X98050057Y-83464285D02*
X98002438Y-83416666D01*
X98002438Y-83416666D02*
X97954819Y-83321428D01*
X100333333Y-78609580D02*
X100285714Y-78657200D01*
X100285714Y-78657200D02*
X100142857Y-78704819D01*
X100142857Y-78704819D02*
X100047619Y-78704819D01*
X100047619Y-78704819D02*
X99904762Y-78657200D01*
X99904762Y-78657200D02*
X99809524Y-78561961D01*
X99809524Y-78561961D02*
X99761905Y-78466723D01*
X99761905Y-78466723D02*
X99714286Y-78276247D01*
X99714286Y-78276247D02*
X99714286Y-78133390D01*
X99714286Y-78133390D02*
X99761905Y-77942914D01*
X99761905Y-77942914D02*
X99809524Y-77847676D01*
X99809524Y-77847676D02*
X99904762Y-77752438D01*
X99904762Y-77752438D02*
X100047619Y-77704819D01*
X100047619Y-77704819D02*
X100142857Y-77704819D01*
X100142857Y-77704819D02*
X100285714Y-77752438D01*
X100285714Y-77752438D02*
X100333333Y-77800057D01*
X100904762Y-78133390D02*
X100809524Y-78085771D01*
X100809524Y-78085771D02*
X100761905Y-78038152D01*
X100761905Y-78038152D02*
X100714286Y-77942914D01*
X100714286Y-77942914D02*
X100714286Y-77895295D01*
X100714286Y-77895295D02*
X100761905Y-77800057D01*
X100761905Y-77800057D02*
X100809524Y-77752438D01*
X100809524Y-77752438D02*
X100904762Y-77704819D01*
X100904762Y-77704819D02*
X101095238Y-77704819D01*
X101095238Y-77704819D02*
X101190476Y-77752438D01*
X101190476Y-77752438D02*
X101238095Y-77800057D01*
X101238095Y-77800057D02*
X101285714Y-77895295D01*
X101285714Y-77895295D02*
X101285714Y-77942914D01*
X101285714Y-77942914D02*
X101238095Y-78038152D01*
X101238095Y-78038152D02*
X101190476Y-78085771D01*
X101190476Y-78085771D02*
X101095238Y-78133390D01*
X101095238Y-78133390D02*
X100904762Y-78133390D01*
X100904762Y-78133390D02*
X100809524Y-78181009D01*
X100809524Y-78181009D02*
X100761905Y-78228628D01*
X100761905Y-78228628D02*
X100714286Y-78323866D01*
X100714286Y-78323866D02*
X100714286Y-78514342D01*
X100714286Y-78514342D02*
X100761905Y-78609580D01*
X100761905Y-78609580D02*
X100809524Y-78657200D01*
X100809524Y-78657200D02*
X100904762Y-78704819D01*
X100904762Y-78704819D02*
X101095238Y-78704819D01*
X101095238Y-78704819D02*
X101190476Y-78657200D01*
X101190476Y-78657200D02*
X101238095Y-78609580D01*
X101238095Y-78609580D02*
X101285714Y-78514342D01*
X101285714Y-78514342D02*
X101285714Y-78323866D01*
X101285714Y-78323866D02*
X101238095Y-78228628D01*
X101238095Y-78228628D02*
X101190476Y-78181009D01*
X101190476Y-78181009D02*
X101095238Y-78133390D01*
X98258333Y-87254819D02*
X97925000Y-86778628D01*
X97686905Y-87254819D02*
X97686905Y-86254819D01*
X97686905Y-86254819D02*
X98067857Y-86254819D01*
X98067857Y-86254819D02*
X98163095Y-86302438D01*
X98163095Y-86302438D02*
X98210714Y-86350057D01*
X98210714Y-86350057D02*
X98258333Y-86445295D01*
X98258333Y-86445295D02*
X98258333Y-86588152D01*
X98258333Y-86588152D02*
X98210714Y-86683390D01*
X98210714Y-86683390D02*
X98163095Y-86731009D01*
X98163095Y-86731009D02*
X98067857Y-86778628D01*
X98067857Y-86778628D02*
X97686905Y-86778628D01*
X98734524Y-87254819D02*
X98925000Y-87254819D01*
X98925000Y-87254819D02*
X99020238Y-87207200D01*
X99020238Y-87207200D02*
X99067857Y-87159580D01*
X99067857Y-87159580D02*
X99163095Y-87016723D01*
X99163095Y-87016723D02*
X99210714Y-86826247D01*
X99210714Y-86826247D02*
X99210714Y-86445295D01*
X99210714Y-86445295D02*
X99163095Y-86350057D01*
X99163095Y-86350057D02*
X99115476Y-86302438D01*
X99115476Y-86302438D02*
X99020238Y-86254819D01*
X99020238Y-86254819D02*
X98829762Y-86254819D01*
X98829762Y-86254819D02*
X98734524Y-86302438D01*
X98734524Y-86302438D02*
X98686905Y-86350057D01*
X98686905Y-86350057D02*
X98639286Y-86445295D01*
X98639286Y-86445295D02*
X98639286Y-86683390D01*
X98639286Y-86683390D02*
X98686905Y-86778628D01*
X98686905Y-86778628D02*
X98734524Y-86826247D01*
X98734524Y-86826247D02*
X98829762Y-86873866D01*
X98829762Y-86873866D02*
X99020238Y-86873866D01*
X99020238Y-86873866D02*
X99115476Y-86826247D01*
X99115476Y-86826247D02*
X99163095Y-86778628D01*
X99163095Y-86778628D02*
X99210714Y-86683390D01*
X88557142Y-76409580D02*
X88509523Y-76457200D01*
X88509523Y-76457200D02*
X88366666Y-76504819D01*
X88366666Y-76504819D02*
X88271428Y-76504819D01*
X88271428Y-76504819D02*
X88128571Y-76457200D01*
X88128571Y-76457200D02*
X88033333Y-76361961D01*
X88033333Y-76361961D02*
X87985714Y-76266723D01*
X87985714Y-76266723D02*
X87938095Y-76076247D01*
X87938095Y-76076247D02*
X87938095Y-75933390D01*
X87938095Y-75933390D02*
X87985714Y-75742914D01*
X87985714Y-75742914D02*
X88033333Y-75647676D01*
X88033333Y-75647676D02*
X88128571Y-75552438D01*
X88128571Y-75552438D02*
X88271428Y-75504819D01*
X88271428Y-75504819D02*
X88366666Y-75504819D01*
X88366666Y-75504819D02*
X88509523Y-75552438D01*
X88509523Y-75552438D02*
X88557142Y-75600057D01*
X88938095Y-75600057D02*
X88985714Y-75552438D01*
X88985714Y-75552438D02*
X89080952Y-75504819D01*
X89080952Y-75504819D02*
X89319047Y-75504819D01*
X89319047Y-75504819D02*
X89414285Y-75552438D01*
X89414285Y-75552438D02*
X89461904Y-75600057D01*
X89461904Y-75600057D02*
X89509523Y-75695295D01*
X89509523Y-75695295D02*
X89509523Y-75790533D01*
X89509523Y-75790533D02*
X89461904Y-75933390D01*
X89461904Y-75933390D02*
X88890476Y-76504819D01*
X88890476Y-76504819D02*
X89509523Y-76504819D01*
X90366666Y-75504819D02*
X90176190Y-75504819D01*
X90176190Y-75504819D02*
X90080952Y-75552438D01*
X90080952Y-75552438D02*
X90033333Y-75600057D01*
X90033333Y-75600057D02*
X89938095Y-75742914D01*
X89938095Y-75742914D02*
X89890476Y-75933390D01*
X89890476Y-75933390D02*
X89890476Y-76314342D01*
X89890476Y-76314342D02*
X89938095Y-76409580D01*
X89938095Y-76409580D02*
X89985714Y-76457200D01*
X89985714Y-76457200D02*
X90080952Y-76504819D01*
X90080952Y-76504819D02*
X90271428Y-76504819D01*
X90271428Y-76504819D02*
X90366666Y-76457200D01*
X90366666Y-76457200D02*
X90414285Y-76409580D01*
X90414285Y-76409580D02*
X90461904Y-76314342D01*
X90461904Y-76314342D02*
X90461904Y-76076247D01*
X90461904Y-76076247D02*
X90414285Y-75981009D01*
X90414285Y-75981009D02*
X90366666Y-75933390D01*
X90366666Y-75933390D02*
X90271428Y-75885771D01*
X90271428Y-75885771D02*
X90080952Y-75885771D01*
X90080952Y-75885771D02*
X89985714Y-75933390D01*
X89985714Y-75933390D02*
X89938095Y-75981009D01*
X89938095Y-75981009D02*
X89890476Y-76076247D01*
X106666666Y-77954819D02*
X106666666Y-78669104D01*
X106666666Y-78669104D02*
X106619047Y-78811961D01*
X106619047Y-78811961D02*
X106523809Y-78907200D01*
X106523809Y-78907200D02*
X106380952Y-78954819D01*
X106380952Y-78954819D02*
X106285714Y-78954819D01*
X107095238Y-78050057D02*
X107142857Y-78002438D01*
X107142857Y-78002438D02*
X107238095Y-77954819D01*
X107238095Y-77954819D02*
X107476190Y-77954819D01*
X107476190Y-77954819D02*
X107571428Y-78002438D01*
X107571428Y-78002438D02*
X107619047Y-78050057D01*
X107619047Y-78050057D02*
X107666666Y-78145295D01*
X107666666Y-78145295D02*
X107666666Y-78240533D01*
X107666666Y-78240533D02*
X107619047Y-78383390D01*
X107619047Y-78383390D02*
X107047619Y-78954819D01*
X107047619Y-78954819D02*
X107666666Y-78954819D01*
X73388095Y-75354819D02*
X73388095Y-76164342D01*
X73388095Y-76164342D02*
X73435714Y-76259580D01*
X73435714Y-76259580D02*
X73483333Y-76307200D01*
X73483333Y-76307200D02*
X73578571Y-76354819D01*
X73578571Y-76354819D02*
X73769047Y-76354819D01*
X73769047Y-76354819D02*
X73864285Y-76307200D01*
X73864285Y-76307200D02*
X73911904Y-76259580D01*
X73911904Y-76259580D02*
X73959523Y-76164342D01*
X73959523Y-76164342D02*
X73959523Y-75354819D01*
X74388095Y-75450057D02*
X74435714Y-75402438D01*
X74435714Y-75402438D02*
X74530952Y-75354819D01*
X74530952Y-75354819D02*
X74769047Y-75354819D01*
X74769047Y-75354819D02*
X74864285Y-75402438D01*
X74864285Y-75402438D02*
X74911904Y-75450057D01*
X74911904Y-75450057D02*
X74959523Y-75545295D01*
X74959523Y-75545295D02*
X74959523Y-75640533D01*
X74959523Y-75640533D02*
X74911904Y-75783390D01*
X74911904Y-75783390D02*
X74340476Y-76354819D01*
X74340476Y-76354819D02*
X74959523Y-76354819D01*
X90284580Y-97842857D02*
X90332200Y-97890476D01*
X90332200Y-97890476D02*
X90379819Y-98033333D01*
X90379819Y-98033333D02*
X90379819Y-98128571D01*
X90379819Y-98128571D02*
X90332200Y-98271428D01*
X90332200Y-98271428D02*
X90236961Y-98366666D01*
X90236961Y-98366666D02*
X90141723Y-98414285D01*
X90141723Y-98414285D02*
X89951247Y-98461904D01*
X89951247Y-98461904D02*
X89808390Y-98461904D01*
X89808390Y-98461904D02*
X89617914Y-98414285D01*
X89617914Y-98414285D02*
X89522676Y-98366666D01*
X89522676Y-98366666D02*
X89427438Y-98271428D01*
X89427438Y-98271428D02*
X89379819Y-98128571D01*
X89379819Y-98128571D02*
X89379819Y-98033333D01*
X89379819Y-98033333D02*
X89427438Y-97890476D01*
X89427438Y-97890476D02*
X89475057Y-97842857D01*
X89475057Y-97461904D02*
X89427438Y-97414285D01*
X89427438Y-97414285D02*
X89379819Y-97319047D01*
X89379819Y-97319047D02*
X89379819Y-97080952D01*
X89379819Y-97080952D02*
X89427438Y-96985714D01*
X89427438Y-96985714D02*
X89475057Y-96938095D01*
X89475057Y-96938095D02*
X89570295Y-96890476D01*
X89570295Y-96890476D02*
X89665533Y-96890476D01*
X89665533Y-96890476D02*
X89808390Y-96938095D01*
X89808390Y-96938095D02*
X90379819Y-97509523D01*
X90379819Y-97509523D02*
X90379819Y-96890476D01*
X90379819Y-95938095D02*
X90379819Y-96509523D01*
X90379819Y-96223809D02*
X89379819Y-96223809D01*
X89379819Y-96223809D02*
X89522676Y-96319047D01*
X89522676Y-96319047D02*
X89617914Y-96414285D01*
X89617914Y-96414285D02*
X89665533Y-96509523D01*
X97833333Y-88704819D02*
X97500000Y-88228628D01*
X97261905Y-88704819D02*
X97261905Y-87704819D01*
X97261905Y-87704819D02*
X97642857Y-87704819D01*
X97642857Y-87704819D02*
X97738095Y-87752438D01*
X97738095Y-87752438D02*
X97785714Y-87800057D01*
X97785714Y-87800057D02*
X97833333Y-87895295D01*
X97833333Y-87895295D02*
X97833333Y-88038152D01*
X97833333Y-88038152D02*
X97785714Y-88133390D01*
X97785714Y-88133390D02*
X97738095Y-88181009D01*
X97738095Y-88181009D02*
X97642857Y-88228628D01*
X97642857Y-88228628D02*
X97261905Y-88228628D01*
X98166667Y-87704819D02*
X98833333Y-87704819D01*
X98833333Y-87704819D02*
X98404762Y-88704819D01*
X85709580Y-97592857D02*
X85757200Y-97640476D01*
X85757200Y-97640476D02*
X85804819Y-97783333D01*
X85804819Y-97783333D02*
X85804819Y-97878571D01*
X85804819Y-97878571D02*
X85757200Y-98021428D01*
X85757200Y-98021428D02*
X85661961Y-98116666D01*
X85661961Y-98116666D02*
X85566723Y-98164285D01*
X85566723Y-98164285D02*
X85376247Y-98211904D01*
X85376247Y-98211904D02*
X85233390Y-98211904D01*
X85233390Y-98211904D02*
X85042914Y-98164285D01*
X85042914Y-98164285D02*
X84947676Y-98116666D01*
X84947676Y-98116666D02*
X84852438Y-98021428D01*
X84852438Y-98021428D02*
X84804819Y-97878571D01*
X84804819Y-97878571D02*
X84804819Y-97783333D01*
X84804819Y-97783333D02*
X84852438Y-97640476D01*
X84852438Y-97640476D02*
X84900057Y-97592857D01*
X85804819Y-96640476D02*
X85804819Y-97211904D01*
X85804819Y-96926190D02*
X84804819Y-96926190D01*
X84804819Y-96926190D02*
X84947676Y-97021428D01*
X84947676Y-97021428D02*
X85042914Y-97116666D01*
X85042914Y-97116666D02*
X85090533Y-97211904D01*
X84900057Y-96259523D02*
X84852438Y-96211904D01*
X84852438Y-96211904D02*
X84804819Y-96116666D01*
X84804819Y-96116666D02*
X84804819Y-95878571D01*
X84804819Y-95878571D02*
X84852438Y-95783333D01*
X84852438Y-95783333D02*
X84900057Y-95735714D01*
X84900057Y-95735714D02*
X84995295Y-95688095D01*
X84995295Y-95688095D02*
X85090533Y-95688095D01*
X85090533Y-95688095D02*
X85233390Y-95735714D01*
X85233390Y-95735714D02*
X85804819Y-96307142D01*
X85804819Y-96307142D02*
X85804819Y-95688095D01*
X103247333Y-75369580D02*
X103199714Y-75417200D01*
X103199714Y-75417200D02*
X103056857Y-75464819D01*
X103056857Y-75464819D02*
X102961619Y-75464819D01*
X102961619Y-75464819D02*
X102818762Y-75417200D01*
X102818762Y-75417200D02*
X102723524Y-75321961D01*
X102723524Y-75321961D02*
X102675905Y-75226723D01*
X102675905Y-75226723D02*
X102628286Y-75036247D01*
X102628286Y-75036247D02*
X102628286Y-74893390D01*
X102628286Y-74893390D02*
X102675905Y-74702914D01*
X102675905Y-74702914D02*
X102723524Y-74607676D01*
X102723524Y-74607676D02*
X102818762Y-74512438D01*
X102818762Y-74512438D02*
X102961619Y-74464819D01*
X102961619Y-74464819D02*
X103056857Y-74464819D01*
X103056857Y-74464819D02*
X103199714Y-74512438D01*
X103199714Y-74512438D02*
X103247333Y-74560057D01*
X103580667Y-74464819D02*
X104247333Y-74464819D01*
X104247333Y-74464819D02*
X103818762Y-75464819D01*
X103097333Y-101369580D02*
X103049714Y-101417200D01*
X103049714Y-101417200D02*
X102906857Y-101464819D01*
X102906857Y-101464819D02*
X102811619Y-101464819D01*
X102811619Y-101464819D02*
X102668762Y-101417200D01*
X102668762Y-101417200D02*
X102573524Y-101321961D01*
X102573524Y-101321961D02*
X102525905Y-101226723D01*
X102525905Y-101226723D02*
X102478286Y-101036247D01*
X102478286Y-101036247D02*
X102478286Y-100893390D01*
X102478286Y-100893390D02*
X102525905Y-100702914D01*
X102525905Y-100702914D02*
X102573524Y-100607676D01*
X102573524Y-100607676D02*
X102668762Y-100512438D01*
X102668762Y-100512438D02*
X102811619Y-100464819D01*
X102811619Y-100464819D02*
X102906857Y-100464819D01*
X102906857Y-100464819D02*
X103049714Y-100512438D01*
X103049714Y-100512438D02*
X103097333Y-100560057D01*
X103954476Y-100464819D02*
X103764000Y-100464819D01*
X103764000Y-100464819D02*
X103668762Y-100512438D01*
X103668762Y-100512438D02*
X103621143Y-100560057D01*
X103621143Y-100560057D02*
X103525905Y-100702914D01*
X103525905Y-100702914D02*
X103478286Y-100893390D01*
X103478286Y-100893390D02*
X103478286Y-101274342D01*
X103478286Y-101274342D02*
X103525905Y-101369580D01*
X103525905Y-101369580D02*
X103573524Y-101417200D01*
X103573524Y-101417200D02*
X103668762Y-101464819D01*
X103668762Y-101464819D02*
X103859238Y-101464819D01*
X103859238Y-101464819D02*
X103954476Y-101417200D01*
X103954476Y-101417200D02*
X104002095Y-101369580D01*
X104002095Y-101369580D02*
X104049714Y-101274342D01*
X104049714Y-101274342D02*
X104049714Y-101036247D01*
X104049714Y-101036247D02*
X104002095Y-100941009D01*
X104002095Y-100941009D02*
X103954476Y-100893390D01*
X103954476Y-100893390D02*
X103859238Y-100845771D01*
X103859238Y-100845771D02*
X103668762Y-100845771D01*
X103668762Y-100845771D02*
X103573524Y-100893390D01*
X103573524Y-100893390D02*
X103525905Y-100941009D01*
X103525905Y-100941009D02*
X103478286Y-101036247D01*
X96441666Y-76581009D02*
X96108333Y-76581009D01*
X96108333Y-77104819D02*
X96108333Y-76104819D01*
X96108333Y-76104819D02*
X96584523Y-76104819D01*
X97298809Y-76581009D02*
X97441666Y-76628628D01*
X97441666Y-76628628D02*
X97489285Y-76676247D01*
X97489285Y-76676247D02*
X97536904Y-76771485D01*
X97536904Y-76771485D02*
X97536904Y-76914342D01*
X97536904Y-76914342D02*
X97489285Y-77009580D01*
X97489285Y-77009580D02*
X97441666Y-77057200D01*
X97441666Y-77057200D02*
X97346428Y-77104819D01*
X97346428Y-77104819D02*
X96965476Y-77104819D01*
X96965476Y-77104819D02*
X96965476Y-76104819D01*
X96965476Y-76104819D02*
X97298809Y-76104819D01*
X97298809Y-76104819D02*
X97394047Y-76152438D01*
X97394047Y-76152438D02*
X97441666Y-76200057D01*
X97441666Y-76200057D02*
X97489285Y-76295295D01*
X97489285Y-76295295D02*
X97489285Y-76390533D01*
X97489285Y-76390533D02*
X97441666Y-76485771D01*
X97441666Y-76485771D02*
X97394047Y-76533390D01*
X97394047Y-76533390D02*
X97298809Y-76581009D01*
X97298809Y-76581009D02*
X96965476Y-76581009D01*
X98394047Y-76438152D02*
X98394047Y-77104819D01*
X98155952Y-76057200D02*
X97917857Y-76771485D01*
X97917857Y-76771485D02*
X98536904Y-76771485D01*
X92304819Y-97391666D02*
X91828628Y-97724999D01*
X92304819Y-97963094D02*
X91304819Y-97963094D01*
X91304819Y-97963094D02*
X91304819Y-97582142D01*
X91304819Y-97582142D02*
X91352438Y-97486904D01*
X91352438Y-97486904D02*
X91400057Y-97439285D01*
X91400057Y-97439285D02*
X91495295Y-97391666D01*
X91495295Y-97391666D02*
X91638152Y-97391666D01*
X91638152Y-97391666D02*
X91733390Y-97439285D01*
X91733390Y-97439285D02*
X91781009Y-97486904D01*
X91781009Y-97486904D02*
X91828628Y-97582142D01*
X91828628Y-97582142D02*
X91828628Y-97963094D01*
X91400057Y-97010713D02*
X91352438Y-96963094D01*
X91352438Y-96963094D02*
X91304819Y-96867856D01*
X91304819Y-96867856D02*
X91304819Y-96629761D01*
X91304819Y-96629761D02*
X91352438Y-96534523D01*
X91352438Y-96534523D02*
X91400057Y-96486904D01*
X91400057Y-96486904D02*
X91495295Y-96439285D01*
X91495295Y-96439285D02*
X91590533Y-96439285D01*
X91590533Y-96439285D02*
X91733390Y-96486904D01*
X91733390Y-96486904D02*
X92304819Y-97058332D01*
X92304819Y-97058332D02*
X92304819Y-96439285D01*
X78557142Y-83709580D02*
X78509523Y-83757200D01*
X78509523Y-83757200D02*
X78366666Y-83804819D01*
X78366666Y-83804819D02*
X78271428Y-83804819D01*
X78271428Y-83804819D02*
X78128571Y-83757200D01*
X78128571Y-83757200D02*
X78033333Y-83661961D01*
X78033333Y-83661961D02*
X77985714Y-83566723D01*
X77985714Y-83566723D02*
X77938095Y-83376247D01*
X77938095Y-83376247D02*
X77938095Y-83233390D01*
X77938095Y-83233390D02*
X77985714Y-83042914D01*
X77985714Y-83042914D02*
X78033333Y-82947676D01*
X78033333Y-82947676D02*
X78128571Y-82852438D01*
X78128571Y-82852438D02*
X78271428Y-82804819D01*
X78271428Y-82804819D02*
X78366666Y-82804819D01*
X78366666Y-82804819D02*
X78509523Y-82852438D01*
X78509523Y-82852438D02*
X78557142Y-82900057D01*
X78938095Y-82900057D02*
X78985714Y-82852438D01*
X78985714Y-82852438D02*
X79080952Y-82804819D01*
X79080952Y-82804819D02*
X79319047Y-82804819D01*
X79319047Y-82804819D02*
X79414285Y-82852438D01*
X79414285Y-82852438D02*
X79461904Y-82900057D01*
X79461904Y-82900057D02*
X79509523Y-82995295D01*
X79509523Y-82995295D02*
X79509523Y-83090533D01*
X79509523Y-83090533D02*
X79461904Y-83233390D01*
X79461904Y-83233390D02*
X78890476Y-83804819D01*
X78890476Y-83804819D02*
X79509523Y-83804819D01*
X80128571Y-82804819D02*
X80223809Y-82804819D01*
X80223809Y-82804819D02*
X80319047Y-82852438D01*
X80319047Y-82852438D02*
X80366666Y-82900057D01*
X80366666Y-82900057D02*
X80414285Y-82995295D01*
X80414285Y-82995295D02*
X80461904Y-83185771D01*
X80461904Y-83185771D02*
X80461904Y-83423866D01*
X80461904Y-83423866D02*
X80414285Y-83614342D01*
X80414285Y-83614342D02*
X80366666Y-83709580D01*
X80366666Y-83709580D02*
X80319047Y-83757200D01*
X80319047Y-83757200D02*
X80223809Y-83804819D01*
X80223809Y-83804819D02*
X80128571Y-83804819D01*
X80128571Y-83804819D02*
X80033333Y-83757200D01*
X80033333Y-83757200D02*
X79985714Y-83709580D01*
X79985714Y-83709580D02*
X79938095Y-83614342D01*
X79938095Y-83614342D02*
X79890476Y-83423866D01*
X79890476Y-83423866D02*
X79890476Y-83185771D01*
X79890476Y-83185771D02*
X79938095Y-82995295D01*
X79938095Y-82995295D02*
X79985714Y-82900057D01*
X79985714Y-82900057D02*
X80033333Y-82852438D01*
X80033333Y-82852438D02*
X80128571Y-82804819D01*
X96433333Y-92184819D02*
X96100000Y-91708628D01*
X95861905Y-92184819D02*
X95861905Y-91184819D01*
X95861905Y-91184819D02*
X96242857Y-91184819D01*
X96242857Y-91184819D02*
X96338095Y-91232438D01*
X96338095Y-91232438D02*
X96385714Y-91280057D01*
X96385714Y-91280057D02*
X96433333Y-91375295D01*
X96433333Y-91375295D02*
X96433333Y-91518152D01*
X96433333Y-91518152D02*
X96385714Y-91613390D01*
X96385714Y-91613390D02*
X96338095Y-91661009D01*
X96338095Y-91661009D02*
X96242857Y-91708628D01*
X96242857Y-91708628D02*
X95861905Y-91708628D01*
X97004762Y-91613390D02*
X96909524Y-91565771D01*
X96909524Y-91565771D02*
X96861905Y-91518152D01*
X96861905Y-91518152D02*
X96814286Y-91422914D01*
X96814286Y-91422914D02*
X96814286Y-91375295D01*
X96814286Y-91375295D02*
X96861905Y-91280057D01*
X96861905Y-91280057D02*
X96909524Y-91232438D01*
X96909524Y-91232438D02*
X97004762Y-91184819D01*
X97004762Y-91184819D02*
X97195238Y-91184819D01*
X97195238Y-91184819D02*
X97290476Y-91232438D01*
X97290476Y-91232438D02*
X97338095Y-91280057D01*
X97338095Y-91280057D02*
X97385714Y-91375295D01*
X97385714Y-91375295D02*
X97385714Y-91422914D01*
X97385714Y-91422914D02*
X97338095Y-91518152D01*
X97338095Y-91518152D02*
X97290476Y-91565771D01*
X97290476Y-91565771D02*
X97195238Y-91613390D01*
X97195238Y-91613390D02*
X97004762Y-91613390D01*
X97004762Y-91613390D02*
X96909524Y-91661009D01*
X96909524Y-91661009D02*
X96861905Y-91708628D01*
X96861905Y-91708628D02*
X96814286Y-91803866D01*
X96814286Y-91803866D02*
X96814286Y-91994342D01*
X96814286Y-91994342D02*
X96861905Y-92089580D01*
X96861905Y-92089580D02*
X96909524Y-92137200D01*
X96909524Y-92137200D02*
X97004762Y-92184819D01*
X97004762Y-92184819D02*
X97195238Y-92184819D01*
X97195238Y-92184819D02*
X97290476Y-92137200D01*
X97290476Y-92137200D02*
X97338095Y-92089580D01*
X97338095Y-92089580D02*
X97385714Y-91994342D01*
X97385714Y-91994342D02*
X97385714Y-91803866D01*
X97385714Y-91803866D02*
X97338095Y-91708628D01*
X97338095Y-91708628D02*
X97290476Y-91661009D01*
X97290476Y-91661009D02*
X97195238Y-91613390D01*
X85909580Y-77567857D02*
X85957200Y-77615476D01*
X85957200Y-77615476D02*
X86004819Y-77758333D01*
X86004819Y-77758333D02*
X86004819Y-77853571D01*
X86004819Y-77853571D02*
X85957200Y-77996428D01*
X85957200Y-77996428D02*
X85861961Y-78091666D01*
X85861961Y-78091666D02*
X85766723Y-78139285D01*
X85766723Y-78139285D02*
X85576247Y-78186904D01*
X85576247Y-78186904D02*
X85433390Y-78186904D01*
X85433390Y-78186904D02*
X85242914Y-78139285D01*
X85242914Y-78139285D02*
X85147676Y-78091666D01*
X85147676Y-78091666D02*
X85052438Y-77996428D01*
X85052438Y-77996428D02*
X85004819Y-77853571D01*
X85004819Y-77853571D02*
X85004819Y-77758333D01*
X85004819Y-77758333D02*
X85052438Y-77615476D01*
X85052438Y-77615476D02*
X85100057Y-77567857D01*
X86004819Y-76615476D02*
X86004819Y-77186904D01*
X86004819Y-76901190D02*
X85004819Y-76901190D01*
X85004819Y-76901190D02*
X85147676Y-76996428D01*
X85147676Y-76996428D02*
X85242914Y-77091666D01*
X85242914Y-77091666D02*
X85290533Y-77186904D01*
X85004819Y-75996428D02*
X85004819Y-75901190D01*
X85004819Y-75901190D02*
X85052438Y-75805952D01*
X85052438Y-75805952D02*
X85100057Y-75758333D01*
X85100057Y-75758333D02*
X85195295Y-75710714D01*
X85195295Y-75710714D02*
X85385771Y-75663095D01*
X85385771Y-75663095D02*
X85623866Y-75663095D01*
X85623866Y-75663095D02*
X85814342Y-75710714D01*
X85814342Y-75710714D02*
X85909580Y-75758333D01*
X85909580Y-75758333D02*
X85957200Y-75805952D01*
X85957200Y-75805952D02*
X86004819Y-75901190D01*
X86004819Y-75901190D02*
X86004819Y-75996428D01*
X86004819Y-75996428D02*
X85957200Y-76091666D01*
X85957200Y-76091666D02*
X85909580Y-76139285D01*
X85909580Y-76139285D02*
X85814342Y-76186904D01*
X85814342Y-76186904D02*
X85623866Y-76234523D01*
X85623866Y-76234523D02*
X85385771Y-76234523D01*
X85385771Y-76234523D02*
X85195295Y-76186904D01*
X85195295Y-76186904D02*
X85100057Y-76139285D01*
X85100057Y-76139285D02*
X85052438Y-76091666D01*
X85052438Y-76091666D02*
X85004819Y-75996428D01*
X64641666Y-79154819D02*
X64641666Y-79869104D01*
X64641666Y-79869104D02*
X64594047Y-80011961D01*
X64594047Y-80011961D02*
X64498809Y-80107200D01*
X64498809Y-80107200D02*
X64355952Y-80154819D01*
X64355952Y-80154819D02*
X64260714Y-80154819D01*
X65641666Y-80154819D02*
X65070238Y-80154819D01*
X65355952Y-80154819D02*
X65355952Y-79154819D01*
X65355952Y-79154819D02*
X65260714Y-79297676D01*
X65260714Y-79297676D02*
X65165476Y-79392914D01*
X65165476Y-79392914D02*
X65070238Y-79440533D01*
X67933333Y-90559580D02*
X67885714Y-90607200D01*
X67885714Y-90607200D02*
X67742857Y-90654819D01*
X67742857Y-90654819D02*
X67647619Y-90654819D01*
X67647619Y-90654819D02*
X67504762Y-90607200D01*
X67504762Y-90607200D02*
X67409524Y-90511961D01*
X67409524Y-90511961D02*
X67361905Y-90416723D01*
X67361905Y-90416723D02*
X67314286Y-90226247D01*
X67314286Y-90226247D02*
X67314286Y-90083390D01*
X67314286Y-90083390D02*
X67361905Y-89892914D01*
X67361905Y-89892914D02*
X67409524Y-89797676D01*
X67409524Y-89797676D02*
X67504762Y-89702438D01*
X67504762Y-89702438D02*
X67647619Y-89654819D01*
X67647619Y-89654819D02*
X67742857Y-89654819D01*
X67742857Y-89654819D02*
X67885714Y-89702438D01*
X67885714Y-89702438D02*
X67933333Y-89750057D01*
X68790476Y-89988152D02*
X68790476Y-90654819D01*
X68552381Y-89607200D02*
X68314286Y-90321485D01*
X68314286Y-90321485D02*
X68933333Y-90321485D01*
X67679580Y-78991666D02*
X67727200Y-79039285D01*
X67727200Y-79039285D02*
X67774819Y-79182142D01*
X67774819Y-79182142D02*
X67774819Y-79277380D01*
X67774819Y-79277380D02*
X67727200Y-79420237D01*
X67727200Y-79420237D02*
X67631961Y-79515475D01*
X67631961Y-79515475D02*
X67536723Y-79563094D01*
X67536723Y-79563094D02*
X67346247Y-79610713D01*
X67346247Y-79610713D02*
X67203390Y-79610713D01*
X67203390Y-79610713D02*
X67012914Y-79563094D01*
X67012914Y-79563094D02*
X66917676Y-79515475D01*
X66917676Y-79515475D02*
X66822438Y-79420237D01*
X66822438Y-79420237D02*
X66774819Y-79277380D01*
X66774819Y-79277380D02*
X66774819Y-79182142D01*
X66774819Y-79182142D02*
X66822438Y-79039285D01*
X66822438Y-79039285D02*
X66870057Y-78991666D01*
X66870057Y-78610713D02*
X66822438Y-78563094D01*
X66822438Y-78563094D02*
X66774819Y-78467856D01*
X66774819Y-78467856D02*
X66774819Y-78229761D01*
X66774819Y-78229761D02*
X66822438Y-78134523D01*
X66822438Y-78134523D02*
X66870057Y-78086904D01*
X66870057Y-78086904D02*
X66965295Y-78039285D01*
X66965295Y-78039285D02*
X67060533Y-78039285D01*
X67060533Y-78039285D02*
X67203390Y-78086904D01*
X67203390Y-78086904D02*
X67774819Y-78658332D01*
X67774819Y-78658332D02*
X67774819Y-78039285D01*
D13*
%TO.C,R3*%
X117262742Y-75977500D02*
X117737258Y-75977500D01*
X117262742Y-77022500D02*
X117737258Y-77022500D01*
%TO.C,R12*%
X94977500Y-81637742D02*
X94977500Y-82112258D01*
X96022500Y-81637742D02*
X96022500Y-82112258D01*
%TO.C,U3*%
X78352500Y-89340000D02*
X80172500Y-89340000D01*
X78352500Y-89390000D02*
X78352500Y-89340000D01*
X78352500Y-92460000D02*
X78352500Y-92410000D01*
X80172500Y-89340000D02*
X80172500Y-89390000D01*
X80172500Y-92410000D02*
X80172500Y-92460000D01*
X80172500Y-92460000D02*
X78352500Y-92460000D01*
X80952500Y-92740000D02*
X80472500Y-92740000D01*
X80712500Y-92410000D01*
X80952500Y-92740000D01*
G36*
X80952500Y-92740000D02*
G01*
X80472500Y-92740000D01*
X80712500Y-92410000D01*
X80952500Y-92740000D01*
G37*
%TO.C,SW1*%
X76370000Y-94650000D02*
X76400000Y-94650000D01*
X76370000Y-101110000D02*
X76370000Y-94650000D01*
X76400000Y-101110000D02*
X76370000Y-101110000D01*
X78300000Y-94650000D02*
X80900000Y-94650000D01*
X78300000Y-101110000D02*
X80900000Y-101110000D01*
X82830000Y-94650000D02*
X82800000Y-94650000D01*
X82830000Y-101110000D02*
X82800000Y-101110000D01*
X82830000Y-101110000D02*
X82830000Y-94650000D01*
%TO.C,U1*%
X84190000Y-83390000D02*
X84665000Y-83390000D01*
X84190000Y-83865000D02*
X84190000Y-83390000D01*
X84190000Y-91610000D02*
X84190000Y-91135000D01*
X84665000Y-91610000D02*
X84190000Y-91610000D01*
X91935000Y-83390000D02*
X92410000Y-83390000D01*
X92410000Y-83390000D02*
X92410000Y-83865000D01*
X92410000Y-91135000D02*
X92410000Y-91610000D01*
X92410000Y-91610000D02*
X91935000Y-91610000D01*
X91550000Y-82860000D02*
X91310000Y-82530000D01*
X91790000Y-82530000D01*
X91550000Y-82860000D01*
G36*
X91550000Y-82860000D02*
G01*
X91310000Y-82530000D01*
X91790000Y-82530000D01*
X91550000Y-82860000D01*
G37*
%TO.C,R5*%
X92877500Y-93262258D02*
X92877500Y-92787742D01*
X93922500Y-93262258D02*
X93922500Y-92787742D01*
%TO.C,C13*%
X87590000Y-94159420D02*
X87590000Y-94440580D01*
X88610000Y-94159420D02*
X88610000Y-94440580D01*
%TO.C,R13*%
X83377500Y-101512258D02*
X83377500Y-101037742D01*
X84422500Y-101512258D02*
X84422500Y-101037742D01*
%TO.C,C19*%
X74165580Y-89790000D02*
X73884420Y-89790000D01*
X74165580Y-90810000D02*
X73884420Y-90810000D01*
%TO.C,U6*%
X68590000Y-94050000D02*
X68590000Y-97810000D01*
X68590000Y-97810000D02*
X69850000Y-97810000D01*
X75410000Y-94050000D02*
X75410000Y-97810000D01*
X75410000Y-97810000D02*
X74150000Y-97810000D01*
X75640000Y-93010000D02*
X75310000Y-92770000D01*
X75640000Y-92530000D01*
X75640000Y-93010000D01*
G36*
X75640000Y-93010000D02*
G01*
X75310000Y-92770000D01*
X75640000Y-92530000D01*
X75640000Y-93010000D01*
G37*
%TO.C,C3*%
X66890000Y-93334420D02*
X66890000Y-93615580D01*
X67910000Y-93334420D02*
X67910000Y-93615580D01*
%TO.C,C14*%
X81490580Y-86090000D02*
X81209420Y-86090000D01*
X81490580Y-87110000D02*
X81209420Y-87110000D01*
%TO.C,C11*%
X86650000Y-80405580D02*
X86650000Y-80124420D01*
X87670000Y-80405580D02*
X87670000Y-80124420D01*
%TO.C,R1*%
X83177500Y-79587742D02*
X83177500Y-80062258D01*
X84222500Y-79587742D02*
X84222500Y-80062258D01*
%TO.C,U4*%
X74090000Y-85940000D02*
X75910000Y-85940000D01*
X74090000Y-85990000D02*
X74090000Y-85940000D01*
X74090000Y-89060000D02*
X74090000Y-89010000D01*
X75910000Y-85940000D02*
X75910000Y-85990000D01*
X75910000Y-89010000D02*
X75910000Y-89060000D01*
X75910000Y-89060000D02*
X74090000Y-89060000D01*
X73550000Y-85990000D02*
X73310000Y-85660000D01*
X73790000Y-85660000D01*
X73550000Y-85990000D01*
G36*
X73550000Y-85990000D02*
G01*
X73310000Y-85660000D01*
X73790000Y-85660000D01*
X73550000Y-85990000D01*
G37*
%TO.C,C9*%
X83440000Y-98015580D02*
X83440000Y-97734420D01*
X84460000Y-98015580D02*
X84460000Y-97734420D01*
%TO.C,Y1*%
X89740000Y-76740000D02*
X89740000Y-80360000D01*
X89740000Y-80360000D02*
X94060000Y-80360000D01*
%TO.C,R4*%
X115851742Y-98987500D02*
X116326258Y-98987500D01*
X115851742Y-100032500D02*
X116326258Y-100032500D01*
%TO.C,C15*%
X81505580Y-87590000D02*
X81224420Y-87590000D01*
X81505580Y-88610000D02*
X81224420Y-88610000D01*
%TO.C,C5*%
X98204000Y-94969420D02*
X98204000Y-95250580D01*
X99224000Y-94969420D02*
X99224000Y-95250580D01*
%TO.C,C18*%
X81465580Y-84390000D02*
X81184420Y-84390000D01*
X81465580Y-85410000D02*
X81184420Y-85410000D01*
%TO.C,R11*%
X93177500Y-82387742D02*
X93177500Y-82862258D01*
X94222500Y-82387742D02*
X94222500Y-82862258D01*
%TO.C,R6*%
X94402500Y-92862258D02*
X94402500Y-92387742D01*
X95447500Y-92862258D02*
X95447500Y-92387742D01*
%TO.C,C1*%
X68240000Y-82315580D02*
X68240000Y-82034420D01*
X69260000Y-82315580D02*
X69260000Y-82034420D01*
%TO.C,C27*%
X94415000Y-78690580D02*
X94415000Y-78409420D01*
X95435000Y-78690580D02*
X95435000Y-78409420D01*
%TO.C,R10*%
X96312258Y-84177500D02*
X95837742Y-84177500D01*
X96312258Y-85222500D02*
X95837742Y-85222500D01*
%TO.C,C8*%
X98290000Y-79865580D02*
X98290000Y-79584420D01*
X99310000Y-79865580D02*
X99310000Y-79584420D01*
%TO.C,R9*%
X96212258Y-86177500D02*
X95737742Y-86177500D01*
X96212258Y-87222500D02*
X95737742Y-87222500D01*
%TO.C,C26*%
X88290000Y-78715580D02*
X88290000Y-78434420D01*
X89310000Y-78715580D02*
X89310000Y-78434420D01*
D14*
%TO.C,J2*%
X99814000Y-79194000D02*
X99814000Y-96774000D01*
X99814000Y-79194000D02*
X109104000Y-79194000D01*
X99814000Y-96774000D02*
X109104000Y-96774000D01*
X112104000Y-79194000D02*
X121024000Y-79194000D01*
X112104000Y-96774000D02*
X121024000Y-96774000D01*
D15*
X104100000Y-78484000D02*
G75*
G02*
X103900000Y-78484000I-100000J0D01*
G01*
X103900000Y-78484000D02*
G75*
G02*
X104100000Y-78484000I100000J0D01*
G01*
D13*
%TO.C,U2*%
X72300000Y-76990000D02*
X76060000Y-76990000D01*
X72300000Y-83810000D02*
X76060000Y-83810000D01*
X76060000Y-76990000D02*
X76060000Y-78250000D01*
X76060000Y-83810000D02*
X76060000Y-82550000D01*
X71020000Y-77090000D02*
X70780000Y-76760000D01*
X71260000Y-76760000D01*
X71020000Y-77090000D01*
G36*
X71020000Y-77090000D02*
G01*
X70780000Y-76760000D01*
X71260000Y-76760000D01*
X71020000Y-77090000D01*
G37*
%TO.C,C21*%
X89290000Y-94209420D02*
X89290000Y-94490580D01*
X90310000Y-94209420D02*
X90310000Y-94490580D01*
%TO.C,R7*%
X95662258Y-87677500D02*
X95187742Y-87677500D01*
X95662258Y-88722500D02*
X95187742Y-88722500D01*
%TO.C,C12*%
X84490000Y-94034420D02*
X84490000Y-94315580D01*
X85510000Y-94034420D02*
X85510000Y-94315580D01*
%TO.C,C7*%
X103654580Y-75900000D02*
X103373420Y-75900000D01*
X103654580Y-76920000D02*
X103373420Y-76920000D01*
%TO.C,C6*%
X103429580Y-99000000D02*
X103148420Y-99000000D01*
X103429580Y-100020000D02*
X103148420Y-100020000D01*
%TO.C,FB4*%
X96690000Y-78649721D02*
X96690000Y-78975279D01*
X97710000Y-78649721D02*
X97710000Y-78975279D01*
%TO.C,R2*%
X91177500Y-94987258D02*
X91177500Y-94512742D01*
X92222500Y-94987258D02*
X92222500Y-94512742D01*
%TO.C,C20*%
X82265580Y-82890000D02*
X81984420Y-82890000D01*
X82265580Y-83910000D02*
X81984420Y-83910000D01*
%TO.C,R8*%
X95812258Y-89777500D02*
X95337742Y-89777500D01*
X95812258Y-90822500D02*
X95337742Y-90822500D01*
%TO.C,C10*%
X84990000Y-80015580D02*
X84990000Y-79734420D01*
X86010000Y-80015580D02*
X86010000Y-79734420D01*
D14*
%TO.C,J1*%
X59800000Y-81900000D02*
X60605000Y-81900000D01*
X59800000Y-93900000D02*
X59800000Y-81900000D01*
X60605000Y-93900000D02*
X59800000Y-93900000D01*
D15*
X65400000Y-92900000D02*
G75*
G02*
X65200000Y-92900000I-100000J0D01*
G01*
X65200000Y-92900000D02*
G75*
G02*
X65400000Y-92900000I100000J0D01*
G01*
D13*
%TO.C,C4*%
X70865580Y-89790000D02*
X70584420Y-89790000D01*
X70865580Y-90810000D02*
X70584420Y-90810000D01*
%TO.C,C2*%
X68240000Y-78965580D02*
X68240000Y-78684420D01*
X69260000Y-78965580D02*
X69260000Y-78684420D01*
%TD*%
M02*
