M48
; DRILL file {KiCad 9.0.7} date 2026-02-23T15:22:54-0500
; FORMAT={-:-/ absolute / metric / decimal}
; #@! TF.CreationDate,2026-02-23T15:22:54-05:00
; #@! TF.GenerationSoftware,Kicad,Pcbnew,9.0.7
; #@! TF.FileFunction,Plated,1,2,PTH
FMAT,2
METRIC
; #@! TA.AperFunction,Plated,PTH,ViaDrill
T1C0.300
; #@! TA.AperFunction,Plated,PTH,ComponentDrill
T2C0.750
; #@! TA.AperFunction,Plated,PTH,ComponentDrill
T3C1.020
; #@! TA.AperFunction,Plated,PTH,ComponentDrill
T4C1.270
; #@! TA.AperFunction,Plated,PTH,ComponentDrill
T5C1.570
%
G90
G05
T1
X70.8Y-91.3
X70.9Y-89.1
X73.798Y-91.258
X74.0Y-89.5
X74.475Y-87.5
X74.95Y-93.775
X75.1Y-84.95
X75.725Y-95.675
X76.0Y-98.0
X76.0Y-100.0
X76.7Y-91.85
X78.7Y-77.35
X79.85Y-85.8
X80.4Y-93.3
X80.75Y-95.7
X81.1Y-79.85
X81.241Y-87.571
X81.5Y-91.85
X81.525Y-97.75
X81.675Y-77.85
X82.6Y-80.75
X82.6Y-91.8
X82.75Y-99.475
X82.95Y-96.3
X82.95Y-101.7
X83.082Y-86.05
X83.2Y-84.75
X83.25Y-93.9
X83.393Y-85.423
X83.4Y-88.75
X83.5Y-90.25
X83.6Y-94.75
X83.9Y-83.6
X84.225Y-91.65
X84.35Y-83.05
X84.6Y-81.425
X85.175Y-99.475
X85.546Y-87.457
X85.95Y-97.25
X86.05Y-93.95
X86.06Y-86.761
X86.1Y-92.75
X86.315Y-89.585
X86.793Y-92.85
X86.8Y-94.05
X87.312Y-85.673
X87.4Y-92.5
X87.455Y-88.446
X87.675Y-89.645
X88.174Y-82.076
X88.325Y-87.475
X88.424Y-95.776
X89.224Y-88.359
X89.257Y-89.645
X89.289Y-96.711
X89.504Y-86.645
X89.735Y-85.781
X90.0Y-96.25
X90.608Y-89.678
X90.641Y-88.129
X90.757Y-86.167
X90.888Y-85.163
X91.1Y-82.0
X91.3Y-101.3
X91.425Y-98.325
X91.6Y-92.637
X92.3Y-83.8
X93.087Y-88.369
X93.1Y-85.75
X93.689Y-90.011
X93.753Y-87.851
X94.024Y-87.205
X94.675Y-94.775
X95.975Y-76.425
X96.0Y-93.8
X96.8Y-81.2
X96.9Y-83.6
X97.9Y-90.6
X98.0Y-76.0
X98.275Y-83.975
X98.935Y-88.127
X99.5Y-76.0
X99.9Y-85.4
X100.35Y-77.875
X105.425Y-77.875
X108.775Y-78.275
X109.3Y-98.675
X115.05Y-76.575
T3
X101.46Y-81.888
X101.46Y-83.92
X101.46Y-85.952
X101.46Y-90.016
X101.46Y-92.048
X101.46Y-94.08
X104.0Y-82.904
X104.0Y-84.936
X104.0Y-86.968
X104.0Y-89.0
X104.0Y-91.032
X104.0Y-93.064
T4
X114.414Y-95.502
X116.954Y-80.466
X116.954Y-95.502
X119.494Y-80.466
X119.494Y-95.502
T5
X110.604Y-79.196
X110.604Y-96.772
T2
X63.475Y-82.05G85X61.625Y-82.05
G05
X63.475Y-93.75G85X61.625Y-93.75
G05
M30
