%TF.GenerationSoftware,KiCad,Pcbnew,9.0.7*%
%TF.CreationDate,2026-03-07T14:20:03-05:00*%
%TF.ProjectId,USBToEthernet,55534254-6f45-4746-9865-726e65742e6b,rev?*%
%TF.SameCoordinates,Original*%
%TF.FileFunction,Legend,Top*%
%TF.FilePolarity,Positive*%
%FSLAX46Y46*%
G04 Gerber Fmt 4.6, Leading zero omitted, Abs format (unit mm)*
G04 Created by KiCad (PCBNEW 9.0.7) date 2026-03-07 14:20:03*
%MOMM*%
%LPD*%
G01*
G04 APERTURE LIST*
%ADD10C,0.100000*%
%ADD11C,0.150000*%
%ADD12C,0.125000*%
%ADD13C,0.120000*%
%ADD14C,0.127000*%
%ADD15C,0.200000*%
G04 APERTURE END LIST*
D10*
X83695847Y-81491666D02*
X83695847Y-81758332D01*
X84114895Y-81758332D02*
X83314895Y-81758332D01*
X83314895Y-81758332D02*
X83314895Y-81377380D01*
X83695847Y-80805952D02*
X83733942Y-80691666D01*
X83733942Y-80691666D02*
X83772038Y-80653571D01*
X83772038Y-80653571D02*
X83848228Y-80615475D01*
X83848228Y-80615475D02*
X83962514Y-80615475D01*
X83962514Y-80615475D02*
X84038704Y-80653571D01*
X84038704Y-80653571D02*
X84076800Y-80691666D01*
X84076800Y-80691666D02*
X84114895Y-80767856D01*
X84114895Y-80767856D02*
X84114895Y-81072618D01*
X84114895Y-81072618D02*
X83314895Y-81072618D01*
X83314895Y-81072618D02*
X83314895Y-80805952D01*
X83314895Y-80805952D02*
X83352990Y-80729761D01*
X83352990Y-80729761D02*
X83391085Y-80691666D01*
X83391085Y-80691666D02*
X83467276Y-80653571D01*
X83467276Y-80653571D02*
X83543466Y-80653571D01*
X83543466Y-80653571D02*
X83619657Y-80691666D01*
X83619657Y-80691666D02*
X83657752Y-80729761D01*
X83657752Y-80729761D02*
X83695847Y-80805952D01*
X83695847Y-80805952D02*
X83695847Y-81072618D01*
X83314895Y-79891666D02*
X83314895Y-80272618D01*
X83314895Y-80272618D02*
X83695847Y-80310714D01*
X83695847Y-80310714D02*
X83657752Y-80272618D01*
X83657752Y-80272618D02*
X83619657Y-80196428D01*
X83619657Y-80196428D02*
X83619657Y-80005952D01*
X83619657Y-80005952D02*
X83657752Y-79929761D01*
X83657752Y-79929761D02*
X83695847Y-79891666D01*
X83695847Y-79891666D02*
X83772038Y-79853571D01*
X83772038Y-79853571D02*
X83962514Y-79853571D01*
X83962514Y-79853571D02*
X84038704Y-79891666D01*
X84038704Y-79891666D02*
X84076800Y-79929761D01*
X84076800Y-79929761D02*
X84114895Y-80005952D01*
X84114895Y-80005952D02*
X84114895Y-80196428D01*
X84114895Y-80196428D02*
X84076800Y-80272618D01*
X84076800Y-80272618D02*
X84038704Y-80310714D01*
X82764895Y-95083332D02*
X82383942Y-95349999D01*
X82764895Y-95540475D02*
X81964895Y-95540475D01*
X81964895Y-95540475D02*
X81964895Y-95235713D01*
X81964895Y-95235713D02*
X82002990Y-95159523D01*
X82002990Y-95159523D02*
X82041085Y-95121428D01*
X82041085Y-95121428D02*
X82117276Y-95083332D01*
X82117276Y-95083332D02*
X82231561Y-95083332D01*
X82231561Y-95083332D02*
X82307752Y-95121428D01*
X82307752Y-95121428D02*
X82345847Y-95159523D01*
X82345847Y-95159523D02*
X82383942Y-95235713D01*
X82383942Y-95235713D02*
X82383942Y-95540475D01*
X81964895Y-94359523D02*
X81964895Y-94740475D01*
X81964895Y-94740475D02*
X82345847Y-94778571D01*
X82345847Y-94778571D02*
X82307752Y-94740475D01*
X82307752Y-94740475D02*
X82269657Y-94664285D01*
X82269657Y-94664285D02*
X82269657Y-94473809D01*
X82269657Y-94473809D02*
X82307752Y-94397618D01*
X82307752Y-94397618D02*
X82345847Y-94359523D01*
X82345847Y-94359523D02*
X82422038Y-94321428D01*
X82422038Y-94321428D02*
X82612514Y-94321428D01*
X82612514Y-94321428D02*
X82688704Y-94359523D01*
X82688704Y-94359523D02*
X82726800Y-94397618D01*
X82726800Y-94397618D02*
X82764895Y-94473809D01*
X82764895Y-94473809D02*
X82764895Y-94664285D01*
X82764895Y-94664285D02*
X82726800Y-94740475D01*
X82726800Y-94740475D02*
X82688704Y-94778571D01*
X85814895Y-89039285D02*
X85433942Y-89305952D01*
X85814895Y-89496428D02*
X85014895Y-89496428D01*
X85014895Y-89496428D02*
X85014895Y-89191666D01*
X85014895Y-89191666D02*
X85052990Y-89115476D01*
X85052990Y-89115476D02*
X85091085Y-89077381D01*
X85091085Y-89077381D02*
X85167276Y-89039285D01*
X85167276Y-89039285D02*
X85281561Y-89039285D01*
X85281561Y-89039285D02*
X85357752Y-89077381D01*
X85357752Y-89077381D02*
X85395847Y-89115476D01*
X85395847Y-89115476D02*
X85433942Y-89191666D01*
X85433942Y-89191666D02*
X85433942Y-89496428D01*
X85814895Y-88277381D02*
X85814895Y-88734524D01*
X85814895Y-88505952D02*
X85014895Y-88505952D01*
X85014895Y-88505952D02*
X85129180Y-88582143D01*
X85129180Y-88582143D02*
X85205371Y-88658333D01*
X85205371Y-88658333D02*
X85243466Y-88734524D01*
X85014895Y-87782142D02*
X85014895Y-87705952D01*
X85014895Y-87705952D02*
X85052990Y-87629761D01*
X85052990Y-87629761D02*
X85091085Y-87591666D01*
X85091085Y-87591666D02*
X85167276Y-87553571D01*
X85167276Y-87553571D02*
X85319657Y-87515476D01*
X85319657Y-87515476D02*
X85510133Y-87515476D01*
X85510133Y-87515476D02*
X85662514Y-87553571D01*
X85662514Y-87553571D02*
X85738704Y-87591666D01*
X85738704Y-87591666D02*
X85776800Y-87629761D01*
X85776800Y-87629761D02*
X85814895Y-87705952D01*
X85814895Y-87705952D02*
X85814895Y-87782142D01*
X85814895Y-87782142D02*
X85776800Y-87858333D01*
X85776800Y-87858333D02*
X85738704Y-87896428D01*
X85738704Y-87896428D02*
X85662514Y-87934523D01*
X85662514Y-87934523D02*
X85510133Y-87972619D01*
X85510133Y-87972619D02*
X85319657Y-87972619D01*
X85319657Y-87972619D02*
X85167276Y-87934523D01*
X85167276Y-87934523D02*
X85091085Y-87896428D01*
X85091085Y-87896428D02*
X85052990Y-87858333D01*
X85052990Y-87858333D02*
X85014895Y-87782142D01*
X83735714Y-84288704D02*
X83697618Y-84326800D01*
X83697618Y-84326800D02*
X83583333Y-84364895D01*
X83583333Y-84364895D02*
X83507142Y-84364895D01*
X83507142Y-84364895D02*
X83392856Y-84326800D01*
X83392856Y-84326800D02*
X83316666Y-84250609D01*
X83316666Y-84250609D02*
X83278571Y-84174419D01*
X83278571Y-84174419D02*
X83240475Y-84022038D01*
X83240475Y-84022038D02*
X83240475Y-83907752D01*
X83240475Y-83907752D02*
X83278571Y-83755371D01*
X83278571Y-83755371D02*
X83316666Y-83679180D01*
X83316666Y-83679180D02*
X83392856Y-83602990D01*
X83392856Y-83602990D02*
X83507142Y-83564895D01*
X83507142Y-83564895D02*
X83583333Y-83564895D01*
X83583333Y-83564895D02*
X83697618Y-83602990D01*
X83697618Y-83602990D02*
X83735714Y-83641085D01*
X84040475Y-83641085D02*
X84078571Y-83602990D01*
X84078571Y-83602990D02*
X84154761Y-83564895D01*
X84154761Y-83564895D02*
X84345237Y-83564895D01*
X84345237Y-83564895D02*
X84421428Y-83602990D01*
X84421428Y-83602990D02*
X84459523Y-83641085D01*
X84459523Y-83641085D02*
X84497618Y-83717276D01*
X84497618Y-83717276D02*
X84497618Y-83793466D01*
X84497618Y-83793466D02*
X84459523Y-83907752D01*
X84459523Y-83907752D02*
X84002380Y-84364895D01*
X84002380Y-84364895D02*
X84497618Y-84364895D01*
X85221428Y-83564895D02*
X84840476Y-83564895D01*
X84840476Y-83564895D02*
X84802380Y-83945847D01*
X84802380Y-83945847D02*
X84840476Y-83907752D01*
X84840476Y-83907752D02*
X84916666Y-83869657D01*
X84916666Y-83869657D02*
X85107142Y-83869657D01*
X85107142Y-83869657D02*
X85183333Y-83907752D01*
X85183333Y-83907752D02*
X85221428Y-83945847D01*
X85221428Y-83945847D02*
X85259523Y-84022038D01*
X85259523Y-84022038D02*
X85259523Y-84212514D01*
X85259523Y-84212514D02*
X85221428Y-84288704D01*
X85221428Y-84288704D02*
X85183333Y-84326800D01*
X85183333Y-84326800D02*
X85107142Y-84364895D01*
X85107142Y-84364895D02*
X84916666Y-84364895D01*
X84916666Y-84364895D02*
X84840476Y-84326800D01*
X84840476Y-84326800D02*
X84802380Y-84288704D01*
X92516667Y-77738704D02*
X92478571Y-77776800D01*
X92478571Y-77776800D02*
X92364286Y-77814895D01*
X92364286Y-77814895D02*
X92288095Y-77814895D01*
X92288095Y-77814895D02*
X92173809Y-77776800D01*
X92173809Y-77776800D02*
X92097619Y-77700609D01*
X92097619Y-77700609D02*
X92059524Y-77624419D01*
X92059524Y-77624419D02*
X92021428Y-77472038D01*
X92021428Y-77472038D02*
X92021428Y-77357752D01*
X92021428Y-77357752D02*
X92059524Y-77205371D01*
X92059524Y-77205371D02*
X92097619Y-77129180D01*
X92097619Y-77129180D02*
X92173809Y-77052990D01*
X92173809Y-77052990D02*
X92288095Y-77014895D01*
X92288095Y-77014895D02*
X92364286Y-77014895D01*
X92364286Y-77014895D02*
X92478571Y-77052990D01*
X92478571Y-77052990D02*
X92516667Y-77091085D01*
X92783333Y-77014895D02*
X93316667Y-77014895D01*
X93316667Y-77014895D02*
X92973809Y-77814895D01*
D11*
X68207142Y-84909580D02*
X68159523Y-84957200D01*
X68159523Y-84957200D02*
X68016666Y-85004819D01*
X68016666Y-85004819D02*
X67921428Y-85004819D01*
X67921428Y-85004819D02*
X67778571Y-84957200D01*
X67778571Y-84957200D02*
X67683333Y-84861961D01*
X67683333Y-84861961D02*
X67635714Y-84766723D01*
X67635714Y-84766723D02*
X67588095Y-84576247D01*
X67588095Y-84576247D02*
X67588095Y-84433390D01*
X67588095Y-84433390D02*
X67635714Y-84242914D01*
X67635714Y-84242914D02*
X67683333Y-84147676D01*
X67683333Y-84147676D02*
X67778571Y-84052438D01*
X67778571Y-84052438D02*
X67921428Y-84004819D01*
X67921428Y-84004819D02*
X68016666Y-84004819D01*
X68016666Y-84004819D02*
X68159523Y-84052438D01*
X68159523Y-84052438D02*
X68207142Y-84100057D01*
X69159523Y-85004819D02*
X68588095Y-85004819D01*
X68873809Y-85004819D02*
X68873809Y-84004819D01*
X68873809Y-84004819D02*
X68778571Y-84147676D01*
X68778571Y-84147676D02*
X68683333Y-84242914D01*
X68683333Y-84242914D02*
X68588095Y-84290533D01*
X69492857Y-84004819D02*
X70111904Y-84004819D01*
X70111904Y-84004819D02*
X69778571Y-84385771D01*
X69778571Y-84385771D02*
X69921428Y-84385771D01*
X69921428Y-84385771D02*
X70016666Y-84433390D01*
X70016666Y-84433390D02*
X70064285Y-84481009D01*
X70064285Y-84481009D02*
X70111904Y-84576247D01*
X70111904Y-84576247D02*
X70111904Y-84814342D01*
X70111904Y-84814342D02*
X70064285Y-84909580D01*
X70064285Y-84909580D02*
X70016666Y-84957200D01*
X70016666Y-84957200D02*
X69921428Y-85004819D01*
X69921428Y-85004819D02*
X69635714Y-85004819D01*
X69635714Y-85004819D02*
X69540476Y-84957200D01*
X69540476Y-84957200D02*
X69492857Y-84909580D01*
D12*
X82813595Y-89383332D02*
X82432642Y-89649999D01*
X82813595Y-89840475D02*
X82013595Y-89840475D01*
X82013595Y-89840475D02*
X82013595Y-89535713D01*
X82013595Y-89535713D02*
X82051690Y-89459523D01*
X82051690Y-89459523D02*
X82089785Y-89421428D01*
X82089785Y-89421428D02*
X82165976Y-89383332D01*
X82165976Y-89383332D02*
X82280261Y-89383332D01*
X82280261Y-89383332D02*
X82356452Y-89421428D01*
X82356452Y-89421428D02*
X82394547Y-89459523D01*
X82394547Y-89459523D02*
X82432642Y-89535713D01*
X82432642Y-89535713D02*
X82432642Y-89840475D01*
X82013595Y-89116666D02*
X82013595Y-88583332D01*
X82013595Y-88583332D02*
X82813595Y-88926190D01*
D10*
X85088704Y-98508332D02*
X85126800Y-98546428D01*
X85126800Y-98546428D02*
X85164895Y-98660713D01*
X85164895Y-98660713D02*
X85164895Y-98736904D01*
X85164895Y-98736904D02*
X85126800Y-98851190D01*
X85126800Y-98851190D02*
X85050609Y-98927380D01*
X85050609Y-98927380D02*
X84974419Y-98965475D01*
X84974419Y-98965475D02*
X84822038Y-99003571D01*
X84822038Y-99003571D02*
X84707752Y-99003571D01*
X84707752Y-99003571D02*
X84555371Y-98965475D01*
X84555371Y-98965475D02*
X84479180Y-98927380D01*
X84479180Y-98927380D02*
X84402990Y-98851190D01*
X84402990Y-98851190D02*
X84364895Y-98736904D01*
X84364895Y-98736904D02*
X84364895Y-98660713D01*
X84364895Y-98660713D02*
X84402990Y-98546428D01*
X84402990Y-98546428D02*
X84441085Y-98508332D01*
X84364895Y-97822618D02*
X84364895Y-97974999D01*
X84364895Y-97974999D02*
X84402990Y-98051190D01*
X84402990Y-98051190D02*
X84441085Y-98089285D01*
X84441085Y-98089285D02*
X84555371Y-98165475D01*
X84555371Y-98165475D02*
X84707752Y-98203571D01*
X84707752Y-98203571D02*
X85012514Y-98203571D01*
X85012514Y-98203571D02*
X85088704Y-98165475D01*
X85088704Y-98165475D02*
X85126800Y-98127380D01*
X85126800Y-98127380D02*
X85164895Y-98051190D01*
X85164895Y-98051190D02*
X85164895Y-97898809D01*
X85164895Y-97898809D02*
X85126800Y-97822618D01*
X85126800Y-97822618D02*
X85088704Y-97784523D01*
X85088704Y-97784523D02*
X85012514Y-97746428D01*
X85012514Y-97746428D02*
X84822038Y-97746428D01*
X84822038Y-97746428D02*
X84745847Y-97784523D01*
X84745847Y-97784523D02*
X84707752Y-97822618D01*
X84707752Y-97822618D02*
X84669657Y-97898809D01*
X84669657Y-97898809D02*
X84669657Y-98051190D01*
X84669657Y-98051190D02*
X84707752Y-98127380D01*
X84707752Y-98127380D02*
X84745847Y-98165475D01*
X84745847Y-98165475D02*
X84822038Y-98203571D01*
D11*
X57808333Y-80509580D02*
X57760714Y-80557200D01*
X57760714Y-80557200D02*
X57617857Y-80604819D01*
X57617857Y-80604819D02*
X57522619Y-80604819D01*
X57522619Y-80604819D02*
X57379762Y-80557200D01*
X57379762Y-80557200D02*
X57284524Y-80461961D01*
X57284524Y-80461961D02*
X57236905Y-80366723D01*
X57236905Y-80366723D02*
X57189286Y-80176247D01*
X57189286Y-80176247D02*
X57189286Y-80033390D01*
X57189286Y-80033390D02*
X57236905Y-79842914D01*
X57236905Y-79842914D02*
X57284524Y-79747676D01*
X57284524Y-79747676D02*
X57379762Y-79652438D01*
X57379762Y-79652438D02*
X57522619Y-79604819D01*
X57522619Y-79604819D02*
X57617857Y-79604819D01*
X57617857Y-79604819D02*
X57760714Y-79652438D01*
X57760714Y-79652438D02*
X57808333Y-79700057D01*
X58189286Y-79700057D02*
X58236905Y-79652438D01*
X58236905Y-79652438D02*
X58332143Y-79604819D01*
X58332143Y-79604819D02*
X58570238Y-79604819D01*
X58570238Y-79604819D02*
X58665476Y-79652438D01*
X58665476Y-79652438D02*
X58713095Y-79700057D01*
X58713095Y-79700057D02*
X58760714Y-79795295D01*
X58760714Y-79795295D02*
X58760714Y-79890533D01*
X58760714Y-79890533D02*
X58713095Y-80033390D01*
X58713095Y-80033390D02*
X58141667Y-80604819D01*
X58141667Y-80604819D02*
X58760714Y-80604819D01*
D10*
X85364895Y-91783332D02*
X84983942Y-92049999D01*
X85364895Y-92240475D02*
X84564895Y-92240475D01*
X84564895Y-92240475D02*
X84564895Y-91935713D01*
X84564895Y-91935713D02*
X84602990Y-91859523D01*
X84602990Y-91859523D02*
X84641085Y-91821428D01*
X84641085Y-91821428D02*
X84717276Y-91783332D01*
X84717276Y-91783332D02*
X84831561Y-91783332D01*
X84831561Y-91783332D02*
X84907752Y-91821428D01*
X84907752Y-91821428D02*
X84945847Y-91859523D01*
X84945847Y-91859523D02*
X84983942Y-91935713D01*
X84983942Y-91935713D02*
X84983942Y-92240475D01*
X84907752Y-91326190D02*
X84869657Y-91402380D01*
X84869657Y-91402380D02*
X84831561Y-91440475D01*
X84831561Y-91440475D02*
X84755371Y-91478571D01*
X84755371Y-91478571D02*
X84717276Y-91478571D01*
X84717276Y-91478571D02*
X84641085Y-91440475D01*
X84641085Y-91440475D02*
X84602990Y-91402380D01*
X84602990Y-91402380D02*
X84564895Y-91326190D01*
X84564895Y-91326190D02*
X84564895Y-91173809D01*
X84564895Y-91173809D02*
X84602990Y-91097618D01*
X84602990Y-91097618D02*
X84641085Y-91059523D01*
X84641085Y-91059523D02*
X84717276Y-91021428D01*
X84717276Y-91021428D02*
X84755371Y-91021428D01*
X84755371Y-91021428D02*
X84831561Y-91059523D01*
X84831561Y-91059523D02*
X84869657Y-91097618D01*
X84869657Y-91097618D02*
X84907752Y-91173809D01*
X84907752Y-91173809D02*
X84907752Y-91326190D01*
X84907752Y-91326190D02*
X84945847Y-91402380D01*
X84945847Y-91402380D02*
X84983942Y-91440475D01*
X84983942Y-91440475D02*
X85060133Y-91478571D01*
X85060133Y-91478571D02*
X85212514Y-91478571D01*
X85212514Y-91478571D02*
X85288704Y-91440475D01*
X85288704Y-91440475D02*
X85326800Y-91402380D01*
X85326800Y-91402380D02*
X85364895Y-91326190D01*
X85364895Y-91326190D02*
X85364895Y-91173809D01*
X85364895Y-91173809D02*
X85326800Y-91097618D01*
X85326800Y-91097618D02*
X85288704Y-91059523D01*
X85288704Y-91059523D02*
X85212514Y-91021428D01*
X85212514Y-91021428D02*
X85060133Y-91021428D01*
X85060133Y-91021428D02*
X84983942Y-91059523D01*
X84983942Y-91059523D02*
X84945847Y-91097618D01*
X84945847Y-91097618D02*
X84907752Y-91173809D01*
X70785714Y-83088704D02*
X70747618Y-83126800D01*
X70747618Y-83126800D02*
X70633333Y-83164895D01*
X70633333Y-83164895D02*
X70557142Y-83164895D01*
X70557142Y-83164895D02*
X70442856Y-83126800D01*
X70442856Y-83126800D02*
X70366666Y-83050609D01*
X70366666Y-83050609D02*
X70328571Y-82974419D01*
X70328571Y-82974419D02*
X70290475Y-82822038D01*
X70290475Y-82822038D02*
X70290475Y-82707752D01*
X70290475Y-82707752D02*
X70328571Y-82555371D01*
X70328571Y-82555371D02*
X70366666Y-82479180D01*
X70366666Y-82479180D02*
X70442856Y-82402990D01*
X70442856Y-82402990D02*
X70557142Y-82364895D01*
X70557142Y-82364895D02*
X70633333Y-82364895D01*
X70633333Y-82364895D02*
X70747618Y-82402990D01*
X70747618Y-82402990D02*
X70785714Y-82441085D01*
X71547618Y-83164895D02*
X71090475Y-83164895D01*
X71319047Y-83164895D02*
X71319047Y-82364895D01*
X71319047Y-82364895D02*
X71242856Y-82479180D01*
X71242856Y-82479180D02*
X71166666Y-82555371D01*
X71166666Y-82555371D02*
X71090475Y-82593466D01*
X71852380Y-82441085D02*
X71890476Y-82402990D01*
X71890476Y-82402990D02*
X71966666Y-82364895D01*
X71966666Y-82364895D02*
X72157142Y-82364895D01*
X72157142Y-82364895D02*
X72233333Y-82402990D01*
X72233333Y-82402990D02*
X72271428Y-82441085D01*
X72271428Y-82441085D02*
X72309523Y-82517276D01*
X72309523Y-82517276D02*
X72309523Y-82593466D01*
X72309523Y-82593466D02*
X72271428Y-82707752D01*
X72271428Y-82707752D02*
X71814285Y-83164895D01*
X71814285Y-83164895D02*
X72309523Y-83164895D01*
X77185714Y-97338704D02*
X77147618Y-97376800D01*
X77147618Y-97376800D02*
X77033333Y-97414895D01*
X77033333Y-97414895D02*
X76957142Y-97414895D01*
X76957142Y-97414895D02*
X76842856Y-97376800D01*
X76842856Y-97376800D02*
X76766666Y-97300609D01*
X76766666Y-97300609D02*
X76728571Y-97224419D01*
X76728571Y-97224419D02*
X76690475Y-97072038D01*
X76690475Y-97072038D02*
X76690475Y-96957752D01*
X76690475Y-96957752D02*
X76728571Y-96805371D01*
X76728571Y-96805371D02*
X76766666Y-96729180D01*
X76766666Y-96729180D02*
X76842856Y-96652990D01*
X76842856Y-96652990D02*
X76957142Y-96614895D01*
X76957142Y-96614895D02*
X77033333Y-96614895D01*
X77033333Y-96614895D02*
X77147618Y-96652990D01*
X77147618Y-96652990D02*
X77185714Y-96691085D01*
X77490475Y-96691085D02*
X77528571Y-96652990D01*
X77528571Y-96652990D02*
X77604761Y-96614895D01*
X77604761Y-96614895D02*
X77795237Y-96614895D01*
X77795237Y-96614895D02*
X77871428Y-96652990D01*
X77871428Y-96652990D02*
X77909523Y-96691085D01*
X77909523Y-96691085D02*
X77947618Y-96767276D01*
X77947618Y-96767276D02*
X77947618Y-96843466D01*
X77947618Y-96843466D02*
X77909523Y-96957752D01*
X77909523Y-96957752D02*
X77452380Y-97414895D01*
X77452380Y-97414895D02*
X77947618Y-97414895D01*
X78709523Y-97414895D02*
X78252380Y-97414895D01*
X78480952Y-97414895D02*
X78480952Y-96614895D01*
X78480952Y-96614895D02*
X78404761Y-96729180D01*
X78404761Y-96729180D02*
X78328571Y-96805371D01*
X78328571Y-96805371D02*
X78252380Y-96843466D01*
D11*
X63634580Y-89116666D02*
X63682200Y-89164285D01*
X63682200Y-89164285D02*
X63729819Y-89307142D01*
X63729819Y-89307142D02*
X63729819Y-89402380D01*
X63729819Y-89402380D02*
X63682200Y-89545237D01*
X63682200Y-89545237D02*
X63586961Y-89640475D01*
X63586961Y-89640475D02*
X63491723Y-89688094D01*
X63491723Y-89688094D02*
X63301247Y-89735713D01*
X63301247Y-89735713D02*
X63158390Y-89735713D01*
X63158390Y-89735713D02*
X62967914Y-89688094D01*
X62967914Y-89688094D02*
X62872676Y-89640475D01*
X62872676Y-89640475D02*
X62777438Y-89545237D01*
X62777438Y-89545237D02*
X62729819Y-89402380D01*
X62729819Y-89402380D02*
X62729819Y-89307142D01*
X62729819Y-89307142D02*
X62777438Y-89164285D01*
X62777438Y-89164285D02*
X62825057Y-89116666D01*
X63063152Y-88259523D02*
X63729819Y-88259523D01*
X62682200Y-88497618D02*
X63396485Y-88735713D01*
X63396485Y-88735713D02*
X63396485Y-88116666D01*
D10*
X85889895Y-86489285D02*
X85508942Y-86755952D01*
X85889895Y-86946428D02*
X85089895Y-86946428D01*
X85089895Y-86946428D02*
X85089895Y-86641666D01*
X85089895Y-86641666D02*
X85127990Y-86565476D01*
X85127990Y-86565476D02*
X85166085Y-86527381D01*
X85166085Y-86527381D02*
X85242276Y-86489285D01*
X85242276Y-86489285D02*
X85356561Y-86489285D01*
X85356561Y-86489285D02*
X85432752Y-86527381D01*
X85432752Y-86527381D02*
X85470847Y-86565476D01*
X85470847Y-86565476D02*
X85508942Y-86641666D01*
X85508942Y-86641666D02*
X85508942Y-86946428D01*
X85889895Y-85727381D02*
X85889895Y-86184524D01*
X85889895Y-85955952D02*
X85089895Y-85955952D01*
X85089895Y-85955952D02*
X85204180Y-86032143D01*
X85204180Y-86032143D02*
X85280371Y-86108333D01*
X85280371Y-86108333D02*
X85318466Y-86184524D01*
X85166085Y-85422619D02*
X85127990Y-85384523D01*
X85127990Y-85384523D02*
X85089895Y-85308333D01*
X85089895Y-85308333D02*
X85089895Y-85117857D01*
X85089895Y-85117857D02*
X85127990Y-85041666D01*
X85127990Y-85041666D02*
X85166085Y-85003571D01*
X85166085Y-85003571D02*
X85242276Y-84965476D01*
X85242276Y-84965476D02*
X85318466Y-84965476D01*
X85318466Y-84965476D02*
X85432752Y-85003571D01*
X85432752Y-85003571D02*
X85889895Y-85460714D01*
X85889895Y-85460714D02*
X85889895Y-84965476D01*
X80341667Y-100764895D02*
X80075000Y-100383942D01*
X79884524Y-100764895D02*
X79884524Y-99964895D01*
X79884524Y-99964895D02*
X80189286Y-99964895D01*
X80189286Y-99964895D02*
X80265476Y-100002990D01*
X80265476Y-100002990D02*
X80303571Y-100041085D01*
X80303571Y-100041085D02*
X80341667Y-100117276D01*
X80341667Y-100117276D02*
X80341667Y-100231561D01*
X80341667Y-100231561D02*
X80303571Y-100307752D01*
X80303571Y-100307752D02*
X80265476Y-100345847D01*
X80265476Y-100345847D02*
X80189286Y-100383942D01*
X80189286Y-100383942D02*
X79884524Y-100383942D01*
X80646428Y-100041085D02*
X80684524Y-100002990D01*
X80684524Y-100002990D02*
X80760714Y-99964895D01*
X80760714Y-99964895D02*
X80951190Y-99964895D01*
X80951190Y-99964895D02*
X81027381Y-100002990D01*
X81027381Y-100002990D02*
X81065476Y-100041085D01*
X81065476Y-100041085D02*
X81103571Y-100117276D01*
X81103571Y-100117276D02*
X81103571Y-100193466D01*
X81103571Y-100193466D02*
X81065476Y-100307752D01*
X81065476Y-100307752D02*
X80608333Y-100764895D01*
X80608333Y-100764895D02*
X81103571Y-100764895D01*
X99891667Y-100664895D02*
X99625000Y-100283942D01*
X99434524Y-100664895D02*
X99434524Y-99864895D01*
X99434524Y-99864895D02*
X99739286Y-99864895D01*
X99739286Y-99864895D02*
X99815476Y-99902990D01*
X99815476Y-99902990D02*
X99853571Y-99941085D01*
X99853571Y-99941085D02*
X99891667Y-100017276D01*
X99891667Y-100017276D02*
X99891667Y-100131561D01*
X99891667Y-100131561D02*
X99853571Y-100207752D01*
X99853571Y-100207752D02*
X99815476Y-100245847D01*
X99815476Y-100245847D02*
X99739286Y-100283942D01*
X99739286Y-100283942D02*
X99434524Y-100283942D01*
X100577381Y-100131561D02*
X100577381Y-100664895D01*
X100386905Y-99826800D02*
X100196428Y-100398228D01*
X100196428Y-100398228D02*
X100691667Y-100398228D01*
D11*
X69184580Y-90292857D02*
X69232200Y-90340476D01*
X69232200Y-90340476D02*
X69279819Y-90483333D01*
X69279819Y-90483333D02*
X69279819Y-90578571D01*
X69279819Y-90578571D02*
X69232200Y-90721428D01*
X69232200Y-90721428D02*
X69136961Y-90816666D01*
X69136961Y-90816666D02*
X69041723Y-90864285D01*
X69041723Y-90864285D02*
X68851247Y-90911904D01*
X68851247Y-90911904D02*
X68708390Y-90911904D01*
X68708390Y-90911904D02*
X68517914Y-90864285D01*
X68517914Y-90864285D02*
X68422676Y-90816666D01*
X68422676Y-90816666D02*
X68327438Y-90721428D01*
X68327438Y-90721428D02*
X68279819Y-90578571D01*
X68279819Y-90578571D02*
X68279819Y-90483333D01*
X68279819Y-90483333D02*
X68327438Y-90340476D01*
X68327438Y-90340476D02*
X68375057Y-90292857D01*
X69279819Y-89340476D02*
X69279819Y-89911904D01*
X69279819Y-89626190D02*
X68279819Y-89626190D01*
X68279819Y-89626190D02*
X68422676Y-89721428D01*
X68422676Y-89721428D02*
X68517914Y-89816666D01*
X68517914Y-89816666D02*
X68565533Y-89911904D01*
X69279819Y-88864285D02*
X69279819Y-88673809D01*
X69279819Y-88673809D02*
X69232200Y-88578571D01*
X69232200Y-88578571D02*
X69184580Y-88530952D01*
X69184580Y-88530952D02*
X69041723Y-88435714D01*
X69041723Y-88435714D02*
X68851247Y-88388095D01*
X68851247Y-88388095D02*
X68470295Y-88388095D01*
X68470295Y-88388095D02*
X68375057Y-88435714D01*
X68375057Y-88435714D02*
X68327438Y-88483333D01*
X68327438Y-88483333D02*
X68279819Y-88578571D01*
X68279819Y-88578571D02*
X68279819Y-88769047D01*
X68279819Y-88769047D02*
X68327438Y-88864285D01*
X68327438Y-88864285D02*
X68375057Y-88911904D01*
X68375057Y-88911904D02*
X68470295Y-88959523D01*
X68470295Y-88959523D02*
X68708390Y-88959523D01*
X68708390Y-88959523D02*
X68803628Y-88911904D01*
X68803628Y-88911904D02*
X68851247Y-88864285D01*
X68851247Y-88864285D02*
X68898866Y-88769047D01*
X68898866Y-88769047D02*
X68898866Y-88578571D01*
X68898866Y-88578571D02*
X68851247Y-88483333D01*
X68851247Y-88483333D02*
X68803628Y-88435714D01*
X68803628Y-88435714D02*
X68708390Y-88388095D01*
D10*
X70785714Y-81913704D02*
X70747618Y-81951800D01*
X70747618Y-81951800D02*
X70633333Y-81989895D01*
X70633333Y-81989895D02*
X70557142Y-81989895D01*
X70557142Y-81989895D02*
X70442856Y-81951800D01*
X70442856Y-81951800D02*
X70366666Y-81875609D01*
X70366666Y-81875609D02*
X70328571Y-81799419D01*
X70328571Y-81799419D02*
X70290475Y-81647038D01*
X70290475Y-81647038D02*
X70290475Y-81532752D01*
X70290475Y-81532752D02*
X70328571Y-81380371D01*
X70328571Y-81380371D02*
X70366666Y-81304180D01*
X70366666Y-81304180D02*
X70442856Y-81227990D01*
X70442856Y-81227990D02*
X70557142Y-81189895D01*
X70557142Y-81189895D02*
X70633333Y-81189895D01*
X70633333Y-81189895D02*
X70747618Y-81227990D01*
X70747618Y-81227990D02*
X70785714Y-81266085D01*
X71090475Y-81266085D02*
X71128571Y-81227990D01*
X71128571Y-81227990D02*
X71204761Y-81189895D01*
X71204761Y-81189895D02*
X71395237Y-81189895D01*
X71395237Y-81189895D02*
X71471428Y-81227990D01*
X71471428Y-81227990D02*
X71509523Y-81266085D01*
X71509523Y-81266085D02*
X71547618Y-81342276D01*
X71547618Y-81342276D02*
X71547618Y-81418466D01*
X71547618Y-81418466D02*
X71509523Y-81532752D01*
X71509523Y-81532752D02*
X71052380Y-81989895D01*
X71052380Y-81989895D02*
X71547618Y-81989895D01*
X71814285Y-81189895D02*
X72309523Y-81189895D01*
X72309523Y-81189895D02*
X72042857Y-81494657D01*
X72042857Y-81494657D02*
X72157142Y-81494657D01*
X72157142Y-81494657D02*
X72233333Y-81532752D01*
X72233333Y-81532752D02*
X72271428Y-81570847D01*
X72271428Y-81570847D02*
X72309523Y-81647038D01*
X72309523Y-81647038D02*
X72309523Y-81837514D01*
X72309523Y-81837514D02*
X72271428Y-81913704D01*
X72271428Y-81913704D02*
X72233333Y-81951800D01*
X72233333Y-81951800D02*
X72157142Y-81989895D01*
X72157142Y-81989895D02*
X71928571Y-81989895D01*
X71928571Y-81989895D02*
X71852380Y-81951800D01*
X71852380Y-81951800D02*
X71814285Y-81913704D01*
X80113704Y-97708332D02*
X80151800Y-97746428D01*
X80151800Y-97746428D02*
X80189895Y-97860713D01*
X80189895Y-97860713D02*
X80189895Y-97936904D01*
X80189895Y-97936904D02*
X80151800Y-98051190D01*
X80151800Y-98051190D02*
X80075609Y-98127380D01*
X80075609Y-98127380D02*
X79999419Y-98165475D01*
X79999419Y-98165475D02*
X79847038Y-98203571D01*
X79847038Y-98203571D02*
X79732752Y-98203571D01*
X79732752Y-98203571D02*
X79580371Y-98165475D01*
X79580371Y-98165475D02*
X79504180Y-98127380D01*
X79504180Y-98127380D02*
X79427990Y-98051190D01*
X79427990Y-98051190D02*
X79389895Y-97936904D01*
X79389895Y-97936904D02*
X79389895Y-97860713D01*
X79389895Y-97860713D02*
X79427990Y-97746428D01*
X79427990Y-97746428D02*
X79466085Y-97708332D01*
X80189895Y-97327380D02*
X80189895Y-97174999D01*
X80189895Y-97174999D02*
X80151800Y-97098809D01*
X80151800Y-97098809D02*
X80113704Y-97060713D01*
X80113704Y-97060713D02*
X79999419Y-96984523D01*
X79999419Y-96984523D02*
X79847038Y-96946428D01*
X79847038Y-96946428D02*
X79542276Y-96946428D01*
X79542276Y-96946428D02*
X79466085Y-96984523D01*
X79466085Y-96984523D02*
X79427990Y-97022618D01*
X79427990Y-97022618D02*
X79389895Y-97098809D01*
X79389895Y-97098809D02*
X79389895Y-97251190D01*
X79389895Y-97251190D02*
X79427990Y-97327380D01*
X79427990Y-97327380D02*
X79466085Y-97365475D01*
X79466085Y-97365475D02*
X79542276Y-97403571D01*
X79542276Y-97403571D02*
X79732752Y-97403571D01*
X79732752Y-97403571D02*
X79808942Y-97365475D01*
X79808942Y-97365475D02*
X79847038Y-97327380D01*
X79847038Y-97327380D02*
X79885133Y-97251190D01*
X79885133Y-97251190D02*
X79885133Y-97098809D01*
X79885133Y-97098809D02*
X79847038Y-97022618D01*
X79847038Y-97022618D02*
X79808942Y-96984523D01*
X79808942Y-96984523D02*
X79732752Y-96946428D01*
X83860714Y-83164895D02*
X83594047Y-82783942D01*
X83403571Y-83164895D02*
X83403571Y-82364895D01*
X83403571Y-82364895D02*
X83708333Y-82364895D01*
X83708333Y-82364895D02*
X83784523Y-82402990D01*
X83784523Y-82402990D02*
X83822618Y-82441085D01*
X83822618Y-82441085D02*
X83860714Y-82517276D01*
X83860714Y-82517276D02*
X83860714Y-82631561D01*
X83860714Y-82631561D02*
X83822618Y-82707752D01*
X83822618Y-82707752D02*
X83784523Y-82745847D01*
X83784523Y-82745847D02*
X83708333Y-82783942D01*
X83708333Y-82783942D02*
X83403571Y-82783942D01*
X84622618Y-83164895D02*
X84165475Y-83164895D01*
X84394047Y-83164895D02*
X84394047Y-82364895D01*
X84394047Y-82364895D02*
X84317856Y-82479180D01*
X84317856Y-82479180D02*
X84241666Y-82555371D01*
X84241666Y-82555371D02*
X84165475Y-82593466D01*
X85384523Y-83164895D02*
X84927380Y-83164895D01*
X85155952Y-83164895D02*
X85155952Y-82364895D01*
X85155952Y-82364895D02*
X85079761Y-82479180D01*
X85079761Y-82479180D02*
X85003571Y-82555371D01*
X85003571Y-82555371D02*
X84927380Y-82593466D01*
X81564895Y-98539285D02*
X81183942Y-98805952D01*
X81564895Y-98996428D02*
X80764895Y-98996428D01*
X80764895Y-98996428D02*
X80764895Y-98691666D01*
X80764895Y-98691666D02*
X80802990Y-98615476D01*
X80802990Y-98615476D02*
X80841085Y-98577381D01*
X80841085Y-98577381D02*
X80917276Y-98539285D01*
X80917276Y-98539285D02*
X81031561Y-98539285D01*
X81031561Y-98539285D02*
X81107752Y-98577381D01*
X81107752Y-98577381D02*
X81145847Y-98615476D01*
X81145847Y-98615476D02*
X81183942Y-98691666D01*
X81183942Y-98691666D02*
X81183942Y-98996428D01*
X81564895Y-97777381D02*
X81564895Y-98234524D01*
X81564895Y-98005952D02*
X80764895Y-98005952D01*
X80764895Y-98005952D02*
X80879180Y-98082143D01*
X80879180Y-98082143D02*
X80955371Y-98158333D01*
X80955371Y-98158333D02*
X80993466Y-98234524D01*
X80764895Y-97510714D02*
X80764895Y-97015476D01*
X80764895Y-97015476D02*
X81069657Y-97282142D01*
X81069657Y-97282142D02*
X81069657Y-97167857D01*
X81069657Y-97167857D02*
X81107752Y-97091666D01*
X81107752Y-97091666D02*
X81145847Y-97053571D01*
X81145847Y-97053571D02*
X81222038Y-97015476D01*
X81222038Y-97015476D02*
X81412514Y-97015476D01*
X81412514Y-97015476D02*
X81488704Y-97053571D01*
X81488704Y-97053571D02*
X81526800Y-97091666D01*
X81526800Y-97091666D02*
X81564895Y-97167857D01*
X81564895Y-97167857D02*
X81564895Y-97396428D01*
X81564895Y-97396428D02*
X81526800Y-97472619D01*
X81526800Y-97472619D02*
X81488704Y-97510714D01*
X75385714Y-95213704D02*
X75347618Y-95251800D01*
X75347618Y-95251800D02*
X75233333Y-95289895D01*
X75233333Y-95289895D02*
X75157142Y-95289895D01*
X75157142Y-95289895D02*
X75042856Y-95251800D01*
X75042856Y-95251800D02*
X74966666Y-95175609D01*
X74966666Y-95175609D02*
X74928571Y-95099419D01*
X74928571Y-95099419D02*
X74890475Y-94947038D01*
X74890475Y-94947038D02*
X74890475Y-94832752D01*
X74890475Y-94832752D02*
X74928571Y-94680371D01*
X74928571Y-94680371D02*
X74966666Y-94604180D01*
X74966666Y-94604180D02*
X75042856Y-94527990D01*
X75042856Y-94527990D02*
X75157142Y-94489895D01*
X75157142Y-94489895D02*
X75233333Y-94489895D01*
X75233333Y-94489895D02*
X75347618Y-94527990D01*
X75347618Y-94527990D02*
X75385714Y-94566085D01*
X76147618Y-95289895D02*
X75690475Y-95289895D01*
X75919047Y-95289895D02*
X75919047Y-94489895D01*
X75919047Y-94489895D02*
X75842856Y-94604180D01*
X75842856Y-94604180D02*
X75766666Y-94680371D01*
X75766666Y-94680371D02*
X75690475Y-94718466D01*
X76909523Y-95289895D02*
X76452380Y-95289895D01*
X76680952Y-95289895D02*
X76680952Y-94489895D01*
X76680952Y-94489895D02*
X76604761Y-94604180D01*
X76604761Y-94604180D02*
X76528571Y-94680371D01*
X76528571Y-94680371D02*
X76452380Y-94718466D01*
X83666667Y-93039895D02*
X83400000Y-92658942D01*
X83209524Y-93039895D02*
X83209524Y-92239895D01*
X83209524Y-92239895D02*
X83514286Y-92239895D01*
X83514286Y-92239895D02*
X83590476Y-92277990D01*
X83590476Y-92277990D02*
X83628571Y-92316085D01*
X83628571Y-92316085D02*
X83666667Y-92392276D01*
X83666667Y-92392276D02*
X83666667Y-92506561D01*
X83666667Y-92506561D02*
X83628571Y-92582752D01*
X83628571Y-92582752D02*
X83590476Y-92620847D01*
X83590476Y-92620847D02*
X83514286Y-92658942D01*
X83514286Y-92658942D02*
X83209524Y-92658942D01*
X84352381Y-92239895D02*
X84200000Y-92239895D01*
X84200000Y-92239895D02*
X84123809Y-92277990D01*
X84123809Y-92277990D02*
X84085714Y-92316085D01*
X84085714Y-92316085D02*
X84009524Y-92430371D01*
X84009524Y-92430371D02*
X83971428Y-92582752D01*
X83971428Y-92582752D02*
X83971428Y-92887514D01*
X83971428Y-92887514D02*
X84009524Y-92963704D01*
X84009524Y-92963704D02*
X84047619Y-93001800D01*
X84047619Y-93001800D02*
X84123809Y-93039895D01*
X84123809Y-93039895D02*
X84276190Y-93039895D01*
X84276190Y-93039895D02*
X84352381Y-93001800D01*
X84352381Y-93001800D02*
X84390476Y-92963704D01*
X84390476Y-92963704D02*
X84428571Y-92887514D01*
X84428571Y-92887514D02*
X84428571Y-92697038D01*
X84428571Y-92697038D02*
X84390476Y-92620847D01*
X84390476Y-92620847D02*
X84352381Y-92582752D01*
X84352381Y-92582752D02*
X84276190Y-92544657D01*
X84276190Y-92544657D02*
X84123809Y-92544657D01*
X84123809Y-92544657D02*
X84047619Y-92582752D01*
X84047619Y-92582752D02*
X84009524Y-92620847D01*
X84009524Y-92620847D02*
X83971428Y-92697038D01*
D11*
X62234580Y-89216666D02*
X62282200Y-89264285D01*
X62282200Y-89264285D02*
X62329819Y-89407142D01*
X62329819Y-89407142D02*
X62329819Y-89502380D01*
X62329819Y-89502380D02*
X62282200Y-89645237D01*
X62282200Y-89645237D02*
X62186961Y-89740475D01*
X62186961Y-89740475D02*
X62091723Y-89788094D01*
X62091723Y-89788094D02*
X61901247Y-89835713D01*
X61901247Y-89835713D02*
X61758390Y-89835713D01*
X61758390Y-89835713D02*
X61567914Y-89788094D01*
X61567914Y-89788094D02*
X61472676Y-89740475D01*
X61472676Y-89740475D02*
X61377438Y-89645237D01*
X61377438Y-89645237D02*
X61329819Y-89502380D01*
X61329819Y-89502380D02*
X61329819Y-89407142D01*
X61329819Y-89407142D02*
X61377438Y-89264285D01*
X61377438Y-89264285D02*
X61425057Y-89216666D01*
X61329819Y-88883332D02*
X61329819Y-88264285D01*
X61329819Y-88264285D02*
X61710771Y-88597618D01*
X61710771Y-88597618D02*
X61710771Y-88454761D01*
X61710771Y-88454761D02*
X61758390Y-88359523D01*
X61758390Y-88359523D02*
X61806009Y-88311904D01*
X61806009Y-88311904D02*
X61901247Y-88264285D01*
X61901247Y-88264285D02*
X62139342Y-88264285D01*
X62139342Y-88264285D02*
X62234580Y-88311904D01*
X62234580Y-88311904D02*
X62282200Y-88359523D01*
X62282200Y-88359523D02*
X62329819Y-88454761D01*
X62329819Y-88454761D02*
X62329819Y-88740475D01*
X62329819Y-88740475D02*
X62282200Y-88835713D01*
X62282200Y-88835713D02*
X62234580Y-88883332D01*
D10*
X82714895Y-87608332D02*
X82333942Y-87874999D01*
X82714895Y-88065475D02*
X81914895Y-88065475D01*
X81914895Y-88065475D02*
X81914895Y-87760713D01*
X81914895Y-87760713D02*
X81952990Y-87684523D01*
X81952990Y-87684523D02*
X81991085Y-87646428D01*
X81991085Y-87646428D02*
X82067276Y-87608332D01*
X82067276Y-87608332D02*
X82181561Y-87608332D01*
X82181561Y-87608332D02*
X82257752Y-87646428D01*
X82257752Y-87646428D02*
X82295847Y-87684523D01*
X82295847Y-87684523D02*
X82333942Y-87760713D01*
X82333942Y-87760713D02*
X82333942Y-88065475D01*
X82714895Y-87227380D02*
X82714895Y-87074999D01*
X82714895Y-87074999D02*
X82676800Y-86998809D01*
X82676800Y-86998809D02*
X82638704Y-86960713D01*
X82638704Y-86960713D02*
X82524419Y-86884523D01*
X82524419Y-86884523D02*
X82372038Y-86846428D01*
X82372038Y-86846428D02*
X82067276Y-86846428D01*
X82067276Y-86846428D02*
X81991085Y-86884523D01*
X81991085Y-86884523D02*
X81952990Y-86922618D01*
X81952990Y-86922618D02*
X81914895Y-86998809D01*
X81914895Y-86998809D02*
X81914895Y-87151190D01*
X81914895Y-87151190D02*
X81952990Y-87227380D01*
X81952990Y-87227380D02*
X81991085Y-87265475D01*
X81991085Y-87265475D02*
X82067276Y-87303571D01*
X82067276Y-87303571D02*
X82257752Y-87303571D01*
X82257752Y-87303571D02*
X82333942Y-87265475D01*
X82333942Y-87265475D02*
X82372038Y-87227380D01*
X82372038Y-87227380D02*
X82410133Y-87151190D01*
X82410133Y-87151190D02*
X82410133Y-86998809D01*
X82410133Y-86998809D02*
X82372038Y-86922618D01*
X82372038Y-86922618D02*
X82333942Y-86884523D01*
X82333942Y-86884523D02*
X82257752Y-86846428D01*
D11*
X68207142Y-86184580D02*
X68159523Y-86232200D01*
X68159523Y-86232200D02*
X68016666Y-86279819D01*
X68016666Y-86279819D02*
X67921428Y-86279819D01*
X67921428Y-86279819D02*
X67778571Y-86232200D01*
X67778571Y-86232200D02*
X67683333Y-86136961D01*
X67683333Y-86136961D02*
X67635714Y-86041723D01*
X67635714Y-86041723D02*
X67588095Y-85851247D01*
X67588095Y-85851247D02*
X67588095Y-85708390D01*
X67588095Y-85708390D02*
X67635714Y-85517914D01*
X67635714Y-85517914D02*
X67683333Y-85422676D01*
X67683333Y-85422676D02*
X67778571Y-85327438D01*
X67778571Y-85327438D02*
X67921428Y-85279819D01*
X67921428Y-85279819D02*
X68016666Y-85279819D01*
X68016666Y-85279819D02*
X68159523Y-85327438D01*
X68159523Y-85327438D02*
X68207142Y-85375057D01*
X68588095Y-85375057D02*
X68635714Y-85327438D01*
X68635714Y-85327438D02*
X68730952Y-85279819D01*
X68730952Y-85279819D02*
X68969047Y-85279819D01*
X68969047Y-85279819D02*
X69064285Y-85327438D01*
X69064285Y-85327438D02*
X69111904Y-85375057D01*
X69111904Y-85375057D02*
X69159523Y-85470295D01*
X69159523Y-85470295D02*
X69159523Y-85565533D01*
X69159523Y-85565533D02*
X69111904Y-85708390D01*
X69111904Y-85708390D02*
X68540476Y-86279819D01*
X68540476Y-86279819D02*
X69159523Y-86279819D01*
X69540476Y-85375057D02*
X69588095Y-85327438D01*
X69588095Y-85327438D02*
X69683333Y-85279819D01*
X69683333Y-85279819D02*
X69921428Y-85279819D01*
X69921428Y-85279819D02*
X70016666Y-85327438D01*
X70016666Y-85327438D02*
X70064285Y-85375057D01*
X70064285Y-85375057D02*
X70111904Y-85470295D01*
X70111904Y-85470295D02*
X70111904Y-85565533D01*
X70111904Y-85565533D02*
X70064285Y-85708390D01*
X70064285Y-85708390D02*
X69492857Y-86279819D01*
X69492857Y-86279819D02*
X70111904Y-86279819D01*
D10*
X70810714Y-79188704D02*
X70772618Y-79226800D01*
X70772618Y-79226800D02*
X70658333Y-79264895D01*
X70658333Y-79264895D02*
X70582142Y-79264895D01*
X70582142Y-79264895D02*
X70467856Y-79226800D01*
X70467856Y-79226800D02*
X70391666Y-79150609D01*
X70391666Y-79150609D02*
X70353571Y-79074419D01*
X70353571Y-79074419D02*
X70315475Y-78922038D01*
X70315475Y-78922038D02*
X70315475Y-78807752D01*
X70315475Y-78807752D02*
X70353571Y-78655371D01*
X70353571Y-78655371D02*
X70391666Y-78579180D01*
X70391666Y-78579180D02*
X70467856Y-78502990D01*
X70467856Y-78502990D02*
X70582142Y-78464895D01*
X70582142Y-78464895D02*
X70658333Y-78464895D01*
X70658333Y-78464895D02*
X70772618Y-78502990D01*
X70772618Y-78502990D02*
X70810714Y-78541085D01*
X71115475Y-78541085D02*
X71153571Y-78502990D01*
X71153571Y-78502990D02*
X71229761Y-78464895D01*
X71229761Y-78464895D02*
X71420237Y-78464895D01*
X71420237Y-78464895D02*
X71496428Y-78502990D01*
X71496428Y-78502990D02*
X71534523Y-78541085D01*
X71534523Y-78541085D02*
X71572618Y-78617276D01*
X71572618Y-78617276D02*
X71572618Y-78693466D01*
X71572618Y-78693466D02*
X71534523Y-78807752D01*
X71534523Y-78807752D02*
X71077380Y-79264895D01*
X71077380Y-79264895D02*
X71572618Y-79264895D01*
X72067857Y-78464895D02*
X72144047Y-78464895D01*
X72144047Y-78464895D02*
X72220238Y-78502990D01*
X72220238Y-78502990D02*
X72258333Y-78541085D01*
X72258333Y-78541085D02*
X72296428Y-78617276D01*
X72296428Y-78617276D02*
X72334523Y-78769657D01*
X72334523Y-78769657D02*
X72334523Y-78960133D01*
X72334523Y-78960133D02*
X72296428Y-79112514D01*
X72296428Y-79112514D02*
X72258333Y-79188704D01*
X72258333Y-79188704D02*
X72220238Y-79226800D01*
X72220238Y-79226800D02*
X72144047Y-79264895D01*
X72144047Y-79264895D02*
X72067857Y-79264895D01*
X72067857Y-79264895D02*
X71991666Y-79226800D01*
X71991666Y-79226800D02*
X71953571Y-79188704D01*
X71953571Y-79188704D02*
X71915476Y-79112514D01*
X71915476Y-79112514D02*
X71877380Y-78960133D01*
X71877380Y-78960133D02*
X71877380Y-78769657D01*
X71877380Y-78769657D02*
X71915476Y-78617276D01*
X71915476Y-78617276D02*
X71953571Y-78541085D01*
X71953571Y-78541085D02*
X71991666Y-78502990D01*
X71991666Y-78502990D02*
X72067857Y-78464895D01*
X84945847Y-81441666D02*
X84945847Y-81708332D01*
X85364895Y-81708332D02*
X84564895Y-81708332D01*
X84564895Y-81708332D02*
X84564895Y-81327380D01*
X84945847Y-80755952D02*
X84983942Y-80641666D01*
X84983942Y-80641666D02*
X85022038Y-80603571D01*
X85022038Y-80603571D02*
X85098228Y-80565475D01*
X85098228Y-80565475D02*
X85212514Y-80565475D01*
X85212514Y-80565475D02*
X85288704Y-80603571D01*
X85288704Y-80603571D02*
X85326800Y-80641666D01*
X85326800Y-80641666D02*
X85364895Y-80717856D01*
X85364895Y-80717856D02*
X85364895Y-81022618D01*
X85364895Y-81022618D02*
X84564895Y-81022618D01*
X84564895Y-81022618D02*
X84564895Y-80755952D01*
X84564895Y-80755952D02*
X84602990Y-80679761D01*
X84602990Y-80679761D02*
X84641085Y-80641666D01*
X84641085Y-80641666D02*
X84717276Y-80603571D01*
X84717276Y-80603571D02*
X84793466Y-80603571D01*
X84793466Y-80603571D02*
X84869657Y-80641666D01*
X84869657Y-80641666D02*
X84907752Y-80679761D01*
X84907752Y-80679761D02*
X84945847Y-80755952D01*
X84945847Y-80755952D02*
X84945847Y-81022618D01*
X84831561Y-79879761D02*
X85364895Y-79879761D01*
X84526800Y-80070237D02*
X85098228Y-80260714D01*
X85098228Y-80260714D02*
X85098228Y-79765475D01*
X70658333Y-77445847D02*
X70391667Y-77445847D01*
X70391667Y-77864895D02*
X70391667Y-77064895D01*
X70391667Y-77064895D02*
X70772619Y-77064895D01*
X71344047Y-77445847D02*
X71458333Y-77483942D01*
X71458333Y-77483942D02*
X71496428Y-77522038D01*
X71496428Y-77522038D02*
X71534524Y-77598228D01*
X71534524Y-77598228D02*
X71534524Y-77712514D01*
X71534524Y-77712514D02*
X71496428Y-77788704D01*
X71496428Y-77788704D02*
X71458333Y-77826800D01*
X71458333Y-77826800D02*
X71382143Y-77864895D01*
X71382143Y-77864895D02*
X71077381Y-77864895D01*
X71077381Y-77864895D02*
X71077381Y-77064895D01*
X71077381Y-77064895D02*
X71344047Y-77064895D01*
X71344047Y-77064895D02*
X71420238Y-77102990D01*
X71420238Y-77102990D02*
X71458333Y-77141085D01*
X71458333Y-77141085D02*
X71496428Y-77217276D01*
X71496428Y-77217276D02*
X71496428Y-77293466D01*
X71496428Y-77293466D02*
X71458333Y-77369657D01*
X71458333Y-77369657D02*
X71420238Y-77407752D01*
X71420238Y-77407752D02*
X71344047Y-77445847D01*
X71344047Y-77445847D02*
X71077381Y-77445847D01*
X71801190Y-77064895D02*
X72296428Y-77064895D01*
X72296428Y-77064895D02*
X72029762Y-77369657D01*
X72029762Y-77369657D02*
X72144047Y-77369657D01*
X72144047Y-77369657D02*
X72220238Y-77407752D01*
X72220238Y-77407752D02*
X72258333Y-77445847D01*
X72258333Y-77445847D02*
X72296428Y-77522038D01*
X72296428Y-77522038D02*
X72296428Y-77712514D01*
X72296428Y-77712514D02*
X72258333Y-77788704D01*
X72258333Y-77788704D02*
X72220238Y-77826800D01*
X72220238Y-77826800D02*
X72144047Y-77864895D01*
X72144047Y-77864895D02*
X71915476Y-77864895D01*
X71915476Y-77864895D02*
X71839285Y-77826800D01*
X71839285Y-77826800D02*
X71801190Y-77788704D01*
X73785714Y-81938704D02*
X73747618Y-81976800D01*
X73747618Y-81976800D02*
X73633333Y-82014895D01*
X73633333Y-82014895D02*
X73557142Y-82014895D01*
X73557142Y-82014895D02*
X73442856Y-81976800D01*
X73442856Y-81976800D02*
X73366666Y-81900609D01*
X73366666Y-81900609D02*
X73328571Y-81824419D01*
X73328571Y-81824419D02*
X73290475Y-81672038D01*
X73290475Y-81672038D02*
X73290475Y-81557752D01*
X73290475Y-81557752D02*
X73328571Y-81405371D01*
X73328571Y-81405371D02*
X73366666Y-81329180D01*
X73366666Y-81329180D02*
X73442856Y-81252990D01*
X73442856Y-81252990D02*
X73557142Y-81214895D01*
X73557142Y-81214895D02*
X73633333Y-81214895D01*
X73633333Y-81214895D02*
X73747618Y-81252990D01*
X73747618Y-81252990D02*
X73785714Y-81291085D01*
X74090475Y-81291085D02*
X74128571Y-81252990D01*
X74128571Y-81252990D02*
X74204761Y-81214895D01*
X74204761Y-81214895D02*
X74395237Y-81214895D01*
X74395237Y-81214895D02*
X74471428Y-81252990D01*
X74471428Y-81252990D02*
X74509523Y-81291085D01*
X74509523Y-81291085D02*
X74547618Y-81367276D01*
X74547618Y-81367276D02*
X74547618Y-81443466D01*
X74547618Y-81443466D02*
X74509523Y-81557752D01*
X74509523Y-81557752D02*
X74052380Y-82014895D01*
X74052380Y-82014895D02*
X74547618Y-82014895D01*
X75233333Y-81481561D02*
X75233333Y-82014895D01*
X75042857Y-81176800D02*
X74852380Y-81748228D01*
X74852380Y-81748228D02*
X75347619Y-81748228D01*
X84138704Y-94883332D02*
X84176800Y-94921428D01*
X84176800Y-94921428D02*
X84214895Y-95035713D01*
X84214895Y-95035713D02*
X84214895Y-95111904D01*
X84214895Y-95111904D02*
X84176800Y-95226190D01*
X84176800Y-95226190D02*
X84100609Y-95302380D01*
X84100609Y-95302380D02*
X84024419Y-95340475D01*
X84024419Y-95340475D02*
X83872038Y-95378571D01*
X83872038Y-95378571D02*
X83757752Y-95378571D01*
X83757752Y-95378571D02*
X83605371Y-95340475D01*
X83605371Y-95340475D02*
X83529180Y-95302380D01*
X83529180Y-95302380D02*
X83452990Y-95226190D01*
X83452990Y-95226190D02*
X83414895Y-95111904D01*
X83414895Y-95111904D02*
X83414895Y-95035713D01*
X83414895Y-95035713D02*
X83452990Y-94921428D01*
X83452990Y-94921428D02*
X83491085Y-94883332D01*
X83414895Y-94159523D02*
X83414895Y-94540475D01*
X83414895Y-94540475D02*
X83795847Y-94578571D01*
X83795847Y-94578571D02*
X83757752Y-94540475D01*
X83757752Y-94540475D02*
X83719657Y-94464285D01*
X83719657Y-94464285D02*
X83719657Y-94273809D01*
X83719657Y-94273809D02*
X83757752Y-94197618D01*
X83757752Y-94197618D02*
X83795847Y-94159523D01*
X83795847Y-94159523D02*
X83872038Y-94121428D01*
X83872038Y-94121428D02*
X84062514Y-94121428D01*
X84062514Y-94121428D02*
X84138704Y-94159523D01*
X84138704Y-94159523D02*
X84176800Y-94197618D01*
X84176800Y-94197618D02*
X84214895Y-94273809D01*
X84214895Y-94273809D02*
X84214895Y-94464285D01*
X84214895Y-94464285D02*
X84176800Y-94540475D01*
X84176800Y-94540475D02*
X84138704Y-94578571D01*
X78639895Y-82558332D02*
X78258942Y-82824999D01*
X78639895Y-83015475D02*
X77839895Y-83015475D01*
X77839895Y-83015475D02*
X77839895Y-82710713D01*
X77839895Y-82710713D02*
X77877990Y-82634523D01*
X77877990Y-82634523D02*
X77916085Y-82596428D01*
X77916085Y-82596428D02*
X77992276Y-82558332D01*
X77992276Y-82558332D02*
X78106561Y-82558332D01*
X78106561Y-82558332D02*
X78182752Y-82596428D01*
X78182752Y-82596428D02*
X78220847Y-82634523D01*
X78220847Y-82634523D02*
X78258942Y-82710713D01*
X78258942Y-82710713D02*
X78258942Y-83015475D01*
X78639895Y-81796428D02*
X78639895Y-82253571D01*
X78639895Y-82024999D02*
X77839895Y-82024999D01*
X77839895Y-82024999D02*
X77954180Y-82101190D01*
X77954180Y-82101190D02*
X78030371Y-82177380D01*
X78030371Y-82177380D02*
X78068466Y-82253571D01*
D11*
X71907142Y-95159580D02*
X71859523Y-95207200D01*
X71859523Y-95207200D02*
X71716666Y-95254819D01*
X71716666Y-95254819D02*
X71621428Y-95254819D01*
X71621428Y-95254819D02*
X71478571Y-95207200D01*
X71478571Y-95207200D02*
X71383333Y-95111961D01*
X71383333Y-95111961D02*
X71335714Y-95016723D01*
X71335714Y-95016723D02*
X71288095Y-94826247D01*
X71288095Y-94826247D02*
X71288095Y-94683390D01*
X71288095Y-94683390D02*
X71335714Y-94492914D01*
X71335714Y-94492914D02*
X71383333Y-94397676D01*
X71383333Y-94397676D02*
X71478571Y-94302438D01*
X71478571Y-94302438D02*
X71621428Y-94254819D01*
X71621428Y-94254819D02*
X71716666Y-94254819D01*
X71716666Y-94254819D02*
X71859523Y-94302438D01*
X71859523Y-94302438D02*
X71907142Y-94350057D01*
X72859523Y-95254819D02*
X72288095Y-95254819D01*
X72573809Y-95254819D02*
X72573809Y-94254819D01*
X72573809Y-94254819D02*
X72478571Y-94397676D01*
X72478571Y-94397676D02*
X72383333Y-94492914D01*
X72383333Y-94492914D02*
X72288095Y-94540533D01*
X73478571Y-94254819D02*
X73573809Y-94254819D01*
X73573809Y-94254819D02*
X73669047Y-94302438D01*
X73669047Y-94302438D02*
X73716666Y-94350057D01*
X73716666Y-94350057D02*
X73764285Y-94445295D01*
X73764285Y-94445295D02*
X73811904Y-94635771D01*
X73811904Y-94635771D02*
X73811904Y-94873866D01*
X73811904Y-94873866D02*
X73764285Y-95064342D01*
X73764285Y-95064342D02*
X73716666Y-95159580D01*
X73716666Y-95159580D02*
X73669047Y-95207200D01*
X73669047Y-95207200D02*
X73573809Y-95254819D01*
X73573809Y-95254819D02*
X73478571Y-95254819D01*
X73478571Y-95254819D02*
X73383333Y-95207200D01*
X73383333Y-95207200D02*
X73335714Y-95159580D01*
X73335714Y-95159580D02*
X73288095Y-95064342D01*
X73288095Y-95064342D02*
X73240476Y-94873866D01*
X73240476Y-94873866D02*
X73240476Y-94635771D01*
X73240476Y-94635771D02*
X73288095Y-94445295D01*
X73288095Y-94445295D02*
X73335714Y-94350057D01*
X73335714Y-94350057D02*
X73383333Y-94302438D01*
X73383333Y-94302438D02*
X73478571Y-94254819D01*
X102408333Y-77954819D02*
X102075000Y-77478628D01*
X101836905Y-77954819D02*
X101836905Y-76954819D01*
X101836905Y-76954819D02*
X102217857Y-76954819D01*
X102217857Y-76954819D02*
X102313095Y-77002438D01*
X102313095Y-77002438D02*
X102360714Y-77050057D01*
X102360714Y-77050057D02*
X102408333Y-77145295D01*
X102408333Y-77145295D02*
X102408333Y-77288152D01*
X102408333Y-77288152D02*
X102360714Y-77383390D01*
X102360714Y-77383390D02*
X102313095Y-77431009D01*
X102313095Y-77431009D02*
X102217857Y-77478628D01*
X102217857Y-77478628D02*
X101836905Y-77478628D01*
X102741667Y-76954819D02*
X103360714Y-76954819D01*
X103360714Y-76954819D02*
X103027381Y-77335771D01*
X103027381Y-77335771D02*
X103170238Y-77335771D01*
X103170238Y-77335771D02*
X103265476Y-77383390D01*
X103265476Y-77383390D02*
X103313095Y-77431009D01*
X103313095Y-77431009D02*
X103360714Y-77526247D01*
X103360714Y-77526247D02*
X103360714Y-77764342D01*
X103360714Y-77764342D02*
X103313095Y-77859580D01*
X103313095Y-77859580D02*
X103265476Y-77907200D01*
X103265476Y-77907200D02*
X103170238Y-77954819D01*
X103170238Y-77954819D02*
X102884524Y-77954819D01*
X102884524Y-77954819D02*
X102789286Y-77907200D01*
X102789286Y-77907200D02*
X102741667Y-77859580D01*
D10*
X73660714Y-83188704D02*
X73622618Y-83226800D01*
X73622618Y-83226800D02*
X73508333Y-83264895D01*
X73508333Y-83264895D02*
X73432142Y-83264895D01*
X73432142Y-83264895D02*
X73317856Y-83226800D01*
X73317856Y-83226800D02*
X73241666Y-83150609D01*
X73241666Y-83150609D02*
X73203571Y-83074419D01*
X73203571Y-83074419D02*
X73165475Y-82922038D01*
X73165475Y-82922038D02*
X73165475Y-82807752D01*
X73165475Y-82807752D02*
X73203571Y-82655371D01*
X73203571Y-82655371D02*
X73241666Y-82579180D01*
X73241666Y-82579180D02*
X73317856Y-82502990D01*
X73317856Y-82502990D02*
X73432142Y-82464895D01*
X73432142Y-82464895D02*
X73508333Y-82464895D01*
X73508333Y-82464895D02*
X73622618Y-82502990D01*
X73622618Y-82502990D02*
X73660714Y-82541085D01*
X74422618Y-83264895D02*
X73965475Y-83264895D01*
X74194047Y-83264895D02*
X74194047Y-82464895D01*
X74194047Y-82464895D02*
X74117856Y-82579180D01*
X74117856Y-82579180D02*
X74041666Y-82655371D01*
X74041666Y-82655371D02*
X73965475Y-82693466D01*
X75146428Y-82464895D02*
X74765476Y-82464895D01*
X74765476Y-82464895D02*
X74727380Y-82845847D01*
X74727380Y-82845847D02*
X74765476Y-82807752D01*
X74765476Y-82807752D02*
X74841666Y-82769657D01*
X74841666Y-82769657D02*
X75032142Y-82769657D01*
X75032142Y-82769657D02*
X75108333Y-82807752D01*
X75108333Y-82807752D02*
X75146428Y-82845847D01*
X75146428Y-82845847D02*
X75184523Y-82922038D01*
X75184523Y-82922038D02*
X75184523Y-83112514D01*
X75184523Y-83112514D02*
X75146428Y-83188704D01*
X75146428Y-83188704D02*
X75108333Y-83226800D01*
X75108333Y-83226800D02*
X75032142Y-83264895D01*
X75032142Y-83264895D02*
X74841666Y-83264895D01*
X74841666Y-83264895D02*
X74765476Y-83226800D01*
X74765476Y-83226800D02*
X74727380Y-83188704D01*
X70835714Y-80563704D02*
X70797618Y-80601800D01*
X70797618Y-80601800D02*
X70683333Y-80639895D01*
X70683333Y-80639895D02*
X70607142Y-80639895D01*
X70607142Y-80639895D02*
X70492856Y-80601800D01*
X70492856Y-80601800D02*
X70416666Y-80525609D01*
X70416666Y-80525609D02*
X70378571Y-80449419D01*
X70378571Y-80449419D02*
X70340475Y-80297038D01*
X70340475Y-80297038D02*
X70340475Y-80182752D01*
X70340475Y-80182752D02*
X70378571Y-80030371D01*
X70378571Y-80030371D02*
X70416666Y-79954180D01*
X70416666Y-79954180D02*
X70492856Y-79877990D01*
X70492856Y-79877990D02*
X70607142Y-79839895D01*
X70607142Y-79839895D02*
X70683333Y-79839895D01*
X70683333Y-79839895D02*
X70797618Y-79877990D01*
X70797618Y-79877990D02*
X70835714Y-79916085D01*
X71597618Y-80639895D02*
X71140475Y-80639895D01*
X71369047Y-80639895D02*
X71369047Y-79839895D01*
X71369047Y-79839895D02*
X71292856Y-79954180D01*
X71292856Y-79954180D02*
X71216666Y-80030371D01*
X71216666Y-80030371D02*
X71140475Y-80068466D01*
X72054761Y-80182752D02*
X71978571Y-80144657D01*
X71978571Y-80144657D02*
X71940476Y-80106561D01*
X71940476Y-80106561D02*
X71902380Y-80030371D01*
X71902380Y-80030371D02*
X71902380Y-79992276D01*
X71902380Y-79992276D02*
X71940476Y-79916085D01*
X71940476Y-79916085D02*
X71978571Y-79877990D01*
X71978571Y-79877990D02*
X72054761Y-79839895D01*
X72054761Y-79839895D02*
X72207142Y-79839895D01*
X72207142Y-79839895D02*
X72283333Y-79877990D01*
X72283333Y-79877990D02*
X72321428Y-79916085D01*
X72321428Y-79916085D02*
X72359523Y-79992276D01*
X72359523Y-79992276D02*
X72359523Y-80030371D01*
X72359523Y-80030371D02*
X72321428Y-80106561D01*
X72321428Y-80106561D02*
X72283333Y-80144657D01*
X72283333Y-80144657D02*
X72207142Y-80182752D01*
X72207142Y-80182752D02*
X72054761Y-80182752D01*
X72054761Y-80182752D02*
X71978571Y-80220847D01*
X71978571Y-80220847D02*
X71940476Y-80258942D01*
X71940476Y-80258942D02*
X71902380Y-80335133D01*
X71902380Y-80335133D02*
X71902380Y-80487514D01*
X71902380Y-80487514D02*
X71940476Y-80563704D01*
X71940476Y-80563704D02*
X71978571Y-80601800D01*
X71978571Y-80601800D02*
X72054761Y-80639895D01*
X72054761Y-80639895D02*
X72207142Y-80639895D01*
X72207142Y-80639895D02*
X72283333Y-80601800D01*
X72283333Y-80601800D02*
X72321428Y-80563704D01*
X72321428Y-80563704D02*
X72359523Y-80487514D01*
X72359523Y-80487514D02*
X72359523Y-80335133D01*
X72359523Y-80335133D02*
X72321428Y-80258942D01*
X72321428Y-80258942D02*
X72283333Y-80220847D01*
X72283333Y-80220847D02*
X72207142Y-80182752D01*
D11*
X62483333Y-87659580D02*
X62435714Y-87707200D01*
X62435714Y-87707200D02*
X62292857Y-87754819D01*
X62292857Y-87754819D02*
X62197619Y-87754819D01*
X62197619Y-87754819D02*
X62054762Y-87707200D01*
X62054762Y-87707200D02*
X61959524Y-87611961D01*
X61959524Y-87611961D02*
X61911905Y-87516723D01*
X61911905Y-87516723D02*
X61864286Y-87326247D01*
X61864286Y-87326247D02*
X61864286Y-87183390D01*
X61864286Y-87183390D02*
X61911905Y-86992914D01*
X61911905Y-86992914D02*
X61959524Y-86897676D01*
X61959524Y-86897676D02*
X62054762Y-86802438D01*
X62054762Y-86802438D02*
X62197619Y-86754819D01*
X62197619Y-86754819D02*
X62292857Y-86754819D01*
X62292857Y-86754819D02*
X62435714Y-86802438D01*
X62435714Y-86802438D02*
X62483333Y-86850057D01*
X63435714Y-87754819D02*
X62864286Y-87754819D01*
X63150000Y-87754819D02*
X63150000Y-86754819D01*
X63150000Y-86754819D02*
X63054762Y-86897676D01*
X63054762Y-86897676D02*
X62959524Y-86992914D01*
X62959524Y-86992914D02*
X62864286Y-87040533D01*
D10*
X74335714Y-77913704D02*
X74297618Y-77951800D01*
X74297618Y-77951800D02*
X74183333Y-77989895D01*
X74183333Y-77989895D02*
X74107142Y-77989895D01*
X74107142Y-77989895D02*
X73992856Y-77951800D01*
X73992856Y-77951800D02*
X73916666Y-77875609D01*
X73916666Y-77875609D02*
X73878571Y-77799419D01*
X73878571Y-77799419D02*
X73840475Y-77647038D01*
X73840475Y-77647038D02*
X73840475Y-77532752D01*
X73840475Y-77532752D02*
X73878571Y-77380371D01*
X73878571Y-77380371D02*
X73916666Y-77304180D01*
X73916666Y-77304180D02*
X73992856Y-77227990D01*
X73992856Y-77227990D02*
X74107142Y-77189895D01*
X74107142Y-77189895D02*
X74183333Y-77189895D01*
X74183333Y-77189895D02*
X74297618Y-77227990D01*
X74297618Y-77227990D02*
X74335714Y-77266085D01*
X74640475Y-77266085D02*
X74678571Y-77227990D01*
X74678571Y-77227990D02*
X74754761Y-77189895D01*
X74754761Y-77189895D02*
X74945237Y-77189895D01*
X74945237Y-77189895D02*
X75021428Y-77227990D01*
X75021428Y-77227990D02*
X75059523Y-77266085D01*
X75059523Y-77266085D02*
X75097618Y-77342276D01*
X75097618Y-77342276D02*
X75097618Y-77418466D01*
X75097618Y-77418466D02*
X75059523Y-77532752D01*
X75059523Y-77532752D02*
X74602380Y-77989895D01*
X74602380Y-77989895D02*
X75097618Y-77989895D01*
X75783333Y-77189895D02*
X75630952Y-77189895D01*
X75630952Y-77189895D02*
X75554761Y-77227990D01*
X75554761Y-77227990D02*
X75516666Y-77266085D01*
X75516666Y-77266085D02*
X75440476Y-77380371D01*
X75440476Y-77380371D02*
X75402380Y-77532752D01*
X75402380Y-77532752D02*
X75402380Y-77837514D01*
X75402380Y-77837514D02*
X75440476Y-77913704D01*
X75440476Y-77913704D02*
X75478571Y-77951800D01*
X75478571Y-77951800D02*
X75554761Y-77989895D01*
X75554761Y-77989895D02*
X75707142Y-77989895D01*
X75707142Y-77989895D02*
X75783333Y-77951800D01*
X75783333Y-77951800D02*
X75821428Y-77913704D01*
X75821428Y-77913704D02*
X75859523Y-77837514D01*
X75859523Y-77837514D02*
X75859523Y-77647038D01*
X75859523Y-77647038D02*
X75821428Y-77570847D01*
X75821428Y-77570847D02*
X75783333Y-77532752D01*
X75783333Y-77532752D02*
X75707142Y-77494657D01*
X75707142Y-77494657D02*
X75554761Y-77494657D01*
X75554761Y-77494657D02*
X75478571Y-77532752D01*
X75478571Y-77532752D02*
X75440476Y-77570847D01*
X75440476Y-77570847D02*
X75402380Y-77647038D01*
X85516667Y-77663704D02*
X85478571Y-77701800D01*
X85478571Y-77701800D02*
X85364286Y-77739895D01*
X85364286Y-77739895D02*
X85288095Y-77739895D01*
X85288095Y-77739895D02*
X85173809Y-77701800D01*
X85173809Y-77701800D02*
X85097619Y-77625609D01*
X85097619Y-77625609D02*
X85059524Y-77549419D01*
X85059524Y-77549419D02*
X85021428Y-77397038D01*
X85021428Y-77397038D02*
X85021428Y-77282752D01*
X85021428Y-77282752D02*
X85059524Y-77130371D01*
X85059524Y-77130371D02*
X85097619Y-77054180D01*
X85097619Y-77054180D02*
X85173809Y-76977990D01*
X85173809Y-76977990D02*
X85288095Y-76939895D01*
X85288095Y-76939895D02*
X85364286Y-76939895D01*
X85364286Y-76939895D02*
X85478571Y-76977990D01*
X85478571Y-76977990D02*
X85516667Y-77016085D01*
X85973809Y-77282752D02*
X85897619Y-77244657D01*
X85897619Y-77244657D02*
X85859524Y-77206561D01*
X85859524Y-77206561D02*
X85821428Y-77130371D01*
X85821428Y-77130371D02*
X85821428Y-77092276D01*
X85821428Y-77092276D02*
X85859524Y-77016085D01*
X85859524Y-77016085D02*
X85897619Y-76977990D01*
X85897619Y-76977990D02*
X85973809Y-76939895D01*
X85973809Y-76939895D02*
X86126190Y-76939895D01*
X86126190Y-76939895D02*
X86202381Y-76977990D01*
X86202381Y-76977990D02*
X86240476Y-77016085D01*
X86240476Y-77016085D02*
X86278571Y-77092276D01*
X86278571Y-77092276D02*
X86278571Y-77130371D01*
X86278571Y-77130371D02*
X86240476Y-77206561D01*
X86240476Y-77206561D02*
X86202381Y-77244657D01*
X86202381Y-77244657D02*
X86126190Y-77282752D01*
X86126190Y-77282752D02*
X85973809Y-77282752D01*
X85973809Y-77282752D02*
X85897619Y-77320847D01*
X85897619Y-77320847D02*
X85859524Y-77358942D01*
X85859524Y-77358942D02*
X85821428Y-77435133D01*
X85821428Y-77435133D02*
X85821428Y-77587514D01*
X85821428Y-77587514D02*
X85859524Y-77663704D01*
X85859524Y-77663704D02*
X85897619Y-77701800D01*
X85897619Y-77701800D02*
X85973809Y-77739895D01*
X85973809Y-77739895D02*
X86126190Y-77739895D01*
X86126190Y-77739895D02*
X86202381Y-77701800D01*
X86202381Y-77701800D02*
X86240476Y-77663704D01*
X86240476Y-77663704D02*
X86278571Y-77587514D01*
X86278571Y-77587514D02*
X86278571Y-77435133D01*
X86278571Y-77435133D02*
X86240476Y-77358942D01*
X86240476Y-77358942D02*
X86202381Y-77320847D01*
X86202381Y-77320847D02*
X86126190Y-77282752D01*
X82838704Y-79014285D02*
X82876800Y-79052381D01*
X82876800Y-79052381D02*
X82914895Y-79166666D01*
X82914895Y-79166666D02*
X82914895Y-79242857D01*
X82914895Y-79242857D02*
X82876800Y-79357143D01*
X82876800Y-79357143D02*
X82800609Y-79433333D01*
X82800609Y-79433333D02*
X82724419Y-79471428D01*
X82724419Y-79471428D02*
X82572038Y-79509524D01*
X82572038Y-79509524D02*
X82457752Y-79509524D01*
X82457752Y-79509524D02*
X82305371Y-79471428D01*
X82305371Y-79471428D02*
X82229180Y-79433333D01*
X82229180Y-79433333D02*
X82152990Y-79357143D01*
X82152990Y-79357143D02*
X82114895Y-79242857D01*
X82114895Y-79242857D02*
X82114895Y-79166666D01*
X82114895Y-79166666D02*
X82152990Y-79052381D01*
X82152990Y-79052381D02*
X82191085Y-79014285D01*
X82191085Y-78709524D02*
X82152990Y-78671428D01*
X82152990Y-78671428D02*
X82114895Y-78595238D01*
X82114895Y-78595238D02*
X82114895Y-78404762D01*
X82114895Y-78404762D02*
X82152990Y-78328571D01*
X82152990Y-78328571D02*
X82191085Y-78290476D01*
X82191085Y-78290476D02*
X82267276Y-78252381D01*
X82267276Y-78252381D02*
X82343466Y-78252381D01*
X82343466Y-78252381D02*
X82457752Y-78290476D01*
X82457752Y-78290476D02*
X82914895Y-78747619D01*
X82914895Y-78747619D02*
X82914895Y-78252381D01*
X82114895Y-77985714D02*
X82114895Y-77452380D01*
X82114895Y-77452380D02*
X82914895Y-77795238D01*
X73585714Y-79263704D02*
X73547618Y-79301800D01*
X73547618Y-79301800D02*
X73433333Y-79339895D01*
X73433333Y-79339895D02*
X73357142Y-79339895D01*
X73357142Y-79339895D02*
X73242856Y-79301800D01*
X73242856Y-79301800D02*
X73166666Y-79225609D01*
X73166666Y-79225609D02*
X73128571Y-79149419D01*
X73128571Y-79149419D02*
X73090475Y-78997038D01*
X73090475Y-78997038D02*
X73090475Y-78882752D01*
X73090475Y-78882752D02*
X73128571Y-78730371D01*
X73128571Y-78730371D02*
X73166666Y-78654180D01*
X73166666Y-78654180D02*
X73242856Y-78577990D01*
X73242856Y-78577990D02*
X73357142Y-78539895D01*
X73357142Y-78539895D02*
X73433333Y-78539895D01*
X73433333Y-78539895D02*
X73547618Y-78577990D01*
X73547618Y-78577990D02*
X73585714Y-78616085D01*
X74347618Y-79339895D02*
X73890475Y-79339895D01*
X74119047Y-79339895D02*
X74119047Y-78539895D01*
X74119047Y-78539895D02*
X74042856Y-78654180D01*
X74042856Y-78654180D02*
X73966666Y-78730371D01*
X73966666Y-78730371D02*
X73890475Y-78768466D01*
X75033333Y-78806561D02*
X75033333Y-79339895D01*
X74842857Y-78501800D02*
X74652380Y-79073228D01*
X74652380Y-79073228D02*
X75147619Y-79073228D01*
D13*
%TO.C,R5*%
X81895000Y-93143641D02*
X81895000Y-92836359D01*
X82655000Y-93143641D02*
X82655000Y-92836359D01*
%TO.C,R10*%
X84018641Y-85670000D02*
X83711359Y-85670000D01*
X84018641Y-86430000D02*
X83711359Y-86430000D01*
%TO.C,U4*%
X65252500Y-86340000D02*
X67072500Y-86340000D01*
X65252500Y-86390000D02*
X65252500Y-86340000D01*
X65252500Y-89460000D02*
X65252500Y-89410000D01*
X67072500Y-86340000D02*
X67072500Y-86390000D01*
X67072500Y-89410000D02*
X67072500Y-89460000D01*
X67072500Y-89460000D02*
X65252500Y-89460000D01*
X64712500Y-86390000D02*
X64472500Y-86060000D01*
X64952500Y-86060000D01*
X64712500Y-86390000D01*
G36*
X64712500Y-86390000D02*
G01*
X64472500Y-86060000D01*
X64952500Y-86060000D01*
X64712500Y-86390000D01*
G37*
D14*
%TO.C,J2*%
X85695000Y-79878400D02*
X85695000Y-97458400D01*
X85695000Y-79878400D02*
X94985000Y-79878400D01*
X85695000Y-97458400D02*
X94985000Y-97458400D01*
X97985000Y-79878400D02*
X106905000Y-79878400D01*
X97985000Y-97458400D02*
X106905000Y-97458400D01*
D15*
X89981000Y-79168400D02*
G75*
G02*
X89781000Y-79168400I-100000J0D01*
G01*
X89781000Y-79168400D02*
G75*
G02*
X89981000Y-79168400I100000J0D01*
G01*
D13*
%TO.C,U3*%
X69090000Y-90902500D02*
X69140000Y-90902500D01*
X69090000Y-92722500D02*
X69090000Y-90902500D01*
X69140000Y-92722500D02*
X69090000Y-92722500D01*
X72160000Y-90902500D02*
X72210000Y-90902500D01*
X72210000Y-90902500D02*
X72210000Y-92722500D01*
X72210000Y-92722500D02*
X72160000Y-92722500D01*
X69140000Y-93262500D02*
X68810000Y-93502500D01*
X68810000Y-93022500D01*
X69140000Y-93262500D01*
G36*
X69140000Y-93262500D02*
G01*
X68810000Y-93502500D01*
X68810000Y-93022500D01*
X69140000Y-93262500D01*
G37*
%TO.C,C25*%
X81052836Y-82490000D02*
X80837164Y-82490000D01*
X81052836Y-83210000D02*
X80837164Y-83210000D01*
%TO.C,C7*%
X90237164Y-76940000D02*
X90452836Y-76940000D01*
X90237164Y-77660000D02*
X90452836Y-77660000D01*
%TO.C,C13*%
X71665000Y-87712164D02*
X71665000Y-87927836D01*
X72385000Y-87712164D02*
X72385000Y-87927836D01*
%TO.C,R7*%
X84068641Y-88420000D02*
X83761359Y-88420000D01*
X84068641Y-89180000D02*
X83761359Y-89180000D01*
%TO.C,C6*%
X84515000Y-96122164D02*
X84515000Y-96337836D01*
X85235000Y-96122164D02*
X85235000Y-96337836D01*
%TO.C,U2*%
X63675000Y-78390000D02*
X67435000Y-78390000D01*
X63675000Y-85210000D02*
X67435000Y-85210000D01*
X67435000Y-78390000D02*
X67435000Y-79650000D01*
X67435000Y-85210000D02*
X67435000Y-83950000D01*
X62395000Y-78490000D02*
X62155000Y-78160000D01*
X62635000Y-78160000D01*
X62395000Y-78490000D01*
G36*
X62395000Y-78490000D02*
G01*
X62155000Y-78160000D01*
X62635000Y-78160000D01*
X62395000Y-78490000D01*
G37*
%TO.C,C2*%
X60152836Y-79790000D02*
X59937164Y-79790000D01*
X60152836Y-80510000D02*
X59937164Y-80510000D01*
%TO.C,R8*%
X83968641Y-90070000D02*
X83661359Y-90070000D01*
X83968641Y-90830000D02*
X83661359Y-90830000D01*
%TO.C,C12*%
X70602836Y-87790000D02*
X70387164Y-87790000D01*
X70602836Y-88510000D02*
X70387164Y-88510000D01*
%TO.C,C21*%
X78497164Y-93290000D02*
X78712836Y-93290000D01*
X78497164Y-94010000D02*
X78712836Y-94010000D01*
%TO.C,C4*%
X64652836Y-90090000D02*
X64437164Y-90090000D01*
X64652836Y-90810000D02*
X64437164Y-90810000D01*
%TO.C,U6*%
X61615000Y-93750000D02*
X61615000Y-97510000D01*
X61615000Y-97510000D02*
X62875000Y-97510000D01*
X68435000Y-93750000D02*
X68435000Y-97510000D01*
X68435000Y-97510000D02*
X67175000Y-97510000D01*
X68665000Y-92710000D02*
X68335000Y-92470000D01*
X68665000Y-92230000D01*
X68665000Y-92710000D01*
G36*
X68665000Y-92710000D02*
G01*
X68335000Y-92470000D01*
X68665000Y-92230000D01*
X68665000Y-92710000D01*
G37*
%TO.C,R12*%
X83838641Y-84670000D02*
X83531359Y-84670000D01*
X83838641Y-85430000D02*
X83531359Y-85430000D01*
%TO.C,R2*%
X80361359Y-93270000D02*
X80668641Y-93270000D01*
X80361359Y-94030000D02*
X80668641Y-94030000D01*
%TO.C,R4*%
X102161359Y-99870000D02*
X102468641Y-99870000D01*
X102161359Y-100630000D02*
X102468641Y-100630000D01*
%TO.C,C19*%
X66837164Y-90090000D02*
X67052836Y-90090000D01*
X66837164Y-90810000D02*
X67052836Y-90810000D01*
%TO.C,C23*%
X70602836Y-86790000D02*
X70387164Y-86790000D01*
X70602836Y-87510000D02*
X70387164Y-87510000D01*
%TO.C,C9*%
X79365000Y-95272164D02*
X79365000Y-95487836D01*
X80085000Y-95272164D02*
X80085000Y-95487836D01*
%TO.C,R11*%
X82045000Y-83386359D02*
X82045000Y-83693641D01*
X82805000Y-83386359D02*
X82805000Y-83693641D01*
%TO.C,R13*%
X80695000Y-95563641D02*
X80695000Y-95256359D01*
X81455000Y-95563641D02*
X81455000Y-95256359D01*
D14*
%TO.C,J1*%
X54450000Y-81900000D02*
X55255000Y-81900000D01*
X54450000Y-93900000D02*
X54450000Y-81900000D01*
X55255000Y-93900000D02*
X54450000Y-93900000D01*
D15*
X60050000Y-92900000D02*
G75*
G02*
X59850000Y-92900000I-100000J0D01*
G01*
X59850000Y-92900000D02*
G75*
G02*
X60050000Y-92900000I100000J0D01*
G01*
D13*
%TO.C,C11*%
X76787836Y-93365000D02*
X76572164Y-93365000D01*
X76787836Y-94085000D02*
X76572164Y-94085000D01*
%TO.C,R6*%
X83318641Y-91070000D02*
X83011359Y-91070000D01*
X83318641Y-91830000D02*
X83011359Y-91830000D01*
%TO.C,C3*%
X62337164Y-90090000D02*
X62552836Y-90090000D01*
X62337164Y-90810000D02*
X62552836Y-90810000D01*
%TO.C,R9*%
X83968641Y-87370000D02*
X83661359Y-87370000D01*
X83968641Y-88130000D02*
X83661359Y-88130000D01*
%TO.C,C22*%
X70412836Y-88840000D02*
X70197164Y-88840000D01*
X70412836Y-89560000D02*
X70197164Y-89560000D01*
%TO.C,C20*%
X71452836Y-84640000D02*
X71237164Y-84640000D01*
X71452836Y-85360000D02*
X71237164Y-85360000D01*
%TO.C,C24*%
X76915000Y-82577836D02*
X76915000Y-82362164D01*
X77635000Y-82577836D02*
X77635000Y-82362164D01*
%TO.C,C5*%
X84465000Y-94357836D02*
X84465000Y-94142164D01*
X85185000Y-94357836D02*
X85185000Y-94142164D01*
%TO.C,R1*%
X78795000Y-82336359D02*
X78795000Y-82643641D01*
X79555000Y-82336359D02*
X79555000Y-82643641D01*
%TO.C,C10*%
X73552836Y-93190000D02*
X73337164Y-93190000D01*
X73552836Y-93910000D02*
X73337164Y-93910000D01*
%TO.C,R3*%
X100261359Y-76970000D02*
X100568641Y-76970000D01*
X100261359Y-77730000D02*
X100568641Y-77730000D01*
%TO.C,C15*%
X75815000Y-82537836D02*
X75815000Y-82322164D01*
X76535000Y-82537836D02*
X76535000Y-82322164D01*
%TO.C,C18*%
X71652836Y-85740000D02*
X71437164Y-85740000D01*
X71652836Y-86460000D02*
X71437164Y-86460000D01*
%TO.C,C1*%
X62952836Y-85690000D02*
X62737164Y-85690000D01*
X62952836Y-86410000D02*
X62737164Y-86410000D01*
%TO.C,C26*%
X75565000Y-79962164D02*
X75565000Y-80177836D01*
X76285000Y-79962164D02*
X76285000Y-80177836D01*
%TO.C,C8*%
X87737164Y-76940000D02*
X87952836Y-76940000D01*
X87737164Y-77660000D02*
X87952836Y-77660000D01*
%TO.C,U1*%
X73150000Y-84045000D02*
X73625000Y-84045000D01*
X73150000Y-84520000D02*
X73150000Y-84045000D01*
X73150000Y-92265000D02*
X73150000Y-91790000D01*
X73625000Y-92265000D02*
X73150000Y-92265000D01*
X80895000Y-84045000D02*
X81370000Y-84045000D01*
X81370000Y-84045000D02*
X81370000Y-84520000D01*
X81370000Y-91790000D02*
X81370000Y-92265000D01*
X81370000Y-92265000D02*
X80895000Y-92265000D01*
X80510000Y-83515000D02*
X80270000Y-83185000D01*
X80750000Y-83185000D01*
X80510000Y-83515000D01*
G36*
X80510000Y-83515000D02*
G01*
X80270000Y-83185000D01*
X80750000Y-83185000D01*
X80510000Y-83515000D01*
G37*
%TO.C,SW1*%
X70725000Y-94495000D02*
X70725000Y-94525000D01*
X70725000Y-99025000D02*
X70725000Y-96425000D01*
X70725000Y-100955000D02*
X70725000Y-100925000D01*
X77185000Y-94495000D02*
X70725000Y-94495000D01*
X77185000Y-94495000D02*
X77185000Y-94525000D01*
X77185000Y-99025000D02*
X77185000Y-96425000D01*
X77185000Y-100925000D02*
X77185000Y-100955000D01*
X77185000Y-100955000D02*
X70725000Y-100955000D01*
%TO.C,C27*%
X80990000Y-79337836D02*
X80990000Y-79122164D01*
X81710000Y-79337836D02*
X81710000Y-79122164D01*
%TO.C,C14*%
X74302836Y-80140000D02*
X74087164Y-80140000D01*
X74302836Y-80860000D02*
X74087164Y-80860000D01*
%TO.C,Y1*%
X76465000Y-77790000D02*
X76465000Y-81410000D01*
X76465000Y-81410000D02*
X80785000Y-81410000D01*
%TD*%
M02*
