%TF.GenerationSoftware,KiCad,Pcbnew,9.0.7*%
%TF.CreationDate,2026-02-23T15:22:57-05:00*%
%TF.ProjectId,USBToEthernet,55534254-6f45-4746-9865-726e65742e6b,rev?*%
%TF.SameCoordinates,Original*%
%TF.FileFunction,Paste,Top*%
%TF.FilePolarity,Positive*%
%FSLAX46Y46*%
G04 Gerber Fmt 4.6, Leading zero omitted, Abs format (unit mm)*
G04 Created by KiCad (PCBNEW 9.0.7) date 2026-02-23 15:22:57*
%MOMM*%
%LPD*%
G01*
G04 APERTURE LIST*
G04 Aperture macros list*
%AMRoundRect*
0 Rectangle with rounded corners*
0 $1 Rounding radius*
0 $2 $3 $4 $5 $6 $7 $8 $9 X,Y pos of 4 corners*
0 Add a 4 corners polygon primitive as box body*
4,1,4,$2,$3,$4,$5,$6,$7,$8,$9,$2,$3,0*
0 Add four circle primitives for the rounded corners*
1,1,$1+$1,$2,$3*
1,1,$1+$1,$4,$5*
1,1,$1+$1,$6,$7*
1,1,$1+$1,$8,$9*
0 Add four rect primitives between the rounded corners*
20,1,$1+$1,$2,$3,$4,$5,0*
20,1,$1+$1,$4,$5,$6,$7,0*
20,1,$1+$1,$6,$7,$8,$9,0*
20,1,$1+$1,$8,$9,$2,$3,0*%
G04 Aperture macros list end*
%ADD10RoundRect,0.200000X-0.200000X-0.275000X0.200000X-0.275000X0.200000X0.275000X-0.200000X0.275000X0*%
%ADD11RoundRect,0.200000X-0.275000X0.200000X-0.275000X-0.200000X0.275000X-0.200000X0.275000X0.200000X0*%
%ADD12RoundRect,0.150000X0.512500X0.150000X-0.512500X0.150000X-0.512500X-0.150000X0.512500X-0.150000X0*%
%ADD13RoundRect,0.250000X0.400000X-0.525000X0.400000X0.525000X-0.400000X0.525000X-0.400000X-0.525000X0*%
%ADD14RoundRect,0.250000X-0.345000X0.345000X-0.345000X-0.345000X0.345000X-0.345000X0.345000X0.345000X0*%
%ADD15RoundRect,0.062500X-0.062500X0.375000X-0.062500X-0.375000X0.062500X-0.375000X0.062500X0.375000X0*%
%ADD16RoundRect,0.062500X-0.375000X0.062500X-0.375000X-0.062500X0.375000X-0.062500X0.375000X0.062500X0*%
%ADD17RoundRect,0.200000X0.275000X-0.200000X0.275000X0.200000X-0.275000X0.200000X-0.275000X-0.200000X0*%
%ADD18RoundRect,0.225000X-0.250000X0.225000X-0.250000X-0.225000X0.250000X-0.225000X0.250000X0.225000X0*%
%ADD19RoundRect,0.225000X0.225000X0.250000X-0.225000X0.250000X-0.225000X-0.250000X0.225000X-0.250000X0*%
%ADD20RoundRect,0.375000X-0.375000X0.625000X-0.375000X-0.625000X0.375000X-0.625000X0.375000X0.625000X0*%
%ADD21RoundRect,0.500000X-1.400000X0.500000X-1.400000X-0.500000X1.400000X-0.500000X1.400000X0.500000X0*%
%ADD22RoundRect,0.225000X0.250000X-0.225000X0.250000X0.225000X-0.250000X0.225000X-0.250000X-0.225000X0*%
%ADD23RoundRect,0.150000X-0.512500X-0.150000X0.512500X-0.150000X0.512500X0.150000X-0.512500X0.150000X0*%
%ADD24RoundRect,0.250000X-0.450000X-0.350000X0.450000X-0.350000X0.450000X0.350000X-0.450000X0.350000X0*%
%ADD25RoundRect,0.200000X0.200000X0.275000X-0.200000X0.275000X-0.200000X-0.275000X0.200000X-0.275000X0*%
%ADD26RoundRect,0.375000X-0.625000X-0.375000X0.625000X-0.375000X0.625000X0.375000X-0.625000X0.375000X0*%
%ADD27RoundRect,0.500000X-0.500000X-1.400000X0.500000X-1.400000X0.500000X1.400000X-0.500000X1.400000X0*%
%ADD28RoundRect,0.218750X-0.256250X0.218750X-0.256250X-0.218750X0.256250X-0.218750X0.256250X0.218750X0*%
%ADD29R,2.000000X1.200000*%
G04 APERTURE END LIST*
D10*
%TO.C,R3*%
X116675000Y-76500000D03*
X118325000Y-76500000D03*
%TD*%
D11*
%TO.C,R12*%
X95500000Y-81050000D03*
X95500000Y-82700000D03*
%TD*%
D12*
%TO.C,U3*%
X80400000Y-91850000D03*
X80400000Y-90900000D03*
X80400000Y-89950000D03*
X78125000Y-89950000D03*
X78125000Y-90900000D03*
X78125000Y-91850000D03*
%TD*%
D13*
%TO.C,SW1*%
X77350000Y-101860000D03*
X77350000Y-93900000D03*
X81850000Y-101860000D03*
X81850000Y-93900000D03*
%TD*%
D14*
%TO.C,U1*%
X90520000Y-85280000D03*
X89040000Y-85280000D03*
X87560000Y-85280000D03*
X86080000Y-85280000D03*
X90520000Y-86760000D03*
X89040000Y-86760000D03*
X87560000Y-86760000D03*
X86080000Y-86760000D03*
X90520000Y-88240000D03*
X89040000Y-88240000D03*
X87560000Y-88240000D03*
X86080000Y-88240000D03*
X90520000Y-89720000D03*
X89040000Y-89720000D03*
X87560000Y-89720000D03*
X86080000Y-89720000D03*
D15*
X91550000Y-83562500D03*
X91050000Y-83562500D03*
X90550000Y-83562500D03*
X90050000Y-83562500D03*
X89550000Y-83562500D03*
X89050000Y-83562500D03*
X88550000Y-83562500D03*
X88050000Y-83562500D03*
X87550000Y-83562500D03*
X87050000Y-83562500D03*
X86550000Y-83562500D03*
X86050000Y-83562500D03*
X85550000Y-83562500D03*
X85050000Y-83562500D03*
D16*
X84362500Y-84250000D03*
X84362500Y-84750000D03*
X84362500Y-85250000D03*
X84362500Y-85750000D03*
X84362500Y-86250000D03*
X84362500Y-86750000D03*
X84362500Y-87250000D03*
X84362500Y-87750000D03*
X84362500Y-88250000D03*
X84362500Y-88750000D03*
X84362500Y-89250000D03*
X84362500Y-89750000D03*
X84362500Y-90250000D03*
X84362500Y-90750000D03*
D15*
X85050000Y-91437500D03*
X85550000Y-91437500D03*
X86050000Y-91437500D03*
X86550000Y-91437500D03*
X87050000Y-91437500D03*
X87550000Y-91437500D03*
X88050000Y-91437500D03*
X88550000Y-91437500D03*
X89050000Y-91437500D03*
X89550000Y-91437500D03*
X90050000Y-91437500D03*
X90550000Y-91437500D03*
X91050000Y-91437500D03*
X91550000Y-91437500D03*
D16*
X92237500Y-90750000D03*
X92237500Y-90250000D03*
X92237500Y-89750000D03*
X92237500Y-89250000D03*
X92237500Y-88750000D03*
X92237500Y-88250000D03*
X92237500Y-87750000D03*
X92237500Y-87250000D03*
X92237500Y-86750000D03*
X92237500Y-86250000D03*
X92237500Y-85750000D03*
X92237500Y-85250000D03*
X92237500Y-84750000D03*
X92237500Y-84250000D03*
%TD*%
D17*
%TO.C,R5*%
X93400000Y-93850000D03*
X93400000Y-92200000D03*
%TD*%
D18*
%TO.C,C13*%
X88100000Y-93525000D03*
X88100000Y-95075000D03*
%TD*%
D17*
%TO.C,R13*%
X83900000Y-102100000D03*
X83900000Y-100450000D03*
%TD*%
D19*
%TO.C,C19*%
X74800000Y-90300000D03*
X73250000Y-90300000D03*
%TD*%
D20*
%TO.C,U6*%
X74300000Y-92750000D03*
X72000000Y-92750000D03*
D21*
X72000000Y-99050000D03*
D20*
X69700000Y-92750000D03*
%TD*%
D18*
%TO.C,C3*%
X67400000Y-92700000D03*
X67400000Y-94250000D03*
%TD*%
D19*
%TO.C,C14*%
X82125000Y-86600000D03*
X80575000Y-86600000D03*
%TD*%
D22*
%TO.C,C11*%
X87160000Y-81040000D03*
X87160000Y-79490000D03*
%TD*%
D11*
%TO.C,R1*%
X83700000Y-79000000D03*
X83700000Y-80650000D03*
%TD*%
D23*
%TO.C,U4*%
X73862500Y-86550000D03*
X73862500Y-87500000D03*
X73862500Y-88450000D03*
X76137500Y-88450000D03*
X76137500Y-87500000D03*
X76137500Y-86550000D03*
%TD*%
D22*
%TO.C,C9*%
X83950000Y-98650000D03*
X83950000Y-97100000D03*
%TD*%
D24*
%TO.C,Y1*%
X90700000Y-79500000D03*
X93100000Y-79500000D03*
X93100000Y-77600000D03*
X90700000Y-77600000D03*
%TD*%
D10*
%TO.C,R4*%
X115264000Y-99510000D03*
X116914000Y-99510000D03*
%TD*%
D19*
%TO.C,C15*%
X82140000Y-88100000D03*
X80590000Y-88100000D03*
%TD*%
D18*
%TO.C,C5*%
X98714000Y-94335000D03*
X98714000Y-95885000D03*
%TD*%
D19*
%TO.C,C18*%
X82100000Y-84900000D03*
X80550000Y-84900000D03*
%TD*%
D11*
%TO.C,R11*%
X93700000Y-81800000D03*
X93700000Y-83450000D03*
%TD*%
D17*
%TO.C,R6*%
X94925000Y-93450000D03*
X94925000Y-91800000D03*
%TD*%
D22*
%TO.C,C1*%
X68750000Y-82950000D03*
X68750000Y-81400000D03*
%TD*%
%TO.C,C27*%
X94925000Y-79325000D03*
X94925000Y-77775000D03*
%TD*%
D25*
%TO.C,R10*%
X96900000Y-84700000D03*
X95250000Y-84700000D03*
%TD*%
D22*
%TO.C,C8*%
X98800000Y-80500000D03*
X98800000Y-78950000D03*
%TD*%
D25*
%TO.C,R9*%
X96800000Y-86700000D03*
X95150000Y-86700000D03*
%TD*%
D22*
%TO.C,C26*%
X88800000Y-79350000D03*
X88800000Y-77800000D03*
%TD*%
D26*
%TO.C,U2*%
X71000000Y-78100000D03*
X71000000Y-80400000D03*
D27*
X77300000Y-80400000D03*
D26*
X71000000Y-82700000D03*
%TD*%
D18*
%TO.C,C21*%
X89800000Y-93575000D03*
X89800000Y-95125000D03*
%TD*%
D25*
%TO.C,R7*%
X96250000Y-88200000D03*
X94600000Y-88200000D03*
%TD*%
D18*
%TO.C,C12*%
X85000000Y-93400000D03*
X85000000Y-94950000D03*
%TD*%
D19*
%TO.C,C7*%
X104289000Y-76410000D03*
X102739000Y-76410000D03*
%TD*%
%TO.C,C6*%
X104064000Y-99510000D03*
X102514000Y-99510000D03*
%TD*%
D28*
%TO.C,FB4*%
X97200000Y-78025000D03*
X97200000Y-79600000D03*
%TD*%
D17*
%TO.C,R2*%
X91700000Y-95575000D03*
X91700000Y-93925000D03*
%TD*%
D19*
%TO.C,C20*%
X82900000Y-83400000D03*
X81350000Y-83400000D03*
%TD*%
D25*
%TO.C,R8*%
X96400000Y-90300000D03*
X94750000Y-90300000D03*
%TD*%
D22*
%TO.C,C10*%
X85500000Y-80650000D03*
X85500000Y-79100000D03*
%TD*%
D29*
%TO.C,J1*%
X65150000Y-91400000D03*
X65150000Y-88900000D03*
X65150000Y-86900000D03*
X65150000Y-84400000D03*
%TD*%
D19*
%TO.C,C4*%
X71500000Y-90300000D03*
X69950000Y-90300000D03*
%TD*%
D22*
%TO.C,C2*%
X68750000Y-79600000D03*
X68750000Y-78050000D03*
%TD*%
M02*
